<svg width="189" height="190" viewBox="0 0 189 190" fill="none" xmlns="http://www.w3.org/2000/svg">
<g clip-path="url(#clip0_2286_9121)">
<g opacity="0.2">
<path d="M88.4165 160.941C88.0971 162.219 87.3598 163.353 86.3217 164.164C85.2837 164.974 84.0045 165.415 82.6874 165.415C82.1898 165.417 81.6938 165.358 81.2109 165.238L57.5859 159.332C56.9281 159.166 56.3038 158.889 55.7402 158.512L38.0214 146.7C36.7183 145.83 35.814 144.479 35.5073 142.943C35.2006 141.407 35.5167 139.811 36.3861 138.508C37.2555 137.205 38.6069 136.301 40.143 135.994C41.6792 135.688 43.2743 136.004 44.5773 136.873L61.4397 148.117L84.0754 153.78C84.8317 153.963 85.5443 154.294 86.1722 154.754C86.8002 155.213 87.3311 155.793 87.7345 156.458C88.1379 157.123 88.4059 157.862 88.5229 158.631C88.6399 159.401 88.6038 160.186 88.4165 160.941ZM186.379 89.7265C185.894 91.1984 185.123 92.5598 184.109 93.732C183.095 94.9041 181.86 95.8638 180.473 96.5555L162.99 105.297L122.326 145.969C121.604 146.69 120.708 147.211 119.725 147.483C118.741 147.755 117.704 147.767 116.715 147.519L69.4648 135.707C68.7463 135.526 68.0677 135.213 67.4641 134.784L26.4747 105.518L8.54922 96.5555C5.7477 95.1551 3.61706 92.6993 2.62579 89.7283C1.63451 86.7572 1.86376 83.5141 3.26312 80.712L21.6094 44.0268C23.0099 41.2253 25.4656 39.0947 28.4367 38.1034C31.4077 37.1121 34.6509 37.3414 37.4529 38.7407L53.7394 46.8618L92.8683 35.6843C93.9298 35.3806 95.0552 35.3806 96.1168 35.6843L135.246 46.8618L151.532 38.7407C154.334 37.3414 157.577 37.1121 160.548 38.1034C163.519 39.0947 165.975 41.2253 167.376 44.0268L185.722 80.712C186.422 82.0966 186.84 83.6062 186.953 85.1535C187.066 86.7007 186.871 88.255 186.379 89.7265ZM152.285 99.2798L132.197 59.1025H108.704L76.7812 90.1104C86.1278 96.0831 100.783 97.7294 113.931 84.4773C114.958 83.4422 116.332 82.8235 117.788 82.7404C119.243 82.6572 120.678 83.1155 121.816 84.0269L147.221 104.381L152.285 99.2798ZM13.8279 85.9907L26.8881 92.5245L45.2344 55.8393L32.1742 49.3056L13.8279 85.9907ZM138.797 112.746L118.339 96.3636C103.913 108.176 85.5962 109.734 70.4172 100.055C68.9241 99.1052 67.6634 97.8321 66.7284 96.3297C65.7933 94.8273 65.2078 93.134 65.015 91.3749C64.8222 89.6158 65.0272 87.8359 65.6146 86.1667C66.2021 84.4974 67.1571 82.9815 68.4091 81.7309C68.4268 81.7094 68.4466 81.6896 68.4681 81.6718L101.587 49.5492L94.4999 47.5263L57.2758 58.1649L37.069 98.5711L73.3925 124.522L116.316 135.249L138.797 112.746ZM175.15 85.9907L156.826 49.3056L143.765 55.8393L162.112 92.5245L175.15 85.9907Z" fill="white"/>
</g>
</g>
<defs>
<clipPath id="clip0_2286_9121">
<rect width="189" height="189" fill="white" transform="translate(0 0.0400391)"/>
</clipPath>
</defs>
</svg>
