<svg width="24" height="25" viewBox="0 0 24 25" fill="none" xmlns="http://www.w3.org/2000/svg">
<g clip-path="url(#clip0_2286_9122)">
<path d="M21.0459 13.296L14.2959 20.046C14.0846 20.2573 13.7979 20.3761 13.4991 20.3761C13.2002 20.3761 12.9135 20.2573 12.7022 20.046C12.4908 19.8346 12.3721 19.548 12.3721 19.2491C12.3721 18.9502 12.4908 18.6636 12.7022 18.4522L17.5312 13.625H3.75C3.45163 13.625 3.16548 13.5065 2.9545 13.2955C2.74353 13.0846 2.625 12.7984 2.625 12.5C2.625 12.2017 2.74353 11.9155 2.9545 11.7045C3.16548 11.4936 3.45163 11.375 3.75 11.375H17.5312L12.7041 6.54504C12.4927 6.3337 12.374 6.04705 12.374 5.74817C12.374 5.44928 12.4927 5.16264 12.7041 4.95129C12.9154 4.73995 13.2021 4.62122 13.5009 4.62122C13.7998 4.62122 14.0865 4.73995 14.2978 4.95129L21.0478 11.7013C21.1527 11.8059 21.2359 11.9303 21.2926 12.0672C21.3493 12.2041 21.3784 12.3508 21.3782 12.499C21.3781 12.6472 21.3486 12.7939 21.2916 12.9307C21.2346 13.0674 21.1511 13.1916 21.0459 13.296Z" fill="white"/>
</g>
<defs>
<clipPath id="clip0_2286_9122">
<rect width="24" height="24" fill="white" transform="translate(0 0.5)"/>
</clipPath>
</defs>
</svg>
