<svg width="28" height="28" viewBox="0 0 28 28" fill="none" xmlns="http://www.w3.org/2000/svg">
<path d="M14 2.62524C11.7502 2.62524 9.551 3.29238 7.68039 4.54228C5.80978 5.79218 4.35182 7.56871 3.49088 9.64722C2.62993 11.7257 2.40467 14.0129 2.84357 16.2194C3.28248 18.4259 4.36584 20.4528 5.95667 22.0436C7.54749 23.6344 9.57432 24.7178 11.7809 25.1567C13.9874 25.5956 16.2745 25.3703 18.353 24.5094C20.4315 23.6484 22.2081 22.1905 23.458 20.3199C24.7079 18.4492 25.375 16.25 25.375 14.0002C25.3712 10.9846 24.1716 8.09347 22.0392 5.96106C19.9068 3.82865 17.0157 2.62901 14 2.62524ZM17.9856 14.7287L12.7356 18.2287C12.5916 18.3241 12.4228 18.3751 12.25 18.3752C12.0179 18.3752 11.7954 18.2831 11.6313 18.119C11.4672 17.9549 11.375 17.7323 11.375 17.5002V10.5002C11.3749 10.3418 11.4178 10.1863 11.4992 10.0503C11.5806 9.91437 11.6973 9.80306 11.837 9.72827C11.9767 9.65348 12.1341 9.61803 12.2923 9.6257C12.4506 9.63337 12.6038 9.68387 12.7356 9.77181L17.9856 13.2718C18.1057 13.3517 18.2041 13.46 18.2722 13.5871C18.3402 13.7141 18.3759 13.8561 18.3759 14.0002C18.3759 14.1444 18.3402 14.2863 18.2722 14.4134C18.2041 14.5405 18.1057 14.6488 17.9856 14.7287Z" fill="white"/>
</svg>
