<svg width="65" height="64" viewBox="0 0 65 64" fill="none" xmlns="http://www.w3.org/2000/svg">
<path d="M60.3575 33.25L52.3575 13.25C52.1814 12.8095 51.8543 12.4459 51.4349 12.2242C51.0154 12.0026 50.5307 11.9373 50.0675 12.04L34.5 15.5V10C34.5 9.46957 34.2893 8.96086 33.9143 8.58579C33.5392 8.21071 33.0305 8 32.5 8C31.9696 8 31.4609 8.21071 31.0858 8.58579C30.7108 8.96086 30.5 9.46957 30.5 10V16.395L14.065 20.0475C13.7482 20.1175 13.4531 20.2635 13.2053 20.473C12.9574 20.6825 12.7643 20.9492 12.6425 21.25V21.265L4.64254 41.25C4.54684 41.4884 4.49844 41.7431 4.50004 42C4.50004 47.8275 10.635 50 14.5 50C18.365 50 24.5 47.8275 24.5 42C24.5016 41.7431 24.4532 41.4884 24.3575 41.25L17.23 23.4425L30.5 20.5V52H26.5C25.9696 52 25.4609 52.2107 25.0858 52.5858C24.7108 52.9609 24.5 53.4696 24.5 54C24.5 54.5304 24.7108 55.0391 25.0858 55.4142C25.4609 55.7893 25.9696 56 26.5 56H38.5C39.0305 56 39.5392 55.7893 39.9143 55.4142C40.2893 55.0391 40.5 54.5304 40.5 54C40.5 53.4696 40.2893 52.9609 39.9143 52.5858C39.5392 52.2107 39.0305 52 38.5 52H34.5V19.605L47.25 16.775L40.6425 33.25C40.5468 33.4884 40.4984 33.7431 40.5 34C40.5 39.8275 46.635 42 50.5 42C54.365 42 60.5 39.8275 60.5 34C60.5016 33.7431 60.4532 33.4884 60.3575 33.25ZM14.5 46C12.6175 46 8.81004 45.0975 8.51754 42.34L14.5 27.385L20.4825 42.34C20.19 45.0975 16.3825 46 14.5 46ZM50.5 38C48.6175 38 44.81 37.0975 44.5175 34.34L50.5 19.385L56.4825 34.34C56.19 37.0975 52.3825 38 50.5 38Z" fill="#343C4A"/>
</svg>
