<svg width="65" height="64" viewBox="0 0 65 64" fill="none" xmlns="http://www.w3.org/2000/svg">
<path d="M56.965 25.705C56.0225 24.72 55.0475 23.705 54.68 22.8125C54.34 21.995 54.32 20.64 54.3 19.3275C54.2625 16.8875 54.2225 14.1225 52.3 12.2C50.3775 10.2775 47.6125 10.2375 45.1725 10.2C43.86 10.18 42.505 10.16 41.6875 9.82C40.7975 9.4525 39.78 8.4775 38.795 7.535C37.07 5.8775 35.11 4 32.5 4C29.89 4 27.9325 5.8775 26.205 7.535C25.22 8.4775 24.205 9.4525 23.3125 9.82C22.5 10.16 21.14 10.18 19.8275 10.2C17.3875 10.2375 14.6225 10.2775 12.7 12.2C10.7775 14.1225 10.75 16.8875 10.7 19.3275C10.68 20.64 10.66 21.995 10.32 22.8125C9.9525 23.7025 8.9775 24.72 8.035 25.705C6.3775 27.43 4.5 29.39 4.5 32C4.5 34.61 6.3775 36.5675 8.035 38.295C8.9775 39.28 9.9525 40.295 10.32 41.1875C10.66 42.005 10.68 43.36 10.7 44.6725C10.7375 47.1125 10.7775 49.8775 12.7 51.8C14.6225 53.7225 17.3875 53.7625 19.8275 53.8C21.14 53.82 22.495 53.84 23.3125 54.18C24.2025 54.5475 25.22 55.5225 26.205 56.465C27.93 58.1225 29.89 60 32.5 60C35.11 60 37.0675 58.1225 38.795 56.465C39.78 55.5225 40.795 54.5475 41.6875 54.18C42.505 53.84 43.86 53.82 45.1725 53.8C47.6125 53.7625 50.3775 53.7225 52.3 51.8C54.2225 49.8775 54.2625 47.1125 54.3 44.6725C54.32 43.36 54.34 42.005 54.68 41.1875C55.0475 40.2975 56.0225 39.28 56.965 38.295C58.6225 36.57 60.5 34.61 60.5 32C60.5 29.39 58.6225 27.4325 56.965 25.705ZM54.0775 35.5275C52.88 36.7775 51.64 38.07 50.9825 39.6575C50.3525 41.1825 50.325 42.925 50.3 44.6125C50.275 46.3625 50.2475 48.195 49.47 48.97C48.6925 49.745 46.8725 49.775 45.1125 49.8C43.425 49.825 41.6825 49.8525 40.1575 50.4825C38.57 51.14 37.2775 52.38 36.0275 53.5775C34.7775 54.775 33.5 56 32.5 56C31.5 56 30.2125 54.77 28.9725 53.5775C27.7325 52.385 26.43 51.14 24.8425 50.4825C23.3175 49.8525 21.575 49.825 19.8875 49.8C18.1375 49.775 16.305 49.7475 15.53 48.97C14.755 48.1925 14.725 46.3725 14.7 44.6125C14.675 42.925 14.6475 41.1825 14.0175 39.6575C13.36 38.07 12.12 36.7775 10.9225 35.5275C9.725 34.2775 8.5 33 8.5 32C8.5 31 9.73 29.7125 10.9225 28.4725C12.115 27.2325 13.36 25.93 14.0175 24.3425C14.6475 22.8175 14.675 21.075 14.7 19.3875C14.725 17.6375 14.7525 15.805 15.53 15.03C16.3075 14.255 18.1275 14.225 19.8875 14.2C21.575 14.175 23.3175 14.1475 24.8425 13.5175C26.43 12.86 27.7225 11.62 28.9725 10.4225C30.2225 9.225 31.5 8 32.5 8C33.5 8 34.7875 9.23 36.0275 10.4225C37.2675 11.615 38.57 12.86 40.1575 13.5175C41.6825 14.1475 43.425 14.175 45.1125 14.2C46.8625 14.225 48.695 14.2525 49.47 15.03C50.245 15.8075 50.275 17.6275 50.3 19.3875C50.325 21.075 50.3525 22.8175 50.9825 24.3425C51.64 25.93 52.88 27.2225 54.0775 28.4725C55.275 29.7225 56.5 31 56.5 32C56.5 33 55.27 34.2875 54.0775 35.5275ZM43.915 24.585C44.101 24.7707 44.2485 24.9913 44.3491 25.2341C44.4498 25.4769 44.5016 25.7372 44.5016 26C44.5016 26.2628 44.4498 26.5231 44.3491 26.7659C44.2485 27.0087 44.101 27.2293 43.915 27.415L29.915 41.415C29.7293 41.601 29.5087 41.7485 29.2659 41.8491C29.0231 41.9498 28.7628 42.0016 28.5 42.0016C28.2372 42.0016 27.9769 41.9498 27.7341 41.8491C27.4913 41.7485 27.2707 41.601 27.085 41.415L21.085 35.415C20.7097 35.0397 20.4989 34.5307 20.4989 34C20.4989 33.4693 20.7097 32.9603 21.085 32.585C21.4603 32.2097 21.9693 31.9989 22.5 31.9989C23.0307 31.9989 23.5397 32.2097 23.915 32.585L28.5 37.1725L41.085 24.585C41.2707 24.399 41.4913 24.2515 41.7341 24.1509C41.9769 24.0502 42.2372 23.9984 42.5 23.9984C42.7628 23.9984 43.0231 24.0502 43.2659 24.1509C43.5087 24.2515 43.7293 24.399 43.915 24.585Z" fill="#343C4A"/>
</svg>
