<svg width="64" height="64" viewBox="0 0 64 64" fill="none" xmlns="http://www.w3.org/2000/svg">
<path d="M30 54H14C11.7909 54 10 52.2091 10 50V31.539C10 29.285 10.9508 27.1356 12.6186 25.6194L29.3093 10.4461C30.835 9.0591 33.165 9.0591 34.6907 10.4461L51.3814 25.6194C53.0492 27.1356 54 29.285 54 31.539V33" stroke="#343C4A" stroke-width="4" stroke-linecap="round"/>
<circle cx="45" cy="47" r="9" stroke="#343C4A" stroke-width="4"/>
<path d="M56.5858 61.4142C57.3668 62.1953 58.6332 62.1953 59.4142 61.4142C60.1953 60.6332 60.1953 59.3668 59.4142 58.5858L56.5858 61.4142ZM50.5858 55.4142L56.5858 61.4142L59.4142 58.5858L53.4142 52.5858L50.5858 55.4142Z" fill="#343C4A"/>
</svg>
