<svg width="64" height="64" viewBox="0 0 64 64" fill="none" xmlns="http://www.w3.org/2000/svg">
<path d="M59.933 51.9998H56.0005V23.9998C56.0005 22.9389 55.5791 21.9215 54.8289 21.1714C54.0788 20.4212 53.0614 19.9998 52.0005 19.9998H41.0005C40.7353 19.9998 40.4809 20.1052 40.2934 20.2927C40.1058 20.4802 40.0005 20.7346 40.0005 20.9998V51.9998H36.0005V8.1023C36.0071 7.47925 35.8719 6.86287 35.6051 6.2998C35.3383 5.73673 34.9469 5.24174 34.4605 4.8523C33.7975 4.33539 32.9885 4.04052 32.1484 4.00955C31.3083 3.97859 30.4797 4.2131 29.7805 4.6798L9.78049 17.9998C9.23184 18.3659 8.78221 18.8619 8.47165 19.4438C8.1611 20.0256 7.99924 20.6752 8.00049 21.3348V51.9998H4.06799C3.55115 51.9922 3.0506 52.1805 2.66702 52.527C2.28344 52.8735 2.0453 53.3524 2.00049 53.8673C1.98232 54.1409 2.0206 54.4153 2.11295 54.6734C2.20529 54.9316 2.34973 55.168 2.53729 55.368C2.72485 55.568 2.95152 55.7272 3.20323 55.8359C3.45494 55.9446 3.72631 56.0004 4.00049 55.9998H60.0005C60.2747 56.0004 60.546 55.9446 60.7977 55.8359C61.0495 55.7272 61.2761 55.568 61.4637 55.368C61.6513 55.168 61.7957 54.9316 61.888 54.6734C61.9804 54.4153 62.0187 54.1409 62.0005 53.8673C61.9557 53.3524 61.7175 52.8735 61.334 52.527C60.9504 52.1805 60.4498 51.9922 59.933 51.9998ZM19.0005 45.9998C19.0011 46.274 18.9453 46.5453 18.8366 46.7971C18.7279 47.0488 18.5686 47.2754 18.3687 47.463C18.1687 47.6506 17.9323 47.795 17.6741 47.8873C17.4159 47.9797 17.1416 48.018 16.868 47.9998C16.3526 47.955 15.8734 47.7165 15.5268 47.3324C15.1803 46.9482 14.9922 46.4471 15.0005 45.9298V42.0673C14.9934 41.5506 15.182 41.0504 15.5284 40.6669C15.8747 40.2835 16.3533 40.0452 16.868 39.9998C17.1416 39.9816 17.4159 40.0199 17.6741 40.1123C17.9323 40.2046 18.1687 40.349 18.3687 40.5366C18.5686 40.7242 18.7279 40.9508 18.8366 41.2025C18.9453 41.4543 19.0011 41.7256 19.0005 41.9998V45.9998ZM19.0005 31.9998C19.0011 32.274 18.9453 32.5453 18.8366 32.7971C18.7279 33.0488 18.5686 33.2754 18.3687 33.463C18.1687 33.6506 17.9323 33.795 17.6741 33.8873C17.4159 33.9797 17.1416 34.018 16.868 33.9998C16.3528 33.9544 15.8739 33.7157 15.5275 33.3317C15.1811 32.9478 14.9928 32.4469 15.0005 31.9298V28.0673C14.9934 27.5506 15.182 27.0504 15.5284 26.6669C15.8747 26.2835 16.3533 26.0452 16.868 25.9998C17.1416 25.9816 17.4159 26.0199 17.6741 26.1123C17.9323 26.2046 18.1687 26.349 18.3687 26.5366C18.5686 26.7242 18.7279 26.9508 18.8366 27.2025C18.9453 27.4543 19.0011 27.7256 19.0005 27.9998V31.9998ZM29.0005 45.9998C29.0011 46.274 28.9453 46.5453 28.8366 46.7971C28.7279 47.0488 28.5686 47.2754 28.3687 47.463C28.1687 47.6506 27.9323 47.795 27.6741 47.8873C27.4159 47.9797 27.1416 48.018 26.868 47.9998C26.3535 47.955 25.875 47.7172 25.5286 47.3342C25.1821 46.9511 24.9935 46.4512 25.0005 45.9348V42.0673C24.9941 41.5511 25.1829 41.0514 25.5292 40.6685C25.8755 40.2856 26.3537 40.0476 26.868 40.0023C27.1416 39.9841 27.4159 40.0224 27.6741 40.1148C27.9323 40.2071 28.1687 40.3515 28.3687 40.5391C28.5686 40.7267 28.7279 40.9533 28.8366 41.205C28.9453 41.4568 29.0011 41.7281 29.0005 42.0023V45.9998ZM29.0005 31.9998C29.0011 32.274 28.9453 32.5453 28.8366 32.7971C28.7279 33.0488 28.5686 33.2754 28.3687 33.463C28.1687 33.6506 27.9323 33.795 27.6741 33.8873C27.4159 33.9797 27.1416 34.018 26.868 33.9998C26.3537 33.9545 25.8755 33.7165 25.5292 33.3336C25.1829 32.9507 24.9941 32.451 25.0005 31.9348V28.0673C24.9941 27.5511 25.1829 27.0514 25.5292 26.6685C25.8755 26.2856 26.3537 26.0476 26.868 26.0023C27.1416 25.9841 27.4159 26.0224 27.6741 26.1148C27.9323 26.2071 28.1687 26.3515 28.3687 26.5391C28.5686 26.7267 28.7279 26.9533 28.8366 27.205C28.9453 27.4568 29.0011 27.7281 29.0005 28.0023V31.9998Z" fill="white"/>
</svg>
