<svg width="65" height="64" viewBox="0 0 65 64" fill="none" xmlns="http://www.w3.org/2000/svg">
<path d="M38.5 24H26.5C25.9696 24 25.4609 24.2107 25.0858 24.5858C24.7107 24.9609 24.5 25.4696 24.5 26V38C24.5 38.5304 24.7107 39.0391 25.0858 39.4142C25.4609 39.7893 25.9696 40 26.5 40H38.5C39.0304 40 39.5391 39.7893 39.9142 39.4142C40.2893 39.0391 40.5 38.5304 40.5 38V26C40.5 25.4696 40.2893 24.9609 39.9142 24.5858C39.5391 24.2107 39.0304 24 38.5 24ZM36.5 36H28.5V28H36.5V36ZM58.5 36H54.5V28H58.5C59.0304 28 59.5391 27.7893 59.9142 27.4142C60.2893 27.0391 60.5 26.5304 60.5 26C60.5 25.4696 60.2893 24.9609 59.9142 24.5858C59.5391 24.2107 59.0304 24 58.5 24H54.5V14C54.5 12.9391 54.0786 11.9217 53.3284 11.1716C52.5783 10.4214 51.5609 10 50.5 10H40.5V6C40.5 5.46957 40.2893 4.96086 39.9142 4.58579C39.5391 4.21071 39.0304 4 38.5 4C37.9696 4 37.4609 4.21071 37.0858 4.58579C36.7107 4.96086 36.5 5.46957 36.5 6V10H28.5V6C28.5 5.46957 28.2893 4.96086 27.9142 4.58579C27.5391 4.21071 27.0304 4 26.5 4C25.9696 4 25.4609 4.21071 25.0858 4.58579C24.7107 4.96086 24.5 5.46957 24.5 6V10H14.5C13.4391 10 12.4217 10.4214 11.6716 11.1716C10.9214 11.9217 10.5 12.9391 10.5 14V24H6.5C5.96957 24 5.46086 24.2107 5.08579 24.5858C4.71071 24.9609 4.5 25.4696 4.5 26C4.5 26.5304 4.71071 27.0391 5.08579 27.4142C5.46086 27.7893 5.96957 28 6.5 28H10.5V36H6.5C5.96957 36 5.46086 36.2107 5.08579 36.5858C4.71071 36.9609 4.5 37.4696 4.5 38C4.5 38.5304 4.71071 39.0391 5.08579 39.4142C5.46086 39.7893 5.96957 40 6.5 40H10.5V50C10.5 51.0609 10.9214 52.0783 11.6716 52.8284C12.4217 53.5786 13.4391 54 14.5 54H24.5V58C24.5 58.5304 24.7107 59.0391 25.0858 59.4142C25.4609 59.7893 25.9696 60 26.5 60C27.0304 60 27.5391 59.7893 27.9142 59.4142C28.2893 59.0391 28.5 58.5304 28.5 58V54H36.5V58C36.5 58.5304 36.7107 59.0391 37.0858 59.4142C37.4609 59.7893 37.9696 60 38.5 60C39.0304 60 39.5391 59.7893 39.9142 59.4142C40.2893 59.0391 40.5 58.5304 40.5 58V54H50.5C51.5609 54 52.5783 53.5786 53.3284 52.8284C54.0786 52.0783 54.5 51.0609 54.5 50V40H58.5C59.0304 40 59.5391 39.7893 59.9142 39.4142C60.2893 39.0391 60.5 38.5304 60.5 38C60.5 37.4696 60.2893 36.9609 59.9142 36.5858C59.5391 36.2107 59.0304 36 58.5 36ZM50.5 50H14.5V14H50.5V37.9675C50.5 37.9675 50.5 37.99 50.5 38C50.5 38.01 50.5 38.0225 50.5 38.0325V50Z" fill="#343C4A"/>
</svg>
