<svg width="41" height="41" viewBox="0 0 41 41" fill="none" xmlns="http://www.w3.org/2000/svg">
<path d="M20.5 3.79004C17.2861 3.79004 14.1443 4.74309 11.472 6.52866C8.79969 8.31423 6.71689 10.8521 5.48696 13.8214C4.25704 16.7907 3.93524 20.0581 4.56225 23.2103C5.18926 26.3624 6.73692 29.2579 9.00952 31.5305C11.2821 33.8031 14.1776 35.3508 17.3298 35.9778C20.482 36.6048 23.7493 36.283 26.7186 35.0531C29.6879 33.8232 32.2258 31.7404 34.0114 29.0681C35.797 26.3958 36.75 23.254 36.75 20.04C36.7455 15.7317 35.0319 11.6011 31.9855 8.55458C28.939 5.5081 24.8084 3.79459 20.5 3.79004ZM20.5 33.79C17.7805 33.79 15.1221 32.9836 12.8609 31.4727C10.5997 29.9619 8.83737 27.8144 7.79666 25.3019C6.75596 22.7895 6.48366 20.0248 7.01421 17.3575C7.54476 14.6903 8.85432 12.2403 10.7773 10.3173C12.7003 8.39435 15.1503 7.08479 17.8175 6.55424C20.4848 6.02369 23.2494 6.29599 25.7619 7.3367C28.2744 8.3774 30.4218 10.1398 31.9327 12.4009C33.4436 14.6621 34.25 17.3205 34.25 20.04C34.2459 23.6855 32.7959 27.1805 30.2182 29.7582C27.6404 32.3359 24.1455 33.7859 20.5 33.79ZM13 16.915C13 16.5442 13.11 16.1817 13.316 15.8733C13.522 15.565 13.8149 15.3247 14.1575 15.1828C14.5001 15.0409 14.8771 15.0037 15.2408 15.0761C15.6045 15.1484 15.9386 15.327 16.2008 15.5892C16.4631 15.8514 16.6416 16.1855 16.714 16.5492C16.7863 16.913 16.7492 17.29 16.6073 17.6326C16.4654 17.9752 16.225 18.268 15.9167 18.474C15.6084 18.6801 15.2458 18.79 14.875 18.79C14.3777 18.79 13.9008 18.5925 13.5492 18.2409C13.1976 17.8892 13 17.4123 13 16.915ZM28 16.915C28 17.2859 27.89 17.6484 27.684 17.9567C27.478 18.2651 27.1851 18.5054 26.8425 18.6473C26.4999 18.7892 26.1229 18.8264 25.7592 18.754C25.3955 18.6817 25.0614 18.5031 24.7992 18.2409C24.537 17.9786 24.3584 17.6445 24.286 17.2808C24.2137 16.9171 24.2508 16.5401 24.3927 16.1975C24.5346 15.8549 24.775 15.5621 25.0833 15.356C25.3917 15.15 25.7542 15.04 26.125 15.04C26.6223 15.04 27.0992 15.2376 27.4508 15.5892C27.8025 15.9408 28 16.4178 28 16.915ZM27.8328 24.415C26.225 27.1947 23.5516 28.79 20.5 28.79C17.4484 28.79 14.7766 27.1963 13.1688 24.415C13.0783 24.2728 13.0176 24.1137 12.9902 23.9473C12.9629 23.781 12.9694 23.6108 13.0095 23.4471C13.0497 23.2833 13.1225 23.1294 13.2236 22.9945C13.3248 22.8596 13.4521 22.7466 13.5981 22.6622C13.7441 22.5779 13.9056 22.5239 14.0729 22.5036C14.2403 22.4832 14.41 22.497 14.5719 22.5439C14.7338 22.5909 14.8846 22.6702 15.0151 22.7769C15.1456 22.8836 15.2531 23.0157 15.3313 23.165C16.4984 25.1822 18.3328 26.29 20.5 26.29C22.6672 26.29 24.5016 25.1807 25.6672 23.165C25.833 22.8779 26.106 22.6683 26.4263 22.5824C26.7466 22.4966 27.0878 22.5415 27.375 22.7072C27.6622 22.873 27.8718 23.146 27.9576 23.4663C28.0435 23.7866 27.9986 24.1279 27.8328 24.415Z" fill="#343C4A"/>
</svg>
