<svg width="65" height="64" viewBox="0 0 65 64" fill="none" xmlns="http://www.w3.org/2000/svg">
<path d="M52.5 10H12.5C11.4391 10 10.4217 10.4214 9.67157 11.1716C8.92143 11.9217 8.5 12.9391 8.5 14V28.695C8.5 51.0975 27.455 58.53 31.25 59.7925C32.0605 60.0681 32.9395 60.0681 33.75 59.7925C37.55 58.53 56.5 51.0975 56.5 28.695V14C56.5 12.9391 56.0786 11.9217 55.3284 11.1716C54.5783 10.4214 53.5609 10 52.5 10ZM52.5 28.6975C52.5 48.3025 35.9125 54.8525 32.5 55.9925C29.1175 54.865 12.5 48.32 12.5 28.6975V14H52.5V28.6975ZM21.085 35.415C20.7097 35.0397 20.4989 34.5307 20.4989 34C20.4989 33.4693 20.7097 32.9603 21.085 32.585C21.4603 32.2097 21.9693 31.9989 22.5 31.9989C23.0307 31.9989 23.5397 32.2097 23.915 32.585L28.5 37.17L41.085 24.585C41.2708 24.3992 41.4914 24.2518 41.7342 24.1512C41.977 24.0506 42.2372 23.9989 42.5 23.9989C42.7628 23.9989 43.023 24.0506 43.2658 24.1512C43.5086 24.2518 43.7292 24.3992 43.915 24.585C44.1008 24.7708 44.2482 24.9914 44.3488 25.2342C44.4494 25.477 44.5011 25.7372 44.5011 26C44.5011 26.2628 44.4494 26.523 44.3488 26.7658C44.2482 27.0086 44.1008 27.2292 43.915 27.415L29.915 41.415C29.7293 41.601 29.5087 41.7485 29.2659 41.8491C29.0231 41.9498 28.7628 42.0016 28.5 42.0016C28.2372 42.0016 27.9769 41.9498 27.7341 41.8491C27.4913 41.7485 27.2707 41.601 27.085 41.415L21.085 35.415Z" fill="#343C4A"/>
</svg>
