<svg width="64" height="64" viewBox="0 0 64 64" fill="none" xmlns="http://www.w3.org/2000/svg">
<path d="M50 10C49.4696 10 48.9609 10.2107 48.5858 10.5858C48.2107 10.9609 48 11.4696 48 12C48 12.5304 48.2107 13.0391 48.5858 13.4142C48.9609 13.7893 49.4696 14 50 14C51.0609 14 52.0783 14.4214 52.8284 15.1716C53.5786 15.9217 54 16.9391 54 18V32H10V18C10 16.9391 10.4214 15.9217 11.1716 15.1716C11.9217 14.4214 12.9391 14 14 14C14.5304 14 15.0391 13.7893 15.4142 13.4142C15.7893 13.0391 16 12.5304 16 12C16 11.4696 15.7893 10.9609 15.4142 10.5858C15.0391 10.2107 14.5304 10 14 10C11.8783 10 9.84344 10.8429 8.34315 12.3431C6.84285 13.8434 6 15.8783 6 18V41C6 43.9174 7.15893 46.7153 9.22183 48.7782C11.2847 50.8411 14.0826 52 17 52C19.9174 52 22.7153 50.8411 24.7782 48.7782C26.8411 46.7153 28 43.9174 28 41V36H36V41C36 43.9174 37.1589 46.7153 39.2218 48.7782C41.2847 50.8411 44.0826 52 47 52C49.9174 52 52.7153 50.8411 54.7782 48.7782C56.8411 46.7153 58 43.9174 58 41V18C58 15.8783 57.1571 13.8434 55.6569 12.3431C54.1566 10.8429 52.1217 10 50 10ZM53.1575 44.3275L44.8275 36H54V41C54.0018 42.1622 53.7121 43.3062 53.1575 44.3275ZM10 41V36.8275L20.3275 47.1575C19.2613 47.7336 18.0637 48.023 16.8521 47.9974C15.6404 47.9718 14.4562 47.632 13.4152 47.0114C12.3743 46.3908 11.5123 45.5105 10.9137 44.4568C10.315 43.403 10.0002 42.2119 10 41ZM24 41C24.0018 42.1622 23.7121 43.3062 23.1575 44.3275L14.8275 36H24V41ZM40 41V36.8275L50.3275 47.1575C49.2613 47.7336 48.0637 48.023 46.8521 47.9974C45.6404 47.9718 44.4562 47.632 43.4152 47.0114C42.3743 46.3908 41.5123 45.5105 40.9137 44.4568C40.315 43.403 40.0002 42.2119 40 41Z" fill="#343C4A"/>
</svg>
