<svg width="41" height="41" viewBox="0 0 41 41" fill="none" xmlns="http://www.w3.org/2000/svg">
<path d="M20.5 3.79004C17.2861 3.79004 14.1443 4.74309 11.472 6.52866C8.79969 8.31423 6.71689 10.8521 5.48696 13.8214C4.25704 16.7907 3.93524 20.0581 4.56225 23.2103C5.18926 26.3624 6.73692 29.2579 9.00952 31.5305C11.2821 33.8031 14.1776 35.3508 17.3298 35.9778C20.482 36.6048 23.7493 36.283 26.7186 35.0531C29.6879 33.8232 32.2258 31.7404 34.0114 29.0681C35.797 26.3958 36.75 23.254 36.75 20.04C36.7455 15.7317 35.0319 11.6011 31.9855 8.55458C28.939 5.5081 24.8084 3.79459 20.5 3.79004ZM20.5 33.79C17.7805 33.79 15.1221 32.9836 12.8609 31.4727C10.5997 29.9619 8.83737 27.8144 7.79666 25.3019C6.75596 22.7895 6.48366 20.0248 7.01421 17.3575C7.54476 14.6903 8.85432 12.2403 10.7773 10.3173C12.7003 8.39435 15.1503 7.08479 17.8175 6.55424C20.4848 6.02369 23.2494 6.29599 25.7619 7.3367C28.2744 8.3774 30.4218 10.1398 31.9327 12.4009C33.4436 14.6621 34.25 17.3205 34.25 20.04C34.2459 23.6855 32.7959 27.1805 30.2182 29.7582C27.6404 32.3359 24.1455 33.7859 20.5 33.79ZM26.75 23.165C26.75 24.3254 26.2891 25.4382 25.4686 26.2586C24.6481 27.0791 23.5353 27.54 22.375 27.54H21.75V28.79C21.75 29.1216 21.6183 29.4395 21.3839 29.6739C21.1495 29.9083 20.8315 30.04 20.5 30.04C20.1685 30.04 19.8505 29.9083 19.6161 29.6739C19.3817 29.4395 19.25 29.1216 19.25 28.79V27.54H16.75C16.4185 27.54 16.1005 27.4083 15.8661 27.1739C15.6317 26.9395 15.5 26.6216 15.5 26.29C15.5 25.9585 15.6317 25.6406 15.8661 25.4062C16.1005 25.1717 16.4185 25.04 16.75 25.04H22.375C22.8723 25.04 23.3492 24.8425 23.7008 24.4909C24.0525 24.1392 24.25 23.6623 24.25 23.165C24.25 22.6678 24.0525 22.1908 23.7008 21.8392C23.3492 21.4876 22.8723 21.29 22.375 21.29H18.625C17.4647 21.29 16.3519 20.8291 15.5314 20.0086C14.7109 19.1882 14.25 18.0754 14.25 16.915C14.25 15.7547 14.7109 14.6419 15.5314 13.8214C16.3519 13.001 17.4647 12.54 18.625 12.54H19.25V11.29C19.25 10.9585 19.3817 10.6406 19.6161 10.4062C19.8505 10.1717 20.1685 10.04 20.5 10.04C20.8315 10.04 21.1495 10.1717 21.3839 10.4062C21.6183 10.6406 21.75 10.9585 21.75 11.29V12.54H24.25C24.5815 12.54 24.8995 12.6717 25.1339 12.9062C25.3683 13.1406 25.5 13.4585 25.5 13.79C25.5 14.1216 25.3683 14.4395 25.1339 14.6739C24.8995 14.9083 24.5815 15.04 24.25 15.04H18.625C18.1277 15.04 17.6508 15.2376 17.2992 15.5892C16.9476 15.9408 16.75 16.4178 16.75 16.915C16.75 17.4123 16.9476 17.8892 17.2992 18.2409C17.6508 18.5925 18.1277 18.79 18.625 18.79H22.375C23.5353 18.79 24.6481 19.251 25.4686 20.0714C26.2891 20.8919 26.75 22.0047 26.75 23.165Z" fill="#343C4A"/>
</svg>
