<svg width="28" height="28" viewBox="0 0 28 28" fill="none" xmlns="http://www.w3.org/2000/svg">
<path d="M14 2.625C11.7502 2.625 9.551 3.29213 7.68039 4.54203C5.80978 5.79193 4.35182 7.56847 3.49088 9.64698C2.62993 11.7255 2.40467 14.0126 2.84357 16.2192C3.28248 18.4257 4.36584 20.4525 5.95667 22.0433C7.54749 23.6342 9.57432 24.7175 11.7809 25.1564C13.9874 25.5953 16.2745 25.3701 18.353 24.5091C20.4315 23.6482 22.2081 22.1902 23.458 20.3196C24.7079 18.449 25.375 16.2498 25.375 14C25.3712 10.9843 24.1716 8.09323 22.0392 5.96082C19.9068 3.8284 17.0157 2.62876 14 2.625ZM17.9856 14.7284L12.7356 18.2284C12.5916 18.3239 12.4228 18.3748 12.25 18.375C12.0179 18.375 11.7954 18.2828 11.6313 18.1187C11.4672 17.9546 11.375 17.7321 11.375 17.5V10.5C11.3749 10.3416 11.4178 10.186 11.4992 10.0501C11.5806 9.91413 11.6973 9.80281 11.837 9.72803C11.9767 9.65324 12.1341 9.61779 12.2923 9.62546C12.4506 9.63312 12.6038 9.68362 12.7356 9.77156L17.9856 13.2716C18.1057 13.3514 18.2041 13.4597 18.2722 13.5868C18.3402 13.7139 18.3759 13.8558 18.3759 14C18.3759 14.1442 18.3402 14.2861 18.2722 14.4132C18.2041 14.5403 18.1057 14.6486 17.9856 14.7284Z" fill="#1C2129"/>
</svg>
