<svg width="41" height="41" viewBox="0 0 41 41" fill="none" xmlns="http://www.w3.org/2000/svg">
<path d="M35.5 7.54004V23.79C35.5 24.4531 35.2366 25.089 34.7678 25.5578C34.2989 26.0266 33.663 26.29 33 26.29H16.0172L17.6344 27.9057C17.7505 28.0218 17.8426 28.1597 17.9055 28.3114C17.9683 28.4632 18.0007 28.6258 18.0007 28.79C18.0007 28.9543 17.9683 29.1169 17.9055 29.2687C17.8426 29.4204 17.7505 29.5583 17.6344 29.6744C17.5182 29.7906 17.3804 29.8827 17.2286 29.9455C17.0769 30.0084 16.9142 30.0407 16.75 30.0407C16.5858 30.0407 16.4231 30.0084 16.2714 29.9455C16.1196 29.8827 15.9818 29.7906 15.8656 29.6744L12.1156 25.9244C11.9994 25.8083 11.9072 25.6705 11.8443 25.5187C11.7814 25.367 11.749 25.2043 11.749 25.04C11.749 24.8758 11.7814 24.7131 11.8443 24.5614C11.9072 24.4096 11.9994 24.2718 12.1156 24.1557L15.8656 20.4057C16.1002 20.1711 16.4183 20.0393 16.75 20.0393C17.0817 20.0393 17.3998 20.1711 17.6344 20.4057C17.8689 20.6402 18.0007 20.9583 18.0007 21.29C18.0007 21.6217 17.8689 21.9399 17.6344 22.1744L16.0172 23.79H33V7.54004H15.5V8.79004C15.5 9.12156 15.3683 9.4395 15.1339 9.67392C14.8995 9.90834 14.5815 10.04 14.25 10.04C13.9185 10.04 13.6005 9.90834 13.3661 9.67392C13.1317 9.4395 13 9.12156 13 8.79004V7.54004C13 6.877 13.2634 6.24111 13.7322 5.77227C14.2011 5.30343 14.837 5.04004 15.5 5.04004H33C33.663 5.04004 34.2989 5.30343 34.7678 5.77227C35.2366 6.24111 35.5 6.877 35.5 7.54004ZM26.75 30.04C26.4185 30.04 26.1005 30.1717 25.8661 30.4062C25.6317 30.6406 25.5 30.9585 25.5 31.29V32.54H8V16.29H24.9828L23.3656 17.9057C23.1311 18.1402 22.9993 18.4583 22.9993 18.79C22.9993 19.1217 23.1311 19.4399 23.3656 19.6744C23.6002 19.909 23.9183 20.0407 24.25 20.0407C24.5817 20.0407 24.8998 19.909 25.1344 19.6744L28.8844 15.9244C29.0006 15.8083 29.0928 15.6705 29.1557 15.5187C29.2186 15.367 29.251 15.2043 29.251 15.04C29.251 14.8758 29.2186 14.7131 29.1557 14.5614C29.0928 14.4096 29.0006 14.2718 28.8844 14.1557L25.1344 10.4057C24.8998 10.1711 24.5817 10.0393 24.25 10.0393C23.9183 10.0393 23.6002 10.1711 23.3656 10.4057C23.1311 10.6402 22.9993 10.9583 22.9993 11.29C22.9993 11.6217 23.1311 11.9399 23.3656 12.1744L24.9828 13.79H8C7.33696 13.79 6.70107 14.0534 6.23223 14.5223C5.76339 14.9911 5.5 15.627 5.5 16.29V32.54C5.5 33.2031 5.76339 33.839 6.23223 34.3078C6.70107 34.7766 7.33696 35.04 8 35.04H25.5C26.163 35.04 26.7989 34.7766 27.2678 34.3078C27.7366 33.839 28 33.2031 28 32.54V31.29C28 30.9585 27.8683 30.6406 27.6339 30.4062C27.3995 30.1717 27.0815 30.04 26.75 30.04Z" fill="#343C4A"/>
</svg>
