<svg width="41" height="40" viewBox="0 0 41 40" fill="none" xmlns="http://www.w3.org/2000/svg">
<path d="M36.0994 10.781C36.0236 10.5936 35.9034 10.4274 35.7493 10.2966C35.5951 10.1658 35.4115 10.0744 35.2142 10.0302C35.017 9.98592 34.8119 9.99018 34.6166 10.0426C34.4214 10.095 34.2418 10.194 34.0931 10.331L27.7963 16.142L25.1041 15.5638L24.526 12.8717L30.3369 6.57478C30.474 6.42618 30.5729 6.24654 30.6254 6.05128C30.6778 5.85603 30.682 5.65097 30.6378 5.45371C30.5935 5.25644 30.5021 5.07285 30.3713 4.91868C30.2405 4.76451 30.0743 4.64436 29.8869 4.56853C28.179 3.87765 26.3275 3.61679 24.4952 3.80887C22.6629 4.00096 20.9058 4.64011 19.3783 5.67017C17.8508 6.70024 16.5996 8.08968 15.7348 9.71642C14.8699 11.3432 14.4178 13.1574 14.4181 14.9998C14.4161 16.5555 14.7353 18.0949 15.3556 19.5217L5.94784 27.656C5.9244 27.6748 5.90252 27.6967 5.88065 27.717C4.94286 28.6548 4.41602 29.9267 4.41602 31.2529C4.41602 31.9096 4.54536 32.5598 4.79666 33.1665C5.04796 33.7732 5.4163 34.3245 5.88065 34.7888C6.34499 35.2532 6.89625 35.6215 7.50295 35.8728C8.10965 36.1241 8.7599 36.2535 9.41659 36.2535C10.7428 36.2535 12.0147 35.7266 12.9525 34.7888C12.9728 34.7685 12.9947 34.7451 13.0135 34.7232L21.1463 25.3123C22.8594 26.0643 24.7331 26.3772 26.5977 26.2226C28.4623 26.068 30.2588 25.4508 31.8248 24.4269C33.3907 23.403 34.6765 22.0048 35.5659 20.3587C36.4552 18.7126 36.92 16.8707 36.9181 14.9998C36.9206 13.5538 36.6425 12.1211 36.0994 10.781ZM25.6681 23.7498C24.1886 23.7478 22.7336 23.3715 21.4385 22.656C21.1876 22.5174 20.8966 22.4693 20.6144 22.5196C20.3323 22.57 20.0759 22.7158 19.8885 22.9326L11.1541 33.0482C10.6814 33.4973 10.0521 33.7439 9.40015 33.7356C8.74825 33.7272 8.12539 33.4645 7.66439 33.0035C7.20339 32.5425 6.94071 31.9197 6.93236 31.2678C6.92402 30.6159 7.17066 29.9865 7.61971 29.5138L17.7275 20.781C17.9447 20.5935 18.0908 20.3369 18.1411 20.0543C18.1915 19.7718 18.1431 19.4805 18.0041 19.2295C17.2073 17.7883 16.8333 16.1515 16.9252 14.5073C17.0171 12.863 17.5712 11.2781 18.5237 9.93471C19.4762 8.59132 20.7885 7.54399 22.3097 6.91314C23.8308 6.28229 25.4992 6.09352 27.1228 6.36853L22.2478 11.6513C22.1122 11.7985 22.0139 11.9761 21.9611 12.1691C21.9084 12.3622 21.9027 12.565 21.9447 12.7607L22.8291 16.8748C22.8797 17.1101 22.9971 17.3258 23.1673 17.496C23.3375 17.6661 23.5532 17.7836 23.7885 17.8342L27.9057 18.7185C28.1013 18.7605 28.3042 18.7549 28.4973 18.7021C28.6903 18.6494 28.8679 18.5511 29.015 18.4154L34.2978 13.5404C34.5084 14.7951 34.4432 16.0806 34.1066 17.3076C33.7701 18.5345 33.1703 19.6734 32.349 20.645C31.5277 21.6167 30.5046 22.3977 29.3509 22.9339C28.1971 23.4701 26.9404 23.7485 25.6681 23.7498Z" fill="#00ADCC"/>
</svg>
