<svg width="41" height="41" viewBox="0 0 41 41" fill="none" xmlns="http://www.w3.org/2000/svg">
<path d="M36.5 33C36.5 33.3315 36.3683 33.6495 36.1339 33.8839C35.8995 34.1183 35.5815 34.25 35.25 34.25H5.25C4.91848 34.25 4.60054 34.1183 4.36612 33.8839C4.1317 33.6495 4 33.3315 4 33V8C4 7.66848 4.1317 7.35054 4.36612 7.11612C4.60054 6.8817 4.91848 6.75 5.25 6.75C5.58152 6.75 5.89946 6.8817 6.13388 7.11612C6.3683 7.35054 6.5 7.66848 6.5 8V24.9828L14.3656 17.1156C14.4817 16.9994 14.6196 16.9072 14.7713 16.8443C14.9231 16.7814 15.0857 16.749 15.25 16.749C15.4143 16.749 15.5769 16.7814 15.7287 16.8443C15.8804 16.9072 16.0183 16.9994 16.1344 17.1156L20.25 21.2328L28.4828 13H25.25C24.9185 13 24.6005 12.8683 24.3661 12.6339C24.1317 12.3995 24 12.0815 24 11.75C24 11.4185 24.1317 11.1005 24.3661 10.8661C24.6005 10.6317 24.9185 10.5 25.25 10.5H31.5C31.8315 10.5 32.1495 10.6317 32.3839 10.8661C32.6183 11.1005 32.75 11.4185 32.75 11.75V18C32.75 18.3315 32.6183 18.6495 32.3839 18.8839C32.1495 19.1183 31.8315 19.25 31.5 19.25C31.1685 19.25 30.8505 19.1183 30.6161 18.8839C30.3817 18.6495 30.25 18.3315 30.25 18V14.7672L21.1344 23.8844C21.0183 24.0006 20.8804 24.0928 20.7287 24.1557C20.5769 24.2186 20.4143 24.251 20.25 24.251C20.0857 24.251 19.9231 24.2186 19.7713 24.1557C19.6196 24.0928 19.4817 24.0006 19.3656 23.8844L15.25 19.7672L6.5 28.5172V31.75H35.25C35.5815 31.75 35.8995 31.8817 36.1339 32.1161C36.3683 32.3505 36.5 32.6685 36.5 33Z" fill="white"/>
</svg>
