<svg width="65" height="64" viewBox="0 0 65 64" fill="none" xmlns="http://www.w3.org/2000/svg">
<path fill-rule="evenodd" clip-rule="evenodd" d="M10.1358 31.6456C10.3223 31.7855 10.5345 31.8872 10.7603 31.9451C10.9861 32.0029 11.2211 32.0158 11.4518 31.9828C11.6826 31.9498 11.9046 31.8717 12.1051 31.753C12.3057 31.6342 12.4809 31.4771 12.6208 31.2906C13.6955 29.8577 15.089 28.6947 16.6911 27.8937C18.2931 27.0926 20.0596 26.6756 21.8508 26.6756C23.6419 26.6756 25.4085 27.0926 27.0105 27.8937C28.6126 28.6947 30.0061 29.8577 31.0808 31.2906C31.3636 31.6669 31.7842 31.9154 32.2502 31.9816C32.7162 32.0477 33.1895 31.9261 33.5658 31.6434C33.6999 31.5436 33.8188 31.4248 33.9186 31.2906C34.9932 29.8577 36.3868 28.6947 37.9888 27.8937C39.5909 27.0926 41.3574 26.6756 43.1486 26.6756C44.9397 26.6756 46.7062 27.0926 48.3083 27.8937C49.9103 28.6947 51.3039 29.8577 52.3786 31.2906C52.6613 31.6672 53.0821 31.9161 53.5483 31.9825C54.0146 32.0488 54.4881 31.9273 54.8647 31.6445C55.2413 31.3618 55.4901 30.941 55.5565 30.4748C55.6229 30.0085 55.5013 29.535 55.2186 29.1584C53.6474 27.0521 51.5522 25.3937 49.1414 24.3482C50.4631 23.1415 51.3891 21.5634 51.7978 19.821C52.2066 18.0786 52.0791 16.2534 51.4319 14.5848C50.7848 12.9162 49.6483 11.4823 48.1717 10.4712C46.695 9.46002 44.9471 8.91895 43.1574 8.91895C41.3678 8.91895 39.6199 9.46002 38.1432 10.4712C36.6666 11.4823 35.5301 12.9162 34.883 14.5848C34.2358 16.2534 34.1083 18.0786 34.517 19.821C34.9258 21.5634 35.8518 23.1415 37.1735 24.3482C35.4327 25.1009 33.8514 26.1784 32.5141 27.5232C31.1768 26.1784 29.5955 25.1009 27.8547 24.3482C29.1764 23.1415 30.1024 21.5634 30.5112 19.821C30.9199 18.0786 30.7924 16.2534 30.1452 14.5848C29.4981 12.9162 28.3616 11.4823 26.885 10.4712C25.4083 9.46002 23.6604 8.91895 21.8708 8.91895C20.0811 8.91895 18.3332 9.46002 16.8565 10.4712C15.3799 11.4823 14.2434 12.9162 13.5963 14.5848C12.9491 16.2534 12.8216 18.0786 13.2303 19.821C13.6391 21.5634 14.5651 23.1415 15.8868 24.3482C13.4654 25.3903 11.3599 27.0497 9.78078 29.1606C9.64092 29.3471 9.53916 29.5593 9.48131 29.7851C9.42346 30.0109 9.41066 30.2459 9.44362 30.4766C9.47659 30.7074 9.55468 30.9294 9.67344 31.13C9.7922 31.3305 9.9493 31.5058 10.1358 31.6456ZM21.8508 12.4756C22.904 12.4756 23.9335 12.7879 24.8092 13.3731C25.6849 13.9582 26.3674 14.7898 26.7704 15.7628C27.1735 16.7359 27.2789 17.8065 27.0735 18.8395C26.868 19.8724 26.3608 20.8213 25.6161 21.566C24.8714 22.3107 23.9226 22.8178 22.8896 23.0233C21.8567 23.2288 20.786 23.1233 19.813 22.7203C18.84 22.3173 18.0083 21.6347 17.4232 20.759C16.8381 19.8833 16.5258 18.8538 16.5258 17.8006C16.5258 16.3884 17.0868 15.0339 18.0854 14.0353C19.0841 13.0367 20.4385 12.4756 21.8508 12.4756ZM49.1414 47.4231C50.4631 46.2165 51.3891 44.6384 51.7978 42.896C52.2066 41.1536 52.0791 39.3284 51.4319 37.6598C50.7848 35.9912 49.6483 34.5573 48.1717 33.5461C46.695 32.535 44.9471 31.9939 43.1574 31.9939C41.3678 31.9939 39.6199 32.535 38.1432 33.5461C36.6666 34.5573 35.5301 35.9912 34.883 37.6598C34.2358 39.3284 34.1083 41.1536 34.517 42.896C34.9258 44.6384 35.8518 46.2165 37.1735 47.4231C35.4327 48.1759 33.8514 49.2534 32.5141 50.5982C31.1768 49.2534 29.5955 48.1759 27.8547 47.4231C29.1764 46.2165 30.1024 44.6384 30.5112 42.896C30.9199 41.1536 30.7924 39.3284 30.1452 37.6598C29.4981 35.9912 28.3616 34.5573 26.885 33.5461C25.4083 32.535 23.6604 31.9939 21.8708 31.9939C20.0811 31.9939 18.3332 32.535 16.8565 33.5461C15.3799 34.5573 14.2434 35.9912 13.5963 37.6598C12.9491 39.3284 12.8216 41.1536 13.2303 42.896C13.6391 44.6384 14.5651 46.2165 15.8868 47.4231C13.4654 48.4653 11.3599 50.1247 9.78078 52.2356C9.64092 52.4221 9.53916 52.6343 9.48131 52.8601C9.42346 53.0859 9.41066 53.3209 9.44362 53.5516C9.47659 53.7824 9.55468 54.0044 9.67344 54.205C9.7922 54.4055 9.9493 54.5808 10.1358 54.7206C10.3223 54.8605 10.5345 54.9622 10.7603 55.0201C10.9861 55.0779 11.2211 55.0907 11.4518 55.0578C11.6826 55.0248 11.9046 54.9467 12.1051 54.828C12.3057 54.7092 12.4809 54.5521 12.6208 54.3656C13.6955 52.9327 15.089 51.7697 16.6911 50.9687C18.2931 50.1676 20.0596 49.7506 21.8508 49.7506C23.6419 49.7506 25.4085 50.1676 27.0105 50.9687C28.6126 51.7697 30.0061 52.9327 31.0808 54.3656C31.3636 54.7419 31.7842 54.9904 32.2502 55.0566C32.7162 55.1227 33.1895 55.0011 33.5658 54.7184C33.6999 54.6186 33.8188 54.4998 33.9186 54.3656C34.9932 52.9327 36.3868 51.7697 37.9888 50.9687C39.5909 50.1676 41.3574 49.7506 43.1486 49.7506C44.9397 49.7506 46.7062 50.1676 48.3083 50.9687C49.9103 51.7697 51.3039 52.9327 52.3786 54.3656C52.6613 54.7422 53.0821 54.9911 53.5483 55.0575C54.0146 55.1238 54.4881 55.0023 54.8647 54.7195C55.2413 54.4368 55.4901 54.016 55.5565 53.5497C55.6229 53.0835 55.5013 52.61 55.2186 52.2334C53.6474 50.1271 51.5522 48.4687 49.1414 47.4231ZM43.1508 35.5506C44.204 35.5506 45.2335 35.8629 46.1092 36.448C46.9849 37.0332 47.6674 37.8648 48.0704 38.8378C48.4735 39.8108 48.5789 40.8815 48.3735 41.9145C48.168 42.9474 47.6608 43.8963 46.9161 44.641C46.1714 45.3857 45.2226 45.8928 44.1896 46.0983C43.1567 46.3038 42.086 46.1983 41.113 45.7953C40.14 45.3922 39.3083 44.7097 38.7232 43.834C38.1381 42.9583 37.8258 41.9288 37.8258 40.8756C37.8258 39.4633 38.3868 38.1089 39.3854 37.1103C40.3841 36.1116 41.7385 35.5506 43.1508 35.5506Z" fill="white"/>
</svg>
