<svg width="66" height="65" viewBox="0 0 66 65" fill="none" xmlns="http://www.w3.org/2000/svg">
<g opacity="0.3">
<path d="M18.7809 10.1562C18.7809 9.61753 18.9949 9.10087 19.3758 8.71994C19.7568 8.33901 20.2734 8.125 20.8121 8.125H45.1871C45.7259 8.125 46.2425 8.33901 46.6235 8.71994C47.0044 9.10087 47.2184 9.61753 47.2184 10.1562C47.2184 10.695 47.0044 11.2116 46.6235 11.5926C46.2425 11.9735 45.7259 12.1875 45.1871 12.1875H20.8121C20.2734 12.1875 19.7568 11.9735 19.3758 11.5926C18.9949 11.2116 18.7809 10.695 18.7809 10.1562ZM59.251 33.7543C59.0973 33.3831 58.8371 33.0658 58.5031 32.8426C58.1691 32.6193 57.7764 32.5001 57.3746 32.5H47.2184V26.4062C47.2184 25.8675 47.0044 25.3509 46.6235 24.9699C46.2425 24.589 45.7259 24.375 45.1871 24.375H20.8121C20.2734 24.375 19.7568 24.589 19.3758 24.9699C18.9949 25.3509 18.7809 25.8675 18.7809 26.4062V32.5H8.62465C8.22267 32.4997 7.82964 32.6186 7.49531 32.8418C7.16098 33.065 6.90038 33.3823 6.74651 33.7537C6.59263 34.1251 6.55241 34.5337 6.63092 34.928C6.70942 35.3222 6.90314 35.6843 7.18754 35.9684L31.5625 60.3434C31.7512 60.5322 31.9752 60.682 32.2218 60.7843C32.4684 60.8865 32.7327 60.9391 32.9996 60.9391C33.2666 60.9391 33.5309 60.8865 33.7775 60.7843C34.0241 60.682 34.2481 60.5322 34.4368 60.3434L58.8118 35.9684C59.0957 35.6841 59.2891 35.3221 59.3672 34.928C59.4454 34.5339 59.405 34.1254 59.251 33.7543ZM20.8121 20.3125H45.1871C45.7259 20.3125 46.2425 20.0985 46.6235 19.7176C47.0044 19.3366 47.2184 18.82 47.2184 18.2812C47.2184 17.7425 47.0044 17.2259 46.6235 16.8449C46.2425 16.464 45.7259 16.25 45.1871 16.25H20.8121C20.2734 16.25 19.7568 16.464 19.3758 16.8449C18.9949 17.2259 18.7809 17.7425 18.7809 18.2812C18.7809 18.82 18.9949 19.3366 19.3758 19.7176C19.7568 20.0985 20.2734 20.3125 20.8121 20.3125Z" fill="url(#paint0_linear_2286_11644)"/>
</g>
<defs>
<linearGradient id="paint0_linear_2286_11644" x1="5.03304" y1="64.9834" x2="57.517" y2="62.8429" gradientUnits="userSpaceOnUse">
<stop stop-color="#00ADCC"/>
<stop offset="1" stop-color="#00CCC0"/>
</linearGradient>
</defs>
</svg>
