<svg width="40" height="40" viewBox="0 0 40 40" fill="none" xmlns="http://www.w3.org/2000/svg">
<path d="M37.5 32.5003H35V18.055C35.0001 17.709 34.9283 17.3667 34.7892 17.0499C34.6502 16.7331 34.4469 16.4485 34.1922 16.2143L21.6922 4.42058C21.6861 4.41525 21.6803 4.40951 21.675 4.4034C21.2148 3.98486 20.615 3.75293 19.993 3.75293C19.3709 3.75293 18.7712 3.98486 18.3109 4.4034L18.2938 4.42058L5.80781 16.2143C5.55312 16.4485 5.34982 16.7331 5.21077 17.0499C5.07172 17.3667 4.99995 17.709 5 18.055V32.5003H2.5C2.16848 32.5003 1.85054 32.632 1.61612 32.8664C1.3817 33.1008 1.25 33.4188 1.25 33.7503C1.25 34.0818 1.3817 34.3997 1.61612 34.6342C1.85054 34.8686 2.16848 35.0003 2.5 35.0003H37.5C37.8315 35.0003 38.1495 34.8686 38.3839 34.6342C38.6183 34.3997 38.75 34.0818 38.75 33.7503C38.75 33.4188 38.6183 33.1008 38.3839 32.8664C38.1495 32.632 37.8315 32.5003 37.5 32.5003ZM7.5 18.055L7.51719 18.0393L20 6.25027L32.4844 18.0362L32.5016 18.0518V32.5003H25V25.0003C25 24.3372 24.7366 23.7013 24.2678 23.2325C23.7989 22.7637 23.163 22.5003 22.5 22.5003H17.5C16.837 22.5003 16.2011 22.7637 15.7322 23.2325C15.2634 23.7013 15 24.3372 15 25.0003V32.5003H7.5V18.055ZM22.5 32.5003H17.5V25.0003H22.5V32.5003Z" fill="white"/>
</svg>
