<svg width="41" height="40" viewBox="0 0 41 40" fill="none" xmlns="http://www.w3.org/2000/svg">
<path d="M4.5 16.2502H8.25V26.2502H5.75C5.41848 26.2502 5.10054 26.3819 4.86612 26.6163C4.6317 26.8507 4.5 27.1687 4.5 27.5002C4.5 27.8317 4.6317 28.1497 4.86612 28.3841C5.10054 28.6185 5.41848 28.7502 5.75 28.7502H35.75C36.0815 28.7502 36.3995 28.6185 36.6339 28.3841C36.8683 28.1497 37 27.8317 37 27.5002C37 27.1687 36.8683 26.8507 36.6339 26.6163C36.3995 26.3819 36.0815 26.2502 35.75 26.2502H33.25V16.2502H37C37.272 16.2499 37.5364 16.161 37.7533 15.9968C37.9701 15.8326 38.1275 15.6022 38.2015 15.3405C38.2756 15.0788 38.2622 14.8001 38.1635 14.5466C38.0649 14.2932 37.8862 14.0789 37.6547 13.9361L21.4047 3.93614C21.2078 3.81507 20.9812 3.75098 20.75 3.75098C20.5188 3.75098 20.2922 3.81507 20.0953 3.93614L3.84531 13.9361C3.61379 14.0789 3.43514 14.2932 3.33645 14.5466C3.23777 14.8001 3.22443 15.0788 3.29847 15.3405C3.37251 15.6022 3.52989 15.8326 3.74672 15.9968C3.96356 16.161 4.22802 16.2499 4.5 16.2502ZM10.75 16.2502H15.75V26.2502H10.75V16.2502ZM23.25 16.2502V26.2502H18.25V16.2502H23.25ZM30.75 26.2502H25.75V16.2502H30.75V26.2502ZM20.75 6.46739L32.5844 13.7502H8.91562L20.75 6.46739ZM39.5 32.5002C39.5 32.8317 39.3683 33.1497 39.1339 33.3841C38.8995 33.6185 38.5815 33.7502 38.25 33.7502H3.25C2.91848 33.7502 2.60054 33.6185 2.36612 33.3841C2.1317 33.1497 2 32.8317 2 32.5002C2 32.1687 2.1317 31.8507 2.36612 31.6163C2.60054 31.3819 2.91848 31.2502 3.25 31.2502H38.25C38.5815 31.2502 38.8995 31.3819 39.1339 31.6163C39.3683 31.8507 39.5 32.1687 39.5 32.5002Z" fill="white"/>
</svg>
