<svg width="55" height="55" viewBox="0 0 55 55" fill="none" xmlns="http://www.w3.org/2000/svg">
<path d="M25.7658 3.66524C26.542 2.36695 28.4228 2.36695 29.199 3.66524L30.1658 5.28232C30.7828 6.31429 32.1643 6.57254 33.1124 5.83313L34.598 4.67449C35.7908 3.74425 37.5446 4.42369 37.7994 5.91471L38.1167 7.77183C38.3192 8.95698 39.5142 9.69686 40.6654 9.34987L42.4692 8.80615C43.9175 8.36961 45.3075 9.63672 45.0064 11.1191L44.6314 12.9654C44.3922 14.1437 45.2391 15.2653 46.4379 15.3576L48.3164 15.5022C49.8246 15.6183 50.6629 17.302 49.8467 18.5755L48.8301 20.1617C48.1813 21.174 48.5659 22.5258 49.6504 23.0449L51.3498 23.8583C52.7142 24.5114 52.8877 26.3842 51.6666 27.2769L50.1456 28.3888C49.175 29.0983 49.0453 30.4978 49.869 31.3736L51.1598 32.746C52.1961 33.8479 51.6814 35.6569 50.2203 36.0482L48.4003 36.5355C47.2389 36.8465 46.6125 38.1046 47.0642 39.2188L47.772 40.9649C48.3403 42.3667 47.2069 43.8676 45.703 43.7046L43.83 43.5016C42.6347 43.3721 41.596 44.3189 41.6147 45.5211L41.644 47.4049C41.6676 48.9173 40.0684 49.9075 38.7251 49.2123L37.0518 48.3463C35.984 47.7937 34.6734 48.3014 34.2566 49.4292L33.6034 51.1964C33.079 52.6152 31.2302 52.9608 30.2287 51.8272L28.9812 50.4153C28.1851 49.5143 26.7797 49.5143 25.9836 50.4153L24.7362 51.8272C23.7346 52.9608 21.8858 52.6152 21.3614 51.1964L20.7082 49.4292C20.2914 48.3014 18.9808 47.7937 17.913 48.3463L16.2398 49.2123C14.8964 49.9075 13.2973 48.9173 13.3208 47.4049L13.3501 45.5211C13.3688 44.3189 12.3302 43.3721 11.1349 43.5016L9.26179 43.7046C7.75797 43.8676 6.62451 42.3667 7.19281 40.9648L7.90066 39.2188C8.35238 38.1046 7.72592 36.8465 6.56451 36.5355L4.74459 36.0482C3.28344 35.6569 2.76872 33.8478 3.80504 32.746L5.09582 31.3736C5.91955 30.4978 5.78987 29.0983 4.81924 28.3888L3.29826 27.2769C2.07712 26.3842 2.25066 24.5114 3.61504 23.8583L5.31442 23.0449C6.39891 22.5258 6.78353 21.174 6.13476 20.1617L5.11813 18.5755C4.30192 17.302 5.14029 15.6183 6.64845 15.5022L8.52693 15.3576C9.72571 15.2653 10.5727 14.1437 10.3334 12.9654L9.95843 11.1191C9.65738 9.63672 11.0473 8.36961 12.4956 8.80615L14.2995 9.34987C15.4507 9.69686 16.6456 8.95698 16.8481 7.77183L17.1654 5.91471C17.4202 4.42369 19.174 3.74426 20.3668 4.67449L21.8525 5.83313C22.8006 6.57254 24.1821 6.31429 24.799 5.28232L25.7658 3.66524Z" fill="url(#paint0_linear_2286_11860)"/>
<path d="M39.4043 22.2672C39.1168 21.9415 38.7633 21.6808 38.3673 21.5022C37.9713 21.3236 37.5418 21.2313 37.1074 21.2314H31.4199V19.9189C31.4185 18.643 30.911 17.4198 30.0088 16.5176C29.1066 15.6154 27.8833 15.1079 26.6074 15.1064C26.3638 15.1065 26.1249 15.1743 25.9177 15.3024C25.7104 15.4305 25.5429 15.6137 25.4338 15.8316L21.4209 23.8564H16.9824C16.4023 23.8564 15.8459 24.0869 15.4356 24.4971C15.0254 24.9074 14.7949 25.4638 14.7949 26.0439V35.6689C14.7949 36.2491 15.0254 36.8055 15.4356 37.2157C15.8459 37.626 16.4023 37.8564 16.9824 37.8564H35.7949C36.5413 37.8563 37.262 37.5836 37.8215 37.0896C38.381 36.5955 38.7409 35.9141 38.8334 35.1735L40.1459 24.6735C40.1999 24.2427 40.1617 23.8055 40.0338 23.3906C39.906 22.9758 39.6914 22.5928 39.4043 22.2672ZM17.4199 26.4814H20.9199V35.2314H17.4199V26.4814ZM37.5449 24.3486L36.2324 34.8486C36.219 34.9549 36.1671 35.0526 36.0864 35.1232C36.0058 35.1938 35.9021 35.2323 35.7949 35.2314H23.5449V25.4785L27.3534 17.8627C27.7757 18.0159 28.1407 18.2955 28.3986 18.6634C28.6565 19.0313 28.7949 19.4696 28.7949 19.9189V22.5439C28.7949 22.892 28.9332 23.2259 29.1793 23.472C29.4255 23.7182 29.7593 23.8564 30.1074 23.8564H37.1074C37.1698 23.856 37.2315 23.8688 37.2885 23.8941C37.3455 23.9194 37.3964 23.9567 37.4378 24.0033C37.4793 24.0499 37.5103 24.1048 37.5287 24.1644C37.5472 24.2239 37.5527 24.2868 37.5449 24.3486Z" fill="#58667E"/>
<defs>
<linearGradient id="paint0_linear_2286_11860" x1="20.7864" y1="78.7781" x2="53.5394" y2="77.2929" gradientUnits="userSpaceOnUse">
<stop stop-color="#8DFCF5"/>
<stop offset="1" stop-color="#B3EDB2"/>
</linearGradient>
</defs>
</svg>
