<svg width="41" height="40" viewBox="0 0 41 40" fill="none" xmlns="http://www.w3.org/2000/svg">
<path d="M37.834 32.5002H35.334V15.0002C35.334 14.3371 35.0706 13.7012 34.6017 13.2324C34.1329 12.7636 33.497 12.5002 32.834 12.5002H22.834V5.00016C22.8343 4.54745 22.7116 4.10315 22.4792 3.71469C22.2467 3.32623 21.9131 3.00819 21.5139 2.79452C21.1148 2.58085 20.6652 2.47956 20.213 2.50146C19.7608 2.52337 19.3231 2.66765 18.9465 2.91891L6.44648 11.2502C6.10358 11.4789 5.82256 11.789 5.62846 12.1526C5.43436 12.5163 5.3332 12.9223 5.33398 13.3345V32.5002H2.83398C2.50246 32.5002 2.18452 32.6319 1.9501 32.8663C1.71568 33.1007 1.58398 33.4186 1.58398 33.7502C1.58398 34.0817 1.71568 34.3996 1.9501 34.634C2.18452 34.8685 2.50246 35.0002 2.83398 35.0002H37.834C38.1655 35.0002 38.4834 34.8685 38.7179 34.634C38.9523 34.3996 39.084 34.0817 39.084 33.7502C39.084 33.4186 38.9523 33.1007 38.7179 32.8663C38.4834 32.6319 38.1655 32.5002 37.834 32.5002ZM32.834 15.0002V32.5002H22.834V15.0002H32.834ZM7.83398 13.3345L20.334 5.00016V32.5002H7.83398V13.3345ZM17.834 17.5002V20.0002C17.834 20.3317 17.7023 20.6496 17.4679 20.884C17.2334 21.1185 16.9155 21.2502 16.584 21.2502C16.2525 21.2502 15.9345 21.1185 15.7001 20.884C15.4657 20.6496 15.334 20.3317 15.334 20.0002V17.5002C15.334 17.1686 15.4657 16.8507 15.7001 16.6163C15.9345 16.3819 16.2525 16.2502 16.584 16.2502C16.9155 16.2502 17.2334 16.3819 17.4679 16.6163C17.7023 16.8507 17.834 17.1686 17.834 17.5002ZM12.834 17.5002V20.0002C12.834 20.3317 12.7023 20.6496 12.4679 20.884C12.2334 21.1185 11.9155 21.2502 11.584 21.2502C11.2525 21.2502 10.9345 21.1185 10.7001 20.884C10.4657 20.6496 10.334 20.3317 10.334 20.0002V17.5002C10.334 17.1686 10.4657 16.8507 10.7001 16.6163C10.9345 16.3819 11.2525 16.2502 11.584 16.2502C11.9155 16.2502 12.2334 16.3819 12.4679 16.6163C12.7023 16.8507 12.834 17.1686 12.834 17.5002ZM12.834 26.2502V28.7502C12.834 29.0817 12.7023 29.3996 12.4679 29.634C12.2334 29.8685 11.9155 30.0002 11.584 30.0002C11.2525 30.0002 10.9345 29.8685 10.7001 29.634C10.4657 29.3996 10.334 29.0817 10.334 28.7502V26.2502C10.334 25.9186 10.4657 25.6007 10.7001 25.3663C10.9345 25.1319 11.2525 25.0002 11.584 25.0002C11.9155 25.0002 12.2334 25.1319 12.4679 25.3663C12.7023 25.6007 12.834 25.9186 12.834 26.2502ZM17.834 26.2502V28.7502C17.834 29.0817 17.7023 29.3996 17.4679 29.634C17.2334 29.8685 16.9155 30.0002 16.584 30.0002C16.2525 30.0002 15.9345 29.8685 15.7001 29.634C15.4657 29.3996 15.334 29.0817 15.334 28.7502V26.2502C15.334 25.9186 15.4657 25.6007 15.7001 25.3663C15.9345 25.1319 16.2525 25.0002 16.584 25.0002C16.9155 25.0002 17.2334 25.1319 17.4679 25.3663C17.7023 25.6007 17.834 25.9186 17.834 26.2502Z" fill="#00ADCC"/>
</svg>
