<svg width="394" height="349" viewBox="0 0 394 349" fill="none" xmlns="http://www.w3.org/2000/svg">
<path opacity="0.8" d="M384.522 73.0464C358.346 71.2428 338.714 77.781 325.625 92.6608C312.537 107.09 305.993 127.38 305.993 153.533C305.993 158.042 306.444 165.256 307.347 175.176H394V349H226.787V168.413C226.787 114.755 237.844 73.272 259.959 43.9632C282.525 14.6544 315.471 0 358.797 0C371.434 0 383.168 0.901797 394 2.70539L384.522 73.0464ZM0 168.413C0 114.755 11.0573 73.272 33.1718 43.9632C55.7377 14.6544 88.6838 0 132.01 0C144.647 0 156.381 0.901797 167.213 2.70539L157.735 73.0464C131.559 71.2428 111.927 77.781 98.8385 92.6608C85.7503 107.09 79.2062 127.38 79.2062 153.533C79.2062 158.042 79.6575 165.256 80.5601 175.176H167.213V349H0V168.413Z" fill="white"/>
</svg>
