<svg width="20" height="20" viewBox="0 0 20 20" fill="none" xmlns="http://www.w3.org/2000/svg">
<path d="M12.597 0C11.4274 0.00104835 10.2747 0.27859 9.23291 0.809963C8.19112 1.34134 7.28981 2.11148 6.60258 3.0575C5.91534 4.00353 5.46167 5.09862 5.27859 6.25336C5.09552 7.40811 5.18823 8.58976 5.54917 9.70185L0.216743 15.0315C0.147952 15.1003 0.0934045 15.182 0.0562152 15.272C0.0190258 15.3619 -7.63125e-05 15.4583 2.29116e-07 15.5556V19.2593C2.29116e-07 19.4557 0.0780696 19.6441 0.217034 19.783C0.355999 19.922 0.544475 20 0.741 20H4.446C4.64253 20 4.831 19.922 4.96997 19.783C5.10893 19.6441 5.187 19.4557 5.187 19.2593V17.7778H6.669C6.86553 17.7778 7.054 17.6997 7.19297 17.5608C7.33193 17.4219 7.41 17.2335 7.41 17.037V15.5556H8.892C8.98934 15.5556 9.08574 15.5365 9.17569 15.4994C9.26565 15.4622 9.34739 15.4077 9.41626 15.3389L10.3018 14.4528C11.3202 14.7833 12.3982 14.8893 13.4615 14.7634C14.5249 14.6375 15.5483 14.2827 16.4613 13.7235C17.3743 13.1643 18.1552 12.4139 18.7503 11.5241C19.3454 10.6342 19.7405 9.62597 19.9084 8.56882C20.0762 7.51167 20.0129 6.4307 19.7228 5.40035C19.4327 4.37 18.9226 3.41474 18.2277 2.60036C17.5329 1.78597 16.6697 1.1318 15.6976 0.682898C14.7256 0.233992 13.6678 0.00101177 12.597 0ZM14.4495 7.03704C14.1564 7.03704 13.8699 6.95015 13.6261 6.78736C13.3824 6.62457 13.1925 6.3932 13.0803 6.12249C12.9681 5.85179 12.9388 5.55391 12.996 5.26653C13.0532 4.97915 13.1943 4.71518 13.4016 4.50799C13.6088 4.3008 13.8729 4.1597 14.1604 4.10254C14.4479 4.04538 14.7458 4.07472 15.0166 4.18684C15.2874 4.29897 15.5189 4.48886 15.6817 4.73249C15.8446 4.97612 15.9315 5.26255 15.9315 5.55556C15.9315 5.94847 15.7754 6.32529 15.4974 6.60312C15.2195 6.88095 14.8426 7.03704 14.4495 7.03704Z" fill="#2CB62A"/>
</svg>
