<svg width="20" height="20" viewBox="0 0 20 20" fill="none" xmlns="http://www.w3.org/2000/svg">
<path d="M10.007 4.48277C10.0421 3.99773 10.2022 3.53007 10.4719 3.12542C10.7417 2.72078 11.1117 2.39298 11.5459 2.17402C11.9801 1.95506 12.4637 1.85243 12.9494 1.87615C13.4351 1.89986 13.9064 2.04911 14.3172 2.30933C14.3642 2.34006 14.402 2.38287 14.4267 2.43327C14.4514 2.48367 14.4621 2.5398 14.4576 2.59575C14.4531 2.6517 14.4337 2.70541 14.4013 2.75124C14.3688 2.79707 14.3247 2.83333 14.2734 2.8562C13.5593 3.17751 12.9531 3.69815 12.5276 4.3556C12.1022 5.01305 11.8755 5.77935 11.875 6.56245C11.875 6.65386 11.875 6.74527 11.8844 6.83511C11.8887 6.8919 11.8774 6.94878 11.8517 6.99962C11.826 7.05045 11.787 7.09331 11.7387 7.12355C11.6905 7.15379 11.6349 7.17027 11.5779 7.1712C11.521 7.17214 11.4649 7.1575 11.4156 7.12886C10.9552 6.8655 10.5787 6.47732 10.3294 6.00912C10.0802 5.54091 9.96841 5.01177 10.007 4.48277ZM18.75 12.5476C18.7511 12.9047 18.6522 13.2551 18.4644 13.5588C18.2766 13.8626 18.0075 14.1077 17.6875 14.2664L17.6531 14.282L14.6195 15.5742C14.5895 15.5874 14.5584 15.5978 14.5266 15.6054L9.52656 16.8554C9.47704 16.8682 9.42613 16.8747 9.375 16.875H1.25C0.918479 16.875 0.600537 16.7433 0.366117 16.5088C0.131696 16.2744 0 15.9565 0 15.625V12.5C0 12.1684 0.131696 11.8505 0.366117 11.6161C0.600537 11.3816 0.918479 11.25 1.25 11.25H3.49141L5.25859 9.48198C5.49032 9.24923 5.76587 9.06469 6.06932 8.93904C6.37278 8.8134 6.69812 8.74913 7.02656 8.74995H10.9375C11.2676 8.74992 11.5935 8.82461 11.8907 8.96842C12.1878 9.11223 12.4486 9.32144 12.6534 9.58037C12.8582 9.83929 13.0017 10.1412 13.0733 10.4635C13.1448 10.7858 13.1425 11.1201 13.0664 11.4414L16.3352 10.6898C16.6197 10.6144 16.9178 10.6054 17.2064 10.6635C17.495 10.7215 17.7664 10.845 17.9997 11.0245C18.233 11.204 18.422 11.4347 18.5521 11.6988C18.6822 11.9628 18.7499 12.2532 18.75 12.5476ZM17.5 12.5476C17.4999 12.4443 17.476 12.3423 17.4301 12.2497C17.3843 12.1571 17.3177 12.0763 17.2356 12.0136C17.1534 11.9509 17.058 11.908 16.9565 11.8881C16.8551 11.8683 16.7505 11.872 16.6508 11.8992L16.6266 11.9054L11.3922 13.1093C11.3463 13.1196 11.2994 13.1248 11.2523 13.125H8.75C8.58424 13.125 8.42527 13.0591 8.30806 12.9419C8.19085 12.8247 8.125 12.6657 8.125 12.5C8.125 12.3342 8.19085 12.1752 8.30806 12.058C8.42527 11.9408 8.58424 11.875 8.75 11.875H10.9375C11.1861 11.875 11.4246 11.7762 11.6004 11.6004C11.7762 11.4246 11.875 11.1861 11.875 10.9375C11.875 10.6888 11.7762 10.4504 11.6004 10.2745C11.4246 10.0987 11.1861 9.99995 10.9375 9.99995H7.02656C6.86235 9.99943 6.69967 10.0316 6.54798 10.0945C6.39629 10.1574 6.25862 10.2498 6.14297 10.3664L4.375 12.1335V15.625H9.29688L14.1742 14.4054L17.143 13.1414C17.251 13.0844 17.3414 12.999 17.4044 12.8943C17.4673 12.7897 17.5004 12.6697 17.5 12.5476ZM13.125 6.56245C13.125 7.11871 13.29 7.66248 13.599 8.12499C13.908 8.58751 14.3473 8.94799 14.8612 9.16086C15.3751 9.37374 15.9406 9.42943 16.4862 9.32091C17.0318 9.21239 17.5329 8.94453 17.9262 8.55119C18.3196 8.15786 18.5874 7.65672 18.696 7.11115C18.8045 6.56557 18.7488 6.00007 18.5359 5.48616C18.323 4.97224 17.9626 4.53299 17.5 4.22395C17.0375 3.9149 16.4938 3.74995 15.9375 3.74995C15.1916 3.74995 14.4762 4.04627 13.9488 4.57372C13.4213 5.10116 13.125 5.81653 13.125 6.56245Z" fill="#00ADCC"/>
</svg>
