<svg width="21" height="20" viewBox="0 0 21 20" fill="none" xmlns="http://www.w3.org/2000/svg">
<path d="M18.3717 10.6633L12.7467 16.2883C12.5705 16.4644 12.3317 16.5634 12.0826 16.5634C11.8335 16.5634 11.5947 16.4644 11.4185 16.2883C11.2424 16.1122 11.1435 15.8733 11.1435 15.6242C11.1435 15.3752 11.2424 15.1363 11.4185 14.9602L15.4427 10.9375H3.95837C3.70973 10.9375 3.47128 10.8387 3.29546 10.6629C3.11965 10.4871 3.02087 10.2487 3.02087 10C3.02087 9.75137 3.11965 9.51292 3.29546 9.3371C3.47128 9.16129 3.70973 9.06252 3.95837 9.06252H15.4427L11.4201 5.03751C11.244 4.86139 11.145 4.62252 11.145 4.37345C11.145 4.12438 11.244 3.88551 11.4201 3.70939C11.5962 3.53327 11.8351 3.43433 12.0842 3.43433C12.3332 3.43433 12.5721 3.53327 12.7482 3.70939L18.3732 9.33439C18.4606 9.4216 18.53 9.52523 18.5772 9.63931C18.6245 9.75339 18.6487 9.87569 18.6486 9.99917C18.6484 10.1226 18.6239 10.2449 18.5764 10.3589C18.5288 10.4728 18.4593 10.5763 18.3717 10.6633Z" fill="#C7F8FF"/>
</svg>
