<svg width="923" height="406" viewBox="0 0 923 406" fill="none" xmlns="http://www.w3.org/2000/svg">
<path fill-rule="evenodd" clip-rule="evenodd" d="M72.6745 0.349425C71.3845 0.613425 68.0095 2.20342 65.1745 3.88342C62.3395 5.56342 57.7845 7.66442 55.0525 8.55142C50.2655 10.1074 48.6265 11.8324 47.1055 16.9154C46.7085 18.2424 45.5035 18.6654 42.1235 18.6654C38.4675 18.6654 37.2815 19.1524 35.5355 21.3724C32.2455 25.5554 34.8145 32.2304 40.9175 35.3564C44.9185 37.4054 45.4855 38.3534 45.5045 43.0304C45.5165 46.1404 44.9085 47.4104 42.3955 49.5304C33.7225 56.8464 32.7125 58.1824 32.0435 63.2254C31.0355 70.8174 27.6785 79.1415 24.3495 82.3055C19.4115 86.9995 18.2585 90.1125 19.0225 96.6935C19.5895 101.573 20.0495 102.581 21.9245 103.052C25.5275 103.956 46.8825 102.556 48.5195 101.308C50.4145 99.8644 54.3295 97.6654 55.0055 97.6654C56.0655 97.6654 55.4685 101.462 54.2495 102.474C53.5515 103.053 50.0645 104.498 46.4995 105.683C41.6115 107.309 38.4515 109.27 33.6375 113.665L27.2545 119.491L27.0205 125.828C26.8915 129.313 26.4495 133.177 26.0365 134.415C25.5025 136.017 25.6795 136.665 26.6525 136.664C28.6025 136.663 35.5195 130.28 35.5195 128.482C35.5195 126.55 37.9475 124.437 43.2035 121.795C47.9305 119.419 50.5195 116.291 50.5195 112.957C50.5195 110.226 56.3895 106.018 61.5355 105.06C63.4515 104.703 69.1185 102.222 74.1275 99.5474C84.0395 94.2534 87.4845 90.5204 89.4815 82.9124C90.7445 78.1004 92.9395 76.3144 99.6385 74.6444C104.013 73.5544 104.393 73.6304 106.842 76.0794C110.339 79.5764 112.773 79.3324 115.951 75.1654C118.293 72.0954 119.164 71.6654 123.046 71.6654C125.708 71.6654 128.775 72.4604 130.745 73.6614C132.546 74.7594 135.6 75.6594 137.532 75.6614C140.214 75.6644 141.278 76.1974 142.032 77.9154C143.08 80.3054 143.945 80.4014 152.753 79.1054C155.357 78.7224 157.999 77.7914 158.625 77.0374C159.252 76.2824 160.332 75.6654 161.026 75.6654C163.03 75.6654 165.519 71.0504 165.519 67.3364C165.519 64.5264 164.869 63.4984 161.769 61.4014C159.707 60.0064 156.894 58.5434 155.519 58.1504C154.144 57.7574 152.119 56.6304 151.019 55.6464C149.919 54.6624 147.444 53.1414 145.519 52.2654C141.288 50.3424 135.918 47.1244 132.655 44.5574C131.332 43.5164 129.522 42.6514 128.634 42.6334C127.032 42.6024 123.262 39.6564 120.67 36.4114C118.483 33.6724 117.265 27.7124 117.121 19.0494C116.922 7.12644 115.082 5.81944 103.737 9.54144C91.8985 13.4274 92.6555 13.5494 86.5195 6.76544C80.9255 0.58144 78.0495 -0.751575 72.6745 0.349425ZM448.547 7.09442C448.039 8.43042 445.921 10.6804 443.84 12.0944C439.169 15.2684 433.815 15.4724 430.182 12.6154C428.099 10.9764 427.169 10.7824 425.548 11.6504C424.433 12.2474 423.52 13.1704 423.52 13.7004C423.52 15.1844 418.259 14.7834 416.078 13.1334C415.01 12.3264 413.125 11.6654 411.888 11.6654C410.65 11.6654 409.36 11.2154 409.02 10.6654C408.129 9.22343 403.434 9.49943 400.52 11.1654C396.954 13.2044 390.079 12.9914 385.596 10.7044C379.762 7.72844 375.412 7.80944 370.617 10.9814C368.363 12.4734 366.52 13.5014 366.52 13.2654C366.52 13.0304 364.157 13.7374 361.27 14.8364C358.383 15.9354 355.12 17.0584 354.02 17.3334C352.92 17.6074 351.12 18.2104 350.02 18.6734C346.689 20.0744 342.24 20.8304 337.982 20.7194C334.716 20.6344 333.388 21.1924 331.044 23.6394C329.449 25.3034 327.355 26.6654 326.389 26.6654C323.746 26.6654 317.69 30.5544 317.013 32.6864C316.686 33.7184 315.58 34.8284 314.557 35.1534C313.535 35.4774 311.973 36.8504 311.086 38.2044C310.174 39.5964 308.506 40.6674 307.246 40.6694C306.021 40.6714 303.445 41.6504 301.52 42.8454C299.595 44.0404 294.259 46.9364 289.664 49.2814C278.869 54.7904 277.269 56.2474 278.059 59.8424C278.893 63.6414 275.684 67.9824 270.513 70.0514C264.908 72.2944 254.208 72.1214 246.519 69.6654C243.076 68.5654 239.343 67.6654 238.225 67.6654C235.693 67.6654 228.519 64.5664 228.519 63.4734C228.519 61.7574 224.168 62.7824 221.337 65.1654C218.659 67.4184 217.494 67.6654 209.549 67.6654C202.635 67.6654 200.609 67.3414 200.157 66.1654C199.744 65.0894 198.061 64.6654 194.199 64.6654C190.427 64.6654 187.456 63.9424 184.267 62.2464C180.254 60.1124 179.227 59.9524 175.551 60.8854C169.884 62.3234 168.448 64.9864 166.914 76.8964C166.589 79.4224 169.534 83.6654 171.613 83.6654C172.007 83.6654 173.53 85.7154 174.999 88.2204C178.729 94.5864 180.588 95.2034 189.055 92.8814C195.739 91.0484 202.971 90.9694 204.051 92.7174C204.334 93.1744 202.061 94.3384 199.001 95.3024C194.737 96.6464 192.57 96.8324 189.728 96.0984C185.668 95.0494 178.48 96.3044 176.351 98.4334C175.658 99.1264 172.579 99.6654 169.305 99.6654C166.108 99.6654 162.71 100.115 161.755 100.665C160.8 101.214 158.77 102.108 157.243 102.65C150.599 105.009 153.228 109.323 161.983 110.426C165.212 110.832 168.038 111.718 168.263 112.395C168.488 113.071 167.075 114.386 165.123 115.317C161.763 116.919 161.285 116.91 156.119 115.154C152.015 113.759 150.328 113.579 149.308 114.425C148.401 115.178 143.826 115.414 135.486 115.137C128.1 114.893 121.657 115.164 119.677 115.803C115.813 117.049 113.158 115.626 115.319 113.465C117.276 111.508 116.793 110.937 110.898 108.238C101.072 103.74 96.9915 105.911 103.519 112.165C105.169 113.746 106.519 115.653 106.519 116.403C106.519 118.629 100.505 120.346 93.0335 120.252C86.2635 120.168 86.0065 120.072 84.7315 117.165C82.0745 111.108 82.1415 111.152 75.9035 111.388C59.0025 112.028 60.7235 111.442 51.6295 119.665C47.0675 123.79 42.5095 128.77 41.5005 130.732C39.1255 135.349 37.1345 136.939 32.1915 138.165C28.2765 139.136 28.1225 139.337 26.8005 145.165C25.8215 149.485 25.7315 151.808 26.4805 153.463C27.2605 155.187 27.1455 156.488 26.0205 158.664C25.1945 160.26 24.5195 163.193 24.5195 165.181C24.5195 167.17 24.0315 169.709 23.4345 170.824C22.8375 171.939 22.6215 173.934 22.9535 175.258C23.4805 177.357 24.1365 177.665 28.0785 177.665C30.7735 177.665 34.2995 176.783 36.8095 175.482C40.9435 173.338 45.8325 172.217 56.2695 171.02C61.3015 170.442 61.5185 170.516 61.4985 172.791C61.4855 174.351 59.4285 177.186 55.4985 181.061C49.0655 187.404 48.4055 188.998 51.5195 190.665C52.6195 191.254 53.5195 192.292 53.5195 192.972C53.5195 193.653 54.8795 195.859 56.5415 197.875C59.1505 201.041 59.4775 202.077 58.9345 205.47C57.9185 211.826 61.3685 215.962 64.5195 212.165C66.2745 210.05 69.5195 210.25 69.5195 212.472C69.5195 214.327 61.5085 220.665 59.1645 220.665C58.4515 220.665 56.8555 221.743 55.6175 223.061C52.7895 226.071 53.0255 231.002 56.0195 231.493C57.1925 231.685 58.8805 233.545 60.1025 235.993C62.3085 240.409 61.7585 240.227 70.4215 239.396C74.3435 239.019 73.9915 241.441 69.9635 242.553C67.9395 243.112 65.5485 244.207 64.6515 244.986C62.2165 247.101 57.7335 247.627 56.3505 245.961C55.6565 245.126 54.2535 244.766 52.9585 245.091C49.9765 245.839 48.0175 243.273 48.3775 239.093C48.6115 236.377 47.9845 235.064 45.0595 232.138C40.9565 228.035 38.7585 227.98 36.5535 231.924C35.1415 234.452 35.1785 234.967 37.0195 238.417C38.1195 240.479 40.0325 242.609 41.2695 243.152C42.5075 243.695 43.5195 244.494 43.5195 244.927C43.5195 246.567 37.8165 247.832 32.7095 247.325C27.4275 246.8 27.4015 246.811 27.7095 249.481C27.9415 251.486 29.0315 252.651 32.0195 254.087C34.2195 255.144 36.3795 256.607 36.8195 257.337C37.2595 258.067 38.2515 258.665 39.0235 258.665C39.7965 258.665 41.5535 259.79 42.9285 261.165C45.9865 264.223 50.5025 264.446 53.0195 261.665C55.6555 258.753 58.5195 259.047 58.5195 262.231C58.5195 266.971 60.2975 268.929 63.9765 268.239C66.7295 267.722 67.5225 268.021 68.8735 270.082C70.0235 271.837 71.5645 272.631 74.2525 272.854C77.6335 273.133 78.0495 273.476 78.3165 276.197C78.7495 280.619 74.8755 285.908 70.5545 286.792C67.0935 287.5 64.2005 290.196 64.8345 292.125C65.0225 292.697 67.3815 293.306 70.0785 293.479C75.5475 293.83 76.4815 294.695 76.5045 299.429C76.5125 301.224 77.0825 303.645 77.7695 304.809C78.7695 306.503 78.7695 307.017 77.7695 307.379C77.0825 307.628 76.5195 308.968 76.5195 310.358C76.5195 313.049 76.0565 312.986 85.0105 311.496C86.6085 311.23 87.1025 311.854 87.5195 314.665C88.0135 318 88.2145 318.155 91.7785 317.945C95.8615 317.705 96.6745 318.976 93.5195 320.665C92.3395 321.297 91.5195 322.759 91.5195 324.232C91.5195 327.641 88.9525 328.353 84.7755 326.103L81.2925 324.228L79.4055 326.557C77.1135 329.388 77.0575 330.561 79.0765 333.442C80.7645 335.853 84.3895 336.34 87.6495 334.596C89.1145 333.811 90.0435 333.855 91.1345 334.76C93.3115 336.567 106.506 336.702 109.202 334.945C110.705 333.966 112.731 333.721 115.702 334.159C118.68 334.598 121.223 334.289 123.901 333.162C126.444 332.091 128.121 331.867 128.765 332.511C130.086 333.832 124.545 336.665 120.64 336.665C117.254 336.665 114.519 338.911 114.519 341.691C114.519 343.096 113.566 343.724 110.769 344.164C108.707 344.489 105.894 345.003 104.519 345.306C103.144 345.609 98.5155 346.151 94.2325 346.511C86.1175 347.192 84.5645 348.118 84.5345 352.293C84.5085 355.89 86.8025 356.897 93.2165 356.106C97.0785 355.63 99.9645 354.6 101.846 353.028C103.982 351.242 105.883 350.665 109.631 350.665C112.474 350.665 115.622 349.988 117.01 349.079C119.364 347.537 121.519 347.836 121.519 349.705C121.519 350.212 120.281 350.923 118.769 351.284C114.756 352.243 114.41 352.594 115.487 354.606C116.216 355.968 115.965 356.998 114.49 358.698C111.829 361.767 112.011 363.499 115.074 364.268C118.006 365.004 122.519 361.543 122.519 358.559C122.519 357.592 123.908 355.812 125.606 354.603C128.27 352.706 128.611 351.968 128.094 349.214C127.32 345.087 128.304 344.178 130.548 346.949C132.257 349.06 132.406 349.077 134.28 347.381C136.064 345.767 136.347 345.753 137.561 347.216C138.511 348.361 139.815 348.645 142.127 348.211C145.884 347.506 147.08 348.748 145.496 351.708C143.878 354.732 146.019 357.015 149.77 356.265C152.31 355.757 152.796 356.085 154.089 359.179C154.902 361.124 156.261 362.665 157.164 362.665C158.468 362.665 158.681 361.907 158.258 358.757C157.656 354.264 158.784 352.665 162.558 352.665C166.015 352.665 167.519 355.98 167.519 363.6C167.519 368.855 167.957 370.08 171.877 375.803C174.843 380.132 177.159 382.432 179.127 383.001C180.718 383.461 183.401 384.248 185.09 384.751C186.779 385.254 189.297 385.665 190.686 385.665C192.075 385.665 194.683 386.399 196.48 387.295C199.502 388.803 200.007 388.803 203.168 387.295C205.048 386.399 207.393 385.665 208.379 385.665C209.364 385.665 211.261 384.497 212.595 383.07C215.451 380.012 219.664 377.665 222.295 377.665C223.326 377.665 225.227 378.79 226.519 380.165C230.235 384.12 236.519 382.879 236.519 378.189C236.519 376.866 236.954 375.514 237.486 375.185C238.018 374.856 238.185 373.243 237.856 371.599C237.428 369.461 237.791 368.022 239.13 366.542C240.636 364.878 241.02 362.785 241.096 355.82C241.148 351.06 241.264 346.614 241.355 345.941C241.628 343.902 246.839 341.705 248.798 342.801C250.37 343.681 260.605 345.304 269.729 346.121C271.77 346.303 274.974 347.401 276.848 348.559C278.723 349.717 281.213 350.665 282.384 350.665C283.555 350.665 286.257 352.24 288.387 354.164C290.517 356.088 293.78 357.957 295.639 358.317C297.498 358.677 300.393 360.161 302.073 361.616C303.753 363.07 306.562 364.854 308.315 365.58C311.6 366.941 318.968 375.711 320.987 380.665C323.084 385.81 326.641 389.555 329.52 389.651C330.345 389.679 332.999 391.043 335.419 392.683C340.659 396.233 342.167 396.338 347.559 393.528C351.29 391.583 352.021 391.511 355.69 392.722C359.292 393.91 359.825 393.871 360.672 392.359C361.33 391.181 362.915 390.665 365.87 390.665C368.207 390.665 370.624 390.161 371.24 389.545C373.194 387.591 380.348 386.753 381.654 388.326C382.632 389.505 383.07 389.477 384.546 388.142C385.676 387.119 387.169 386.79 388.809 387.201C392.941 388.239 395.362 386.235 395.712 381.488C396.069 376.638 398.073 375.362 399.488 379.084C401.263 383.753 404.294 382.163 406.465 375.423C407.335 372.72 409.108 370.673 412.845 368.054C415.691 366.06 419.595 362.384 421.52 359.885C426.488 353.437 431.239 348.67 432.737 348.633C433.442 348.616 434.894 347.941 435.961 347.133C438.861 344.94 439.849 345.256 445.24 350.103C448.962 353.449 450.942 354.519 453.293 354.452C457.11 354.344 461.159 356.869 463.366 360.736C465.583 364.621 469.638 366.006 473.262 364.116C474.779 363.325 477.269 362.675 478.795 362.671C480.984 362.666 482.115 361.768 484.155 358.415C485.577 356.078 488.479 352.94 490.605 351.442C492.73 349.945 495.118 347.168 495.91 345.273C497.489 341.492 500.507 339.34 502.926 340.268C505.595 341.292 508.52 347.164 508.52 351.498C508.52 356.637 504.847 361.106 496.416 366.228C485.891 372.621 484.611 380.823 492.925 388.589C494.923 390.456 495.52 391.982 495.52 395.221C495.52 398.843 495.999 399.794 498.973 402.062C503.679 405.652 508.016 406.43 510.546 404.14C511.631 403.158 512.519 401.782 512.519 401.083C512.519 399.343 517.362 395.665 519.654 395.665C521.193 395.665 521.519 394.892 521.519 391.236C521.519 386.065 523.405 383.665 527.468 383.665C529.011 383.665 530.881 382.933 531.624 382.039C533.643 379.606 533.353 372.748 531.163 371.147C529.846 370.183 529.277 368.238 529.072 363.994C528.918 360.788 528.236 356.99 527.558 355.554C526.538 353.394 526.601 352.407 527.922 349.853C528.8 348.154 529.519 346.119 529.519 345.331C529.519 342.939 533.747 342.497 536.606 344.59C538.275 345.812 539.687 346.179 540.583 345.625C542.297 344.566 544.892 346.738 546.472 350.553C547.926 354.062 552.331 355.665 560.519 355.665C564.016 355.665 568.259 356.154 569.948 356.751C572.774 357.75 574.257 357.214 588.519 350.03C603.346 342.562 604.312 342.224 610.771 342.25C616.212 342.272 618.056 342.706 620.271 344.485C621.782 345.7 624.144 347.194 625.519 347.806C626.894 348.417 629.819 349.74 632.019 350.744C644.5 356.443 649.866 356.936 664.28 353.708C674.972 351.314 692.129 345.157 700.114 340.847C712.5 334.164 717.006 332.627 728.295 331.235C737.954 330.044 741.109 329.198 746.968 326.229C750.846 324.264 754.787 322.658 755.725 322.661C756.663 322.663 759.088 323.79 761.114 325.165C766.917 329.103 772.686 328.086 782.375 321.42C793.778 313.574 803.291 315.2 802.327 324.83C801.877 329.332 804.463 330.689 808.921 328.288C812.915 326.137 820.683 318.899 825.152 313.165C828.162 309.303 828.337 309.225 830.223 310.915C832.802 313.225 835.2 313.13 836.519 310.665C838.039 307.825 842.087 308.167 848.019 311.637C854.579 315.475 859.735 317.953 866.789 320.659L872.558 322.872L876.023 320.23C879.974 317.216 887.304 314.368 889.219 315.103C889.928 315.375 891.356 316.992 892.392 318.697C893.922 321.212 894.107 322.55 893.377 325.801C892.256 330.791 893.865 334.585 897.928 336.532C900.515 337.772 901.272 337.698 905.123 335.827C907.49 334.677 910.194 332.565 911.132 331.134C912.069 329.702 914.396 327.774 916.301 326.848C918.941 325.566 920.201 324.002 921.597 320.279C923.231 315.922 923.273 315.089 921.985 312.599C921.191 311.063 919.748 309.554 918.78 309.246C916.303 308.457 912.513 300.841 912.516 296.658C912.518 294.73 912.92 291.753 913.411 290.042C913.901 288.332 914.014 286.466 913.661 285.895C913.308 285.325 910.373 283.928 907.14 282.792C893.785 278.098 893.118 276.239 900.914 265.449C906.987 257.045 906.61 246.665 900.233 246.665C898.122 246.665 898.117 247.102 900.348 236.165C901.029 232.828 900.762 231.457 898.734 227.894C896.866 224.609 896.455 222.818 896.958 220.138C897.561 216.924 897.335 216.489 894.065 214.56C889.784 212.034 889.432 209.035 893.019 205.665C896.379 202.508 896.169 200.243 892.073 195.457C888.098 190.813 887.007 187.142 888.463 183.313C889.897 179.54 891.805 179.141 896.814 181.566C905.414 185.729 907.851 183.943 908.057 173.322C908.231 164.383 909.025 161.876 911.806 161.478C915.075 161.011 914.966 158.503 911.487 154.124C909.777 151.973 908.137 149.003 907.841 147.523C906.918 142.909 902.693 139.884 894.874 138.24C885.761 136.323 881.673 136.136 878.335 137.482C876.081 138.392 875.107 138.196 872.25 136.257C870.38 134.988 867.262 133.652 865.322 133.288C859.626 132.219 858.32 129.953 858.409 121.294C858.5 112.414 860.504 106.696 864.314 104.445C869.901 101.145 872.519 97.9194 872.519 94.3354C872.519 90.0214 870.986 88.7664 863.245 86.7424C856.791 85.0544 854.647 82.5144 857.751 80.2314C858.549 79.6454 859.519 76.7564 859.908 73.8134C860.46 69.6354 860.252 67.9064 858.96 65.9344C857.437 63.6104 856.872 63.4524 851.917 63.9634C847.189 64.4514 846.346 64.2564 845.025 62.3704C844.197 61.1874 843.519 58.3274 843.519 56.0144C843.519 51.2754 841.585 48.6654 838.073 48.6654C836.362 48.6654 835.625 47.9574 835.21 45.9154C834.492 42.3824 828.61 35.9774 825.326 35.1534C820.761 34.0074 814.919 36.3224 812.643 40.1794C810.334 44.0934 807.627 44.6454 802.883 42.1714C798.566 39.9194 794.331 40.3454 788.019 43.6654C781.094 47.3084 780.278 47.3334 773.038 44.1314C769.887 42.7374 766.564 41.8334 765.654 42.1224C764.744 42.4114 760.44 46.2514 756.09 50.6564C751.74 55.0614 747.353 58.6654 746.341 58.6654C745.329 58.6654 743.088 60.0154 741.362 61.6654C739.133 63.7944 737.236 64.6654 734.823 64.6654C732.554 64.6654 730.691 65.4434 729.221 67.0034C725.5 70.9544 721.927 72.8064 719.297 72.1464C717.447 71.6814 715.864 72.3704 712.694 75.0194C706.923 79.8414 699.236 82.3264 694.92 80.7654C693.131 80.1194 690.465 79.8914 688.995 80.2604C686.884 80.7904 685.808 80.3774 683.88 78.2984C682.192 76.4784 680.418 75.6654 678.134 75.6654C676.156 75.6654 674.138 74.9014 673.109 73.7644C670.682 71.0834 665.216 70.2534 661.757 72.0424C659.492 73.2134 658.118 73.2804 654.758 72.3834C651.288 71.4574 649.978 71.5524 647.061 72.9444C644.917 73.9664 642.408 74.3934 640.633 74.0384C638.546 73.6204 636.887 74.0734 634.774 75.6354C633.152 76.8334 629.844 78.0624 627.423 78.3664C625.001 78.6694 621.527 79.8154 619.703 80.9134C616.492 82.8464 616.264 82.8544 612.488 81.1514C609.868 79.9694 607.378 79.5884 604.902 79.9904C601.912 80.4754 600.664 80.1244 598.291 78.1274C596.626 76.7264 594.091 75.6654 592.409 75.6654C590.106 75.6654 589.008 74.9134 587.446 72.2654C585.747 69.3874 584.88 68.8654 581.794 68.8654C579.138 68.8654 577.638 69.5164 576.262 71.2654C573.892 74.2784 571.29 74.3404 570.006 71.4154C569.315 69.8414 567.999 69.0684 565.623 68.8414C563.756 68.6624 561.601 67.8905 560.835 67.1245C559.967 66.2565 558.371 65.9454 556.602 66.2984C552.836 67.0524 549.949 65.3734 548.021 61.3104C547.152 59.4804 544.867 56.4574 542.943 54.5924C538.26 50.0524 532.879 49.9894 528.197 54.4194C524.645 57.7794 521.395 59.6654 519.157 59.6654C518.336 59.6654 516.024 56.9654 514.019 53.6654C512.014 50.3654 510.012 47.6654 509.569 47.6654C508.611 47.6654 506.902 43.4644 505.996 38.8814C505.041 34.0544 501.674 32.2364 495.238 33.0714C492.367 33.4434 487.77 33.9674 485.02 34.2354C482.27 34.5044 479.431 34.9314 478.713 35.1844C473.656 36.9694 458.52 22.7504 458.52 16.2154C458.52 15.3624 458.979 14.6654 459.54 14.6654C460.102 14.6654 461.068 13.5534 461.688 12.1954C463.268 8.72643 461.319 6.66543 456.457 6.66543C454.356 6.66543 452.36 6.21543 452.02 5.66543C450.966 3.95943 449.511 4.55842 448.547 7.09442ZM89.2695 97.7454C86.8475 99.1564 87.0815 100.508 89.9745 101.826C92.8075 103.117 98.5195 101.328 98.5195 99.1514C98.5195 96.7274 92.5695 95.8234 89.2695 97.7454ZM8.34749 125.868C6.93649 127.131 4.32349 128.96 2.54149 129.931C-0.152508 131.399 -0.490507 131.948 0.532493 133.181C1.21049 133.997 2.83449 134.665 4.14149 134.665C5.44949 134.665 6.51949 135.115 6.51949 135.665C6.51949 136.215 7.56649 136.665 8.84549 136.665C12.3015 136.665 15.5965 132.594 15.8255 128.041C15.9995 124.569 15.7535 124.134 13.4665 123.868C11.8905 123.684 9.93149 124.449 8.34749 125.868ZM16.8935 150.134C16.5905 150.923 16.6215 152.021 16.9625 152.573C17.7805 153.896 20.5195 152.811 20.5195 151.165C20.5195 149.286 17.5435 148.44 16.8935 150.134Z" fill="#F5F7F9"/>
</svg>
