<svg width="888" height="815" viewBox="0 0 888 815" fill="none" xmlns="http://www.w3.org/2000/svg">
<path fill-rule="evenodd" clip-rule="evenodd" d="M352.248 1.32139C349.481 2.06839 343.76 4.05239 339.535 5.73139C329.739 9.62239 320.774 11.0414 311.013 10.2464C303.014 9.59439 279.491 11.8954 272.78 13.9864C270.855 14.5864 266.858 16.8814 263.897 19.0874C246.293 32.2034 234.87 38.5114 221.279 42.6214C213.219 45.0584 208.408 49.2724 204.613 57.2154C202.725 61.1664 201.067 62.8274 195.924 65.9204C192.069 68.2374 187.74 69.9664 184.924 70.3124C174.226 71.6284 169.239 73.3044 154.692 80.4734C137.662 88.8664 131.565 90.5834 115.78 91.4364C103.426 92.1034 97.2041 94.1724 82.5811 102.477C70.4401 109.372 66.2311 110.965 51.3431 114.3C37.2441 117.458 35.0141 118.486 30.8471 123.748C29.1151 125.934 26.8181 128.003 25.7411 128.344C22.4821 129.379 22.4671 132.9 25.6891 140.946C29.8991 151.46 31.1351 160.745 30.5011 177.102C30.1341 186.568 30.3721 192.663 31.2631 196.602C31.9761 199.754 32.8651 208.408 33.2371 215.834C33.8911 228.868 33.8341 229.454 31.5971 232.739C30.1251 234.901 26.1791 237.853 20.7801 240.832C15.3541 243.826 11.4461 246.753 9.97511 248.927C8.70711 250.8 5.83611 254.208 3.59611 256.501C0.289109 259.885 -0.357894 261.147 0.158106 263.201C1.11711 267.024 11.3011 277.452 20.0921 283.611C24.9041 286.983 29.4921 291.251 32.0261 294.711C34.2911 297.802 39.7641 304.044 44.1891 308.582L52.2351 316.831L50.3801 320.276C49.3601 322.171 45.8821 325.575 42.6521 327.841C38.6761 330.63 36.7801 332.635 36.7801 334.05C36.7801 335.2 38.9901 340.466 41.6911 345.753C53.5181 368.905 53.7701 378.627 42.9531 394.589C40.8131 397.748 38.0391 402.343 36.7891 404.801C35.5381 407.259 33.6221 410.479 32.5301 411.956C31.3351 413.572 30.8561 415.178 31.3261 415.987C31.7561 416.727 35.8501 422.993 40.4231 429.912C48.4821 442.104 51.9551 445.47 55.1941 444.227C57.4401 443.365 59.4041 447.388 62.3281 458.832C65.0711 469.571 66.9651 484.249 67.1031 495.832C67.1731 501.752 66.5331 503.85 59.9401 519.332C55.9581 528.682 51.1251 539.639 49.1991 543.681C45.1171 552.251 45.4871 553.409 52.6121 554.352C55.1791 554.692 60.1201 555.932 63.5911 557.107C68.2771 558.695 70.3371 558.974 71.5911 558.193C74.0081 556.687 77.5741 550.013 78.3191 545.601L78.9561 541.832H85.3331C93.4251 541.832 94.2181 542.978 93.2531 553.281C92.2061 564.446 94.1691 566.554 107.616 568.706C111.651 569.351 116.785 570.814 119.024 571.956C121.263 573.099 128.312 575.156 134.688 576.529C141.063 577.901 147.216 579.243 148.361 579.512C149.505 579.781 152.147 579.288 154.233 578.416C159.347 576.28 161.126 576.414 164.453 579.191C168.838 582.851 172.796 584.536 178.78 585.292C186.109 586.218 197.78 589.942 197.78 591.355C197.78 593.271 193.591 596.462 186.28 600.114C177.311 604.595 175.265 606.852 175.334 612.187C175.422 618.975 181.23 631.16 187.731 638.196C190.849 641.571 194.45 645.841 195.732 647.685C197.014 649.529 200.472 652.579 203.416 654.462C206.361 656.346 209.53 659.048 210.46 660.466C211.985 662.793 212.548 662.973 216.215 662.305C218.451 661.897 222.734 661.439 225.732 661.288C230.517 661.046 231.533 660.603 234.03 657.672C241.032 649.454 242.06 647.221 241.569 641.297C241.197 636.815 240.309 634.606 236.984 629.891C233.039 624.297 232.954 624.02 235.004 623.484C236.183 623.175 240.755 623.201 245.164 623.541C252.728 624.124 253.947 624.574 266.73 631.503C281.862 639.705 284.95 640.818 292.58 640.826C298.209 640.832 302.12 642.34 305.129 645.665C306.923 647.648 306.914 647.857 304.799 653.51C303.153 657.909 302.789 660.407 303.298 663.802C304.062 668.895 306.679 674.529 309.442 677.027C312.809 680.072 320.17 682.788 325.116 682.81C327.776 682.822 337.451 683.978 346.616 685.379C359.363 687.327 364.693 688.606 369.289 690.823C379.872 695.926 386.222 701.263 394.004 711.6C400.701 720.495 401.748 722.561 406.176 735.62C410.677 748.894 410.906 750.036 409.4 751.699C408.509 752.684 407.78 753.963 407.78 754.542C407.78 755.635 413.02 757.161 420.78 758.329C423.255 758.702 428.848 759.897 433.21 760.986C440.622 762.837 441.405 762.862 445.21 761.371C451.71 758.822 457.441 752.7 461.88 743.564C463.144 740.961 464.731 738.832 465.406 738.832C467.522 738.832 472.719 746 476.808 754.558C480.199 761.654 481.465 763.266 486.021 766.291C488.925 768.22 493.647 770.494 496.513 771.345C503.249 773.346 505.762 776.654 509.809 788.849C513.763 800.766 515.055 802.832 518.554 802.832C521.951 802.832 544.237 792.672 547.584 789.598C551.974 785.565 555.78 779.601 555.78 776.753C555.78 774.164 556.174 773.898 561.53 772.871C564.693 772.264 570.205 770.605 573.78 769.183C589.215 763.045 588.098 763.168 595.07 766.833C604.016 771.537 605.659 771.826 613.936 770.159C627.521 767.423 630 766.521 637.632 761.538L645.237 756.574L652.258 758.216C656.12 759.119 662.655 759.854 666.78 759.85C679.274 759.838 680.496 760.406 701.28 775.882C715.773 786.673 742.209 797.832 753.284 797.832C757.557 797.832 758.122 798.107 771.78 806.843C783.398 814.273 785.578 815.227 787.78 813.845C789.454 812.795 789.505 802.868 787.859 798.539C785.918 793.434 775.899 783.033 770.429 780.446L765.081 777.916L764.279 768.624C763 753.817 763.226 752.13 768.26 738.949C773.899 724.18 789.995 690.763 795.531 682.332C800.655 674.529 803.418 671.892 811.302 667.281C814.877 665.191 821.825 659.757 826.741 655.207C831.658 650.658 837.007 646.249 838.628 645.411C843.129 643.083 844.959 638.546 851.848 612.627C852.39 610.589 853.942 607.605 855.297 605.994C857.427 603.463 858.609 603.005 864.02 602.614C869.134 602.244 871.471 601.424 876.78 598.137L883.28 594.113L883.558 580.431C883.797 568.69 883.563 566.13 881.906 562.383L879.974 558.017L883.401 552.928C887.522 546.809 888.056 544.311 887.05 535.868C886.285 529.442 886.247 529.381 880.79 525.569C877.092 522.987 874.61 521.909 873.185 522.266C871.382 522.719 869.6 520.626 861.098 508.065C855.614 499.962 849.184 489.732 846.809 485.332C844.434 480.932 841.273 475.532 839.784 473.332C832.908 463.169 827.385 441.43 827.95 426.754C828.252 418.911 828.593 417.669 831.938 412.252C837.111 403.876 837.475 400.754 834.359 391.473C829.797 377.884 826.383 371.55 819.861 364.578C813.345 357.612 808.517 355.041 797.521 352.683C790.572 351.193 789.197 349.443 788.369 341.038L787.671 333.958L793.264 324.682C796.339 319.58 799.579 314.607 800.463 313.63C806.27 307.213 819.891 302.916 830.079 304.287C842.078 305.901 841.891 305.959 845.018 299.668C852.859 283.892 853.877 263.981 847.797 245.332C843.835 233.181 836.54 218.344 832.816 214.866C829.485 211.754 828.049 209.046 823.245 196.815C821.196 191.599 818.003 184.378 816.15 180.767C813.536 175.675 812.78 172.977 812.78 168.741C812.78 153.378 808.783 134.718 802.183 119.266C797.767 108.929 796.832 103.461 798.658 98.6474C799.251 97.0834 798.935 94.0624 797.684 89.3324C796.666 85.4824 795.821 79.8144 795.806 76.7374C795.773 69.6524 794.539 68.5074 784.78 66.5024C775.881 64.6734 772.113 63.1454 764.872 58.4294C758.11 54.0254 753.857 53.3784 737.372 54.2484C730.171 54.6274 713.255 55.0634 699.78 55.2154C684.877 55.3844 661.374 56.5764 639.78 58.2594C602.796 61.1434 573.177 61.3664 561.28 58.8524C558.53 58.2714 550.43 57.1174 543.28 56.2874C521.808 53.7964 518.353 52.9894 513.075 49.2374C507.417 45.2144 504.729 45.0194 493.153 47.7944C485.178 49.7074 464.329 56.9954 450.053 62.8624C446.078 64.4954 441.489 65.8324 439.854 65.8324C432.74 65.8324 410.881 57.0624 402.986 51.0404C397.298 46.7024 394.457 40.6284 394.289 32.4504C394.195 27.8554 393.523 24.1514 392.393 22.0004C388.582 14.7424 375.617 4.83039 365.495 1.43639C359.853 -0.454608 358.864 -0.463608 352.248 1.32139Z" fill="#F5F7F9"/>
</svg>
