<svg width="138" height="38" viewBox="0 0 138 38" fill="none" xmlns="http://www.w3.org/2000/svg">
<path d="M54.748 26.6171H57.9633V10.4963H54.748V26.6171Z" fill="#343C4A"/>
<path d="M103.969 19.7845C106.01 19.0861 107.203 17.4888 107.221 15.3701C107.237 13.4576 106.579 11.8934 104.723 11.0257C103.813 10.5996 102.834 10.4829 101.837 10.481C99.7354 10.481 97.6339 10.481 95.5325 10.481C95.4103 10.481 95.2901 10.4946 95.166 10.5024V26.6309H98.4423V17.876C98.569 17.9851 98.6733 18.1172 98.7497 18.2651C100.293 20.9538 101.838 23.6406 103.383 26.3254C103.462 26.4597 103.624 26.6367 103.75 26.6387C104.916 26.662 106.082 26.6523 107.33 26.6523C105.964 24.3955 104.646 22.2106 103.311 20.0005L103.969 19.7845ZM102.083 17.4499C100.887 17.551 99.6756 17.4732 98.4482 17.4732V13.1697C99.7446 13.2144 101.037 13.1814 102.31 13.3253C103.37 13.446 103.98 14.3273 103.953 15.3837C103.925 16.4401 103.214 17.3623 102.083 17.4499Z" fill="#343C4A"/>
<path d="M50.2051 19.0686C49.7724 18.761 49.3203 18.4809 48.8516 18.23C48.9186 18.1814 48.9836 18.1328 49.0486 18.088C50.5636 17.0938 51.2985 15.3643 50.9025 13.7378C50.6869 12.886 50.2087 12.1214 49.5338 11.5498C48.859 10.9782 48.0209 10.6278 47.1356 10.5471C46.6943 10.5062 46.2491 10.4829 45.8038 10.481C43.6623 10.481 41.5188 10.481 39.3418 10.481V26.6289C39.4071 26.6389 39.4728 26.6454 39.5388 26.6484C42.0172 26.6484 44.4937 26.6581 46.9721 26.6484C47.8233 26.643 48.6608 26.4368 49.415 26.0472C52.1378 24.662 52.5692 20.9771 50.2051 19.0686ZM46.1762 13.2592C47.2026 13.3409 47.7523 14.1386 47.7267 15.2047C47.6991 16.1931 47.112 16.8312 46.0737 16.9304C45.5851 16.9791 43.5323 16.9518 42.6221 16.9693V13.2378C43.8219 13.2378 45.0059 13.1697 46.1762 13.2592ZM46.6805 23.8702C45.3408 23.9558 43.9933 23.8896 42.6201 23.8896V19.7048C42.8723 19.7048 43.1047 19.7048 43.3372 19.7048C44.3794 19.7048 45.4216 19.6892 46.4638 19.7223C47.6459 19.7612 48.363 20.5355 48.4339 21.7884C48.5048 22.9499 47.8646 23.8021 46.6805 23.8702Z" fill="#343C4A"/>
<path d="M72.0854 22.7358C71.9681 22.626 71.8749 22.4935 71.8115 22.3467L69.867 18.333C68.6495 15.8194 67.4286 13.3064 66.2045 10.7941C66.1395 10.6637 65.9701 10.4925 65.848 10.4906C64.4157 10.4692 62.9814 10.477 61.5137 10.477V26.6249H64.7821V14.4206C64.8875 14.5225 64.9713 14.6442 65.0284 14.7785C66.8908 18.619 68.7506 22.4589 70.6078 26.2981C70.6433 26.4128 70.7182 26.5117 70.8196 26.5778C70.921 26.6438 71.0426 26.6729 71.1634 26.66C72.4301 26.6405 73.6969 26.66 74.9637 26.66H75.3479V10.512H72.0854V22.7358Z" fill="#343C4A"/>
<path d="M87.347 10.7861C87.3282 10.6887 87.2725 10.6021 87.1912 10.5438C87.1099 10.4856 87.0092 10.4603 86.9096 10.4729C85.7807 10.4865 84.6518 10.4924 83.5249 10.4729C83.2038 10.4729 83.0757 10.5721 82.9733 10.862C81.321 15.6143 79.6622 20.3634 77.9968 25.1092C77.8214 25.6111 77.65 26.115 77.4668 26.652C78.5307 26.652 79.5472 26.6364 80.5619 26.652C80.8613 26.652 80.9697 26.545 81.0544 26.2882C81.342 25.4283 81.6612 24.5781 81.9449 23.7181C81.9642 23.6117 82.0248 23.5169 82.1139 23.454C82.203 23.3912 82.3134 23.3651 82.4217 23.3816C83.4245 23.3971 84.4273 23.3816 85.43 23.3952C85.5533 23.4089 85.6778 23.3825 85.7844 23.32C85.8911 23.2575 85.9742 23.1623 86.0211 23.0489C86.4151 22.3368 86.8288 21.6384 87.2366 20.936C87.2879 20.8485 87.3549 20.7726 87.4514 20.6422L89.6067 26.6287H93.0387C93.0032 26.5041 92.9815 26.3991 92.9461 26.2999C91.0731 21.1325 89.2068 15.9613 87.347 10.7861ZM83.0777 20.4166C83.7751 18.3446 84.4568 16.2979 85.1976 14.1286L87.3647 20.4166H83.0777Z" fill="#343C4A"/>
<path d="M118.959 10.4714C118.852 10.4612 118.743 10.4863 118.652 10.5429C118.56 10.5996 118.489 10.6845 118.451 10.7847C117.957 11.7224 117.446 12.6524 116.942 13.5843C116.268 14.8294 115.593 16.0726 114.893 17.3625C114.791 17.1991 114.696 17.0785 114.635 16.9501C113.481 14.8969 112.325 12.8443 111.168 10.7924C111.097 10.6679 110.951 10.4948 110.837 10.4928C109.7 10.4714 108.563 10.4792 107.359 10.4792C107.468 10.6738 107.541 10.8158 107.621 10.9559C109.339 13.939 111.055 16.9222 112.769 19.9053C112.885 20.1061 112.949 20.332 112.955 20.5629C112.968 22.4307 112.955 24.3003 112.955 26.17V26.6233H116.237V26.1116C116.237 24.2147 116.237 22.3178 116.237 20.4209C116.251 20.0104 116.143 19.6048 115.927 19.2536C115.6 18.7205 115.307 18.166 114.972 17.5687C115.975 17.5687 116.893 17.5687 117.809 17.5687C117.93 17.5828 118.052 17.557 118.156 17.4954C118.261 17.4338 118.341 17.3399 118.386 17.2283C119.533 15.0882 120.697 12.9675 121.856 10.8391C121.913 10.736 121.962 10.6271 122.041 10.4675C120.981 10.4792 119.97 10.4889 118.959 10.4714Z" fill="#343C4A"/>
<path d="M130.599 15.948C131.462 15.948 132.327 15.948 133.19 15.948C133.268 15.9502 133.345 15.9373 133.418 15.9099C133.491 15.8825 133.557 15.8413 133.614 15.7884C134.796 14.055 135.946 12.3098 137.16 10.4869C135.991 10.4869 134.908 10.4869 133.826 10.4869C133.718 10.4777 133.61 10.5009 133.515 10.5532C133.42 10.6056 133.343 10.6848 133.294 10.7806C132.295 12.3371 131.285 13.8818 130.276 15.4285C130.195 15.5511 130.111 15.6698 130 15.8176C129.892 15.66 129.803 15.5394 129.724 15.4149C128.718 13.8818 127.707 12.3526 126.716 10.8098C126.656 10.695 126.561 10.6011 126.446 10.5406C126.33 10.4801 126.198 10.4559 126.068 10.4713C125.083 10.4907 124.098 10.4713 123.113 10.481C123.012 10.481 122.916 10.5005 122.778 10.5141C122.894 10.695 122.975 10.8351 123.069 10.9713C124.561 13.2424 126.055 15.5122 127.549 17.7807C127.627 17.8725 127.669 17.9882 127.669 18.1075C127.669 18.2269 127.627 18.3425 127.549 18.4344C125.87 21.0284 124.197 23.6225 122.532 26.2165C122.453 26.3391 122.38 26.4656 122.271 26.6485C123.398 26.6485 124.466 26.6348 125.532 26.6485C125.66 26.6594 125.787 26.6312 125.898 26.5679C126.009 26.5045 126.097 26.409 126.151 26.2944C127.193 24.6212 128.253 22.9597 129.303 21.2943C129.382 21.1698 129.466 21.0492 129.573 20.8916C129.691 21.0609 129.788 21.1912 129.876 21.3255C130.972 22.9967 132.073 24.6659 133.158 26.3449C133.213 26.4444 133.297 26.5258 133.398 26.5794C133.499 26.6329 133.613 26.6562 133.728 26.6465C134.713 26.629 135.698 26.6465 136.683 26.6465C136.799 26.6465 136.915 26.6309 137.077 26.6193C134.74 23.0531 132.431 19.5356 130.077 15.9441L130.599 15.948Z" fill="#343C4A"/>
<path fill-rule="evenodd" clip-rule="evenodd" d="M25.1829 24.0544C24.5415 23.4949 23.5723 23.4948 22.9308 24.0542L16.549 29.6195L11.8169 33.7474C10.7274 34.6978 9 33.9424 9 32.5155V23.0364V13.5554C9 12.1285 10.7274 11.3731 11.8169 12.3235L13.6773 13.9463C14.3188 14.5059 15.2881 14.5059 15.9295 13.9463L22.3103 8.38038L27.0424 4.25251C28.1319 3.30212 29.8593 4.05757 29.8593 5.48444V14.9654V24.4445C29.8593 25.8714 28.1319 26.6268 27.0424 25.6764L25.1829 24.0544Z" fill="url(#paint0_linear_2284_12990)"/>
<path fill-rule="evenodd" clip-rule="evenodd" d="M25.1829 24.0544C24.5415 23.4949 23.5723 23.4948 22.9308 24.0542L16.549 29.6195L11.8169 33.7474C10.7274 34.6978 9 33.9424 9 32.5155V23.0364V13.5554C9 12.1285 10.7274 11.3731 11.8169 12.3235L13.6773 13.9463C14.3188 14.5059 15.2881 14.5059 15.9295 13.9463L22.3103 8.38038L27.0424 4.25251C28.1319 3.30212 29.8593 4.05757 29.8593 5.48444V14.9654V24.4445C29.8593 25.8714 28.1319 26.6268 27.0424 25.6764L25.1829 24.0544Z" fill="url(#paint1_linear_2284_12990)"/>
<defs>
<linearGradient id="paint0_linear_2284_12990" x1="26.6387" y1="8.69909" x2="11.599" y2="31.1277" gradientUnits="userSpaceOnUse">
<stop stop-color="#22DFDD"/>
<stop offset="1" stop-color="#009FC8"/>
</linearGradient>
<linearGradient id="paint1_linear_2284_12990" x1="6.89104" y1="29.6754" x2="27.2464" y2="6.35267" gradientUnits="userSpaceOnUse">
<stop stop-color="#0181A2" stop-opacity="0.11"/>
<stop offset="0.339278" stop-color="#001115" stop-opacity="0"/>
<stop offset="0.45497" stop-color="#06C0F1" stop-opacity="0"/>
<stop offset="0.526671" stop-color="#026179"/>
<stop offset="0.70732" stop-color="#01A29E" stop-opacity="0.58"/>
<stop offset="1" stop-color="white" stop-opacity="0"/>
</linearGradient>
</defs>
</svg>
