<svg width="148" height="148" viewBox="0 0 148 148" fill="none" xmlns="http://www.w3.org/2000/svg">
<g opacity="0.12">
<path d="M168.75 146.25H157.5V67.5C157.5 64.5163 156.315 61.6548 154.205 59.545C152.095 57.4352 149.234 56.25 146.25 56.25H101.25V22.5C101.251 20.4628 100.699 18.4634 99.6533 16.7154C98.6071 14.9673 97.1059 13.5361 95.3098 12.5746C93.5138 11.6131 91.4904 11.1573 89.4556 11.2559C87.4208 11.3544 85.4509 12.0037 83.7562 13.1344L27.5062 50.625C25.9632 51.6545 24.6986 53.0496 23.8252 54.6861C22.9517 56.3226 22.4965 58.1497 22.5 60.0047V146.25H11.25C9.75816 146.25 8.32742 146.843 7.27252 147.898C6.21763 148.952 5.625 150.383 5.625 151.875C5.625 153.367 6.21763 154.798 7.27252 155.852C8.32742 156.907 9.75816 157.5 11.25 157.5H168.75C170.242 157.5 171.673 156.907 172.727 155.852C173.782 154.798 174.375 153.367 174.375 151.875C174.375 150.383 173.782 148.952 172.727 147.898C171.673 146.843 170.242 146.25 168.75 146.25ZM146.25 67.5V146.25H101.25V67.5H146.25ZM33.75 60.0047L90 22.5V146.25H33.75V60.0047ZM78.75 78.75V90C78.75 91.4918 78.1574 92.9226 77.1025 93.9775C76.0476 95.0323 74.6168 95.625 73.125 95.625C71.6332 95.625 70.2024 95.0323 69.1475 93.9775C68.0926 92.9226 67.5 91.4918 67.5 90V78.75C67.5 77.2581 68.0926 75.8274 69.1475 74.7725C70.2024 73.7176 71.6332 73.125 73.125 73.125C74.6168 73.125 76.0476 73.7176 77.1025 74.7725C78.1574 75.8274 78.75 77.2581 78.75 78.75ZM56.25 78.75V90C56.25 91.4918 55.6574 92.9226 54.6025 93.9775C53.5476 95.0323 52.1168 95.625 50.625 95.625C49.1332 95.625 47.7024 95.0323 46.6475 93.9775C45.5926 92.9226 45 91.4918 45 90V78.75C45 77.2581 45.5926 75.8274 46.6475 74.7725C47.7024 73.7176 49.1332 73.125 50.625 73.125C52.1168 73.125 53.5476 73.7176 54.6025 74.7725C55.6574 75.8274 56.25 77.2581 56.25 78.75ZM56.25 118.125V129.375C56.25 130.867 55.6574 132.298 54.6025 133.352C53.5476 134.407 52.1168 135 50.625 135C49.1332 135 47.7024 134.407 46.6475 133.352C45.5926 132.298 45 130.867 45 129.375V118.125C45 116.633 45.5926 115.202 46.6475 114.148C47.7024 113.093 49.1332 112.5 50.625 112.5C52.1168 112.5 53.5476 113.093 54.6025 114.148C55.6574 115.202 56.25 116.633 56.25 118.125ZM78.75 118.125V129.375C78.75 130.867 78.1574 132.298 77.1025 133.352C76.0476 134.407 74.6168 135 73.125 135C71.6332 135 70.2024 134.407 69.1475 133.352C68.0926 132.298 67.5 130.867 67.5 129.375V118.125C67.5 116.633 68.0926 115.202 69.1475 114.148C70.2024 113.093 71.6332 112.5 73.125 112.5C74.6168 112.5 76.0476 113.093 77.1025 114.148C78.1574 115.202 78.75 116.633 78.75 118.125Z" fill="white"/>
</g>
</svg>
