<svg width="149" height="140" viewBox="0 0 149 140" fill="none" xmlns="http://www.w3.org/2000/svg">
<g opacity="0.12">
<path d="M160.107 48.5156C159.765 47.6723 159.225 46.9243 158.531 46.3358C157.837 45.7473 157.011 45.3358 156.123 45.1367C155.236 44.9376 154.313 44.9568 153.434 45.1926C152.556 45.4284 151.747 45.8738 151.078 46.4906L122.743 72.6398L110.628 70.0383L108.026 57.9234L134.175 29.5875C134.792 28.9188 135.238 28.1104 135.473 27.2318C135.709 26.3531 135.728 25.4304 135.529 24.5427C135.33 23.655 134.919 22.8288 134.33 22.135C133.742 21.4413 132.994 20.9006 132.15 20.5594C124.465 17.4504 116.133 16.2765 107.888 17.1409C99.6423 18.0053 91.7353 20.8815 84.8616 25.5168C77.9878 30.152 72.3576 36.4045 68.4657 43.7249C64.5738 51.0452 62.5393 59.2094 62.541 67.5C62.5319 74.5009 63.9681 81.4282 66.7597 87.8484L24.4246 124.453C24.3191 124.537 24.2207 124.636 24.1222 124.727C19.9022 128.947 17.5314 134.671 17.5314 140.639C17.5314 143.594 18.1134 146.52 19.2443 149.25C20.3751 151.981 22.0327 154.461 24.1222 156.551C26.2118 158.64 28.6924 160.298 31.4226 161.429C34.1527 162.56 37.0789 163.142 40.0339 163.142C46.002 163.142 51.7256 160.771 55.9457 156.551C56.0371 156.459 56.1355 156.354 56.2199 156.255L92.8175 113.906C100.527 117.29 108.958 118.698 117.349 118.003C125.739 117.307 133.824 114.53 140.871 109.922C147.917 105.315 153.704 99.0225 157.706 91.6151C161.708 84.2078 163.799 75.9193 163.791 67.5C163.802 60.9932 162.551 54.546 160.107 48.5156ZM113.166 106.875C106.508 106.866 99.9603 105.173 94.1324 101.953C93.0033 101.329 91.6942 101.113 90.4243 101.339C89.1544 101.566 88.0011 102.222 87.1574 103.198L47.8527 148.718C45.7257 150.739 42.8936 151.849 39.96 151.811C37.0264 151.773 34.2236 150.591 32.1491 148.517C30.0745 146.442 28.8925 143.64 28.8549 140.706C28.8174 137.772 29.9273 134.94 31.948 132.813L77.4332 93.5156C78.4106 92.6715 79.0678 91.5169 79.2944 90.2455C79.521 88.9741 79.3033 87.6634 78.6777 86.5336C75.092 80.0483 73.4092 72.6827 73.8228 65.2836C74.2365 57.8846 76.7297 50.7524 81.016 44.7072C85.3022 38.6619 91.2075 33.9489 98.0528 31.1101C104.898 28.2713 112.406 27.4218 119.712 28.6594L97.7746 52.432C97.1642 53.0942 96.7217 53.8932 96.4843 54.7619C96.247 55.6307 96.2216 56.5437 96.4105 57.4242L100.39 75.9375C100.618 76.9963 101.146 77.967 101.912 78.7328C102.678 79.4986 103.649 80.0271 104.707 80.2547L123.235 84.2344C124.115 84.4232 125.028 84.3979 125.897 84.1606C126.766 83.9232 127.565 83.4807 128.227 82.8703L152 60.9328C152.947 66.579 152.654 72.3638 151.139 77.885C149.625 83.4062 146.926 88.5312 143.23 92.9036C139.534 97.276 134.93 100.791 129.738 103.204C124.546 105.616 118.891 106.869 113.166 106.875Z" fill="white"/>
</g>
</svg>
