<svg width="149" height="148" viewBox="0 0 149 148" fill="none" xmlns="http://www.w3.org/2000/svg">
<g opacity="0.12">
<path d="M150.564 46.6453L122.439 18.5203C121.916 17.9981 121.295 17.584 120.613 17.3017C119.93 17.0194 119.198 16.8744 118.459 16.875H62.209C59.2253 16.875 56.3638 18.0603 54.254 20.17C52.1443 22.2798 50.959 25.1413 50.959 28.125V39.375H39.709C36.7253 39.375 33.8638 40.5603 31.754 42.67C29.6442 44.7798 28.459 47.6413 28.459 50.625V151.875C28.459 154.859 29.6442 157.72 31.754 159.83C33.8638 161.94 36.7253 163.125 39.709 163.125H118.459C121.443 163.125 124.304 161.94 126.414 159.83C128.524 157.72 129.709 154.859 129.709 151.875V140.625H140.959C143.943 140.625 146.804 139.44 148.914 137.33C151.024 135.22 152.209 132.359 152.209 129.375V50.625C152.21 49.8861 152.065 49.1543 151.782 48.4715C151.5 47.7886 151.086 47.1681 150.564 46.6453ZM118.459 151.875H39.709V50.625H93.6316L118.459 75.4523V134.887C118.459 134.93 118.459 134.965 118.459 135C118.459 135.035 118.459 135.07 118.459 135.113V151.875ZM140.959 129.375H129.709V73.125C129.71 72.3861 129.565 71.6543 129.282 70.9715C129 70.2886 128.586 69.6681 128.064 69.1453L99.9387 41.0203C99.4159 40.4981 98.7954 40.084 98.1125 39.8017C97.4297 39.5194 96.6979 39.3744 95.959 39.375H62.209V28.125H116.132L140.959 52.9523V129.375ZM101.584 106.875C101.584 108.367 100.991 109.798 99.9365 110.852C98.8816 111.907 97.4508 112.5 95.959 112.5H62.209C60.7171 112.5 59.2864 111.907 58.2315 110.852C57.1766 109.798 56.584 108.367 56.584 106.875C56.584 105.383 57.1766 103.952 58.2315 102.898C59.2864 101.843 60.7171 101.25 62.209 101.25H95.959C97.4508 101.25 98.8816 101.843 99.9365 102.898C100.991 103.952 101.584 105.383 101.584 106.875ZM101.584 129.375C101.584 130.867 100.991 132.298 99.9365 133.352C98.8816 134.407 97.4508 135 95.959 135H62.209C60.7171 135 59.2864 134.407 58.2315 133.352C57.1766 132.298 56.584 130.867 56.584 129.375C56.584 127.883 57.1766 126.452 58.2315 125.398C59.2864 124.343 60.7171 123.75 62.209 123.75H95.959C97.4508 123.75 98.8816 124.343 99.9365 125.398C100.991 126.452 101.584 127.883 101.584 129.375Z" fill="white"/>
</g>
</svg>
