<svg width="41" height="40" viewBox="0 0 41 40" fill="none" xmlns="http://www.w3.org/2000/svg">
<path d="M20.5 3.75C17.2861 3.75 14.1443 4.70305 11.472 6.48862C8.79969 8.27419 6.71689 10.8121 5.48696 13.7814C4.25704 16.7507 3.93524 20.018 4.56225 23.1702C5.18926 26.3224 6.73692 29.2179 9.00952 31.4905C11.2821 33.7631 14.1776 35.3107 17.3298 35.9378C20.482 36.5648 23.7493 36.243 26.7186 35.013C29.6879 33.7831 32.2258 31.7003 34.0114 29.028C35.797 26.3557 36.75 23.2139 36.75 20C36.7455 15.6916 35.0319 11.561 31.9855 8.51454C28.939 5.46806 24.8084 3.75455 20.5 3.75ZM26.3844 24.1156C26.5005 24.2318 26.5926 24.3696 26.6555 24.5214C26.7184 24.6731 26.7507 24.8358 26.7507 25C26.7507 25.1642 26.7184 25.3269 26.6555 25.4786C26.5926 25.6304 26.5005 25.7682 26.3844 25.8844C26.2682 26.0005 26.1304 26.0926 25.9786 26.1555C25.8269 26.2183 25.6643 26.2507 25.5 26.2507C25.3358 26.2507 25.1731 26.2183 25.0214 26.1555C24.8696 26.0926 24.7318 26.0005 24.6156 25.8844L20.5 21.7672L16.3844 25.8844C16.2682 26.0005 16.1304 26.0926 15.9786 26.1555C15.8269 26.2183 15.6643 26.2507 15.5 26.2507C15.3358 26.2507 15.1731 26.2183 15.0214 26.1555C14.8696 26.0926 14.7318 26.0005 14.6156 25.8844C14.4995 25.7682 14.4074 25.6304 14.3445 25.4786C14.2817 25.3269 14.2493 25.1642 14.2493 25C14.2493 24.8358 14.2817 24.6731 14.3445 24.5214C14.4074 24.3696 14.4995 24.2318 14.6156 24.1156L18.7328 20L14.6156 15.8844C14.3811 15.6498 14.2493 15.3317 14.2493 15C14.2493 14.6683 14.3811 14.3502 14.6156 14.1156C14.8502 13.8811 15.1683 13.7493 15.5 13.7493C15.8317 13.7493 16.1498 13.8811 16.3844 14.1156L20.5 18.2328L24.6156 14.1156C24.7318 13.9995 24.8696 13.9074 25.0214 13.8445C25.1731 13.7817 25.3358 13.7493 25.5 13.7493C25.6643 13.7493 25.8269 13.7817 25.9786 13.8445C26.1304 13.9074 26.2682 13.9995 26.3844 14.1156C26.5005 14.2318 26.5926 14.3696 26.6555 14.5214C26.7184 14.6731 26.7507 14.8358 26.7507 15C26.7507 15.1642 26.7184 15.3269 26.6555 15.4786C26.5926 15.6304 26.5005 15.7682 26.3844 15.8844L22.2672 20L26.3844 24.1156Z" fill="white"/>
</svg>
