<svg width="28" height="29" viewBox="0 0 28 29" fill="none" xmlns="http://www.w3.org/2000/svg">
<path d="M23.9345 12.3098L15.1845 4.05415C15.1803 4.05042 15.1762 4.0464 15.1725 4.04212C14.8503 3.74914 14.4305 3.58679 13.9951 3.58679C13.5596 3.58679 13.1398 3.74914 12.8177 4.04212L12.8056 4.05415L4.06547 12.3098C3.88719 12.4737 3.74487 12.6729 3.64754 12.8947C3.5502 13.1164 3.49996 13.356 3.5 13.5982V23.7099C3.5 24.1741 3.68437 24.6192 4.01256 24.9474C4.34075 25.2756 4.78587 25.4599 5.25 25.4599H10.5C10.9641 25.4599 11.4092 25.2756 11.7374 24.9474C12.0656 24.6192 12.25 24.1741 12.25 23.7099V18.4599H15.75V23.7099C15.75 24.1741 15.9344 24.6192 16.2626 24.9474C16.5908 25.2756 17.0359 25.4599 17.5 25.4599H22.75C23.2141 25.4599 23.6592 25.2756 23.9874 24.9474C24.3156 24.6192 24.5 24.1741 24.5 23.7099V13.5982C24.5 13.356 24.4498 13.1164 24.3525 12.8947C24.2551 12.6729 24.1128 12.4737 23.9345 12.3098Z" fill="white"/>
</svg>
