<svg width="184" height="51" viewBox="0 0 184 51" fill="none" xmlns="http://www.w3.org/2000/svg">
<path fill-rule="evenodd" clip-rule="evenodd" d="M37.112 7.82121C37.818 8.13809 38.0978 8.67376 38.0794 9.44548C38.0565 10.413 38.0609 11.3811 38.0654 12.3489V12.349V12.3491V12.3492V12.3492V12.3493V12.3494V12.3495V12.3495V12.3496V12.3497V12.3498V12.3498V12.3499C38.0677 12.8502 38.07 13.3504 38.0685 13.8505C38.0653 14.8087 37.5642 15.3164 36.6055 15.3228C35.9745 15.3274 35.3435 15.3265 34.7125 15.3257H34.7123C34.1514 15.3249 33.5906 15.3241 33.0298 15.3271C32.044 15.3325 31.57 15.8014 31.5689 16.7779C31.5657 22.0786 31.5657 27.3793 31.5689 32.68C31.5689 33.6878 32.0418 34.1502 33.0656 34.1556C33.6836 34.1589 34.3016 34.1582 34.9196 34.1575H34.9206C35.4942 34.1569 36.0677 34.1562 36.6413 34.1588C37.5425 34.1631 38.0609 34.6632 38.0664 35.5524C38.0761 37.1282 38.0739 38.704 38.0664 40.2797C38.062 41.1032 37.5545 41.6453 36.7302 41.6561C35.1056 41.6766 33.4799 41.6755 31.8542 41.6561C31.0343 41.6464 30.5126 41.1054 30.505 40.2873C30.4976 39.5131 30.499 38.7389 30.5003 37.9646C30.5011 37.4854 30.5019 37.0061 30.5007 36.5268C30.4985 35.5869 30.0365 35.089 29.0897 35.0696C28.3207 35.0543 27.5517 35.0569 26.7828 35.0596C26.3598 35.061 25.9369 35.0625 25.514 35.0609C24.4707 35.0555 24 34.5867 24 33.5455V15.9781C24 14.8475 24.4631 14.397 25.6246 14.3948C26.0871 14.394 26.5494 14.3945 27.0116 14.395H27.0117H27.0117H27.0117H27.0118H27.0118H27.0119H27.0119H27.0119H27.012H27.012H27.0121H27.0121H27.0121C27.7053 14.3958 28.3984 14.3966 29.0919 14.3927C30.004 14.3873 30.4963 13.899 30.5007 12.9991C30.502 12.7199 30.505 12.4406 30.5079 12.1614V12.1614V12.1613V12.1613V12.1613V12.1613V12.1613V12.1613V12.1613V12.1613V12.1613V12.1613V12.1613V12.1613C30.5168 11.3118 30.5257 10.4623 30.4898 9.6147C30.4573 8.83112 30.6775 8.22755 31.3683 7.82013H37.112V7.82121ZM80.784 7.82127C81.5031 8.17264 81.7384 8.7579 81.7135 9.5307C81.6852 10.4362 81.6928 11.3431 81.7005 12.2497V12.2499V12.2501V12.2502V12.2504V12.2505V12.2507V12.2509V12.251V12.2512V12.2513V12.2515V12.2517V12.2518C81.7025 12.4905 81.7045 12.7292 81.7059 12.9679C81.7113 13.9088 82.1961 14.3895 83.1407 14.3938C83.7145 14.3964 84.2881 14.3958 84.8616 14.3951H84.8619C85.4796 14.3944 86.0973 14.3937 86.7153 14.397C87.6817 14.4014 88.2022 14.8972 88.2033 15.8446C88.2087 21.7704 88.2087 27.6963 88.2033 33.6221C88.2033 34.5878 87.7099 35.0545 86.7219 35.0599C86.1911 35.0629 85.6602 35.062 85.1292 35.0611C84.5046 35.06 83.88 35.059 83.2557 35.0642C82.1679 35.0729 81.7092 35.5331 81.7048 36.6055C81.7029 37.1099 81.7037 37.6142 81.7045 38.1184C81.7055 38.7777 81.7065 39.437 81.7016 40.0966C81.694 41.1992 81.2211 41.6616 80.1138 41.6626C78.6334 41.6648 77.153 41.667 75.6727 41.6626C74.6456 41.6594 74.15 41.1755 74.1435 40.1505C74.1337 38.6469 74.1326 37.1433 74.1435 35.6387C74.1511 34.6331 74.6391 34.1599 75.6423 34.1589C76.1117 34.158 76.5811 34.1585 77.0504 34.159C77.7545 34.1598 78.4586 34.1606 79.1627 34.1567C80.1496 34.1513 80.6539 33.6469 80.655 32.6596C80.6582 27.3966 80.6572 22.1326 80.655 16.8696C80.655 15.8036 80.1745 15.3304 79.1063 15.3283C78.5376 15.3272 77.9689 15.3275 77.4004 15.3277H77.3998C76.8312 15.328 76.2626 15.3283 75.6943 15.3272C74.6239 15.3251 74.1478 14.8584 74.1413 13.7859C74.1386 13.2915 74.1415 12.7972 74.1445 12.3029V12.302V12.3012V12.3003V12.2995V12.2986V12.2978V12.2969V12.2961V12.2952V12.2944V12.2935V12.2927V12.2918C74.1498 11.3932 74.1551 10.4949 74.1272 9.59752C74.1023 8.80856 74.3094 8.20174 75.0382 7.82451H80.7819L80.784 7.82127ZM159.853 36.2868C159.9 36.1461 159.948 36.0053 160 35.8672H160.001V33.9325C159.99 33.896 159.979 33.8596 159.967 33.8232L159.966 33.822C159.941 33.7409 159.915 33.6599 159.899 33.5768C159.588 31.889 158.638 30.7228 157.011 30.1224C154.772 29.2968 152.192 29.9543 150.945 31.6756C149.979 33.0078 149.919 34.5275 150.205 36.0515C150.588 38.0897 152.224 39.4617 154.319 39.6331C156.522 39.8131 158.364 39.2257 159.489 37.1875C159.644 36.906 159.748 36.5964 159.853 36.2868ZM154.451 31.958C156.223 31.5635 157.583 32.7696 157.583 35.1386H157.582C157.577 35.8133 157.313 36.7801 156.242 37.2867C155.277 37.7426 154.303 37.706 153.433 37.0463C152.339 36.2153 152.381 35.0211 152.564 33.8571C152.727 32.8267 153.412 32.1886 154.451 31.958ZM51.5072 25.3445L51.5069 22.5335C51.5067 20.6597 51.5064 18.786 51.5072 16.9128C51.5072 16.0052 51.8705 15.6366 52.7804 15.6355C53.9811 15.6344 55.1816 15.6348 56.3821 15.6353H56.3832H56.3833H56.3833H56.3833H56.3834H56.3834H56.3834H56.3835H56.3835H56.3836H56.3836H56.3836C58.6852 15.636 60.9866 15.6368 63.2884 15.6269C63.9359 15.6237 64.3361 15.8824 64.5823 16.4665C64.7956 16.972 65.0177 17.4739 65.2397 17.9757C65.5461 18.6679 65.8524 19.36 66.1353 20.0611C66.4032 20.7239 66.8327 20.9945 67.543 20.9718C68.3592 20.9453 69.1767 20.9527 69.9935 20.9602L69.994 20.9602C70.2059 20.9621 70.4178 20.964 70.6296 20.9654C71.5916 20.9718 71.9853 21.3598 71.9853 22.2975C71.9874 26.1292 71.9874 29.9598 71.9853 33.7914C71.9853 34.6903 71.5753 35.0923 70.6556 35.0956C69.2837 35.101 67.9118 35.0988 66.5388 35.0956C65.5768 35.0934 65.1863 34.7086 65.1853 33.7645C65.1847 32.0012 65.1847 30.2378 65.1847 28.4744C65.1847 26.7109 65.1847 24.9474 65.1842 23.1835C65.1842 22.1887 64.8176 21.8233 63.8166 21.8222C62.4262 21.8201 61.0359 21.819 59.6455 21.8222C58.6629 21.8244 58.2746 22.2092 58.2735 23.1932C58.2718 25.1071 58.2719 27.0207 58.2721 28.9343C58.2722 30.5295 58.2724 32.1248 58.2714 33.7203C58.2714 34.7453 57.9135 35.0945 56.8658 35.0956C55.5481 35.0967 54.2304 35.0967 52.9116 35.0956C51.8618 35.0945 51.5039 34.7453 51.5028 33.7224V25.3435L51.5072 25.3445ZM47.2914 33.7256V25.3994H47.2904C47.2904 24.4568 47.2906 23.514 47.2908 22.5711C47.2913 20.6852 47.2918 18.7989 47.2904 16.9127C47.2904 16.0235 46.9097 15.6398 46.0084 15.6354C44.5996 15.629 43.1919 15.6301 41.7831 15.6354C40.883 15.6387 40.4925 16.0224 40.4925 16.9083C40.4904 22.5303 40.4904 28.1532 40.4925 33.7751C40.4925 34.6859 40.897 35.0922 41.8081 35.0955C43.1795 35.0998 44.5521 35.0976 45.9235 35.0955H45.9237H45.9238H45.9239H45.924H45.9242H45.9243H45.9244H45.9245H45.9247H45.9248H45.9249C46.914 35.0944 47.2914 34.715 47.2914 33.7256ZM119.701 43.1814V41.1152H120.781C121.147 41.1152 121.513 41.1143 121.88 41.1134C122.795 41.1112 123.711 41.109 124.627 41.1206C125.128 41.1271 125.355 40.9427 125.337 40.4254C125.32 39.9226 125.323 39.4192 125.327 38.8705C125.329 38.6253 125.331 38.3711 125.331 38.1038C125.249 38.1583 125.179 38.2006 125.118 38.2372L125.118 38.2372C125.011 38.3011 124.934 38.3476 124.877 38.412C123.248 40.2756 120.109 39.8908 119.041 37.6554C118.779 37.1068 118.618 36.4622 118.599 35.8554C118.557 34.51 118.563 33.1628 118.57 31.8156C118.573 31.3184 118.575 30.8212 118.575 30.3241C118.575 30.2802 118.583 30.2358 118.593 30.1838C118.597 30.1611 118.601 30.137 118.605 30.1108L118.609 30.0902H120.969V33.0078C120.969 33.2396 120.968 33.4713 120.967 33.7031L120.967 33.7093V33.7094V33.7094V33.7095V33.7096V33.7097V33.7097V33.7098V33.7099V33.7099C120.965 34.3176 120.963 34.9251 120.975 35.5321C121 36.7683 121.511 37.3816 122.626 37.5498C123.764 37.7211 124.777 37.1585 125.092 36.1012C125.242 35.5957 125.295 35.0471 125.306 34.5168C125.326 33.4712 125.322 32.4251 125.318 31.3671V31.3665V31.366V31.3655V31.3649V31.3644V31.3638V31.3633V31.3628V31.3622V31.3614V31.3607V31.3599V31.3591V31.3583V31.3575V31.3567V31.3559C125.317 30.9365 125.315 30.5152 125.315 30.0913H127.707V30.6312V40.7821C127.707 42.4873 126.997 43.1824 125.267 43.1824H119.701V43.1814ZM102.329 8.81615H99.99V21.9666H102.329V20.8037C102.407 20.8507 102.478 20.8866 102.541 20.9181C102.652 20.9747 102.736 21.0172 102.784 21.085C103.967 22.775 107.256 22.568 108.625 21.0138C109.943 19.5167 110.02 17.7782 109.763 15.9589C109.64 15.0901 109.258 14.3206 108.644 13.6782C107.02 11.9806 104.456 11.9397 102.778 13.5726C102.719 13.6304 102.631 13.6596 102.521 13.6961C102.463 13.7154 102.399 13.7368 102.329 13.7655V8.81615ZM107.473 17.0975C107.477 17.179 107.481 17.2605 107.486 17.3417H107.485C107.546 19.8272 105.556 20.5547 103.954 20.0406C103.287 19.8272 102.796 19.3917 102.546 18.731C102.206 17.8289 102.201 16.9009 102.509 16.002C102.88 14.9177 104.01 14.3389 105.311 14.4833C106.406 14.6051 107.284 15.4728 107.433 16.5937C107.456 16.7598 107.464 16.9283 107.473 17.0967V17.0968V17.0968V17.0969V17.097V17.097V17.0971V17.0971L107.473 17.0975ZM132.787 38.2524V43.136H130.422V30.089H132.724C132.724 30.1239 132.724 30.1584 132.724 30.1926C132.723 30.2377 132.722 30.2823 132.722 30.3263V30.3265V30.3268V30.3271V30.3274C132.719 30.5102 132.716 30.6835 132.731 30.8553C132.739 30.9588 132.803 31.0881 132.885 31.1431C132.931 31.1743 133.096 31.1086 133.154 31.0407C134.423 29.5468 136.031 29.4865 137.683 30.1375C139.426 30.8251 140.161 32.291 140.28 34.0834C140.38 35.5794 140.217 37.0097 139.21 38.2395C138.03 39.6773 135.594 40.1493 133.989 39.1955C133.819 39.095 133.676 38.9514 133.532 38.8073L133.532 38.8073L133.532 38.8072C133.446 38.7211 133.36 38.6348 133.268 38.5574C133.19 38.4922 133.101 38.4396 132.987 38.3724C132.928 38.3373 132.862 38.2982 132.787 38.2513V38.2524ZM137.902 34.7107C137.933 33.5682 137.579 32.61 136.468 32.1153C135.476 31.6745 134.483 31.7521 133.623 32.4548C132.692 33.2157 132.639 34.2774 132.773 35.352C132.979 37 134.383 37.9215 136.016 37.5195C137.28 37.208 137.904 36.2789 137.902 34.7107ZM114.087 18.0357H120.876C120.876 17.8403 120.882 17.6515 120.889 17.468C120.902 17.0816 120.915 16.7181 120.864 16.363C120.608 14.5576 119.709 13.1812 117.892 12.6326C116.001 12.0614 114.226 12.3395 112.819 13.8322C111.542 15.1871 111.495 16.8685 111.729 18.579C111.848 19.4488 112.223 20.2205 112.844 20.8607C114.194 22.2565 116.687 22.7156 118.462 21.8943C119.408 21.4557 120.098 20.7583 120.605 19.8184L120.35 19.6819L120.126 19.562L120.123 19.5606L120.122 19.5599L120.121 19.5594C119.772 19.372 119.435 19.1914 119.097 19.0133C119.012 18.9685 118.922 18.9322 118.833 18.8962L118.773 18.8722C118.752 18.8633 118.73 18.8544 118.709 18.8452C117.692 20.422 116.671 20.3283 115.622 20.0534C114.685 19.8077 114.133 19.0327 114.087 18.0357ZM118.447 16.2034H114.146C114.257 15.1019 115.095 14.4552 116.363 14.4649C117.555 14.4746 118.348 15.1278 118.447 16.2034ZM132.986 12.6683H135.289V13.9045C135.363 13.8717 135.433 13.8478 135.494 13.8266L135.494 13.8265C135.608 13.7872 135.696 13.757 135.742 13.6954C136.757 12.3331 138.166 12.2759 139.597 12.6866C141.049 13.1026 141.886 14.1945 142.012 15.6797C142.095 16.6536 142.095 17.6348 142.095 18.6161C142.095 18.9965 142.095 19.377 142.1 19.7571C142.106 20.2625 142.105 20.7679 142.103 21.2829V21.2842V21.2859V21.2875V21.2891V21.2908V21.2924C142.102 21.5179 142.102 21.7452 142.102 21.9752H139.73C139.727 21.919 139.724 21.8622 139.72 21.8051L139.72 21.8047C139.713 21.677 139.705 21.5475 139.705 21.418C139.704 20.8949 139.706 20.3718 139.708 19.8487C139.711 18.7778 139.715 17.7071 139.697 16.6368C139.669 14.9123 138.393 14.0382 136.798 14.6428C135.861 14.9974 135.44 15.7692 135.403 16.7004C135.358 17.7869 135.355 18.8744 135.353 19.9622V19.9623V19.9624V19.9624V19.9625V19.9626C135.351 20.4146 135.35 20.8667 135.346 21.3188C135.345 21.4562 135.345 21.5936 135.346 21.7388V21.7394V21.74V21.7407V21.7414L135.346 21.8567L135.346 21.9774H132.986V12.6683ZM107.904 33.6514C108.287 33.5708 108.683 33.4873 109.106 33.398H109.107C109.051 33.2508 109.002 33.111 108.955 32.9771C108.859 32.7051 108.771 32.4576 108.659 32.2221C107.269 29.3174 103.528 29.3616 101.667 30.4793C99.4239 31.8255 98.7255 35.3446 100.235 37.6241C101.799 39.9846 105.798 40.4146 107.825 38.4239C108.471 37.789 108.905 37.0216 109.088 36.0915L108.765 36.0145L107.945 35.8188C107.724 35.7663 107.502 35.7142 107.275 35.6609L106.829 35.5558C106.779 35.7002 106.739 35.8166 106.701 35.933C106.353 36.9947 105.738 37.5023 104.671 37.5616C103.596 37.6209 102.635 37.303 102.212 36.2736C101.952 35.6399 101.914 34.88 101.931 34.1805C101.963 32.9184 102.895 32.0303 104.17 31.9063C105.49 31.7791 106.339 32.3838 106.703 33.7084C106.712 33.7394 106.73 33.7677 106.756 33.806C106.771 33.8277 106.787 33.8526 106.805 33.883C107.166 33.8067 107.528 33.7305 107.904 33.6514ZM148.68 32.0064H148.678V30.0416H146.098V27.1972H143.71V30.0577H141.389V32.0107H143.727V32.638C143.727 33.0931 143.726 33.5482 143.725 34.0033C143.723 35.1412 143.721 36.2792 143.732 37.4171C143.743 38.4593 144.323 39.2451 145.321 39.3464C146.035 39.4183 146.758 39.4012 147.482 39.3841C147.801 39.3765 148.119 39.369 148.437 39.369V37.4613C148.26 37.4613 148.086 37.4607 147.915 37.4601H147.915C147.525 37.4587 147.15 37.4574 146.774 37.4634C146.325 37.471 146.11 37.278 146.118 36.8189C146.127 36.3431 146.125 35.8673 146.123 35.3915V35.3905C146.122 35.1865 146.122 34.9826 146.122 34.7786V32.0064H148.678V32.0086L148.68 32.0064ZM113.455 30.3327C113.456 30.2565 113.457 30.1775 113.457 30.0944H113.456H111.146V39.3712H113.502L113.502 37.6349C113.501 36.4943 113.501 35.3661 113.502 34.2375C113.503 32.8396 114.205 32.1423 115.629 32.1239C115.875 32.1211 116.122 32.122 116.367 32.123L116.368 32.123C116.49 32.1235 116.611 32.1239 116.733 32.1239V30.0265C116.556 30.0293 116.377 30.0246 116.2 30.0199H116.2H116.2C115.288 29.9959 114.401 29.9725 113.838 30.975C113.811 31.0224 113.742 31.0461 113.673 31.0698C113.64 31.0812 113.607 31.0925 113.579 31.1065C113.566 31.0778 113.551 31.0494 113.535 31.021C113.501 30.9595 113.467 30.8979 113.463 30.8338C113.451 30.6723 113.453 30.5103 113.455 30.3327ZM130.262 22.0044H130.26C129.532 22.0044 128.848 22.0044 128.164 22.0033C128.118 22.0033 128.072 21.9955 128.021 21.9867C127.996 21.9825 127.97 21.9781 127.942 21.9742C127.937 21.9453 127.932 21.9184 127.927 21.893C127.918 21.8436 127.909 21.7995 127.909 21.7554C127.908 18.7702 127.908 15.7851 127.908 12.7577V12.6942H130.262V22.0044ZM129.096 11.557C129.993 11.557 130.631 10.9287 130.632 10.0427C130.634 9.14055 130.024 8.54344 129.102 8.54344C128.177 8.54452 127.567 9.13948 127.567 10.0395C127.568 10.9243 128.206 11.557 129.096 11.557Z" fill="#788396"/>
</svg>
