<svg width="185" height="51" viewBox="0 0 185 51" fill="none" xmlns="http://www.w3.org/2000/svg">
<path fill-rule="evenodd" clip-rule="evenodd" d="M6.68894 28.0077V22.3219H8.55111V18.5274H12.3072V16.6448H14.1867V26.0958H16.0576V16.639H17.9284V18.5245H18.1594H21.4651C21.517 18.5245 21.569 18.5294 21.621 18.5344L21.621 18.5344C21.6383 18.536 21.6556 18.5377 21.6729 18.5391C21.6749 18.5133 21.6775 18.4879 21.6801 18.4625L21.6801 18.4625C21.6852 18.413 21.6903 18.364 21.6903 18.3137V11.2137C21.6903 11.1602 21.6852 11.1049 21.6803 11.0506L21.6758 11H8.554V18.5216H6.68316V22.316H4.80078V28.0106H6.68605V31.7787H8.55078V31.7808H8.55583V31.7758H8.554V28.0106H6.69183L6.68894 28.0077ZM17.9426 31.7787H21.6958V40H8.55664V31.7816H12.3156V33.6818H17.9426V31.7787ZM21.6958 31.7787V28.0106H23.5666V31.7787H21.6958ZM23.5744 28.0102H23.5693V28.0077V28.0077V22.319H25.4431V24.2045H27.3081V26.0988H25.4488V28.0077H23.5698C23.5706 28.0078 23.5715 28.0082 23.5722 28.0086C23.5735 28.0093 23.5744 28.0102 23.5744 28.0102ZM23.5715 22.3131V22.3182H23.5664V22.3131H21.6931V22.073H21.6902V18.7558C21.6902 18.7039 21.6855 18.6536 21.6807 18.6026L21.6807 18.6024C21.679 18.5844 21.6773 18.5663 21.6758 18.548C21.6995 18.5454 21.723 18.5423 21.7463 18.5392C21.8026 18.5318 21.8583 18.5245 21.9154 18.5245H23.359H23.5668V22.3131H23.5715ZM21.675 18.547V18.542H21.6699V18.5496H21.675V18.547ZM44.7231 24.0142H37.6122V18.8612H34.9561V31.767H37.6122V26.7077H44.7231V31.767H47.3763V18.8612H44.7231V24.0142ZM178.145 18.8612H179.594H180.801V31.767H178.145V21.5519H170.811V31.767H168.155V18.8612H168.692H170.811H178.145ZM163.117 18.8612H153.318V31.7699H165.773V18.8612H163.117ZM163.117 29.0764H155.974V21.5548H163.117V29.0764ZM138.393 18.8612H148.466H151.122V31.7699H138.393V18.8612ZM141.049 29.0764H148.466V21.5548H141.049V29.0764ZM133.449 18.8612H126.321H124.222H123.665V31.767H126.321V21.5519H133.449V31.767H136.106V18.8612H135.615H133.449ZM94.0059 21.5519V18.8612H96.662H106.596V21.5519H96.662V24.0142H101.683V26.7077H96.662V29.0763H106.596V31.767H96.662H94.0059V29.0763V26.7077V24.0142V21.5519ZM64.6965 18.8612H64.5088V31.767H64.6965H67.1649H76.9319V29.0763H67.1649V21.5519H76.9319V18.8612H67.1649H64.6965ZM49.8047 18.8612H59.4793H62.1355V31.7699H59.4793V26.7077H52.4608V31.7699H49.8047V18.8612ZM52.4608 24.0142H59.4793V21.5519H52.4608V24.0142ZM118.786 18.8612H108.921V31.7699H111.577V26.8483H116.419V29.3691H118.786V31.7699H121.442V29.0764H119.075V26.8483H121.442V18.8612H118.786ZM118.786 24.1547H111.577V21.5548H118.786V24.1547ZM86.7105 21.4055H89.078V19.0076H91.7341V21.6983H89.3667V24.0991H86.9473V26.6755H89.3667V29.0763H91.7341V31.767H89.078V29.3691H86.7105V26.7077H81.9266V31.767H79.2705V26.7077V24.0142V18.8612H81.9266V24.0142H86.7105V21.4055Z" fill="#788396"/>
</svg>
