<svg width="185" height="51" viewBox="0 0 185 51" fill="none" xmlns="http://www.w3.org/2000/svg">
<path fill-rule="evenodd" clip-rule="evenodd" d="M24.8201 33.9506C24.8077 33.8049 24.7933 33.6591 24.779 33.5133C24.7478 33.1967 24.7167 32.8798 24.7055 32.5625C24.6975 32.3321 24.6892 32.1017 24.6809 31.8714C24.6402 30.7437 24.5996 29.6164 24.5996 28.4884C24.5996 25.679 24.6269 22.8696 24.664 20.0612C24.6746 19.2618 24.7426 18.4614 24.8104 17.664L24.8168 17.5894C24.8299 17.4372 24.9314 17.2452 25.0536 17.158L25.0892 17.1323L25.0892 17.1323C25.742 16.6608 26.3964 16.1881 27.0812 15.7687C28.8754 14.6719 30.6717 13.575 32.4963 12.5311C33.7922 11.7892 35.105 11.0778 36.4178 10.3663C36.9933 10.0544 37.5687 9.74258 38.1428 9.42815C38.1523 9.42297 38.1623 9.41894 38.1722 9.41493C38.1792 9.41209 38.1862 9.40928 38.193 9.40608C38.3211 9.34819 38.4325 9.2962 38.5308 9.2503C38.8803 9.0872 39.0651 9.00099 39.2503 9.00001C39.4579 8.9989 39.666 9.10491 40.1076 9.32977C40.1733 9.36323 40.2442 9.39932 40.321 9.43808C41.9671 10.2698 43.5809 11.1691 45.1934 12.0677L45.221 12.0831C45.9876 12.5106 46.7452 12.954 47.503 13.3974C48.0731 13.731 48.6433 14.0646 49.2174 14.3916C49.4367 14.5163 49.452 14.6101 49.3145 14.8076C47.9853 16.721 46.6604 18.6388 45.3388 20.5578C44.3827 21.9465 43.4285 23.3373 42.4748 24.7275L42.4741 24.7284L42.474 24.7285L42.4739 24.7287L41.6917 25.8688L41.6917 25.8688C41.672 25.8975 41.6524 25.9262 41.5858 26.0266V18.7084C41.5462 18.7049 41.5098 18.7011 41.4754 18.6975L41.4754 18.6975C41.4011 18.6897 41.3368 18.683 41.2726 18.683C40.7104 18.6823 40.1483 18.682 39.5862 18.6818H39.5862H39.5861H39.586H39.5859H39.5859H39.5858H39.5857C38.3205 18.6812 37.0555 18.6806 35.7899 18.6753C35.6131 18.6753 35.5018 18.7326 35.4057 18.8728C34.357 20.3923 33.3061 21.9095 32.253 23.4268C31.8693 23.9797 31.4851 24.5321 31.1008 25.0844L31.1005 25.0849C30.6289 25.7628 30.1575 26.4406 29.6873 27.119C29.0412 28.0501 28.3968 28.9822 27.7524 29.9143L27.7523 29.9145L27.0049 30.9955L26.4579 31.7868C25.9857 32.4702 25.5134 33.1536 25.0394 33.8359C25.0151 33.8705 24.9818 33.8981 24.9483 33.9258C24.9337 33.9379 24.9191 33.95 24.9052 33.9628L24.8211 33.9495L24.8201 33.9506ZM36.8629 25.498V27.7501V32.2667C36.8629 32.6407 36.8651 32.6407 37.2219 32.6407C37.7442 32.6407 38.2665 32.6404 38.7886 32.64H38.7888H38.7889H38.789H38.7891H38.7892H38.7893H38.7894C40.0945 32.6391 41.3993 32.6382 42.7047 32.6429C42.8891 32.6429 42.9971 32.5856 43.103 32.4322C43.9089 31.2669 44.7183 30.1038 45.5276 28.9408C46.143 28.0564 46.7584 27.1721 47.3722 26.2869C48.0376 25.3273 48.7005 24.3654 49.3634 23.4035L49.3636 23.4033L49.3638 23.403L49.3639 23.4028L49.3641 23.4025L49.3643 23.4023L49.3644 23.4021L49.3649 23.4013C49.941 22.5655 50.517 21.7297 51.0947 20.8954C51.6826 20.0453 52.2738 19.1979 52.8652 18.3501L53.4126 17.5651C53.4415 17.523 53.4736 17.4832 53.5207 17.4249C53.5465 17.393 53.5767 17.3555 53.6134 17.3091C53.6278 17.394 53.6428 17.471 53.6567 17.5426L53.6568 17.5429L53.6568 17.5431L53.6569 17.5432L53.657 17.5437L53.657 17.544L53.657 17.5441C53.6843 17.6839 53.7077 17.8036 53.7149 17.9237C53.7249 18.0778 53.7356 18.2319 53.7464 18.3859L53.7464 18.386C53.7848 18.9371 53.8233 19.4883 53.8284 20.0402C53.8589 23.4731 53.8873 26.906 53.884 30.3389C53.884 31.0543 53.8363 31.7697 53.7885 32.4848L53.7885 32.4848C53.7659 32.8231 53.7433 33.1612 53.7258 33.4992C53.7083 33.8303 53.5905 34.1006 53.3056 34.2904C53.0416 34.4658 52.7798 34.6449 52.5181 34.824L52.5179 34.8241L52.5179 34.8241C52.0355 35.1542 51.5531 35.4843 51.0565 35.7912C49.7403 36.6044 48.4177 37.4088 47.0732 38.1724C45.3136 39.1718 43.5381 40.1426 41.7633 41.1129L41.1736 41.4354C40.8277 41.6248 40.4725 41.7965 40.1174 41.9681C39.9324 42.0575 39.7474 42.1469 39.5639 42.2387C39.35 42.3458 39.1514 42.3226 38.944 42.2078C38.561 41.9953 38.1762 41.7861 37.7915 41.5769L37.7903 41.5762L37.79 41.5761C37.432 41.3814 37.0741 41.1868 36.7177 40.9896L36.5293 40.8851L36.5275 40.8842L36.5274 40.8841L36.5272 40.884L36.5264 40.8836C34.9741 40.023 33.4228 39.163 31.8756 38.2938C31.2493 37.9424 30.6286 37.5818 30.0079 37.2211L30.0066 37.2203L30.0056 37.2197C29.7695 37.0825 29.5333 36.9453 29.2968 36.8086C29.256 36.7854 29.2189 36.756 29.1732 36.7198L29.1732 36.7197C29.1493 36.7008 29.1231 36.6801 29.0928 36.6574L29.9498 35.4132C32.2353 32.0953 34.517 28.7828 36.7996 25.4704L36.8312 25.4842L36.8629 25.498ZM135.066 26.0364C134.647 25.6369 134.147 25.4019 133.557 25.2297L133.556 25.2286L133.606 25.205L133.606 25.2049C133.681 25.1689 133.732 25.1445 133.783 25.1216C134.961 24.6074 135.581 23.697 135.615 22.4059C135.648 21.1138 135.025 20.2167 133.908 19.6318C133.045 19.1805 132.115 19.0481 131.162 19.0437C129.839 19.0382 128.517 19.0394 127.195 19.0405H127.195H127.195H127.195H127.195H127.195H127.195C126.644 19.041 126.093 19.0415 125.543 19.0415C125.165 19.0426 125.163 19.0426 125.163 19.4244V31.8462C125.163 32.2158 125.165 32.2169 125.525 32.2169C126.26 32.2174 126.994 32.2171 127.729 32.2168C128.831 32.2164 129.933 32.216 131.035 32.218C131.802 32.2191 132.56 32.1618 133.301 31.9477C135.068 31.4357 136.272 30.1556 136.058 28.0932C135.975 27.2921 135.656 26.5991 135.066 26.0364ZM129.815 29.7385V29.7429H129.814C129.674 29.7429 129.534 29.7424 129.393 29.7419C129.043 29.7405 128.692 29.7392 128.341 29.7463C128.151 29.7496 128.088 29.68 128.089 29.4902C128.097 28.6362 128.098 27.7821 128.089 26.928C128.087 26.7161 128.167 26.6643 128.363 26.6665C128.777 26.6704 129.192 26.6697 129.606 26.669C130.119 26.6682 130.633 26.6674 131.146 26.6753C131.642 26.683 132.12 26.79 132.533 27.0979C133.326 27.6905 133.241 28.9838 132.35 29.4163C131.991 29.5896 131.577 29.68 131.178 29.7264C130.865 29.7626 130.547 29.7542 130.229 29.7458L130.229 29.7458C130.091 29.7422 129.953 29.7385 129.815 29.7385ZM129.83 21.5143V21.5199V21.521C129.977 21.521 130.125 21.5193 130.273 21.5177C130.598 21.5142 130.923 21.5106 131.247 21.5243C132.265 21.5673 132.812 22.311 132.576 23.3097C132.446 23.8603 131.955 24.2796 131.254 24.3116C130.439 24.348 129.621 24.3387 128.804 24.3293H128.804L128.804 24.3293L128.804 24.3293L128.804 24.3293C128.63 24.3273 128.456 24.3253 128.282 24.3238C128.219 24.3238 128.103 24.198 128.102 24.1285C128.094 23.6254 128.094 23.1228 128.094 22.6201C128.094 22.3244 128.094 22.0287 128.092 21.7328C128.091 21.5331 128.206 21.5143 128.357 21.5143C128.684 21.5151 129.011 21.5148 129.338 21.5146H129.338H129.338H129.338H129.338H129.338L129.83 21.5143ZM98.8932 22.0316L98.8902 22.0409L98.8895 22.0433L98.8887 22.0456L98.8879 22.0482L98.8864 22.0528L98.8863 22.0532C98.7679 22.4251 98.6552 22.7792 98.545 23.1343C98.1161 24.5158 97.6872 25.8985 97.2616 27.2811C97.062 27.9283 96.8643 28.5759 96.6668 29.2234C96.5436 29.6269 96.4205 30.0304 96.2969 30.4337L96.2114 30.7126C96.0737 31.1627 95.936 31.6126 95.784 32.058C95.7589 32.1331 95.6312 32.218 95.5494 32.2203C95.0583 32.2357 94.5672 32.2368 94.0772 32.2191C93.9921 32.2158 93.8666 32.1132 93.8371 32.0294C93.5903 31.3193 93.3565 30.6036 93.1228 29.8884L93.0645 29.7099C92.6388 28.4133 92.2143 27.1178 91.7909 25.8201C91.5741 25.155 91.3579 24.4894 91.1417 23.8235L91.1398 23.8176L91.1368 23.8086L91.1342 23.8004L91.1305 23.789L91.1265 23.7769C90.932 23.1779 90.7375 22.5789 90.5424 21.98C90.3892 21.5105 90.2354 21.0416 90.0816 20.5729L90.0812 20.5718L90.0809 20.5708L90.0805 20.5698C89.9466 20.1615 89.8127 19.7533 89.6792 19.3449C89.6617 19.2905 89.6469 19.2352 89.628 19.1642L89.6278 19.1637C89.6172 19.1239 89.6053 19.0793 89.5908 19.0271H90.0721C90.1924 19.0271 90.3128 19.0276 90.4332 19.0281C90.722 19.0292 91.0109 19.0304 91.2998 19.0249C91.4624 19.0216 91.5475 19.0856 91.5945 19.2434C92.0075 20.6237 92.422 22.0034 92.8364 23.3831L92.8385 23.3899L92.8476 23.42C93.1696 24.4921 93.4917 25.5642 93.8131 26.6367C93.9914 27.2332 94.1673 27.8308 94.3431 28.4282L94.3432 28.4287L94.3434 28.4292L94.3435 28.4297L94.3437 28.4302L94.3439 28.4307L94.3454 28.4361L94.3474 28.4427L94.3497 28.4505L94.3498 28.451L94.3499 28.4515C94.4795 28.8918 94.6091 29.332 94.7396 29.7716C94.7542 29.8209 94.7742 29.8688 94.7992 29.9289C94.8134 29.963 94.8292 30.001 94.8466 30.0453C94.8639 30.0137 94.8801 29.9867 94.8948 29.9624L94.8949 29.9623C94.9227 29.9162 94.9446 29.8798 94.9568 29.8401C95.6869 27.4003 96.4148 24.9605 97.1416 22.5207L97.2889 22.0277C97.5546 21.1392 97.8205 20.2503 98.0747 19.3582C98.1434 19.1176 98.2405 19.0051 98.5046 19.0194C98.8942 19.0415 99.2871 19.0415 99.6767 19.0194C99.9157 19.0062 100.017 19.1011 100.082 19.3195C100.327 20.1599 100.58 20.9981 100.832 21.8364L100.833 21.8391L101.009 22.4258C101.457 23.9142 101.905 25.4027 102.353 26.8911L102.354 26.8923L102.364 26.9247C102.56 27.5791 102.758 28.234 102.961 28.9078L103.321 30.1027C103.346 30.0248 103.37 29.9543 103.393 29.8886L103.393 29.888C103.435 29.7621 103.472 29.6537 103.505 29.5443C103.761 28.6852 104.016 27.8256 104.271 26.966L104.273 26.9623C104.598 25.8656 104.924 24.7688 105.251 23.6728C105.694 22.1897 106.142 20.7077 106.593 19.2269C106.616 19.1529 106.696 19.0415 106.752 19.0404C107.213 19.0298 107.674 19.0305 108.16 19.0312L108.311 19.0314L108.535 19.0315C108.48 19.2001 108.427 19.3631 108.376 19.5223L108.374 19.5265L108.373 19.53L108.373 19.5309C108.276 19.8312 108.183 20.1182 108.089 20.4043C107.934 20.874 107.779 21.3437 107.624 21.8133C107.36 22.6134 107.096 23.4135 106.834 24.2146C106.64 24.8056 106.448 25.3971 106.256 25.9886C106.035 26.6682 105.814 27.348 105.592 28.0271C105.444 28.4782 105.294 28.9289 105.145 29.3794L105.145 29.3808L105.144 29.3822L105.144 29.3835L105.143 29.3849L105.143 29.3863C104.867 30.2194 104.591 31.0524 104.323 31.8881C104.245 32.1331 104.146 32.25 103.87 32.2324C103.444 32.2059 103.015 32.2169 102.588 32.2291C102.402 32.2346 102.308 32.1673 102.254 31.9874C101.913 30.843 101.567 29.7001 101.221 28.5575L101.221 28.5561L101.22 28.5546L101.22 28.5532L101.219 28.5513L101.218 28.5489L101.033 27.9366C100.677 26.7625 100.321 25.5884 99.9626 24.4154C99.6723 23.4609 99.381 22.5064 99.0677 21.4824L99.0667 21.4857C99.0073 21.6731 98.9496 21.8544 98.8932 22.0316ZM160.289 21.4446L160.59 21.0632C159.007 19.2976 156.068 18.1897 153.179 19.2259C150.383 20.2289 148.572 22.8331 148.759 26.1116C148.92 28.9078 150.865 31.4071 153.506 32.1641C156.504 33.0226 159.296 31.5649 160.601 30.009L160.055 29.3981L160.05 29.3927C159.677 28.9752 159.303 28.5559 158.924 28.1331C158.903 28.149 158.885 28.1627 158.868 28.1753L158.868 28.1754L158.867 28.1756L158.867 28.176C158.832 28.2023 158.803 28.2233 158.778 28.2479C158.311 28.6915 157.785 29.0446 157.203 29.3183C155.772 29.9914 154.076 29.7144 152.96 28.5911C151.979 27.6046 151.615 26.3874 151.776 25.0158C151.957 23.4687 152.742 22.3289 154.18 21.7396C155.529 21.1868 156.807 21.4483 157.966 22.3046C158.197 22.4759 158.41 22.6723 158.627 22.8732L158.628 22.8732L158.628 22.8733L158.628 22.8734L158.628 22.8735C158.73 22.9676 158.833 23.0626 158.939 23.1565C159.374 22.6045 159.809 22.0532 160.248 21.4972L160.281 21.4551L160.289 21.4446ZM73.3028 29.104V28.7509V19.442C73.3028 19.1661 73.4355 19.0282 73.7011 19.0282C73.8159 19.0282 73.9308 19.0287 74.0458 19.0292H74.0459C74.3221 19.0303 74.5984 19.0314 74.8742 19.026C75.039 19.0227 75.11 19.0878 75.1034 19.25C75.1013 19.2963 75.1023 19.343 75.1033 19.3899C75.1039 19.4168 75.1045 19.4438 75.1045 19.4707V31.8097C75.1045 32.0893 74.9659 32.229 74.6887 32.229C74.6348 32.229 74.5809 32.2292 74.527 32.2294L74.3683 32.2303H74.3683H74.3682H74.3682C74.075 32.232 73.7822 32.2338 73.4894 32.2224C73.3879 32.218 73.2504 32.1628 73.1936 32.0834C72.5252 31.1558 71.8613 30.2252 71.1973 29.2945L71.1967 29.2936L71.1961 29.2928L71.1955 29.2919C70.725 28.6324 70.2544 27.9728 69.7822 27.3142C69.1325 26.4085 68.4804 25.5045 67.8283 24.6006L67.8281 24.6003L67.8272 24.5991L67.8256 24.5968L67.8231 24.5933L67.8205 24.5898C67.4225 24.0381 67.0246 23.4865 66.6272 22.9345L66.5828 22.8727C66.4276 22.6567 66.271 22.4388 66.0608 22.2283V22.5063V31.8152C66.0608 32.0904 65.9284 32.2279 65.6636 32.2279C65.55 32.2279 65.4365 32.2269 65.3229 32.2258C65.0545 32.2233 64.7861 32.2207 64.5177 32.2324C64.2929 32.2423 64.2362 32.1474 64.2383 31.9421C64.243 31.4503 64.2421 30.9585 64.2412 30.4666C64.2409 30.2699 64.2405 30.0732 64.2405 29.8764V19.4376C64.2405 19.1639 64.374 19.0271 64.641 19.0271C64.7518 19.0271 64.8626 19.026 64.9733 19.0249L64.9735 19.0249C65.263 19.022 65.5523 19.0192 65.8404 19.0359C65.9637 19.0436 66.1241 19.122 66.1961 19.2213C67.3769 20.8478 68.5467 22.4808 69.7166 24.1139L69.7167 24.1141C70.3833 25.0448 71.0484 25.9766 71.7136 26.9085L71.7155 26.9112L71.7174 26.9139C72.1976 27.5866 72.6779 28.2595 73.1587 28.9319C73.1782 28.9597 73.2007 28.9856 73.2365 29.0269L73.2367 29.0271C73.2548 29.048 73.2764 29.0729 73.3028 29.104ZM78.506 19.4078V25.6336L78.5071 25.6325L78.5073 27.1958C78.5077 28.7592 78.5082 30.3225 78.5049 31.8859C78.5049 32.111 78.5354 32.2335 78.8137 32.2335C81.6686 32.2235 84.5245 32.2257 87.3794 32.2313C87.5944 32.2313 87.6719 32.1617 87.6653 31.9466C87.6569 31.7011 87.6587 31.4551 87.6605 31.2094C87.6613 31.106 87.6621 31.0026 87.6621 30.8994C87.661 30.5198 87.661 30.5187 87.2834 30.5187L86.6167 30.5183H86.6164H86.6161C84.619 30.5172 82.6227 30.5161 80.6264 30.5231C80.3885 30.5242 80.3132 30.458 80.3154 30.213C80.3263 29.0566 80.3295 27.899 80.3132 26.7426C80.3088 26.4579 80.3928 26.3906 80.6657 26.3928C81.7329 26.3996 82.8001 26.3998 83.8674 26.4C84.7099 26.4002 85.5525 26.4004 86.395 26.4038C86.6166 26.4038 86.7061 26.3464 86.6952 26.1114C86.6777 25.7638 86.6733 25.4129 86.6952 25.0653C86.7115 24.7916 86.6297 24.7034 86.347 24.7056C85.3308 24.7114 84.3148 24.7117 83.299 24.712C82.3961 24.7122 81.4932 24.7124 80.5904 24.7166C80.3721 24.7177 80.3121 24.6515 80.3143 24.4363C80.3215 23.6241 80.3204 22.8125 80.3194 22.0006V22.0005V22.0004C80.319 21.7104 80.3186 21.4204 80.3186 21.1303C80.3186 20.8574 80.4572 20.7209 80.7344 20.7209C81.2255 20.7209 81.7166 20.7207 82.2077 20.7206C83.8447 20.72 85.4816 20.7194 87.1186 20.7253C87.3641 20.7264 87.4656 20.6602 87.4503 20.3998C87.4374 20.1705 87.4404 19.94 87.4434 19.7093C87.4447 19.6092 87.446 19.509 87.446 19.4089C87.4452 19.1551 87.3197 19.0282 87.0695 19.0282H78.8857C78.5071 19.0282 78.506 19.0293 78.506 19.4078ZM142.783 19.0425H147.746C148.114 19.0425 148.116 19.0425 148.116 19.4011V21.2186C148.116 21.5871 148.114 21.5882 147.761 21.5882H144.597C144.337 21.5882 144.207 21.7162 144.207 21.9722V31.7203C144.207 31.7534 144.207 31.7843 144.207 31.8131C144.208 32.0305 144.209 32.1319 144.158 32.1786C144.114 32.2194 144.032 32.2184 143.877 32.2166C143.834 32.2161 143.785 32.2155 143.73 32.2158C143.282 32.2172 142.833 32.2168 142.385 32.2163L142.38 32.2163C142.157 32.216 141.935 32.2158 141.713 32.2158C141.305 32.2158 141.304 32.2158 141.304 31.8108V22.1444C141.304 22.1182 141.304 22.092 141.303 22.0658L141.303 22.0651V22.065C141.301 22.0085 141.3 21.9521 141.305 21.8972C141.334 21.6589 141.242 21.5794 141 21.5827C140.48 21.5885 139.96 21.588 139.44 21.5875C138.878 21.5869 138.316 21.5863 137.754 21.5937C137.485 21.5971 137.413 21.5066 137.419 21.2473C137.435 20.6139 137.434 19.9805 137.419 19.3471C137.414 19.1021 137.502 19.0359 137.737 19.037C138.998 19.0436 140.26 19.0428 141.521 19.042C141.941 19.0417 142.362 19.0414 142.782 19.0414L142.783 19.0425ZM112.662 30.1657C111.798 29.8291 111.024 29.3436 110.321 28.633H110.32C110.247 28.7776 110.178 28.9191 110.109 29.0578C109.95 29.3806 109.798 29.6886 109.632 29.988C109.508 30.2098 109.579 30.3312 109.746 30.4735C110.348 30.9845 110.997 31.4082 111.725 31.7194C113.437 32.4521 115.166 32.5646 116.924 31.9125C118.398 31.3652 119.231 30.2363 119.296 28.655C119.339 27.6233 119.033 26.7328 118.226 26.0354C117.64 25.5292 116.942 25.27 116.241 25.0092L116.226 25.0036C115.845 24.8617 115.459 24.7279 115.074 24.5941C114.644 24.445 114.215 24.2958 113.79 24.1352C113.264 23.9366 112.798 23.6342 112.485 23.141C112.109 22.544 112.242 21.6557 112.779 21.2154C113.4 20.7056 114.143 20.6571 114.896 20.6813C116.069 20.72 117.134 21.1172 118.123 21.7362C118.26 21.8212 118.327 21.8102 118.393 21.6612L118.438 21.5586C118.602 21.1812 118.767 20.8046 118.948 20.4364C119.053 20.2223 118.998 20.1086 118.804 19.995C116.996 18.9389 115.079 18.5649 113.039 19.1045C111.734 19.451 110.738 20.1936 110.366 21.5774C110.052 22.7459 110.325 24.1363 111.41 25.0025C112.039 25.5031 112.772 25.7621 113.507 26.0218C113.541 26.034 113.576 26.0463 113.611 26.0586C113.9 26.161 114.19 26.2599 114.48 26.3587C114.981 26.5293 115.481 26.6998 115.975 26.8884C116.46 27.0737 116.88 27.3838 117.116 27.8638C117.597 28.8426 117.165 29.902 116.146 30.2904C114.968 30.7395 113.808 30.6115 112.662 30.1657Z" fill="#788396"/>
</svg>
