<svg width="184" height="51" viewBox="0 0 184 51" fill="none" xmlns="http://www.w3.org/2000/svg">
<path fill-rule="evenodd" clip-rule="evenodd" d="M101.311 19.0627C102.998 18.2194 104.684 17.7134 106.877 17.7134C112.105 17.7134 116.153 22.4358 116.322 28.6761C116.322 36.7716 111.43 41.8313 103.166 41.8313C100.13 41.8313 97.2633 41.494 94.3961 40.8194C94.5648 37.6149 94.7335 17.7134 94.3961 14.003C94.0588 12.1477 93.5528 11.4731 92.2036 11.1358L91.023 10.9671V9.9552L101.48 8.09998C101.311 9.61782 101.311 14.1712 101.311 19.062V19.0627ZM101.48 40.1447C101.986 40.3134 102.66 40.3134 103.335 40.3134C106.539 40.3134 108.901 35.4224 108.901 29.1821C108.901 24.291 107.045 20.2433 103.672 20.2433C102.829 20.2433 102.323 20.4119 101.311 20.7492C101.142 28.8447 101.311 37.9522 101.48 40.1447ZM24.5723 8.7746H51.8946L52.0633 17.8821L50.5454 18.388C49.0275 13.8343 46.8349 11.1358 42.6185 11.1358H37.2215C37.0529 14.003 36.8842 19.0627 36.8842 24.291L40.5947 24.1224C42.9558 24.1224 43.9678 22.2671 44.4738 19.5686H45.823V30.7H44.4738C43.9678 28.0015 42.9558 26.1462 40.5947 26.1462L36.8842 25.9776C36.8842 30.0253 37.0529 33.2298 37.2215 35.2537C37.3902 38.2895 38.2335 39.6388 40.2573 39.8074L42.1126 40.1447V41.3253H24.5723V40.1447L26.0902 39.9761C28.1141 39.8074 28.7887 38.4582 29.126 35.4224C29.4633 30.5313 29.632 20.4119 29.126 14.8462C28.9573 11.8104 28.1141 10.6298 26.0902 10.2925L24.5723 10.1239V8.7746ZM71.9648 29.688C71.9648 22.6045 68.0857 17.3761 60.3275 17.3761C52.5693 17.3761 48.1842 22.9418 48.1842 29.688C48.1842 36.7716 52.0633 42 59.8215 42C67.5797 42 71.9648 36.4343 71.9648 29.688ZM55.4364 29.688C55.4364 23.6164 56.4484 18.894 59.8215 18.894C63.026 18.894 64.7126 23.7851 64.7126 29.688C64.7126 35.7597 63.7006 40.4821 60.1588 40.4821C56.9543 40.4821 55.4364 35.591 55.4364 29.688ZM129.814 17.3761C121.887 17.3761 117.839 23.4477 117.839 29.8567C117.839 36.9403 122.73 42 129.814 42C134.199 42 137.572 39.8074 139.09 37.6149L138.416 36.7716C136.898 37.7836 135.717 38.4582 133.187 38.4582C127.622 38.4582 124.754 34.2418 124.923 28.5074H139.427C139.427 22.2671 136.392 17.3761 129.814 17.3761ZM132.175 26.6522L124.923 26.8209C125.092 23.2791 126.61 18.894 129.139 18.894C131.669 18.894 132.175 23.6164 132.175 26.6522ZM150.727 17.5448C153.426 17.5448 155.956 17.8821 157.811 18.7254L157.98 24.6283L156.968 24.9656C155.619 20.7492 153.763 19.0627 150.896 19.0627C149.041 19.0627 147.692 20.4119 147.692 22.4358C147.692 24.4597 149.21 25.6403 153.595 27.3268C157.642 29.0134 159.329 30.8686 159.329 34.0731C159.329 38.9642 155.45 42 149.378 42C146.342 42 142.969 41.494 141.114 40.6507L140.945 33.7358L141.957 33.3985C143.813 38.1209 146.005 39.8074 148.872 39.8074C151.402 39.8074 152.751 38.1209 152.751 36.2656C152.751 34.4104 151.739 33.2298 147.86 31.8806C144.15 30.7 141.451 29.0134 141.451 24.9656C141.451 20.9179 144.993 17.5448 150.727 17.5448ZM82.4215 22.9418C84.9514 17.2074 89.5051 16.5328 92.2036 18.0507L89.6737 24.6283C86.6379 22.6045 83.2648 23.6164 82.4215 24.6283C82.2528 28.3388 82.2529 34.2418 82.5902 37.2776C82.7588 39.1328 83.2648 39.9761 84.7827 40.1448L86.6379 40.3134V41.494H72.1335V40.3134L73.1454 40.1448C74.4946 40.1448 75.1693 39.1328 75.3379 37.2776C75.5066 34.0731 75.6752 27.4955 75.3379 23.7851C75.1693 21.7612 74.4946 20.9179 73.1454 20.7492L72.1335 20.5806V19.5686L82.5902 17.5448L82.4215 22.9418Z" fill="#788396"/>
</svg>
