<svg width="57" height="14" viewBox="0 0 57 14" fill="none" xmlns="http://www.w3.org/2000/svg">
<g clip-path="url(#clip0_2244_10530)">
<path d="M20.7773 10.6415H22.1933V3.75293H20.7773V10.6415Z" fill="white"/>
<path d="M42.4527 7.72161C43.3515 7.42315 43.8773 6.74061 43.8851 5.83528C43.892 5.01806 43.6023 4.34965 42.785 3.97887C42.3841 3.79681 41.9529 3.74693 41.5139 3.74609C40.5885 3.74609 39.663 3.74609 38.7375 3.74609C38.6838 3.74609 38.6308 3.75191 38.5762 3.75524V10.6471H40.019V6.90605C40.0748 6.95269 40.1207 7.00913 40.1544 7.07232C40.834 8.22125 41.5142 9.36934 42.195 10.5166C42.2297 10.574 42.3008 10.6496 42.3564 10.6505C42.87 10.6604 43.3836 10.6563 43.9328 10.6563C43.3316 9.69191 42.7511 8.7583 42.1629 7.81389L42.4527 7.72161ZM41.6224 6.72399C41.0957 6.76722 40.5621 6.73396 40.0216 6.73396V4.89502C40.5925 4.91414 41.1617 4.90001 41.7221 4.96153C42.1889 5.01307 42.4579 5.38967 42.4457 5.84109C42.4336 6.29252 42.1204 6.68658 41.6224 6.72399Z" fill="white"/>
<path d="M18.7762 7.41567C18.5856 7.28425 18.3866 7.16458 18.1802 7.05736C18.2097 7.03658 18.2383 7.01579 18.2669 6.99667C18.9341 6.57185 19.2577 5.83278 19.0833 5.13777C18.9884 4.77379 18.7778 4.44707 18.4806 4.20282C18.1834 3.95856 17.8143 3.80884 17.4245 3.77436C17.2301 3.7569 17.034 3.74693 16.838 3.74609C15.8949 3.74609 14.9509 3.74609 13.9922 3.74609V10.6463C14.0209 10.6505 14.0499 10.6533 14.0789 10.6546C15.1704 10.6546 16.261 10.6588 17.3525 10.6546C17.7273 10.6523 18.0961 10.5642 18.4283 10.3977C19.6273 9.8058 19.8173 8.23123 18.7762 7.41567ZM17.0019 4.93326C17.454 4.96818 17.696 5.30903 17.6847 5.76461C17.6726 6.18694 17.4141 6.45962 16.9568 6.50202C16.7417 6.5228 15.8376 6.51116 15.4368 6.51864V4.92412C15.9651 4.92412 16.4866 4.89502 17.0019 4.93326ZM17.224 9.46744C16.6341 9.50402 16.0406 9.47576 15.4359 9.47576V7.68752C15.5469 7.68752 15.6493 7.68752 15.7517 7.68752C16.2107 7.68752 16.6696 7.68087 17.1286 7.695C17.6492 7.71163 17.965 8.04251 17.9962 8.5779C18.0275 9.07421 17.7455 9.43835 17.224 9.46744Z" fill="white"/>
<path d="M28.4115 8.98306C28.3598 8.93612 28.3188 8.87953 28.2909 8.81679L27.4345 7.10172C26.8984 6.02761 26.3607 4.95379 25.8216 3.88024C25.793 3.82454 25.7184 3.75138 25.6646 3.75055C25.0339 3.7414 24.4022 3.74473 23.7559 3.74473V10.6449H25.1952V5.42987C25.2417 5.47343 25.2785 5.52544 25.3037 5.58284C26.1239 7.22393 26.9429 8.86473 27.7608 10.5053C27.7764 10.5543 27.8094 10.5966 27.854 10.6248C27.8987 10.653 27.9522 10.6654 28.0054 10.6599C28.5633 10.6516 29.1212 10.6599 29.6791 10.6599H29.8482V3.75969H28.4115V8.98306Z" fill="white"/>
<path d="M35.1323 3.87642C35.1241 3.83479 35.0995 3.79776 35.0637 3.77288C35.0279 3.74801 34.9836 3.73716 34.9397 3.74257C34.4426 3.74839 33.9454 3.75088 33.4492 3.74257C33.3077 3.74257 33.2513 3.78497 33.2062 3.90884C32.4786 5.93955 31.7481 7.96887 31.0146 9.99681C30.9374 10.2113 30.8619 10.4266 30.7812 10.6561C31.2498 10.6561 31.6974 10.6494 32.1443 10.6561C32.2761 10.6561 32.3239 10.6103 32.3612 10.5006C32.4878 10.1332 32.6284 9.76985 32.7533 9.4024C32.7618 9.35692 32.7885 9.31642 32.8278 9.28955C32.867 9.26268 32.9156 9.25156 32.9633 9.25857C33.4049 9.26523 33.8465 9.25857 34.2881 9.26439C34.3424 9.27027 34.3972 9.25899 34.4442 9.23228C34.4912 9.20557 34.5278 9.16488 34.5484 9.11641C34.7219 8.81214 34.9041 8.51369 35.0837 8.21357C35.1063 8.17616 35.1358 8.14373 35.1783 8.08803L36.1275 10.6461H37.6389C37.6232 10.5929 37.6137 10.548 37.5981 10.5056C36.7733 8.29753 35.9514 6.08781 35.1323 3.87642ZM33.2522 7.9916C33.5593 7.10621 33.8595 6.23163 34.1858 5.30468L35.1401 7.9916H33.2522Z" fill="white"/>
<path d="M49.0558 3.7419C49.0083 3.73752 48.9606 3.74826 48.9202 3.77246C48.8797 3.79665 48.8487 3.83295 48.8319 3.87574C48.6142 4.27645 48.3894 4.67384 48.1673 5.07206C47.8706 5.60412 47.573 6.13535 47.265 6.68654C47.2199 6.6167 47.1783 6.56516 47.1514 6.51029C46.6429 5.63294 46.1339 4.75587 45.6244 3.87907C45.5931 3.82586 45.5289 3.75187 45.4786 3.75104C44.978 3.7419 44.4774 3.74522 43.9473 3.74522C43.995 3.82836 44.0271 3.88905 44.0627 3.9489C44.8192 5.22364 45.5749 6.49838 46.3297 7.77311C46.3807 7.85889 46.4087 7.95543 46.4113 8.05411C46.4174 8.8522 46.4113 9.65113 46.4113 10.4501V10.6438H47.8567V10.4251C47.8567 9.61455 47.8567 8.80399 47.8567 7.99342C47.8628 7.81801 47.8155 7.6447 47.7205 7.49461C47.5765 7.26682 47.4472 7.02989 47.2997 6.77466C47.7413 6.77466 48.1456 6.77466 48.5491 6.77466C48.6023 6.78065 48.656 6.76963 48.702 6.74332C48.748 6.71701 48.7836 6.67688 48.8033 6.62917C49.3082 5.71469 49.821 4.80852 50.3312 3.89902C50.3563 3.85496 50.378 3.80841 50.4127 3.74023C49.9459 3.74522 49.5009 3.74938 49.0558 3.7419Z" fill="white"/>
<path d="M54.1811 6.0824C54.5611 6.0824 54.942 6.0824 55.322 6.0824C55.3562 6.08336 55.3903 6.07783 55.4223 6.06614C55.4544 6.05444 55.4836 6.0368 55.5085 6.01423C56.0291 5.2735 56.5358 4.52778 57.0702 3.74881C56.5557 3.74881 56.0785 3.74881 55.6022 3.74881C55.5546 3.74491 55.5068 3.75479 55.465 3.77717C55.4233 3.79954 55.3895 3.83339 55.368 3.87434C54.9281 4.53942 54.483 5.19951 54.0388 5.86043C54.0032 5.91281 53.9659 5.96352 53.9173 6.0267C53.8696 5.95936 53.8306 5.90782 53.7959 5.85461C53.3525 5.19951 52.9074 4.54607 52.471 3.88681C52.4444 3.83775 52.4029 3.79762 52.3519 3.77177C52.3009 3.74593 52.2428 3.7356 52.1856 3.74215C51.7518 3.75047 51.318 3.74215 50.8841 3.74631C50.8399 3.74631 50.7974 3.75462 50.7366 3.76044C50.7878 3.83776 50.8234 3.89762 50.8651 3.95581C51.5221 4.92627 52.1798 5.89618 52.838 6.86554C52.872 6.90478 52.8906 6.95419 52.8906 7.0052C52.8906 7.05621 52.872 7.10562 52.838 7.14487C52.0982 8.25333 51.3616 9.3618 50.6282 10.4703C50.5935 10.5226 50.5614 10.5767 50.5137 10.6548C51.0099 10.6548 51.4802 10.649 51.9496 10.6548C52.0057 10.6595 52.062 10.6475 52.1107 10.6204C52.1595 10.5933 52.1983 10.5525 52.222 10.5035C52.681 9.78856 53.1477 9.07859 53.6102 8.36695C53.6449 8.31375 53.6822 8.2622 53.729 8.19486C53.7811 8.26719 53.8236 8.32289 53.8627 8.38025C54.3451 9.09438 54.83 9.80768 55.3081 10.5251C55.3323 10.5676 55.3689 10.6024 55.4135 10.6253C55.458 10.6482 55.5085 10.6582 55.5588 10.654C55.9927 10.6465 56.4265 10.654 56.8603 10.654C56.9115 10.654 56.9626 10.6473 57.0338 10.6424C56.0048 9.11849 54.988 7.61541 53.9512 6.08074L54.1811 6.0824Z" fill="white"/>
<path fill-rule="evenodd" clip-rule="evenodd" d="M7.75757 9.5456C7.47509 9.30651 7.04829 9.30648 6.76578 9.54553L3.95532 11.9236L1.87137 13.6875C1.39156 14.0936 0.630859 13.7708 0.630859 13.1611V9.1106V5.05927C0.630859 4.44955 1.39156 4.12674 1.87136 4.53285L2.69066 5.22631C2.97316 5.46542 3.40002 5.46542 3.68252 5.22631L6.49249 2.84792L8.57645 1.08404C9.05625 0.677927 9.81696 1.00074 9.81696 1.61045V5.66178V9.71229C9.81696 10.322 9.05625 10.6448 8.57645 10.2387L7.75757 9.5456Z" fill="white"/>
</g>
<defs>
<clipPath id="clip0_2244_10530">
<rect width="56.3692" height="12.9649" fill="white" transform="translate(0.630859 0.90332)"/>
</clipPath>
</defs>
</svg>
