<svg width="185" height="51" viewBox="0 0 185 51" fill="none" xmlns="http://www.w3.org/2000/svg">
<path fill-rule="evenodd" clip-rule="evenodd" d="M71.0167 27.0543C71.7387 28.2453 72.7323 29.1751 73.9963 29.8423V29.8448C75.2602 30.512 76.687 30.8457 78.2755 30.8457C79.6629 30.8457 80.912 30.6016 82.0241 30.1134C83.1362 29.6252 84.0606 28.9224 84.7975 28.0037L82.0673 25.5493C81.0848 26.7256 79.8937 27.3143 78.4928 27.3143C77.6695 27.3143 76.9363 27.1352 76.2933 26.7758C75.6502 26.4165 75.1528 25.9111 74.7985 25.2573C74.4443 24.6048 74.2678 23.8541 74.2678 23.0078C74.2678 22.1614 74.4443 21.412 74.7985 20.7582C75.1515 20.1044 75.6502 19.5991 76.2933 19.2397C76.9363 18.8803 77.6695 18.7012 78.4928 18.7012C79.8937 18.7012 81.0848 19.29 82.0673 20.4663L84.7975 18.0118C84.0606 17.0931 83.1362 16.3903 82.0241 15.9021C80.9107 15.4139 79.6616 15.1698 78.2755 15.1698C76.6858 15.1698 75.2602 15.5035 73.9963 16.1707C72.7311 16.838 71.7387 17.7678 71.0167 18.9588C70.2934 20.1498 69.933 21.499 69.933 23.0065C69.933 24.514 70.2946 25.8633 71.0167 27.0543ZM48.9827 26.4091C48.9827 25.5051 48.7371 24.7335 48.2458 24.0945H48.247C47.7558 23.4554 47.0769 22.9856 46.2105 22.6839C46.8609 22.3539 47.3621 21.905 47.7163 21.3383C48.0705 20.7716 48.247 20.1289 48.247 19.4114C48.247 18.2056 47.741 17.2476 46.7301 16.5374C45.7192 15.8273 44.2455 15.4715 42.3101 15.4715H34.5538V30.5439H42.7433C44.7651 30.5439 46.3104 30.1845 47.3793 29.4669C48.4482 28.7494 48.9827 27.7301 48.9827 26.4091ZM38.7998 21.4573V18.5503H41.746C43.1902 18.5503 43.9122 19.0164 43.9122 19.9928C43.9122 20.9691 43.1902 21.4573 41.746 21.4573H38.7998ZM42.3953 24.4073C43.8974 24.4073 44.6491 24.9163 44.6491 25.9356V25.9368C44.6491 26.9561 43.8974 27.4652 42.3953 27.4652H38.7986V24.4073H42.3953ZM55.1576 15.4715H50.8672V30.5427H55.1576V15.4715ZM60.8526 18.852H56.1944V15.4715H69.779V18.852H65.143V30.5427H60.8526V18.852ZM89.0867 29.8326C87.808 29.1579 86.8045 28.2257 86.0751 27.0335C85.3456 25.8425 84.9815 24.5006 84.9815 23.0078C84.9815 21.515 85.3456 20.1732 86.0751 18.9821C86.8045 17.7911 87.808 16.8577 89.0867 16.1831C90.3655 15.5084 91.8059 15.1711 93.4092 15.1711C95.0126 15.1711 96.453 15.5084 97.7317 16.1831C99.0104 16.8577 100.014 17.7911 100.743 18.9821C101.473 20.1732 101.837 21.5163 101.837 23.0078C101.837 24.4993 101.472 25.8425 100.743 27.0335C100.014 28.2245 99.0104 29.1579 97.7317 29.8326C96.453 30.5072 95.0126 30.8445 93.4092 30.8445C91.8059 30.8445 90.3655 30.5072 89.0867 29.8326ZM95.489 26.7747C96.1098 26.4165 96.6011 25.9099 96.9627 25.2562C97.3232 24.6036 97.5046 23.8529 97.5046 23.0066C97.5046 22.1602 97.3244 21.4096 96.9627 20.757C96.6011 20.1045 96.1098 19.5979 95.489 19.2385C94.8682 18.8803 94.1745 18.7 93.4092 18.7C92.644 18.7 91.9503 18.8791 91.3294 19.2385C90.7086 19.5979 90.2173 20.1032 89.8557 20.757C89.4941 21.4108 89.3139 22.1602 89.3139 23.0066C89.3139 23.8529 89.4941 24.6036 89.8557 25.2562C90.2161 25.9099 90.7074 26.4153 91.3294 26.7747C91.9503 27.1341 92.644 27.3131 93.4092 27.3131C94.1745 27.3131 94.8682 27.1341 95.489 26.7747ZM107.975 15.4715H103.686V30.5427H107.975V15.4715ZM125.082 15.4715V30.5427H121.55L114.855 22.5122V30.5427H110.653V15.4715H114.184L120.879 23.502V15.4715H125.082ZM132.052 15.4715H127.763V30.5427H132.052V15.4715ZM136.635 30.3918C135.479 30.0901 134.54 29.689 133.818 29.1861L135.226 26.0423C135.905 26.4876 136.693 26.847 137.587 27.1193C138.482 27.3916 139.364 27.529 140.231 27.529C141.878 27.529 142.701 27.1193 142.701 26.3012C142.701 25.8706 142.467 25.5517 141.996 25.3432C141.527 25.1359 140.772 24.9163 139.733 24.687C138.591 24.4429 137.638 24.1816 136.873 23.9007C136.107 23.621 135.45 23.1721 134.902 22.5551C134.352 21.9382 134.078 21.1053 134.078 20.0578C134.078 19.1391 134.331 18.3099 134.836 17.5715C135.341 16.8319 136.096 16.248 137.1 15.8162C138.103 15.3857 139.335 15.1698 140.794 15.1698C141.791 15.1698 142.773 15.2815 143.74 15.5035C144.708 15.7267 145.56 16.053 146.297 16.4835L144.975 19.6481C143.531 18.8729 142.13 18.4853 140.772 18.4853C139.919 18.4853 139.298 18.6117 138.908 18.8619C138.518 19.1133 138.323 19.4396 138.323 19.8419C138.323 20.2442 138.554 20.546 139.017 20.7459C139.478 20.9471 140.223 21.1544 141.248 21.3703C142.404 21.6143 143.36 21.8756 144.119 22.1565C144.878 22.4374 145.535 22.8814 146.09 23.491C146.646 24.1019 146.925 24.9298 146.925 25.9773C146.925 26.8813 146.672 27.6995 146.167 28.4317C145.661 29.164 144.903 29.7491 143.892 30.187C142.881 30.6249 141.653 30.8432 140.209 30.8432C138.981 30.8432 137.79 30.6924 136.635 30.3906V30.3918ZM147.131 18.852H151.79H151.791V30.5427H156.08V18.852H160.716V15.4715H147.131V18.852ZM161.85 18.7011C161.746 18.6017 161.694 18.4754 161.694 18.3221C161.694 18.1687 161.745 18.0399 161.847 17.943C161.95 17.8461 162.077 17.7983 162.231 17.7983C162.385 17.7983 162.516 17.8461 162.617 17.943C162.718 18.0399 162.768 18.1663 162.768 18.3221C162.768 18.4778 162.717 18.6005 162.615 18.7011C162.512 18.8017 162.385 18.8507 162.231 18.8507C162.077 18.8507 161.953 18.8004 161.85 18.7011ZM163.199 18.051C163.355 18.3098 163.571 18.5122 163.845 18.6569V18.6545C164.121 18.7992 164.431 18.8716 164.775 18.8716C165.076 18.8716 165.346 18.8176 165.588 18.7121C165.83 18.6067 166.03 18.4546 166.191 18.2546L165.598 17.7223C165.385 17.9786 165.125 18.1062 164.822 18.1062C164.643 18.1062 164.484 18.0682 164.344 17.9897C164.205 17.9112 164.096 17.802 164.02 17.6597C163.943 17.5187 163.905 17.3555 163.905 17.1715C163.905 16.9876 163.943 16.8256 164.02 16.6834C164.096 16.5411 164.205 16.4319 164.344 16.3534C164.484 16.2761 164.643 16.2369 164.822 16.2369C165.127 16.2369 165.385 16.3644 165.598 16.6196L166.191 16.0872C166.03 15.8885 165.83 15.7352 165.588 15.6297C165.348 15.523 165.076 15.4703 164.775 15.4703C164.429 15.4703 164.119 15.5426 163.845 15.6874C163.571 15.8333 163.355 16.0345 163.199 16.2933C163.042 16.5521 162.963 16.8465 162.963 17.1728C162.963 17.499 163.042 17.7922 163.199 18.051ZM167.167 18.6546C166.889 18.5086 166.671 18.305 166.513 18.0474C166.355 17.7886 166.276 17.4979 166.276 17.1728C166.276 16.8478 166.355 16.5571 166.513 16.2983C166.671 16.0395 166.889 15.8371 167.167 15.6911C167.445 15.5451 167.757 15.4715 168.105 15.4715C168.453 15.4715 168.766 15.5451 169.043 15.6911C169.321 15.8371 169.538 16.0407 169.697 16.2983C169.855 16.5571 169.934 16.8478 169.934 17.1728C169.934 17.4979 169.855 17.7886 169.697 18.0474C169.539 18.3062 169.321 18.5086 169.043 18.6546C168.766 18.8005 168.453 18.8741 168.105 18.8741C167.757 18.8741 167.445 18.8005 167.167 18.6546ZM168.557 17.991C168.691 17.9125 168.799 17.8033 168.877 17.661C168.954 17.5187 168.994 17.3568 168.994 17.1728C168.994 16.9888 168.954 16.8257 168.877 16.6846C168.798 16.5424 168.691 16.4332 168.557 16.3547C168.422 16.2774 168.272 16.2382 168.105 16.2382C167.939 16.2382 167.788 16.2774 167.653 16.3547C167.519 16.4332 167.411 16.5424 167.334 16.6846C167.255 16.8269 167.216 16.9888 167.216 17.1728C167.216 17.3568 167.256 17.52 167.334 17.661C167.411 17.8033 167.519 17.9125 167.653 17.991C167.788 18.0695 167.939 18.1075 168.105 18.1075C168.272 18.1075 168.422 18.0682 168.557 17.991ZM173.334 17.0746L173.343 18.809H174.2L174.19 15.5365H173.424L172.294 17.4254L171.138 15.5365H170.371V18.809H171.232V17.1212L172.073 18.4864H172.487L173.334 17.0746ZM37.7901 36.6229C37.5877 36.7235 37.1816 36.8241 36.6632 36.8241C35.4598 36.8241 34.5538 36.0685 34.5538 34.6776C34.5538 33.2866 35.4598 32.4489 36.783 32.4489C37.3149 32.4489 37.6507 32.5617 37.7963 32.6378L37.663 33.0842C37.4544 32.9837 37.157 32.9076 36.8015 32.9076C35.8005 32.9076 35.1352 33.543 35.1352 34.6579C35.1352 35.6969 35.7375 36.3641 36.7756 36.3641C37.1113 36.3641 37.4532 36.2954 37.6754 36.1875L37.7889 36.6217L37.7901 36.6229ZM39.9307 32.4868C39.5505 32.4868 39.1519 32.5187 38.8729 32.5752V36.7603H39.4234V34.9229H39.9431C40.4442 34.9413 40.6713 35.162 40.7984 35.7471C40.9194 36.2758 41.0144 36.6413 41.0835 36.7603H41.6538C41.5649 36.5972 41.4637 36.1875 41.3242 35.5963C41.223 35.1559 41.0268 34.8529 40.6972 34.7401V34.7217C41.1477 34.5696 41.502 34.1992 41.502 33.6386C41.502 33.3111 41.381 33.0216 41.1662 32.8327C40.8996 32.5936 40.5195 32.4868 39.9307 32.4868ZM39.9875 34.507H39.4234L39.4247 34.5058V32.9579C39.5135 32.9333 39.7024 32.9076 39.969 32.9076C40.5516 32.9149 40.9502 33.1541 40.9502 33.7012C40.9502 34.1857 40.5762 34.507 39.9875 34.507ZM43.5832 36.7614V34.9608L42.2341 32.5187H42.8612L43.4635 33.6888C43.6277 34.0102 43.7548 34.2678 43.8881 34.5634H43.9004C44.0062 34.3211 44.1307 34.0789 44.27 33.808L44.3312 33.6888L44.9459 32.5187H45.5729L44.1411 34.9547V36.7614H43.5832ZM47.6151 32.4868C47.172 32.4868 46.8239 32.5249 46.5573 32.569H46.5586V36.7615H47.1091V35.0615C47.235 35.0933 47.388 35.0995 47.5522 35.0995C48.0903 35.0995 48.5655 34.9413 48.8568 34.6334C49.0728 34.4126 49.1864 34.1047 49.1864 33.7269C49.1864 33.3491 49.0469 33.04 48.8124 32.8389C48.5594 32.6132 48.1595 32.4868 47.6151 32.4868ZM47.5633 34.6591C47.3806 34.6591 47.2288 34.6469 47.1078 34.615L47.1066 34.6162V32.9664C47.2016 32.9407 47.3856 32.9223 47.6262 32.9223C48.2347 32.9223 48.6334 33.1676 48.6334 33.7527C48.6334 34.3378 48.2286 34.6591 47.5633 34.6591ZM51.2673 32.9848H49.9689V32.5187H53.1299V32.9848H51.8252V36.7614H51.2673V32.9848ZM55.6159 36.8302C56.7046 36.8302 57.5982 36.0563 57.5982 34.5954C57.5982 33.3369 56.8181 32.4489 55.6789 32.4489C54.5396 32.4489 53.6966 33.3308 53.6966 34.6776C53.6966 35.9618 54.5273 36.8302 55.6159 36.8302ZM55.6468 36.3825C54.7791 36.3825 54.2854 35.5705 54.2854 34.6641C54.2854 33.7331 54.7347 32.8953 55.653 32.8953C56.5713 32.8953 57.0144 33.776 57.0144 34.6199C57.0144 35.5828 56.5145 36.3825 55.6468 36.3825ZM61.8095 36.6229C61.6071 36.7235 61.201 36.8241 60.6826 36.8241C59.4791 36.8241 58.5732 36.0685 58.5732 34.6776C58.5732 33.2866 59.4791 32.4489 60.8023 32.4489C61.3343 32.4489 61.67 32.5617 61.8156 32.6378L61.6823 33.0842C61.4737 32.9837 61.1763 32.9076 60.8208 32.9076C59.8198 32.9076 59.1545 33.543 59.1545 34.6579C59.1545 35.6969 59.7569 36.3641 60.7949 36.3641C61.1306 36.3641 61.4725 36.2954 61.6947 36.1875L61.8082 36.6217L61.8095 36.6229ZM63.4458 35.0307V32.5187H62.8892V35.0172C62.8892 36.3334 63.5483 36.8301 64.4222 36.8301C65.3479 36.8301 66.0378 36.2953 66.0378 34.9927V32.5187H65.4799V35.0307C65.4799 35.9678 65.0739 36.3837 64.4407 36.3837C63.8704 36.3837 63.4458 35.9813 63.4458 35.0307ZM67.4557 32.5752C67.7346 32.5187 68.1333 32.4868 68.5135 32.4868C69.1022 32.4868 69.4824 32.5936 69.749 32.8327C69.9638 33.0216 70.0847 33.3111 70.0847 33.6386C70.0847 34.1992 69.7305 34.5696 69.28 34.7217V34.7401C69.6095 34.8529 69.8058 35.1559 69.907 35.5963C70.0465 36.1875 70.1477 36.5972 70.2365 36.7603H69.6663C69.5972 36.6413 69.5021 36.2758 69.3812 35.7471C69.254 35.162 69.0269 34.9413 68.5258 34.9229H68.0062V36.7603H67.4557V32.5752ZM68.0062 34.507H68.5702C69.159 34.507 69.533 34.1857 69.533 33.7012C69.533 33.1541 69.1343 32.9149 68.5517 32.9076C68.2851 32.9076 68.0963 32.9333 68.0074 32.9579V34.5058L68.0062 34.507ZM72.4219 32.4868C72.0417 32.4868 71.6431 32.5187 71.3641 32.5752V36.7603H71.9146V34.9229H72.4342C72.9354 34.9413 73.1625 35.162 73.2896 35.7471C73.4106 36.2758 73.5056 36.6413 73.5747 36.7603H74.145C74.0561 36.5972 73.9549 36.1875 73.8154 35.5963C73.7142 35.1559 73.5179 34.8529 73.1884 34.7401V34.7217C73.6389 34.5696 73.9931 34.1992 73.9931 33.6386C73.9931 33.3111 73.8722 33.0216 73.6574 32.8327C73.3908 32.5936 73.0107 32.4868 72.4219 32.4868ZM72.4787 34.507H71.9146L71.9158 34.5058V32.9579C72.0047 32.9333 72.1936 32.9076 72.4602 32.9076C73.0427 32.9149 73.4414 33.1541 73.4414 33.7012C73.4414 34.1857 73.0674 34.507 72.4787 34.507ZM77.4832 34.7719H75.8243V36.3015H77.6732V36.7614H75.2725V32.5187H77.5782V32.9786H75.8243V34.3193H77.4832V34.7719ZM78.7991 32.5187V36.7614V36.7627H79.3187V34.9498C79.3187 34.2445 79.3063 33.7342 79.2743 33.1994L79.2928 33.1933C79.5088 33.6533 79.7939 34.1378 80.0913 34.61L81.4466 36.7627H82.0045V32.5199H81.4849V34.2948C81.4849 34.9547 81.4972 35.4711 81.5478 36.0378L81.5355 36.0439C81.333 35.6097 81.0862 35.162 80.769 34.6652L79.4014 32.5187H78.7991ZM86.4366 36.6229C86.2342 36.7235 85.8281 36.8241 85.3097 36.8241C84.1062 36.8241 83.2003 36.0685 83.2003 34.6776C83.2003 33.2866 84.1062 32.4489 85.4294 32.4489C85.9614 32.4489 86.2971 32.5617 86.4427 32.6378L86.3094 33.0842C86.1009 32.9837 85.8034 32.9076 85.4479 32.9076C84.4469 32.9076 83.7816 33.543 83.7816 34.6579C83.7816 35.6969 84.384 36.3641 85.422 36.3641C85.7577 36.3641 86.0996 36.2954 86.3218 36.1875L86.4353 36.6217L86.4366 36.6229ZM88.6672 34.9608V36.7614H89.2251V34.9547L90.6569 32.5187H90.0299L89.4152 33.6888L89.3541 33.8078L89.354 33.8079C89.2147 34.0788 89.0901 34.3211 88.9844 34.5634H88.9721C88.8388 34.2678 88.7116 34.0102 88.5475 33.6888L87.9452 32.5187H87.3181L88.6672 34.9608ZM93.6535 36.7614V32.5187H94.2559L95.6235 34.6652C95.9407 35.162 96.1875 35.6097 96.39 36.0439L96.4023 36.0378C96.3517 35.4711 96.3394 34.9547 96.3394 34.2948V32.5199H96.859V36.7627H96.3011L94.9458 34.61C94.6484 34.1378 94.3633 33.6533 94.1473 33.1933L94.1287 33.1994C94.1608 33.7342 94.1732 34.2445 94.1732 34.9498V36.7627H93.6535V36.7614ZM98.8477 34.7719H100.507V34.3193H98.8477V32.9786H100.602V32.5187H98.296V36.7614H100.697V36.3015H98.8477V34.7719ZM102.638 36.7615L102.638 36.7603H103.213L103.822 34.5512C103.981 34.0029 104.075 33.5883 104.152 33.1664H104.164C104.221 33.5945 104.31 34.0103 104.443 34.5512L104.981 36.7603H105.557L106.767 32.5175H106.203L105.639 34.6579L105.63 34.6922C105.5 35.207 105.384 35.6689 105.297 36.1249H105.285C105.222 35.6784 105.107 35.1755 104.987 34.6714L104.468 32.5187H103.891L103.321 34.6591C103.175 35.2074 103.042 35.7103 102.973 36.1323H102.96C102.884 35.7226 102.77 35.1939 102.643 34.6653L102.137 32.5187H101.555L102.638 36.7603H102.637L102.638 36.7615ZM107.654 36.0947L107.654 36.0942L107.655 36.093L107.654 36.0947ZM107.515 36.553L107.654 36.0947C107.901 36.2453 108.262 36.3714 108.641 36.3714C109.205 36.3714 109.535 36.0758 109.535 35.6477C109.535 35.2515 109.306 35.0246 108.73 34.8038C108.034 34.5585 107.603 34.1991 107.603 33.6018C107.603 32.9406 108.153 32.45 108.984 32.45C109.421 32.45 109.738 32.5506 109.928 32.6573L109.776 33.1038C109.637 33.0277 109.352 32.9026 108.966 32.9026C108.383 32.9026 108.161 33.2485 108.161 33.538C108.161 33.9342 108.42 34.1292 109.01 34.3561C109.732 34.6333 110.1 34.9792 110.1 35.6024C110.1 36.2574 109.612 36.824 108.605 36.824C108.193 36.824 107.744 36.7051 107.515 36.553ZM116.034 36.7616C115.914 36.6426 115.799 36.5224 115.635 36.3457C115.267 36.6855 114.856 36.8302 114.387 36.8302C113.558 36.8302 113.077 36.2758 113.077 35.6404C113.077 35.0615 113.425 34.6653 113.912 34.4004V34.382C113.69 34.1048 113.558 33.7969 113.558 33.4939C113.558 32.9775 113.932 32.4489 114.64 32.4489C115.172 32.4489 115.585 32.8009 115.585 33.3492C115.585 33.7957 115.325 34.1489 114.648 34.4825V34.5009C115.008 34.9168 115.414 35.3816 115.687 35.6846C115.883 35.389 116.017 34.9793 116.099 34.4445H116.607C116.493 35.1118 116.309 35.6404 115.992 36.0121C116.146 36.1738 116.297 36.3354 116.457 36.507L116.459 36.5086C116.535 36.5903 116.614 36.6743 116.696 36.7616H116.036H116.034ZM115.363 36.0317L115.25 35.9084L115.25 35.9083C114.982 35.616 114.571 35.1658 114.159 34.6972C113.931 34.8419 113.609 35.113 113.609 35.5595C113.609 36.044 113.969 36.4157 114.482 36.4157C114.85 36.4157 115.16 36.2525 115.363 36.0317ZM114.064 33.4448C114.064 33.7466 114.204 33.9796 114.387 34.2066C114.818 33.9612 115.097 33.7343 115.097 33.3762C115.097 33.1186 114.951 32.8291 114.603 32.8291C114.255 32.8291 114.065 33.1186 114.065 33.4461L114.064 33.4448ZM119.214 32.9848H120.512V36.7614H121.07V32.9848H122.375V32.5187H119.214V32.9848ZM125.564 34.7719H123.905V36.3015H125.754V36.7614H123.353V32.5187H125.659V32.9786H123.905V34.3193H125.564V34.7719ZM128.734 36.8241C129.252 36.8241 129.658 36.7235 129.86 36.6229L129.859 36.6217L129.746 36.1875C129.524 36.2954 129.182 36.3641 128.846 36.3641C127.808 36.3641 127.206 35.6969 127.206 34.6579C127.206 33.543 127.871 32.9076 128.872 32.9076C129.226 32.9076 129.525 32.9837 129.733 33.0842L129.867 32.6378C129.721 32.5617 129.385 32.4489 128.853 32.4489C127.53 32.4489 126.624 33.2866 126.624 34.6776C126.624 36.0685 127.53 36.8241 128.734 36.8241ZM131.494 32.5187V34.2935H133.559V32.5187H134.117V36.7614H133.559V34.7719H131.494V36.7614H130.943V32.5187H131.494ZM135.551 32.5187V36.7614V36.7627H136.07V34.9498C136.07 34.2445 136.058 33.7342 136.026 33.1994L136.045 33.1933C136.261 33.6533 136.546 34.1378 136.843 34.61L138.198 36.7627H138.756V32.5199H138.237V34.2948C138.237 34.9547 138.249 35.4711 138.3 36.0378L138.287 36.0439C138.085 35.6097 137.838 35.162 137.521 34.6652L136.153 32.5187H135.551ZM143.868 34.5954C143.868 36.0563 142.974 36.8302 141.886 36.8302C140.797 36.8302 139.966 35.9618 139.966 34.6776C139.966 33.3308 140.808 32.4489 141.949 32.4489C143.089 32.4489 143.868 33.3369 143.868 34.5954ZM140.555 34.6641C140.555 35.5705 141.049 36.3825 141.917 36.3825C142.784 36.3825 143.284 35.5828 143.284 34.6199C143.284 33.776 142.841 32.8953 141.923 32.8953C141.004 32.8953 140.555 33.7331 140.555 34.6641ZM145.631 32.5187H145.08V36.7614H147.455V36.3015H145.631V32.5187ZM152.012 34.5954C152.012 36.0563 151.119 36.8302 150.03 36.8302C148.941 36.8302 148.111 35.9618 148.111 34.6776C148.111 33.3308 148.953 32.4489 150.093 32.4489C151.234 32.4489 152.012 33.3369 152.012 34.5954ZM148.7 34.6641C148.7 35.5705 149.193 36.3825 150.061 36.3825C150.929 36.3825 151.429 35.5828 151.429 34.6199C151.429 33.776 150.985 32.8953 150.067 32.8953C149.149 32.8953 148.7 33.7331 148.7 34.6641ZM156.489 36.5731L156.49 36.5727L156.489 36.5739V36.5731ZM156.489 36.5731C156.242 36.6615 155.755 36.8057 155.179 36.8057C154.534 36.8057 154.002 36.6426 153.583 36.2452C153.215 35.8932 152.988 35.3265 152.988 34.6653C152.995 33.4007 153.868 32.4747 155.3 32.4747C155.794 32.4747 156.18 32.5814 156.364 32.6697L156.231 33.1162C156.003 33.0156 155.717 32.9334 155.287 32.9334C154.247 32.9334 153.57 33.5749 153.57 34.6396C153.57 35.7043 154.223 36.3519 155.216 36.3519C155.577 36.3519 155.825 36.3016 155.951 36.2391V34.9744H155.083V34.5341H156.489V36.5731ZM158.726 36.7614V34.9608L157.377 32.5187H158.004L158.607 33.6888C158.771 34.0102 158.898 34.2678 159.031 34.5634H159.044C159.145 34.3281 159.266 34.0928 159.401 33.8313L159.474 33.6888L160.089 32.5187H160.716L159.284 34.9547V36.7614H158.726ZM10.1992 32.1004V15.4715H31.6228V36.7615H14.8895L10.1992 32.1004ZM24.649 26.5256C25.4476 26.3428 26.0487 25.8215 26.2092 24.7433L26.208 24.7446C26.4301 23.2726 25.302 22.4803 23.7591 21.9528L24.259 19.9584L23.0371 19.6554L22.5495 21.5971C22.2412 21.5205 21.925 21.4485 21.6095 21.3766L21.6094 21.3766L21.5707 21.3677L22.062 19.4126L20.8413 19.1096L20.3401 21.1028L20.1717 21.064C19.9641 21.0163 19.7597 20.9693 19.5613 20.92V20.9139L17.8765 20.4956L17.5519 21.7921C17.5519 21.7921 18.4578 21.9994 18.4393 22.0117C18.9343 22.1344 19.0232 22.4606 19.0083 22.7182L18.4381 24.9899C18.4727 24.9985 18.5171 25.0107 18.5652 25.0303C18.5246 25.0206 18.4803 25.0095 18.4359 24.9985L18.4356 24.9985L17.637 28.1815C17.5766 28.3311 17.4223 28.5543 17.0767 28.4697C17.089 28.4869 16.1892 28.2489 16.1892 28.2489L15.5832 29.6387L17.173 30.0324C17.3483 30.076 17.5215 30.1208 17.6928 30.1652L17.6931 30.1653L17.6934 30.1653C17.8112 30.1959 17.9282 30.2261 18.0444 30.2556L17.5383 32.2734L18.759 32.5763L19.2601 30.5807C19.5835 30.6678 19.9081 30.7524 20.234 30.8321L19.7353 32.8192L20.9573 33.1222L21.4633 31.1081C23.5456 31.4994 25.1131 31.3424 25.7722 29.4694C26.303 27.9619 25.7451 27.0922 24.649 26.5256ZM21.2435 22.8016L20.635 25.2253C20.6928 25.2396 20.7606 25.2576 20.8367 25.2777L20.8368 25.2778C21.6687 25.4981 23.4794 25.9776 23.7961 24.7212C24.119 23.4351 22.355 23.0476 21.4945 22.8586C21.3981 22.8374 21.3131 22.8188 21.2435 22.8016ZM19.6577 29.121L20.3291 26.4482C20.413 26.4691 20.5157 26.492 20.6321 26.518C21.6642 26.7485 23.7735 27.2196 23.4186 28.6328C23.0718 30.0169 20.8894 29.4435 19.8935 29.1819C19.8048 29.1586 19.7254 29.1377 19.6577 29.121Z" fill="#788396"/>
</svg>
