<svg width="32" height="33" viewBox="0 0 32 33" fill="none" xmlns="http://www.w3.org/2000/svg">
<path d="M16 3.45654C13.4288 3.45654 10.9154 4.21898 8.77759 5.64744C6.63975 7.0759 4.97351 9.10622 3.98957 11.4817C3.00563 13.8571 2.74819 16.471 3.2498 18.9927C3.75141 21.5145 4.98953 23.8309 6.80762 25.6489C8.6257 27.467 10.9421 28.7051 13.4638 29.2068C15.9856 29.7084 18.5995 29.4509 20.9749 28.467C23.3503 27.483 25.3807 25.8168 26.8091 23.679C28.2376 21.5411 29 19.0277 29 16.4565C28.9964 13.0098 27.6256 9.70536 25.1884 7.26818C22.7512 4.83099 19.4467 3.46018 16 3.45654ZM17.5 22.4565C17.5 22.7218 17.3946 22.9761 17.2071 23.1637C17.0196 23.3512 16.7652 23.4565 16.5 23.4565C16.2348 23.4565 15.9804 23.3512 15.7929 23.1637C15.6054 22.9761 15.5 22.7218 15.5 22.4565V12.3315L14.055 13.2953C13.9457 13.3682 13.8231 13.4188 13.6942 13.4443C13.5653 13.4698 13.4326 13.4697 13.3038 13.4439C13.1749 13.4181 13.0524 13.3672 12.9433 13.2941C12.8341 13.221 12.7404 13.1271 12.6675 13.0178C12.5946 12.9085 12.544 12.7859 12.5185 12.657C12.493 12.5281 12.4931 12.3954 12.5189 12.2666C12.5447 12.1377 12.5956 12.0152 12.6687 11.9061C12.7418 11.7969 12.8357 11.7032 12.945 11.6303L15.945 9.63029C16.0952 9.53008 16.2697 9.4724 16.4501 9.46338C16.6304 9.45436 16.8098 9.49433 16.9692 9.57905C17.1287 9.66378 17.2622 9.79009 17.3557 9.94458C17.4491 10.0991 17.499 10.276 17.5 10.4565V22.4565Z" fill="white"/>
</svg>
