<svg width="32" height="33" viewBox="0 0 32 33" fill="none" xmlns="http://www.w3.org/2000/svg">
<path d="M16 3.45654C13.4288 3.45654 10.9154 4.21898 8.77759 5.64744C6.63975 7.0759 4.97351 9.10622 3.98957 11.4817C3.00563 13.8571 2.74818 16.471 3.24979 18.9927C3.7514 21.5145 4.98953 23.8309 6.80761 25.6489C8.62569 27.467 10.9421 28.7051 13.4638 29.2068C15.9856 29.7084 18.5994 29.4509 20.9749 28.467C23.3503 27.483 25.3806 25.8168 26.8091 23.679C28.2376 21.5411 29 19.0277 29 16.4565C28.9964 13.0098 27.6256 9.70536 25.1884 7.26818C22.7512 4.83099 19.4467 3.46018 16 3.45654ZM15.5 23.9565C14.9011 23.9584 14.3079 23.8398 13.7558 23.6076C13.2036 23.3755 12.7039 23.0346 12.2863 22.6053C12.1885 22.5129 12.1105 22.4017 12.0567 22.2783C12.003 22.155 11.9747 22.0221 11.9735 21.8876C11.9723 21.7531 11.9983 21.6198 12.0499 21.4955C12.1014 21.3713 12.1775 21.2587 12.2736 21.1646C12.3697 21.0705 12.4838 20.9967 12.609 20.9476C12.7343 20.8986 12.8681 20.8754 13.0026 20.8793C13.1371 20.8832 13.2693 20.9142 13.3915 20.9704C13.5137 21.0267 13.6233 21.107 13.7137 21.2065C14.0023 21.5009 14.359 21.7193 14.7524 21.8424C15.1457 21.9655 15.5634 21.9895 15.9682 21.9121C16.373 21.8348 16.7525 21.6586 17.0727 21.3992C17.393 21.1397 17.6441 20.8052 17.8038 20.4252C17.9635 20.0452 18.0268 19.6317 17.988 19.2214C17.9493 18.8111 17.8096 18.4167 17.5816 18.0734C17.3536 17.7301 17.0442 17.4484 16.681 17.2536C16.3179 17.0587 15.9121 16.9567 15.5 16.9565C15.3171 16.9565 15.1377 16.9063 14.9813 16.8113C14.8249 16.7164 14.6976 16.5804 14.6132 16.4181C14.5287 16.2558 14.4904 16.0735 14.5024 15.8909C14.5144 15.7084 14.5763 15.5326 14.6812 15.3828L17.0788 11.9565H13C12.7348 11.9565 12.4804 11.8512 12.2929 11.6637C12.1054 11.4761 12 11.2218 12 10.9565C12 10.6913 12.1054 10.437 12.2929 10.2494C12.4804 10.0619 12.7348 9.95654 13 9.95654H19C19.1829 9.9566 19.3624 10.0068 19.5187 10.1018C19.6751 10.1967 19.8024 10.3327 19.8868 10.495C19.9713 10.6573 20.0096 10.8396 19.9976 11.0222C19.9856 11.2047 19.9237 11.3805 19.8188 11.5303L17.1938 15.2803C18.1654 15.6702 18.9706 16.3866 19.4709 17.3063C19.9711 18.226 20.1351 19.2913 19.9345 20.3188C19.7339 21.3463 19.1813 22.2717 18.3719 22.9357C17.5625 23.5997 16.5469 23.9607 15.5 23.9565Z" fill="white"/>
</svg>
