<svg width="32" height="33" viewBox="0 0 32 33" fill="none" xmlns="http://www.w3.org/2000/svg">
<path d="M16 3.45654C13.4288 3.45654 10.9154 4.21898 8.77759 5.64744C6.63975 7.0759 4.97351 9.10622 3.98957 11.4817C3.00563 13.8571 2.74819 16.471 3.2498 18.9927C3.75141 21.5145 4.98953 23.8309 6.80762 25.6489C8.6257 27.467 10.9421 28.7051 13.4638 29.2068C15.9856 29.7084 18.5995 29.4509 20.9749 28.467C23.3503 27.483 25.3807 25.8168 26.8091 23.679C28.2376 21.5411 29 19.0277 29 16.4565C28.9964 13.0098 27.6256 9.70536 25.1884 7.26818C22.7512 4.83099 19.4467 3.46018 16 3.45654ZM20 19.4565H19V22.4565C19 22.7218 18.8946 22.9761 18.7071 23.1637C18.5196 23.3512 18.2652 23.4565 18 23.4565C17.7348 23.4565 17.4804 23.3512 17.2929 23.1637C17.1054 22.9761 17 22.7218 17 22.4565V19.4565H12C11.8415 19.4566 11.6854 19.4189 11.5443 19.3467C11.4032 19.2745 11.2814 19.1698 11.1887 19.0413C11.096 18.9127 11.0353 18.764 11.0114 18.6074C10.9875 18.4507 11.0011 18.2906 11.0513 18.1403L14.0513 9.14029C14.1351 8.88867 14.3155 8.68067 14.5528 8.56205C14.79 8.44344 15.0646 8.42392 15.3163 8.50779C15.5679 8.59167 15.7759 8.77207 15.8945 9.0093C16.0131 9.24653 16.0326 9.52117 15.9488 9.77279L13.3875 17.4565H17V14.4565C17 14.1913 17.1054 13.937 17.2929 13.7494C17.4804 13.5619 17.7348 13.4565 18 13.4565C18.2652 13.4565 18.5196 13.5619 18.7071 13.7494C18.8946 13.937 19 14.1913 19 14.4565V17.4565H20C20.2652 17.4565 20.5196 17.5619 20.7071 17.7494C20.8946 17.937 21 18.1913 21 18.4565C21 18.7218 20.8946 18.9761 20.7071 19.1637C20.5196 19.3512 20.2652 19.4565 20 19.4565Z" fill="white"/>
</svg>
