<svg width="32" height="33" viewBox="0 0 32 33" fill="none" xmlns="http://www.w3.org/2000/svg">
<path d="M16 3.45654C13.4288 3.45654 10.9154 4.21898 8.77759 5.64744C6.63975 7.0759 4.97351 9.10622 3.98957 11.4817C3.00563 13.8571 2.74819 16.471 3.2498 18.9927C3.75141 21.5145 4.98953 23.8309 6.80762 25.6489C8.6257 27.467 10.9421 28.7051 13.4638 29.2068C15.9856 29.7084 18.5995 29.4509 20.9749 28.467C23.3503 27.483 25.3807 25.8168 26.8091 23.679C28.2376 21.5411 29 19.0277 29 16.4565C28.9964 13.0098 27.6256 9.70536 25.1884 7.26818C22.7512 4.83099 19.4467 3.46018 16 3.45654ZM19 21.4565C19.2652 21.4565 19.5196 21.5619 19.7071 21.7494C19.8946 21.937 20 22.1913 20 22.4565C20 22.7218 19.8946 22.9761 19.7071 23.1637C19.5196 23.3512 19.2652 23.4565 19 23.4565H13C12.8143 23.4565 12.6323 23.4048 12.4743 23.3072C12.3163 23.2096 12.1886 23.0699 12.1056 22.9038C12.0225 22.7377 11.9874 22.5517 12.004 22.3667C12.0207 22.1818 12.0886 22.0051 12.2 21.8565L17.5963 14.6615C17.769 14.4313 17.8901 14.1664 17.9511 13.8851C18.0121 13.6037 18.0117 13.3125 17.9498 13.0314C17.888 12.7502 17.7661 12.4857 17.5927 12.256C17.4192 12.0262 17.1981 11.8367 16.9447 11.7002C16.6912 11.5637 16.4112 11.4836 16.1239 11.4652C15.8366 11.4469 15.5488 11.4908 15.28 11.5939C15.0112 11.6971 14.7679 11.857 14.5666 12.0628C14.3653 12.2687 14.2109 12.5155 14.1138 12.7865C14.0252 13.0367 13.841 13.2414 13.6015 13.3557C13.3621 13.47 13.087 13.4844 12.8369 13.3959C12.5867 13.3074 12.382 13.1231 12.2677 12.8837C12.1535 12.6442 12.139 12.3692 12.2275 12.119C12.4204 11.576 12.7284 11.081 13.1304 10.668C13.5323 10.255 14.0188 9.93378 14.5564 9.72626C15.0941 9.51874 15.6703 9.42985 16.2454 9.46568C16.8206 9.50151 17.3813 9.66121 17.8891 9.93385C18.3968 10.2065 18.8396 10.5856 19.1872 11.0453C19.5349 11.505 19.779 12.0343 19.9031 12.5972C20.0271 13.16 20.028 13.7429 19.9058 14.3061C19.7836 14.8693 19.5411 15.3995 19.195 15.8603L15 21.4565H19Z" fill="white"/>
</svg>
