<svg width="49" height="49" viewBox="0 0 49 49" fill="none" xmlns="http://www.w3.org/2000/svg">
<path fill-rule="evenodd" clip-rule="evenodd" d="M22.2228 6.84485C22.1189 6.75198 21.9616 6.75244 21.8582 6.84591L6.13537 21.058C6.07816 21.1097 6.04552 21.1832 6.04552 21.2603V40.729C6.04552 40.8797 6.16763 41.0018 6.31825 41.0018H11.3688C11.5194 41.0018 11.6415 40.8797 11.6415 40.729V31.7448C11.6415 30.2888 12.8218 29.1085 14.2778 29.1085H19.5708C21.0268 29.1085 22.2071 30.2888 22.2071 31.7448V40.729C22.2071 40.8797 22.3292 41.0018 22.4799 41.0018H25.9546C26.6073 41.0018 27.1364 41.5309 27.1364 42.1836C27.1364 42.8363 26.6073 43.3654 25.9546 43.3654H22.4799C21.0238 43.3654 19.8435 42.1851 19.8435 40.729V31.7448C19.8435 31.5942 19.7214 31.4721 19.5708 31.4721H14.2778C14.1272 31.4721 14.0051 31.5942 14.0051 31.7448V40.729C14.0051 42.1851 12.8248 43.3654 11.3688 43.3654H6.31825C4.86222 43.3654 3.68188 42.1851 3.68188 40.729V21.2603C3.68188 20.5149 3.99742 19.8044 4.55039 19.3045L20.2733 5.09244C21.2728 4.18894 22.7928 4.18452 23.7976 5.0822L39.7111 19.2994C40.2709 19.7995 40.591 20.5147 40.591 21.2654V25.0927C40.591 25.7454 40.0619 26.2745 39.4092 26.2745C38.7565 26.2745 38.2273 25.7454 38.2273 25.0927L38.2273 21.2654C38.2273 21.1877 38.1942 21.1138 38.1363 21.062L22.2228 6.84485ZM23.3183 22.1836C23.3183 20.7276 24.4986 19.5472 25.9546 19.5472H29.591C31.047 19.5472 32.2273 20.7276 32.2273 22.1836V25.8199C32.2273 27.276 31.047 28.4563 29.591 28.4563H25.9546C24.4986 28.4563 23.3183 27.276 23.3183 25.8199V22.1836ZM25.9546 21.9108C25.804 21.9108 25.6819 22.033 25.6819 22.1836V25.8199C25.6819 25.9706 25.804 26.0927 25.9546 26.0927H29.591C29.7416 26.0927 29.8637 25.9706 29.8637 25.8199V22.1836C29.8637 22.033 29.7416 21.9108 29.591 21.9108H25.9546ZM45.1836 44.6434C45.2803 44.5875 45.3607 44.5072 45.4165 44.4104C45.4723 44.3136 45.5015 44.2038 45.5014 44.0921C45.5013 43.9804 45.4717 43.8707 45.4158 43.774C44.2043 41.6796 42.3373 40.1778 40.1586 39.4659C41.2363 38.8243 42.0736 37.8467 42.5419 36.6832C43.0103 35.5197 43.0837 34.2346 42.751 33.0253C42.4183 31.8161 41.6979 30.7494 40.7003 29.9892C39.7027 29.229 38.4832 28.8173 37.2289 28.8173C35.9747 28.8173 34.7552 29.229 33.7576 29.9892C32.76 30.7494 32.0395 31.8161 31.7068 33.0253C31.3741 34.2346 31.4476 35.5197 31.9159 36.6832C32.3843 37.8467 33.2216 38.8243 34.2993 39.4659C32.1205 40.1778 30.2536 41.6796 29.0421 43.774C28.9863 43.8707 28.9569 43.9804 28.9569 44.0921C28.9568 44.2037 28.9862 44.3134 29.042 44.4101C29.0977 44.5068 29.178 44.5872 29.2746 44.6431C29.3713 44.699 29.4809 44.7285 29.5926 44.7286H44.8653C44.977 44.7286 45.0868 44.6992 45.1836 44.6434Z" fill="white"/>
</svg>
