<svg width="135" height="84" viewBox="0 0 135 84" fill="none" xmlns="http://www.w3.org/2000/svg">
<g clip-path="url(#clip0_1960_3333)">
<path d="M-188 8C-188 3.02944 -183.971 -1 -179 -1H132V1H-179C-182.866 1 -186 4.13401 -186 8H-188ZM132 85H-179C-183.971 85 -188 80.9706 -188 76H-186C-186 79.866 -182.866 83 -179 83H132V85ZM-179 85C-183.971 85 -188 80.9706 -188 76V8C-188 3.02944 -183.971 -1 -179 -1V1C-182.866 1 -186 4.13401 -186 8V76C-186 79.866 -182.866 83 -179 83V85ZM132 0V84V0Z" fill="url(#paint0_linear_1960_3333)" mask="url(#path-2-inside-1_1960_3333)"/>
<path d="M131 0.501709L135.671 0.500852C138.542 0.500325 141.194 2.03877 142.618 4.53193L161.445 37.4808C163.635 41.3129 163.544 46.0375 161.209 49.7828L142.538 79.7323C141.077 82.0758 138.51 83.5 135.749 83.5H131" stroke="url(#paint1_linear_1960_3333)"/>
</g>
<defs>
<linearGradient id="paint0_linear_1960_3333" x1="-67.056" y1="121.309" x2="121.243" y2="88.8828" gradientUnits="userSpaceOnUse">
<stop stop-color="#8DFCF5"/>
<stop offset="1" stop-color="#BFF8CC"/>
</linearGradient>
<linearGradient id="paint1_linear_1960_3333" x1="143.784" y1="120.365" x2="164.442" y2="119.981" gradientUnits="userSpaceOnUse">
<stop stop-color="#BFF8CC"/>
<stop offset="1" stop-color="#8DFCF5"/>
</linearGradient>
<clipPath id="clip0_1960_3333">
<rect width="135" height="84" fill="white"/>
</clipPath>
</defs>
</svg>
