<svg width="9" height="84" viewBox="0 0 9 84" fill="none" xmlns="http://www.w3.org/2000/svg">
<g clip-path="url(#clip0_1960_3333)">
<path d="M-1 8C-1 3.02944 3.02944 -1 8 -1H319V1H8C4.13401 1 1 4.13401 1 8H-1ZM319 85H8C3.02944 85 -1 80.9706 -1 76H1C1 79.866 4.13401 83 8 83H319V85ZM8 85C3.02944 85 -1 80.9706 -1 76V8C-1 3.02944 3.02944 -1 8 -1V1C4.13401 1 1 4.13401 1 8V76C1 79.866 4.13401 83 8 83V85ZM319 0V84V0Z" fill="url(#paint0_linear_1960_3333)" mask="url(#path-2-inside-1_1960_3333)"/>
</g>
<defs>
<linearGradient id="paint0_linear_1960_3333" x1="119.944" y1="121.309" x2="308.243" y2="88.8828" gradientUnits="userSpaceOnUse">
<stop stop-color="#8DFCF5"/>
<stop offset="1" stop-color="#BFF8CC"/>
</linearGradient>
<clipPath id="clip0_1960_3333">
<rect width="9" height="84" fill="white"/>
</clipPath>
</defs>
</svg>
