<svg width="48" height="48" viewBox="0 0 48 48" fill="none" xmlns="http://www.w3.org/2000/svg">
<path fill-rule="evenodd" clip-rule="evenodd" d="M24 48C37.2548 48 48 37.2548 48 24C48 10.7452 37.2548 0 24 0C10.7452 0 0 10.7452 0 24C0 37.2548 10.7452 48 24 48ZM14.5714 15.6429C13.743 15.6429 13.0714 16.3144 13.0714 17.1429C13.0714 17.9713 13.743 18.6429 14.5714 18.6429H31.7143C32.5427 18.6429 33.2143 17.9713 33.2143 17.1429C33.2143 16.3144 32.5427 15.6429 31.7143 15.6429H14.5714ZM23.1429 22.5C22.3144 22.5 21.6429 23.1716 21.6429 24C21.6429 24.8284 22.3144 25.5 23.1429 25.5H37.7143C38.5427 25.5 39.2143 24.8284 39.2143 24C39.2143 23.1716 38.5427 22.5 37.7143 22.5H23.1429ZM13.0714 30.8571C13.0714 30.0287 13.743 29.3571 14.5714 29.3571H31.7143C32.5427 29.3571 33.2143 30.0287 33.2143 30.8571C33.2143 31.6856 32.5427 32.3571 31.7143 32.3571H14.5714C13.743 32.3571 13.0714 31.6856 13.0714 30.8571Z" fill="#333333"/>
</svg>
