<svg width="2" height="4" viewBox="0 0 2 4" fill="none" xmlns="http://www.w3.org/2000/svg">
<g clip-path="url(#clip0_122_292)">
<path fill-rule="evenodd" clip-rule="evenodd" d="M0.5 -1.99837L0.5 -3H1.5V-1.99837H0.5ZM0.5 2.00817L0.5 0.00490189L1.5 0.00490165L1.5 2.00817H0.5ZM0.5 6.01471L0.5 4.01144H1.5L1.5 6.01471H0.5ZM0.500001 10.0212L0.5 8.01797H1.5L1.5 10.0212H0.500001ZM0.500001 14.0278L0.500001 12.0245H1.5V14.0278H0.500001ZM0.500001 18.0343L0.500001 16.031H1.5L1.5 18.0343H0.500001ZM0.500001 22.0408L0.500001 20.0376H1.5L1.5 22.0408H0.500001ZM0.500001 26.0474L0.500001 24.0441L1.5 24.0441V26.0474H0.500001ZM0.500001 30.0539L0.500001 28.0506H1.5V30.0539H0.500001ZM0.500002 34.0605L0.500002 32.0572H1.5L1.5 34.0605H0.500002ZM0.500002 38.067L0.500002 36.0637H1.5L1.5 38.067H0.500002ZM0.500002 42.0735L0.500002 40.0703H1.5V42.0735H0.500002ZM0.500002 46.0801L0.500002 44.0768H1.5V46.0801H0.500002ZM0.500002 50.0866L0.500002 48.0833H1.5L1.5 50.0866H0.500002ZM0.500003 54.0931L0.500002 52.0899H1.5L1.5 54.0931H0.500003ZM0.500003 58.0997L0.500003 56.0964H1.5V58.0997H0.500003ZM0.500003 62.1062L0.500003 60.103H1.5L1.5 62.1062H0.500003ZM0.500003 66.1128L0.500003 64.1095H1.5L1.5 66.1128H0.500003ZM0.500003 70.1193L0.500003 68.116H1.5L1.5 70.1193H0.500003ZM0.500003 74.1258L0.500003 72.1226H1.5V74.1258H0.500003ZM0.500004 78.1323L0.500003 76.1291H1.5L1.5 78.1323H0.500004ZM0.500004 82.1389L0.500004 80.1356H1.5L1.5 82.1389H0.500004ZM0.500004 86.1454L0.500004 84.1421H1.5V86.1454H0.500004ZM0.500004 90.1519L0.500004 88.1487H1.5V90.1519H0.500004ZM0.500004 94.1585L0.500004 92.1552H1.5L1.5 94.1585H0.500004ZM0.500004 98.165L0.500004 96.1617H1.5L1.5 98.165H0.500004ZM0.500005 102.172L0.500005 100.168H1.5V102.172H0.500005ZM0.500005 106.178L0.500005 104.175H1.5V106.178H0.500005ZM0.500005 110.185L0.500005 108.181H1.5L1.50001 110.185H0.500005ZM0.500005 114.191L0.500005 112.188H1.50001L1.50001 114.191H0.500005ZM0.500005 118.198L0.500005 116.194H1.50001V118.198H0.500005ZM0.500005 122.204L0.500005 120.201H1.50001L1.50001 122.204H0.500005ZM0.500006 126.211L0.500006 124.207H1.50001L1.50001 126.211H0.500006ZM0.500006 130.217L0.500006 128.214H1.50001L1.50001 130.217H0.500006ZM0.500006 134.224L0.500006 132.221H1.50001V134.224H0.500006ZM0.500006 138.23L0.500006 136.227H1.50001L1.50001 138.23H0.500006ZM0.500006 142.237L0.500006 140.234H1.50001L1.50001 142.237H0.500006ZM0.500007 146.243L0.500006 144.24H1.50001V146.243H0.500007ZM0.500007 150.25L0.500007 148.247H1.50001V150.25H0.500007ZM0.500007 154.256L0.500007 152.253H1.50001L1.50001 154.256H0.500007ZM0.500007 158.263L0.500007 156.26L1.50001 156.26L1.50001 158.263H0.500007ZM0.500007 162.27L0.500007 160.266H1.50001V162.27H0.500007ZM0.500007 166.276L0.500007 164.273H1.50001V166.276H0.500007ZM0.500008 170.283L0.500007 168.279H1.50001L1.50001 170.283H0.500008ZM0.500008 174.289L0.500008 172.286H1.50001L1.50001 174.289H0.500008ZM0.500008 178.296L0.500008 176.292H1.50001V178.296H0.500008ZM0.500008 182.302L0.500008 180.299H1.50001L1.50001 182.302H0.500008ZM0.500008 186.309L0.500008 184.305H1.50001L1.50001 186.309H0.500008ZM0.500008 190.315L0.500008 188.312H1.50001L1.50001 190.315H0.500008ZM0.500009 194.322L0.500009 192.318H1.50001V194.322H0.500009ZM0.500009 198.328L0.500009 196.325H1.50001L1.50001 198.328H0.500009ZM0.500009 202.335L0.500009 200.332H1.50001L1.50001 202.335H0.500009ZM0.500009 206.341L0.500009 204.338H1.50001L1.50001 206.341H0.500009ZM0.500009 210.348L0.500009 208.345H1.50001V210.348H0.500009ZM0.50001 214.354L0.500009 212.351H1.50001L1.50001 214.354H0.50001ZM0.50001 218.361L0.50001 216.358H1.50001L1.50001 218.361H0.50001ZM0.50001 222.367L0.50001 220.364H1.50001V222.367H0.50001ZM0.50001 226.374L0.50001 224.371H1.50001V226.374H0.50001ZM0.50001 230.381L0.50001 228.377H1.50001L1.50001 230.381H0.50001ZM0.50001 234.387L0.50001 232.384H1.50001L1.50001 234.387H0.50001ZM0.500011 238.394L0.50001 236.39H1.50001V238.394H0.500011ZM0.500011 242.4L0.500011 240.397H1.50001L1.50001 242.4H0.500011ZM0.500011 246.407L0.500011 244.403H1.50001L1.50001 246.407H0.500011ZM0.500011 250.413L0.500011 248.41H1.50001L1.50001 250.413H0.500011ZM0.500011 254.42L0.500011 252.416H1.50001V254.42H0.500011ZM0.500011 258.426L0.500011 256.423H1.50001L1.50001 258.426H0.500011ZM0.500012 262.433L0.500012 260.43H1.50001L1.50001 262.433H0.500012ZM0.500012 266.439L0.500012 264.436H1.50001L1.50001 266.439H0.500012ZM0.500012 270.446L0.500012 268.443H1.50001V270.446H0.500012ZM0.500012 274.452L0.500012 272.449H1.50001L1.50001 274.452H0.500012ZM0.500012 278.459L0.500012 276.456H1.50001L1.50001 278.459H0.500012ZM0.500012 282.465L0.500012 280.462H1.50001V282.465H0.500012ZM0.500013 286.472L0.500013 284.469H1.50001V286.472H0.500013ZM0.500013 290.478L0.500013 288.475H1.50001L1.50001 290.478H0.500013ZM0.500013 294.485L0.500013 292.482H1.50001L1.50001 294.485H0.500013ZM0.500013 298.492L0.500013 296.488H1.50001V298.492H0.500013ZM0.500013 302.498L0.500013 300.495H1.50001V302.498H0.500013ZM0.500014 306.505L0.500013 304.501H1.50001L1.50001 306.505H0.500014ZM0.500014 310.511L0.500014 308.508H1.50001L1.50001 310.511H0.500014ZM0.500014 314.518L0.500014 312.514H1.50001V314.518H0.500014ZM0.500014 318.524L0.500014 316.521H1.50001L1.50001 318.524H0.500014ZM0.500014 322.531L0.500014 320.527H1.50001L1.50001 322.531H0.500014ZM0.500014 326.537L0.500014 324.534H1.50001L1.50001 326.537H0.500014ZM0.500015 330.544L0.500014 328.541H1.50001V330.544H0.500015ZM0.500015 334.55L0.500015 332.547H1.50001L1.50001 334.55H0.500015ZM0.500015 338.557L0.500015 336.554H1.50001L1.50001 338.557H0.500015ZM0.500015 342.563L0.500015 340.56H1.50002V342.563H0.500015ZM0.500015 346.57L0.500015 344.567H1.50002V346.57H0.500015ZM0.500015 350.576L0.500015 348.573H1.50002L1.50002 350.576H0.500015ZM0.500016 354.583L0.500016 352.58H1.50002L1.50002 354.583H0.500016ZM0.500016 358.589L0.500016 356.586H1.50002V358.589H0.500016ZM0.500016 362.596L0.500016 360.593H1.50002V362.596H0.500016ZM0.500016 366.603L0.500016 364.599H1.50002L1.50002 366.603H0.500016ZM0.500016 370.609L0.500016 368.606H1.50002L1.50002 370.609H0.500016ZM0.500017 374.616L0.500016 372.612H1.50002V374.616H0.500017ZM0.500017 378.622L0.500017 376.619H1.50002L1.50002 378.622H0.500017ZM0.500017 382.629L0.500017 380.625H1.50002L1.50002 382.629H0.500017ZM0.500017 386.635L0.500017 384.632H1.50002L1.50002 386.635H0.500017ZM0.500017 390.642L0.500017 388.638H1.50002V390.642H0.500017ZM0.500017 394.648L0.500017 392.645H1.50002L1.50002 394.648H0.500017ZM0.500018 398.655L0.500017 396.652H1.50002L1.50002 398.655H0.500018ZM0.500018 402.661L0.500018 400.658H1.50002V402.661H0.500018ZM0.500018 406.668L0.500018 404.665H1.50002V406.668H0.500018ZM0.500018 410.674L0.500018 408.671H1.50002L1.50002 410.674H0.500018ZM0.500018 414.681L0.500018 412.678H1.50002L1.50002 414.681H0.500018ZM0.500018 418.687L0.500018 416.684H1.50002V418.687H0.500018ZM0.500019 422.694L0.500019 420.691H1.50002V422.694H0.500019ZM0.500019 426.701L0.500019 424.697H1.50002L1.50002 426.701H0.500019ZM0.500019 430.707L0.500019 428.704H1.50002L1.50002 430.707H0.500019ZM0.500019 434.714L0.500019 432.71H1.50002V434.714H0.500019ZM0.500019 438.72L0.500019 436.717H1.50002L1.50002 438.72H0.500019ZM0.500019 442.727L0.500019 440.723H1.50002L1.50002 442.727H0.500019ZM0.50002 446.733L0.50002 444.73H1.50002L1.50002 446.733H0.50002ZM0.50002 450.74L0.50002 448.736H1.50002V450.74H0.50002ZM0.50002 454.746L0.50002 452.743H1.50002L1.50002 454.746H0.50002ZM0.50002 458.753L0.50002 456.75H1.50002L1.50002 458.753H0.50002ZM0.50002 462.759L0.50002 460.756H1.50002L1.50002 462.759H0.50002ZM0.500021 466.766L0.50002 464.763H1.50002V466.766H0.500021ZM0.500021 470.772L0.500021 468.769H1.50002L1.50002 470.772H0.500021ZM0.500021 474.779L0.500021 472.776H1.50002L1.50002 474.779H0.500021ZM0.500021 478.785L0.500021 476.782H1.50002V478.785H0.500021ZM0.500021 482.792L0.500021 480.789H1.50002V482.792H0.500021ZM0.500021 486.798L0.500021 484.795H1.50002L1.50002 486.798H0.500021ZM0.500022 490.805L0.500021 488.802H1.50002L1.50002 490.805H0.500022ZM0.500022 494.812L0.500022 492.808L1.50002 492.808V494.812H0.500022ZM0.500022 498.818L0.500022 496.815H1.50002V498.818H0.500022ZM0.500022 502.825L0.500022 500.821H1.50002L1.50002 502.825H0.500022ZM0.500022 506.831L0.500022 504.828H1.50002L1.50002 506.831H0.500022ZM0.500022 510.838L0.500022 508.834H1.50002V510.838H0.500022ZM0.500023 514.844L0.500023 512.841H1.50002L1.50002 514.844H0.500023ZM0.500023 518.851L0.500023 516.848H1.50002L1.50002 518.851H0.500023ZM0.500023 522.857L0.500023 520.854H1.50002L1.50002 522.857H0.500023ZM0.500023 526.864L0.500023 524.861H1.50002V526.864H0.500023ZM0.500023 530.871L0.500023 528.867H1.50002L1.50002 530.871H0.500023ZM0.500024 534.877L0.500023 532.874H1.50002L1.50002 534.877H0.500024ZM0.500024 538.884L0.500024 536.881H1.50002V538.884H0.500024ZM0.500024 542.89L0.500024 540.887H1.50002V542.89H0.500024ZM0.500024 546.897L0.500024 544.894H1.50002L1.50002 546.897H0.500024ZM0.500024 550.904L0.500024 548.9H1.50002L1.50002 550.904H0.500024ZM0.500024 554.91L0.500024 552.907H1.50002V554.91H0.500024ZM0.500025 558.917L0.500024 556.914H1.50002V558.917H0.500025ZM0.500025 562.923L0.500025 560.92H1.50002L1.50002 562.923H0.500025ZM0.500025 566.93L0.500025 564.927H1.50002L1.50002 566.93H0.500025ZM0.500025 570.937L0.500025 568.933H1.50003V570.937H0.500025ZM0.500025 574.943L0.500025 572.94H1.50003L1.50003 574.943H0.500025ZM0.500025 578.95L0.500025 576.946H1.50003L1.50003 578.95H0.500025ZM0.500026 582.956L0.500026 580.953H1.50003L1.50003 582.956H0.500026ZM0.500026 586.963L0.500026 584.96H1.50003V586.963H0.500026ZM0.500026 590.97L0.500026 588.966H1.50003L1.50003 590.97H0.500026ZM0.500026 594.976L0.500026 592.973H1.50003L1.50003 594.976H0.500026ZM0.500026 598.983L0.500026 596.979H1.50003V598.983H0.500026ZM0.500026 602.989L0.500026 600.986H1.50003V602.989H0.500026ZM0.500027 606.996L0.500027 604.993H1.50003L1.50003 606.996H0.500027ZM0.500027 610L0.500027 608.999H1.50003L1.50003 610H0.500027Z" fill="#5FC6DE"/>
</g>
<defs>
<clipPath id="clip0_122_292">
<rect width="2" height="4" fill="white"/>
</clipPath>
</defs>
</svg>
