<svg width="72" height="72" viewBox="0 0 72 72" fill="none" xmlns="http://www.w3.org/2000/svg">
<g clip-path="url(#clip0_4235_11495)">
<path fill-rule="evenodd" clip-rule="evenodd" d="M36 72C55.8823 72 72 55.8823 72 36C72 16.1177 55.8823 0 36 0C16.1177 0 0 16.1177 0 36C0 55.8823 16.1177 72 36 72ZM44.75 29.125V29.9953C50.7781 30.7938 54.75 33.3906 54.75 36.625V42.875C54.75 46.7938 48.8391 49.75 41 49.75C33.1609 49.75 27.25 46.7938 27.25 42.875V42.0094C21.3516 41.2328 17.25 38.6391 17.25 35.375V29.125C17.25 25.2062 23.1609 22.25 31 22.25C38.8391 22.25 44.75 25.2062 44.75 29.125ZM19.75 35.375C19.75 36.6859 21.6891 38.0938 24.75 38.9484V35.2969C22.7328 34.8078 21.025 34.0797 19.75 33.1766V35.375ZM42.25 33.1766C40.975 34.0797 39.2672 34.8078 37.25 35.2969V38.9484C40.3109 38.0938 42.25 36.6859 42.25 35.375V33.1766ZM29.75 42.875C29.75 44.1859 31.6891 45.5938 34.75 46.4484V42.7828C34.0831 42.6226 33.4254 42.4265 32.7797 42.1953C32.1984 42.2297 31.6063 42.25 31 42.25C30.5766 42.25 30.1609 42.2391 29.75 42.2234V42.875ZM31 39.75C32.255 39.7514 33.5084 39.66 34.75 39.4766V35.7594C33.5066 35.9214 32.2539 36.0018 31 36C29.7461 36.0018 28.4934 35.9214 27.25 35.7594V39.4766C28.4916 39.66 29.745 39.7514 31 39.75ZM37.25 43.25V46.9766C39.7367 47.3411 42.2633 47.3411 44.75 46.9766V43.2594C43.5066 43.4214 42.2539 43.5018 41 43.5C39.7458 43.5006 38.493 43.4171 37.25 43.25ZM47.25 46.4484C50.3109 45.5938 52.25 44.1859 52.25 42.875V40.6766C50.975 41.5797 49.2672 42.3078 47.25 42.7969V46.4484Z" fill="url(#paint0_linear_4235_11495)"/>
</g>
<defs>
<linearGradient id="paint0_linear_4235_11495" x1="27.072" y1="103.979" x2="70.7427" y2="101.999" gradientUnits="userSpaceOnUse">
<stop stop-color="#8DFCF5"/>
<stop offset="1" stop-color="#BFF8CC"/>
</linearGradient>
<clipPath id="clip0_4235_11495">
<rect width="72" height="72" rx="36" fill="white"/>
</clipPath>
</defs>
</svg>
