<svg width="198" height="176" viewBox="0 0 198 176" fill="none" xmlns="http://www.w3.org/2000/svg">
<path opacity="0.8" d="M193.237 36.8372C180.082 35.9276 170.216 39.2248 163.639 46.7287C157.062 54.0052 153.773 64.2377 153.773 77.4264C153.773 79.7003 154 83.3385 154.454 88.3411H198V176H113.969V84.9302C113.969 57.8708 119.526 36.9509 130.639 22.1705C141.979 7.39018 158.536 0 180.309 0C186.66 0 192.557 0.454775 198 1.36432L193.237 36.8372ZM0 84.9302C0 57.8708 5.5567 36.9509 16.6701 22.1705C28.0103 7.39018 44.567 0 66.3402 0C72.6907 0 78.5876 0.454775 84.0309 1.36432L79.268 36.8372C66.1134 35.9276 56.2474 39.2248 49.6701 46.7287C43.0928 54.0052 39.8041 64.2377 39.8041 77.4264C39.8041 79.7003 40.0309 83.3385 40.4845 88.3411H84.0309V176H0V84.9302Z" fill="#58667E"/>
</svg>
