<svg width="24" height="24" viewBox="0 0 24 24" fill="none" xmlns="http://www.w3.org/2000/svg">
<path d="M19.5469 17.954C19.7582 18.1653 19.8769 18.452 19.8769 18.7509C19.8769 19.0497 19.7582 19.3364 19.5469 19.5477C19.3355 19.7591 19.0489 19.8778 18.75 19.8778C18.4511 19.8778 18.1645 19.7591 17.9531 19.5477L12.0009 13.5937L6.04687 19.5459C5.83553 19.7572 5.54888 19.8759 5.25 19.8759C4.95111 19.8759 4.66447 19.7572 4.45312 19.5459C4.24178 19.3345 4.12305 19.0479 4.12305 18.749C4.12305 18.4501 4.24178 18.1635 4.45312 17.9521L10.4072 11.9999L4.455 6.04586C4.24365 5.83451 4.12492 5.54787 4.12492 5.24898C4.12492 4.9501 4.24365 4.66345 4.455 4.45211C4.66634 4.24076 4.95299 4.12203 5.25187 4.12203C5.55076 4.12203 5.8374 4.24076 6.04875 4.45211L12.0009 10.4062L17.955 4.45117C18.1663 4.23983 18.453 4.12109 18.7519 4.12109C19.0508 4.12109 19.3374 4.23983 19.5487 4.45117C19.7601 4.66251 19.8788 4.94916 19.8788 5.24804C19.8788 5.54693 19.7601 5.83358 19.5487 6.04492L13.5947 11.9999L19.5469 17.954Z" fill="#1C2129"/>
</svg>
