<svg width="248" height="78" viewBox="0 0 248 78" fill="none" xmlns="http://www.w3.org/2000/svg">
<path fill-rule="evenodd" clip-rule="evenodd" d="M110.529 20.9883C112.932 20.9964 114.928 22.9416 114.998 25.3488C115.051 27.1672 114.025 28.7501 112.515 29.5052C112.272 29.6274 112.112 29.8701 112.107 30.1424L111.622 58.5227C111.617 58.822 111.765 59.1015 112.012 59.2679C112.731 59.7513 113.205 60.5739 113.205 61.5069C113.205 63.0493 111.912 64.2899 110.352 64.199C108.987 64.1191 107.883 62.9964 107.823 61.6282C107.817 61.4943 107.836 61.319 107.863 61.1518C107.92 60.7851 107.825 60.4103 107.602 60.1146L92.9164 40.7033C92.4884 40.1379 91.8206 39.8054 91.1115 39.8054C90.6358 39.8054 90.1726 39.9555 89.7867 40.2342L61.3467 60.7743C61.1133 60.9424 60.976 61.213 60.976 61.5015V61.506C60.976 64.0462 58.8713 66.0939 56.3133 65.9968C53.9869 65.9086 52.0913 64.0103 52.0034 61.6813C51.9055 59.1195 53.951 57.0115 56.4874 57.0115H56.4946C56.9003 57.0124 57.2683 56.7734 57.4173 56.395L69.9693 24.4364C70.2026 23.8414 70.1137 23.1699 69.7431 22.6495C68.9577 21.5474 68.4946 20.1982 68.4946 18.7412C68.4946 14.9686 71.5902 11.9187 75.376 12.0014C78.8889 12.0778 81.7835 14.8994 81.9513 18.4149C81.9864 19.1421 81.7189 20.1802 81.4782 20.9371C81.2378 21.694 81.3733 22.52 81.8418 23.1618L90.976 35.6787C91.2192 36.013 91.6069 36.2099 92.0198 36.2099C92.2891 36.2099 92.5521 36.1253 92.771 35.9691L105.537 26.8436C105.871 26.6054 106.066 26.2126 106.037 25.8027C106.029 25.6967 106.026 25.5906 106.026 25.4827C106.026 22.9955 108.044 20.9802 110.529 20.9883ZM73.8799 26.3277L59.5337 56.5245H59.5346C59.3667 56.8776 59.7652 57.2301 60.0946 57.0196L88.051 39.1383C88.6047 38.7843 88.9395 38.1721 88.9395 37.5151V37.4935C88.9395 37.0107 88.7591 36.5452 88.4324 36.1901L78.6627 25.5456C78.2902 25.1402 77.7222 24.9775 77.1926 25.125C77.1438 25.1386 77.0968 25.1518 77.0512 25.1647C76.531 25.3114 76.1816 25.41 75.2261 25.4827H75.2171C74.6454 25.4818 74.1248 25.8108 73.8799 26.3277ZM94.3049 39.8511L109.602 58.2719V58.2728C109.756 58.4588 110.058 58.3428 110.049 58.1011L108.925 30.0499C108.917 29.8342 108.79 29.64 108.595 29.5474C108.438 29.4719 108.285 29.3883 108.138 29.2966C107.954 29.1816 107.72 29.178 107.531 29.2859L94.9232 36.457C94.2205 36.8561 93.7862 37.6031 93.7862 38.4129C93.7862 38.938 93.9692 39.4467 94.3049 39.8511ZM124.161 21.809V37.1548H128.427V21.809H124.161ZM124.671 19.2014C125.126 19.621 125.67 19.8308 126.304 19.8308C126.938 19.8308 127.479 19.621 127.927 19.2014C128.381 18.7751 128.608 18.2656 128.608 17.6729C128.608 17.0867 128.381 16.5839 127.927 16.1643C127.479 15.738 126.938 15.5249 126.304 15.5249C125.67 15.5249 125.126 15.738 124.671 16.1643C124.224 16.5839 124 17.0867 124 17.6729C124 18.2656 124.224 18.7751 124.671 19.2014ZM136.112 37.1547V28.2829C136.119 27.6235 136.242 27.0607 136.483 26.5945C136.73 26.1216 137.07 25.7619 137.504 25.5155C137.945 25.269 138.453 25.1458 139.027 25.1458C139.882 25.1458 140.553 25.4123 141.04 25.9451C141.527 26.4713 141.768 27.2039 141.761 28.143V37.1547H146.028V27.3837C146.028 26.1915 145.808 25.1658 145.367 24.3066C144.926 23.4408 144.309 22.7747 143.514 22.3085C142.719 21.8422 141.788 21.6091 140.719 21.6091C139.578 21.6091 138.606 21.8722 137.805 22.3984C137.004 22.9179 136.433 23.6239 136.092 24.5164H135.912V21.8089H131.846V37.1547H136.112ZM153.657 28.2829V37.1547H149.39V21.8089H153.457V24.5164H153.637C153.978 23.6239 154.549 22.9179 155.35 22.3984C156.151 21.8722 157.123 21.6091 158.264 21.6091C159.333 21.6091 160.264 21.8422 161.059 22.3085C161.853 22.7747 162.471 23.4408 162.912 24.3066C163.352 25.1658 163.573 26.1915 163.573 27.3837V37.1547H159.306V28.143C159.313 27.2039 159.072 26.4713 158.585 25.9451C158.097 25.4123 157.426 25.1458 156.572 25.1458C155.997 25.1458 155.49 25.269 155.049 25.5155C154.615 25.7619 154.275 26.1216 154.028 26.5945C153.787 27.0607 153.664 27.6235 153.657 28.2829ZM129.589 42.0141H124.24V62.475H128.447V49.1074H128.617L133.926 62.3751H136.79L142.098 49.1575H142.269V62.475H146.475V42.0141H141.127L135.478 55.7612H135.238L129.589 42.0141ZM154.386 42.0141V62.475H150.05V42.0141H154.386ZM175.112 62.475V42.0141H170.795V54.8821H170.614L161.76 42.0141H157.955V62.475H162.291V49.5971H162.442L171.366 62.475H175.112ZM185.965 62.475H178.693V42.0141H186.025C188.088 42.0141 189.864 42.4236 191.353 43.2428C192.842 44.0555 193.987 45.2245 194.789 46.7496C195.597 48.2749 196 50.0998 196 52.2245C196 54.3559 195.597 56.1876 194.789 57.7194C193.987 59.2514 192.835 60.427 191.333 61.2462C189.837 62.0654 188.048 62.475 185.965 62.475ZM183.03 58.7685H185.784C187.066 58.7685 188.145 58.542 189.019 58.0891C189.901 57.6296 190.562 56.9202 191.003 55.961C191.45 54.9953 191.674 53.7499 191.674 52.2245C191.674 50.7127 191.45 49.4772 191.003 48.5179C190.562 47.5589 189.904 46.8529 189.03 46.4001C188.155 45.947 187.077 45.7206 185.794 45.7206H183.03V58.7685Z" fill="white"/>
</svg>
