<svg width="240" height="80" viewBox="0 0 240 80" fill="none" xmlns="http://www.w3.org/2000/svg">
<g clip-path="url(#clip0_2620_9127)">
<path fill-rule="evenodd" clip-rule="evenodd" d="M161.111 31.1112C158.957 31.3393 156.87 32.2751 155.646 33.5612C154.267 35.011 153.78 36.252 153.783 38.3044C153.784 39.1706 153.827 39.5475 153.983 40.0725C154.363 41.3491 154.914 42.205 155.828 42.9378C157.271 44.0943 157.786 44.2845 161.399 44.9971C165.127 45.7324 165.647 45.9296 165.984 46.7357C166.292 47.473 165.753 48.3671 164.761 48.7642C164.314 48.9432 164.089 48.9688 162.982 48.9677C161.818 48.9664 161.67 48.947 161.151 48.7275C160.336 48.3832 159.804 47.9165 159.613 47.3788L159.457 46.9375H156.397H153.338L153.399 47.5029C153.487 48.3096 153.755 49.3123 154.03 49.8597C155.106 52.0089 157.546 53.3982 160.804 53.717C164.418 54.0707 167.371 53.501 169.55 52.0294C171.818 50.4982 172.814 47.9465 172.299 44.9895C172.031 43.4574 171.107 42.1317 169.759 41.3477C168.576 40.6595 167.373 40.3062 164.611 39.8363C161.674 39.3368 160.664 38.9356 160.234 38.0993C159.815 37.2843 160.582 36.1949 161.787 35.8939C162.452 35.7275 164.055 35.8219 164.587 36.0589C165.448 36.4427 165.893 36.9354 166.055 37.6862L166.118 37.9802H169.051H171.985V37.7207C171.985 37.2566 171.718 35.9186 171.532 35.4448C171.083 34.3071 170.209 33.2781 169.067 32.5437C168.213 31.9947 167.738 31.7816 166.737 31.4976C165.206 31.0632 162.997 30.9114 161.111 31.1112ZM83.1816 33.9317V36.4874L86.0995 36.5112L89.0174 36.5351V44.9935V53.4518H92.2293H95.4413V44.9935V36.5351L98.3592 36.5112L101.277 36.4874L101.301 33.9314L101.325 31.3754L92.2534 31.3758L83.1816 31.376V33.9317ZM105.709 31.4836C105.684 31.5485 105.674 36.5077 105.687 42.5041L105.71 53.4066L108.945 53.4304L112.18 53.4541V49.7434V46.0327H113.25H114.321L116.068 49.7422L117.815 53.4518H121.376C123.7 53.4518 124.937 53.4202 124.937 53.361C124.937 53.3109 124.018 51.4336 122.896 49.1891C121.773 46.9445 120.867 45.0992 120.883 45.0885C120.898 45.0777 121.073 44.9729 121.272 44.8557C121.903 44.4841 122.469 43.9628 122.983 43.2812C123.589 42.4754 123.882 41.8346 124.184 40.6493C124.396 39.8222 124.411 39.6359 124.365 38.4779C124.284 36.4509 123.785 35.0788 122.702 33.9092C121.636 32.7579 120.373 32.0947 118.422 31.6626L117.382 31.4321L111.568 31.3988C106.848 31.3719 105.745 31.3879 105.709 31.4836ZM129.302 39.3148L129.33 47.2541L129.586 48.0232C129.727 48.4462 129.925 48.9551 130.025 49.1541C131.535 52.149 134.726 53.8124 138.963 53.8134C141.485 53.8142 143.546 53.2743 145.193 52.1821C146.968 51.0043 147.883 49.7242 148.487 47.5708C148.673 46.9096 148.678 46.6933 148.711 39.1338L148.744 31.3754H145.483H142.222L142.197 38.6814C142.174 45.4962 142.162 46.018 142.007 46.4417C141.468 47.9228 140.083 48.6684 138.366 48.4015C137.57 48.2778 137.141 48.0763 136.675 47.6084C136.202 47.1333 135.901 46.4692 135.797 45.6705C135.747 45.2852 135.708 42.052 135.706 38.1838L135.704 31.3754H132.488H129.273L129.302 39.3148ZM176.328 33.954V36.5326H179.223H182.118V44.9922V53.4518H185.321C187.799 53.4518 188.532 53.4263 188.565 53.3387C188.595 53.2598 188.653 38.9512 188.634 36.647C188.633 36.561 189.297 36.5296 191.505 36.5112L194.378 36.4874L194.402 33.9314L194.426 31.3754H185.377H176.328V33.954ZM198.856 42.4136V53.4518H206.592H214.328V50.8716V48.2914L209.804 48.3156L205.28 48.3399V46.5529V44.766H209.533H213.785V42.4136V40.0612H209.533H205.28V38.2969V36.5326H209.804H214.328V33.954V31.3754H206.592H198.856V42.4136ZM116.017 36.3565C116.731 36.6236 117.37 37.231 117.612 37.8709C117.867 38.5466 117.832 39.7302 117.541 40.2915C117.27 40.8165 116.634 41.3635 116.037 41.5871C115.578 41.7587 115.334 41.7803 113.85 41.7803H112.18V38.9755V36.1707H113.85C115.313 36.1707 115.582 36.1937 116.017 36.3565Z" fill="white"/>
<path d="M218.684 53.4514V42.4132V31.375H226.419H234.155V33.9536V36.5322H229.631H225.107V38.2965V40.0608H229.36H233.612V42.4132V44.7656H229.36H225.107V46.5525V48.3394L229.631 48.3152L234.155 48.2909V50.8712V53.4514H226.419H218.684Z" fill="white"/>
<path fill-rule="evenodd" clip-rule="evenodd" d="M38.3663 0.154025C38.1001 0.252736 37.8354 0.369903 37.7782 0.414509C37.721 0.459114 37.267 0.711092 36.7694 0.974471C36.2718 1.23794 35.3964 1.70697 34.8242 2.01695C30.4577 4.38147 24.6614 6.91791 20.3931 8.33179C17.4958 9.29148 13.3642 10.3467 10.893 10.758C7.36347 11.3457 7.31661 11.3558 6.93841 11.6179C6.49996 11.9217 6.22681 12.3338 6.01555 13.0102C5.74629 13.8718 5.89585 20.9627 6.28164 25.6288C6.73701 31.1365 7.87467 37.4717 9.23065 42.0504C11.2581 48.897 13.4458 53.8633 16.9226 59.5125C20.3589 65.0959 25.6211 70.9123 30.9241 74.9884C31.3417 75.3095 31.8809 75.724 32.1221 75.9095C33.0902 76.654 36.388 78.7795 38.1718 79.8084C38.6311 80.0734 39.53 80.0619 40.0718 79.7842C42.3639 78.6094 46.7531 75.5204 49.5267 73.1301C53.5777 69.6387 56.7206 66.1423 59.8557 61.6387C63.0419 57.0617 65.895 51.3716 67.772 45.8504C68.9003 42.5313 69.6615 39.705 70.4317 35.9745C71.2098 32.2052 71.8267 27.4599 72.106 23.0955C72.157 22.2993 72.2227 19.8157 72.2521 17.5764C72.3109 13.11 72.2824 12.7424 71.828 12.1152C71.3632 11.4736 71.0198 11.3482 68.7078 10.9758C59.983 9.57078 52.4523 6.83919 42.0952 1.32254C39.4397 -0.0918912 39.2179 -0.161378 38.3663 0.154025ZM55.3624 25.2751C55.3624 25.3046 55.1284 25.6456 54.8422 26.0327C54.556 26.42 53.9759 27.2158 53.5529 27.8012C53.1299 28.3866 52.4785 29.2831 52.1053 29.7934C51.732 30.3037 51.0603 31.2242 50.6124 31.8391C49.5348 33.3182 49.1724 33.706 48.7692 33.8109C48.5759 33.8611 43.288 33.918 35.9099 33.9489C25.9014 33.991 23.315 33.9784 23.0621 33.8867C22.4794 33.6752 22.5383 33.5257 23.998 31.5098C24.2863 31.1117 24.9947 30.1142 25.5722 29.2931C26.1498 28.4721 26.7381 27.6374 26.8796 27.4384C27.0211 27.2393 27.2887 26.8525 27.4743 26.5788C27.9182 25.9239 28.5087 25.3373 28.7749 25.2868C29.0992 25.2253 55.3624 25.2138 55.3624 25.2751ZM161.969 31.1654C162.057 31.1884 162.179 31.1868 162.24 31.162C162.301 31.1372 162.229 31.1185 162.08 31.1203C161.931 31.1221 161.881 31.1424 161.969 31.1654ZM164.003 31.1626C164.065 31.1877 164.167 31.1877 164.229 31.1626C164.291 31.1375 164.24 31.117 164.116 31.117C163.991 31.117 163.941 31.1375 164.003 31.1626ZM129.289 31.5173C129.294 31.6227 129.315 31.6442 129.344 31.5721C129.37 31.5068 129.367 31.4287 129.337 31.3986C129.307 31.3686 129.285 31.422 129.289 31.5173ZM105.772 32.0075C105.772 32.1319 105.793 32.1828 105.818 32.1205C105.843 32.0584 105.843 31.9566 105.818 31.8944C105.793 31.8322 105.772 31.883 105.772 32.0075ZM135.643 32.5503C135.643 32.824 135.66 32.9359 135.68 32.7991C135.701 32.6623 135.701 32.4383 135.68 32.3015C135.66 32.1647 135.643 32.2766 135.643 32.5503ZM105.802 42.4123C105.802 48.0106 105.813 50.3008 105.826 47.5016C105.839 44.7026 105.839 40.1222 105.826 37.323C105.813 34.5239 105.802 36.814 105.802 42.4123ZM101.177 33.2741C101.177 33.7966 101.192 34.0103 101.21 33.7491C101.229 33.4879 101.229 33.0603 101.21 32.7991C101.192 32.5379 101.177 32.7516 101.177 33.2741ZM135.658 39.3813C135.658 42.8647 135.67 44.2766 135.683 42.5188C135.697 40.761 135.697 37.911 135.683 36.1854C135.67 34.4598 135.658 35.898 135.658 39.3813ZM101.179 35.3551C101.179 35.9771 101.193 36.2316 101.211 35.9206C101.228 35.6096 101.228 35.1007 101.211 34.7896C101.193 34.4787 101.179 34.7331 101.179 35.3551ZM194.269 35.1741C194.269 35.3981 194.287 35.4897 194.309 35.3777C194.33 35.2657 194.33 35.0826 194.309 34.9706C194.287 34.8586 194.269 34.9502 194.269 35.1741ZM194.271 36.0337C194.271 36.2825 194.289 36.3735 194.31 36.236C194.33 36.0985 194.33 35.8949 194.308 35.7836C194.287 35.6723 194.27 35.7849 194.271 36.0337ZM160.382 36.5313C160.297 36.6308 160.266 36.7123 160.314 36.7123C160.361 36.7123 160.443 36.6308 160.497 36.5313C160.55 36.4318 160.581 36.3503 160.565 36.3503C160.55 36.3503 160.467 36.4318 160.382 36.5313ZM171.814 37.5793C171.818 37.6847 171.839 37.7061 171.868 37.634C171.894 37.5687 171.891 37.4906 171.861 37.4606C171.831 37.4306 171.81 37.4839 171.814 37.5793ZM213.318 40.2122C213.384 40.2383 213.462 40.2351 213.492 40.205C213.522 40.175 213.468 40.1536 213.373 40.1575C213.268 40.1619 213.246 40.1833 213.318 40.2122ZM170.54 41.9941C170.54 42.0129 170.611 42.0841 170.698 42.1525C170.842 42.2649 170.845 42.2618 170.732 42.1183C170.614 41.9675 170.54 41.9197 170.54 41.9941ZM171.001 42.4761C171.067 42.5858 171.14 42.6561 171.164 42.6323C171.188 42.6085 171.134 42.5187 171.044 42.4328C170.889 42.2836 170.887 42.2855 171.001 42.4761ZM37.5181 45.0049C39.0471 46.0349 40.868 47.262 41.5647 47.7316C42.2614 48.2013 42.9027 48.6483 42.9897 48.7249C43.1361 48.8536 43.148 49.1703 43.148 52.9102C43.148 57.5691 43.1656 57.457 42.3223 58.172C42.0688 58.3868 41.6115 58.7882 41.3059 59.064C40.6904 59.6198 38.9649 61.1353 37.9068 62.0496C36.9362 62.8883 36.7028 63.035 36.239 63.0986C35.5407 63.1943 34.7492 62.6579 34.5521 61.9553C34.4966 61.7575 34.4631 58.1466 34.4628 52.3325C34.4623 44.0309 34.4772 43.032 34.6002 43.0792C34.676 43.1083 35.9891 43.9748 37.5181 45.0049ZM122.264 43.973L121.999 44.2671L122.293 44.0014C122.454 43.8552 122.587 43.7229 122.587 43.7073C122.587 43.6374 122.512 43.699 122.264 43.973ZM112.702 45.9158C112.864 45.9359 113.129 45.9359 113.29 45.9158C113.452 45.8959 113.32 45.8794 112.996 45.8794C112.673 45.8794 112.541 45.8959 112.702 45.9158ZM153.454 47.2076C153.454 47.332 153.474 47.3829 153.499 47.3207C153.525 47.2585 153.525 47.1567 153.499 47.0945C153.474 47.0323 153.454 47.0832 153.454 47.2076ZM172.273 47.2981C172.273 47.4225 172.294 47.4734 172.319 47.4112C172.344 47.349 172.344 47.2472 172.319 47.185C172.294 47.1228 172.273 47.1737 172.273 47.2981ZM115.168 47.7451C115.168 47.792 115.208 47.8551 115.257 47.8855C115.308 47.9172 115.324 47.8809 115.293 47.8004C115.233 47.6437 115.168 47.615 115.168 47.7451ZM123.271 50.2198C123.305 50.3091 123.356 50.3593 123.384 50.3314C123.412 50.3036 123.384 50.2306 123.322 50.1692C123.233 50.0805 123.222 50.0909 123.271 50.2198ZM123.905 51.4865C123.939 51.5757 123.989 51.6259 124.017 51.5981C124.045 51.5703 124.017 51.4973 123.955 51.4359C123.866 51.3472 123.856 51.3576 123.905 51.4865ZM155.249 51.4037C155.249 51.4225 155.32 51.4938 155.407 51.5621C155.551 51.6745 155.554 51.6714 155.442 51.5279C155.323 51.3771 155.249 51.3293 155.249 51.4037ZM117.611 52.843C117.611 52.9722 117.827 53.36 117.899 53.36C117.942 53.36 117.907 53.2481 117.821 53.1112C117.618 52.7863 117.611 52.7772 117.611 52.843ZM188.409 53.2696C188.378 53.3193 188.396 53.36 188.449 53.36C188.501 53.36 188.545 53.3193 188.545 53.2696C188.545 53.2198 188.527 53.1791 188.505 53.1791C188.483 53.1791 188.44 53.2198 188.409 53.2696Z" fill="#B7B7B7"/>
<path fill-rule="evenodd" clip-rule="evenodd" d="M38.85 0.0410583C38.4549 0.127373 38.0447 0.327328 35.9999 1.42988C32.9179 3.09176 30.6347 4.22535 28.1737 5.31542C27.9746 5.40363 27.486 5.62087 27.0879 5.79829C26.6898 5.97563 25.6313 6.40955 24.7355 6.7625C23.8398 7.11537 23.0052 7.44859 22.8808 7.50297C22.2833 7.76381 18.8231 8.89071 17.5178 9.24954C14.9547 9.95417 11.7919 10.6796 10.3949 10.8833C8.77088 11.12 7.38106 11.39 7.1413 11.5153C6.82128 11.6826 6.46272 12.0835 6.25073 12.5111C5.91343 13.1913 5.85127 15.5791 6.0353 20.7897C6.08715 22.2577 6.17192 23.927 6.22359 24.4993C6.27525 25.0715 6.35894 26.0561 6.40943 26.6872C6.766 31.1419 7.98843 37.7301 9.26018 42.0518C11.1275 48.3972 13.1222 53.0182 16.3878 58.5639C19.883 64.4994 25.1788 70.5148 30.5713 74.6748C30.9445 74.9628 31.4983 75.391 31.8019 75.6263C32.9994 76.5548 36.4584 78.7997 38.1241 79.7296C38.7742 80.0926 39.3861 80.0831 40.1619 79.6977C40.4853 79.5372 40.8142 79.3476 40.8928 79.2766C40.9714 79.2055 41.0591 79.1474 41.0879 79.1474C41.1574 79.1474 43.336 77.8073 43.5095 77.6579C43.5842 77.5935 43.9913 77.3044 44.4143 77.0154C44.8373 76.7263 45.5644 76.2022 46.0301 75.8507C46.4959 75.4992 46.9657 75.1506 47.0741 75.0759C47.5049 74.7794 48.0138 74.3827 48.531 73.9402C48.8296 73.6846 49.4607 73.1558 49.9334 72.765C51.1897 71.7264 54.6803 68.1908 56.0487 66.5707C61.1401 60.5434 65.1631 53.4188 67.7225 45.8971C68.2705 44.2865 69.0724 41.6477 69.4135 40.3327C69.896 38.4726 70.6752 34.8241 70.882 33.4565C70.9611 32.934 71.0834 32.1808 71.1539 31.7827C71.3029 30.9406 71.677 27.7873 71.8677 25.7659C72.1044 23.2578 72.2221 20.1821 72.2209 16.5373C72.2197 13.3334 72.2032 12.926 72.0613 12.6015C71.88 12.1874 71.4418 11.694 71.0925 11.511C70.842 11.3797 69.4517 11.1089 67.8478 10.879C67.3253 10.8042 66.45 10.6413 65.9026 10.517C65.3552 10.3928 64.4595 10.1892 63.9121 10.0646C59.6628 9.0969 54.988 7.50505 50.3858 5.45873C49.8633 5.22648 49.2729 4.97016 49.0739 4.88918C48.5228 4.66498 44.5107 2.66028 43.3313 2.01961C40.0985 0.263813 39.3475 -0.067695 38.85 0.0410583ZM52.0054 19.8803C52.2435 20.0018 52.8338 20.6339 53.9023 21.9113C54.7554 22.9314 55.4939 23.8725 55.5434 24.0028C55.6635 24.3188 55.651 24.746 55.5102 25.1326C55.4468 25.3068 54.384 26.8336 53.1486 28.5255C51.9131 30.2174 50.6537 31.9477 50.35 32.3706C49.6321 33.3699 49.2358 33.7548 48.7857 33.8896C48.5162 33.9704 46.9667 33.9993 42.9155 33.9993C39.2983 33.9993 37.442 34.0299 37.5006 34.0886C37.5496 34.1376 38.6062 34.8258 39.8485 35.6177C42.8147 37.5088 42.7314 37.4474 42.9451 37.9024C43.1275 38.2908 43.1309 38.4452 43.1616 47.7519C43.1906 56.5257 43.1817 57.227 43.0386 57.4884C42.9538 57.6432 42.0819 58.4779 41.101 59.3431C40.1202 60.2084 38.8813 61.3096 38.3478 61.7903C36.9935 63.0106 36.7445 63.1633 36.1084 63.1626C35.5541 63.1622 35.168 63.009 34.8577 62.6665C34.396 62.1571 34.4197 62.6573 34.3713 52.4169L34.3261 42.832L33.5118 42.2803C33.064 41.9768 30.7025 40.3905 28.2641 38.7553C25.8258 37.1199 23.6336 35.6353 23.3927 35.4561C22.8216 35.0313 22.6093 34.613 22.6093 33.9122C22.6093 33.2412 22.4158 33.5552 25.5883 29.0802C27.3582 26.5837 28.1625 25.5225 28.3931 25.379L28.7165 25.1778L36.6464 25.1533L44.5762 25.1288L47.4534 22.5403C49.0359 21.1167 50.455 19.8977 50.607 19.8315C51.0081 19.6567 51.6082 19.6777 52.0054 19.8803Z" fill="white"/>
</g>
<defs>
<clipPath id="clip0_2620_9127">
<rect width="240" height="80" fill="white"/>
</clipPath>
</defs>
</svg>
