<svg width="180" height="40" viewBox="0 0 180 40" fill="none" xmlns="http://www.w3.org/2000/svg">
<g id="Logo" clip-path="url(#clip0_1500_6025)">
<g id="Vector">
<path d="M20.5178 12.4303C20.5178 16.3374 20.5178 20.2446 20.5178 24.1518C20.5178 24.6665 20.5109 24.6769 19.9962 24.6803C19.3675 24.6838 18.7354 24.6838 18.1067 24.6803C17.5852 24.6769 17.4332 24.518 17.4332 23.9998C17.4332 18.3757 17.4332 12.7481 17.4332 7.12399C17.4332 6.97889 17.4366 6.8338 17.4228 6.69216C17.409 6.54016 17.3123 6.51252 17.2087 6.61271C16.998 6.81998 16.7216 6.97544 16.6249 7.2829C16.6042 7.34854 16.5593 7.38999 16.5144 7.43836C16.2449 7.70436 15.979 7.97037 15.7164 8.23983C15.5437 8.41601 15.3538 8.56456 15.2639 8.8202C15.2087 8.97912 15.0325 9.09657 14.9047 9.22439C14.6664 9.46276 14.4142 9.68731 14.1828 9.93259C14.0308 10.0915 13.8685 10.2401 13.7856 10.4611C13.7406 10.5751 13.6301 10.6684 13.5403 10.7617C13.2398 11.0726 12.9393 11.3801 12.6353 11.691C12.618 11.7083 12.5904 11.7255 12.58 11.7463C12.2968 12.3577 11.7027 12.6894 11.2951 13.1937C11.1742 13.3423 11.0291 13.4597 10.9566 13.6601C10.8391 13.9779 10.4695 14.047 10.2139 13.8121C9.85813 13.4839 9.45745 13.1765 9.20184 12.7792C8.88405 12.2886 8.41774 11.9501 8.07232 11.4975C7.61636 10.893 7.02915 10.399 6.58356 9.80131C6.15178 9.22094 5.63711 8.74075 5.13971 8.23637C4.99118 8.08437 4.92555 7.884 4.79083 7.72509C4.44887 7.32781 4.03782 6.99962 3.68204 6.61962C3.63713 6.57125 3.58186 6.53325 3.50933 6.5678C3.43679 6.60234 3.44024 6.67489 3.43679 6.73707C3.43333 6.86835 3.43333 6.99962 3.43333 7.1309C3.43333 12.7965 3.43333 18.462 3.43333 24.1241C3.43333 24.6561 3.41261 24.6803 2.88757 24.6838C2.27273 24.6872 1.65442 24.6838 1.03958 24.6838C0.935952 24.6838 0.828872 24.6838 0.725247 24.6631C0.500724 24.6181 0.362556 24.4523 0.348739 24.2278C0.341831 24.138 0.345285 24.0447 0.345285 23.9549C0.345285 16.2062 0.345285 8.45401 0.345285 0.705317C0.345285 0.612042 0.341831 0.522222 0.345285 0.428948C0.355648 0.221671 0.49727 0.035122 0.690705 0.035122C1.07412 0.0385766 1.46444 -0.0650618 1.84095 0.156033C1.9653 0.22858 2.0862 0.297673 2.18637 0.394402C2.51106 0.712226 2.80467 1.05078 3.08101 1.41351C3.39534 1.82461 3.80984 2.15971 4.17599 2.53281C4.29343 2.65026 4.41433 2.75736 4.46959 2.937C4.52141 3.11318 4.69411 3.22028 4.82192 3.35155C5.03953 3.5761 5.25715 3.8041 5.49549 4.00793C5.7131 4.19102 5.74764 4.48466 5.9618 4.67467C6.29341 4.96831 6.59738 5.29304 6.90134 5.61778C7.03951 5.76633 7.22949 5.88724 7.25367 6.12215C7.26749 6.23615 7.38148 6.28106 7.45402 6.35361C7.73381 6.64725 8.02396 6.92707 8.31066 7.21035C8.4281 7.32781 8.52482 7.44872 8.5939 7.61454C8.70443 7.87364 8.99113 8.01182 9.17766 8.22601C9.3331 8.40219 9.50926 8.55765 9.67852 8.72347C9.79941 8.84093 9.93067 8.94457 9.97212 9.12766C9.98939 9.20712 10.0757 9.27621 10.1379 9.34185C10.3797 9.58713 10.4453 9.60095 10.6837 9.36258C10.9738 9.07239 11.3158 8.84093 11.5023 8.43329C11.6198 8.17765 11.9134 8.00837 12.1172 7.79073C12.3797 7.50745 12.6733 7.27254 12.8736 6.91671C13.0533 6.59198 13.3952 6.35361 13.6681 6.0807C13.9306 5.81469 14.1862 5.55559 14.3866 5.2205C14.5731 4.90613 14.9047 4.67467 15.1707 4.40866C15.3434 4.23248 15.5437 4.07702 15.6059 3.82138C15.6266 3.74192 15.6923 3.69701 15.751 3.63828C16.1206 3.26864 16.4729 2.87481 16.8632 2.52935C17.0498 2.36353 17.0809 2.12171 17.2639 1.95934C17.5852 1.67261 17.8857 1.35824 18.1896 1.05078C18.3624 0.874593 18.5178 0.694953 18.6421 0.473858C18.7976 0.200943 19.1085 0.0731227 19.4263 0.035122C19.6473 0.00748505 19.8718 0.0213035 20.0929 0.0316673C20.3796 0.0454858 20.5005 0.180216 20.5109 0.477312C20.5143 0.580951 20.5109 0.688044 20.5109 0.791682C20.5178 4.66776 20.5178 8.55075 20.5178 12.4303Z" fill="white"/>
<path d="M153.328 12.3059C153.328 16.1751 153.328 20.0408 153.328 23.91C153.328 24.0136 153.332 24.1207 153.328 24.2243C153.314 24.5076 153.2 24.6458 152.927 24.6492C152.192 24.6596 151.459 24.6596 150.724 24.6492C150.433 24.6458 150.302 24.4938 150.281 24.2071C150.275 24.0896 150.278 23.9721 150.278 23.8547C150.278 18.2686 150.278 12.6825 150.278 7.09635C150.278 6.96508 150.281 6.8338 150.268 6.70253C150.254 6.56434 150.157 6.49525 150.06 6.60234C149.75 6.93053 149.356 7.17926 149.148 7.61109C149.024 7.86673 148.762 8.0291 148.561 8.23637C148.354 8.45056 148.081 8.62329 147.933 8.87202C147.556 9.50076 146.979 9.93604 146.499 10.4646C146.471 10.4922 146.444 10.5233 146.427 10.5579C146.126 11.2246 145.501 11.6046 145.041 12.1332C144.938 12.2506 144.807 12.3405 144.786 12.5097C144.775 12.5788 144.724 12.6237 144.679 12.6686C144.309 13.0383 143.946 13.4148 143.563 13.7707C143.307 14.009 143.218 14.0021 142.969 13.7638C142.61 13.4183 142.254 13.0728 141.905 12.717C141.705 12.5132 141.632 12.223 141.404 12.0295C141.145 11.8084 140.921 11.5493 140.679 11.311C140.492 11.1279 140.306 10.9517 140.192 10.703C140.133 10.5786 140.016 10.4784 139.915 10.3748C139.622 10.0742 139.328 9.77713 139.031 9.48003C138.903 9.35221 138.765 9.23476 138.71 9.04475C138.686 8.96184 138.613 8.8893 138.548 8.82711C137.988 8.29856 137.46 7.74582 136.997 7.1309C136.855 6.94435 136.669 6.79235 136.499 6.62998C136.382 6.52289 136.309 6.54361 136.292 6.69562C136.278 6.82344 136.282 6.95817 136.282 7.08944C136.282 12.6894 136.282 18.2858 136.282 23.8858C136.282 23.979 136.282 24.0689 136.282 24.1621C136.275 24.5007 136.102 24.7114 135.764 24.7183C135.069 24.7356 134.375 24.7322 133.677 24.7218C133.352 24.7149 133.19 24.5214 133.183 24.1898C133.18 24.1241 133.183 24.0585 133.183 23.9929C133.183 16.2165 133.183 8.4402 133.183 0.667316C133.183 0.574042 133.18 0.484222 133.187 0.390947C133.2 0.214762 133.349 0.0282127 133.522 0.0282127C133.947 0.0213035 134.396 -0.0754256 134.776 0.194034C135.035 0.377129 135.325 0.553314 135.432 0.881502C135.47 1.00241 135.56 1.07842 135.643 1.15787C135.864 1.38242 136.081 1.61043 136.316 1.8177C136.582 2.05262 136.748 2.36699 136.976 2.62608C137.356 3.05791 137.774 3.45173 138.175 3.86283C138.247 3.93883 138.361 4.00447 138.385 4.09084C138.485 4.4743 138.827 4.65739 139.059 4.92685C139.238 5.13413 139.487 5.29304 139.622 5.5245C139.971 6.1187 140.568 6.48834 140.948 7.03071C141.387 7.65945 141.967 8.13274 142.482 8.67856C142.655 8.86166 142.71 9.11039 142.91 9.27967C143.287 9.60095 143.539 9.58367 143.75 9.13112C143.836 8.94457 143.957 8.80639 144.098 8.67165C144.496 8.28128 144.903 7.90473 145.276 7.49363C145.508 7.24145 145.639 6.9098 145.919 6.68871C146.109 6.5367 146.275 6.35016 146.44 6.17052C146.592 6.00124 146.744 5.84578 146.851 5.62469C146.983 5.35868 147.269 5.16522 147.487 4.94067C147.746 4.67121 148.016 4.42248 148.202 4.07702C148.361 3.79029 148.668 3.58646 148.9 3.34119C149.193 3.03027 149.515 2.75736 149.736 2.37044C149.912 2.06298 150.237 1.84188 150.492 1.58279C150.755 1.31678 151.01 1.06114 151.231 0.739863C151.515 0.321855 151.926 -0.0408795 152.527 0.0282127C152.644 0.0420312 152.762 0.0282127 152.879 0.0316673C153.214 0.0420312 153.325 0.149124 153.335 0.473858C153.338 0.577496 153.335 0.684589 153.335 0.788228C153.328 4.62285 153.328 8.46438 153.328 12.3059Z" fill="white"/>
<path d="M100.472 6.52979C100.358 6.51252 100.268 6.54361 100.189 6.62307C99.7984 7.02726 99.3529 7.38654 99.0316 7.83909C98.6344 8.39874 98.1024 8.81329 97.6707 9.32803C97.4634 9.57331 97.3287 9.87732 97.0765 10.0984C96.89 10.2608 96.7207 10.4439 96.5411 10.6131C96.0092 11.1106 95.6638 11.7739 95.1042 12.2472C94.9073 12.413 94.669 12.5788 94.5619 12.7999C94.3857 13.1696 94.0817 13.4045 93.8123 13.6774C93.4289 14.0643 93.0938 14.0539 92.8521 13.5738C92.631 13.1316 92.2407 12.869 91.9367 12.5166C91.7329 12.2817 91.5015 12.0779 91.3391 11.8015C91.1388 11.463 90.8037 11.235 90.5377 10.9482C90.2821 10.6719 90.0162 10.4231 89.8262 10.0846C89.6845 9.83241 89.422 9.64931 89.2113 9.43858C89.0006 9.22785 88.7865 9.01712 88.5723 8.80639C88.4929 8.72693 88.3789 8.6682 88.3927 8.52311C88.403 8.41256 88.2994 8.37456 88.2372 8.31238C88.03 8.09819 87.8331 7.87709 87.6051 7.68709C87.2459 7.38308 87.0594 6.94435 86.7312 6.62307C86.6656 6.56089 86.5965 6.50561 86.5343 6.44688C86.3962 6.48143 86.4238 6.58852 86.4203 6.67489C86.4134 6.80616 86.4169 6.93744 86.4169 7.06871C86.4169 12.6825 86.4169 18.2962 86.4169 23.9065C86.4169 24.024 86.4238 24.1414 86.4134 24.2589C86.3962 24.5076 86.2718 24.6423 86.0197 24.6527C85.7191 24.6665 85.4152 24.6596 85.1147 24.6596C84.6414 24.6596 84.1717 24.6665 83.6984 24.6561C83.3979 24.6492 83.3703 24.6147 83.3634 24.3072C83.3599 24.2278 83.3634 24.1483 83.3634 24.0723C83.3634 16.3098 83.3634 8.54383 83.3634 0.781318C83.3634 0.715681 83.3634 0.650043 83.3634 0.584405C83.3668 0.142215 83.4739 0.0247581 83.923 0.0316673C84.2407 0.0385766 84.5689 -0.0408795 84.8763 0.162943C84.9972 0.242399 85.1181 0.27349 85.1457 0.442766C85.1596 0.518768 85.2528 0.58786 85.315 0.650043C85.6086 0.94714 85.8884 1.2546 86.2027 1.52751C86.3858 1.68988 86.4031 1.93516 86.5861 2.09753C86.8694 2.34626 87.1181 2.62954 87.3875 2.89554C87.6189 3.12355 87.8124 3.37573 87.9955 3.64519C88.2372 3.99411 88.5827 4.27393 88.8866 4.57794C89.0973 4.78867 89.3081 4.98904 89.4531 5.26195C89.5637 5.47268 89.7813 5.6316 89.954 5.80778C90.1992 6.05997 90.4894 6.28106 90.6897 6.5678C90.8521 6.80271 91.011 7.03417 91.2148 7.23454C91.4566 7.4729 91.7087 7.70091 91.9402 7.94619C92.0887 8.10164 92.2234 8.26746 92.3408 8.45747C92.5826 8.84093 92.9557 9.12421 93.2907 9.43512C93.3978 9.53531 93.4773 9.46276 93.5567 9.38676C94.0058 8.93766 94.5377 8.54729 94.8866 8.0291C95.2942 7.43145 95.8641 7.00999 96.3097 6.47107C96.5204 6.21543 96.6828 5.92178 96.9418 5.70069C97.1387 5.53487 97.308 5.3345 97.491 5.1514C97.8883 4.75758 98.175 4.27048 98.5895 3.88356C98.9176 3.5761 99.2527 3.27555 99.4876 2.86445C99.6637 2.55699 99.9781 2.33244 100.234 2.06989C100.493 1.80388 100.762 1.55861 100.949 1.21315C101.097 0.940231 101.387 0.743318 101.619 0.515313C101.771 0.36331 101.923 0.23549 102.127 0.131851C102.51 -0.0581526 102.89 0.0420312 103.266 0.0558496C103.38 0.0593043 103.512 0.200943 103.505 0.373674C103.501 0.466949 103.505 0.556769 103.505 0.650043C103.505 8.4402 103.505 16.2304 103.505 24.0205C103.505 24.1 103.508 24.1794 103.505 24.2554C103.488 24.5249 103.387 24.6527 103.125 24.6561C102.337 24.6665 101.55 24.6596 100.762 24.6596C100.576 24.6596 100.503 24.5663 100.51 24.3901C100.513 24.2727 100.51 24.1552 100.51 24.0378C100.51 18.3584 100.51 12.679 100.507 7.00308C100.51 6.84071 100.545 6.6818 100.472 6.52979Z" fill="white"/>
<path d="M64.8558 17.5742C64.9836 17.4498 64.9491 17.3255 64.9525 17.2184C64.956 16.7727 64.956 16.3271 64.956 15.8814C64.956 10.8584 64.956 5.83542 64.956 0.81241C64.956 0.708771 64.9525 0.601679 64.956 0.49804C64.9663 0.152579 65.0838 0.0282127 65.4258 0.0247581C66.0682 0.0213035 66.7107 0.0247581 67.3532 0.0247581C67.4188 0.0247581 67.4844 0.0213035 67.5501 0.0282127C67.823 0.0489404 67.9473 0.176761 67.9646 0.442766C67.9715 0.546405 67.968 0.653498 67.968 0.757136C67.968 8.51965 67.968 16.2856 67.968 24.0481C67.968 24.7045 67.9922 24.6561 67.3774 24.6561C67.2841 24.6561 67.1908 24.6458 67.101 24.6596C66.4965 24.746 66.158 24.4281 65.9404 23.9169C65.9266 23.8823 65.9093 23.8374 65.8817 23.8201C65.5259 23.6025 65.3463 23.2225 65.1356 22.9047C64.8938 22.5419 64.5657 22.2517 64.3377 21.8786C64.1684 21.5988 63.9439 21.3363 63.7297 21.0772C63.4085 20.6868 63.0976 20.293 62.8247 19.8646C62.6935 19.6573 62.5104 19.4846 62.355 19.2946C62.0683 18.9422 61.8472 18.5415 61.5571 18.1891C61.3153 17.8955 61.0355 17.6191 60.8628 17.2702C60.8386 17.2253 60.8248 17.1631 60.7868 17.1355C60.4275 16.8591 60.3377 16.3685 59.9612 16.1094C59.8818 15.726 59.4569 15.5602 59.3636 15.1836C59.3602 15.1732 59.3498 15.1594 59.3395 15.1525C58.9975 14.8865 58.8835 14.434 58.545 14.1783C58.3688 14.047 58.431 13.819 58.2548 13.6947C58.1063 13.5876 57.9371 13.4632 57.906 13.2456C57.9025 13.211 57.8714 13.1765 57.8438 13.1523C57.5226 12.869 57.336 12.4752 57.0528 12.1539C56.8524 11.9259 56.6383 11.6806 56.5001 11.4215C56.3032 11.0622 56.0027 10.7928 55.7989 10.4404C55.6435 10.171 55.4259 9.90841 55.2082 9.67349C54.925 9.36603 54.697 9.01366 54.4587 8.68202C54.248 8.38492 53.9406 8.15346 53.8058 7.78382C53.7437 7.61454 53.5813 7.38999 53.2497 7.44181C53.3913 7.63182 53.3741 7.83564 53.3741 8.03601C53.3741 13.2939 53.3741 18.5553 53.3775 23.8132C53.3775 24.0412 53.3499 24.252 53.2497 24.4592C53.1841 24.5974 53.0943 24.6561 52.9457 24.6561C52.172 24.6527 51.3983 24.6527 50.6245 24.6561C50.438 24.6561 50.362 24.5698 50.3758 24.3901C50.3827 24.3003 50.3758 24.2071 50.3758 24.1138C50.3758 16.258 50.3758 8.40219 50.3758 0.546405C50.3758 -0.0339703 50.324 0.0282127 50.9078 0.0247581C50.9458 0.0247581 50.9872 0.0316673 51.0252 0.0247581C51.4881 -0.0685164 51.8646 0.104214 52.0718 0.501495C52.2515 0.846956 52.6141 1.04732 52.7385 1.42042C52.7489 1.45497 52.7799 1.48951 52.811 1.5137C53.153 1.78316 53.3395 2.18389 53.5986 2.51899C53.8335 2.81954 54.0822 3.12355 54.2998 3.44482C54.5381 3.79374 54.7557 4.16684 55.077 4.45703C55.1564 4.52957 55.2186 4.61248 55.2532 4.71267C55.3015 4.85431 55.3913 4.96485 55.5053 5.05813C55.64 5.16868 55.7402 5.2965 55.7989 5.46232C55.8162 5.51068 55.8404 5.56596 55.8784 5.59359C56.21 5.85269 56.3861 6.23961 56.6279 6.56434C56.8524 6.86489 57.184 7.09981 57.2946 7.48672C57.3015 7.5109 57.3188 7.53854 57.336 7.55236C57.6849 7.79073 57.8334 8.19146 58.089 8.50929C58.3239 8.79948 58.5968 9.07584 58.7557 9.42822C58.8006 9.53185 58.8766 9.63204 58.963 9.70458C59.108 9.82204 59.2462 9.93259 59.2773 10.133C59.2842 10.1675 59.3153 10.2055 59.3429 10.2262C59.6745 10.4542 59.8231 10.8308 60.051 11.1382C60.3135 11.4906 60.6072 11.8188 60.8351 12.1988C60.994 12.4614 61.2013 12.7101 61.4016 12.9346C61.6883 13.2559 61.9336 13.6083 62.1788 13.9503C62.3999 14.2578 62.7315 14.4961 62.8386 14.8831C62.8455 14.9072 62.8662 14.928 62.8869 14.9418C63.2185 15.2181 63.4258 15.5982 63.6779 15.9333C63.9025 16.2338 64.2202 16.486 64.3377 16.8695C64.3549 16.9247 64.4206 16.9696 64.462 17.018C64.5933 17.1735 64.766 17.3255 64.8558 17.5742Z" fill="white"/>
<path d="M118.358 14.9383C117.087 14.9383 115.812 14.9418 114.541 14.9349C114.23 14.9314 114.044 15.0247 113.916 15.3356C113.653 15.9747 113.37 16.6069 113.097 17.2425C112.904 17.6951 112.748 18.1684 112.517 18.6071C112.244 19.1219 112.047 19.6677 111.864 20.2204C111.791 20.4381 111.66 20.635 111.536 20.8319C111.373 21.0841 111.391 21.395 111.228 21.6506C111.007 21.9996 110.966 22.4314 110.745 22.7872C110.538 23.1223 110.472 23.523 110.292 23.8754C110.189 24.0723 110.178 24.3176 109.992 24.4834C109.881 24.5836 109.771 24.6527 109.612 24.6492C108.852 24.6423 108.092 24.6458 107.329 24.6458C107.177 24.6458 107.045 24.6112 106.949 24.4834C106.88 24.3936 106.842 24.3072 106.911 24.2001C107.239 23.6889 107.304 23.0463 107.709 22.573C107.698 22.1723 108.033 21.8821 108.057 21.4952C108.061 21.4572 108.057 21.4088 108.078 21.3812C108.424 20.901 108.506 20.3033 108.779 19.7851C108.976 19.4086 109.173 19.0009 109.249 18.5657C109.266 18.4551 109.342 18.3791 109.394 18.2893C109.657 17.8333 109.819 17.3289 109.995 16.8418C110.133 16.4549 110.403 16.1233 110.475 15.7329C110.555 15.3114 110.883 15.0074 110.914 14.5687C110.928 14.3752 111.111 14.1956 111.208 14.0056C111.349 13.7327 111.391 13.4252 111.522 13.1488C111.75 12.6617 111.94 12.1574 112.164 11.6703C112.379 11.2039 112.513 10.6926 112.734 10.2262C112.945 9.78404 113.049 9.29694 113.318 8.87893C113.411 8.73038 113.342 8.54729 113.456 8.39529C113.805 7.922 113.974 7.35545 114.185 6.81998C114.461 6.1187 114.755 5.42777 115.056 4.73685C115.346 4.07702 115.598 3.40337 115.888 2.74354C116.085 2.29444 116.289 1.83498 116.42 1.35478C116.461 1.20278 116.569 1.11642 116.634 0.995504C116.779 0.736408 116.772 0.432402 116.931 0.180216C116.993 0.0834865 117.021 0.0109397 117.145 0.0109397C117.892 0.0109397 118.641 0.0109397 119.387 0.0109397C119.598 0.0109397 119.733 0.131851 119.809 0.304582C120.068 0.881502 120.316 1.45842 120.517 2.05953C120.565 2.20462 120.634 2.34626 120.71 2.4879C120.98 2.99227 121.19 3.52083 121.349 4.07011C121.429 4.34648 121.643 4.56067 121.715 4.84049C121.826 5.26541 122.088 5.62814 122.178 6.05997C122.23 6.29834 122.389 6.49525 122.52 6.70253C122.689 6.96508 122.676 7.2829 122.828 7.55927C123.069 7.99801 123.152 8.51274 123.46 8.92384C123.449 9.34185 123.76 9.64931 123.836 10.0466C123.888 10.3264 124.13 10.5613 124.213 10.8481C124.334 11.2799 124.627 11.6495 124.679 12.109C124.693 12.2161 124.776 12.3163 124.824 12.4199C125.038 12.8828 125.232 13.3561 125.442 13.819C125.701 14.3856 125.881 14.9901 126.178 15.5429C126.368 15.8953 126.513 16.2718 126.651 16.638C126.914 17.3289 127.259 17.9853 127.491 18.6831C127.608 19.0355 127.788 19.3499 127.926 19.685C128.102 20.1133 128.261 20.5521 128.406 20.9908C128.444 21.1048 128.517 21.1946 128.568 21.2983C128.772 21.6955 128.893 22.1239 129.066 22.5316C129.311 23.1154 129.501 23.7234 129.781 24.2934C129.857 24.4454 129.732 24.5421 129.618 24.5974C129.543 24.6354 129.439 24.6354 129.349 24.6354C128.575 24.6389 127.802 24.6354 127.028 24.6389C126.817 24.6389 126.676 24.6112 126.596 24.3556C126.51 24.0827 126.251 23.8547 126.195 23.5818C126.112 23.1603 125.812 22.8321 125.764 22.3968C125.743 22.1999 125.584 22.0099 125.473 21.8303C125.311 21.5677 125.28 21.2603 125.152 20.9839C124.945 20.5383 124.745 20.0788 124.575 19.6193C124.43 19.222 124.178 18.8697 124.116 18.4344C124.085 18.2271 123.929 18.0371 123.815 17.8506C123.646 17.5707 123.65 17.2322 123.491 16.9455C123.246 16.5033 123.183 15.9713 122.848 15.5636C122.817 15.5291 122.821 15.4669 122.81 15.4151C122.724 14.9901 122.651 14.928 122.209 14.9245C120.928 14.9383 119.643 14.9383 118.358 14.9383ZM118.354 4.77831C118.071 4.90613 118.157 5.17213 118.05 5.33795C117.767 5.78014 117.708 6.31906 117.432 6.76471C117.38 6.84762 117.273 6.91671 117.28 7.02726C117.308 7.45563 116.89 7.74236 116.917 8.17074C116.645 8.47474 116.648 8.89966 116.441 9.2313C116.258 9.52494 116.199 9.88768 116.033 10.1813C115.74 10.703 115.636 11.2972 115.322 11.8015C115.315 11.8119 115.311 11.8257 115.308 11.8395C115.266 12.0088 115.339 12.1124 115.518 12.1297C115.598 12.1366 115.677 12.1332 115.753 12.1332C117.432 12.1332 119.111 12.1332 120.79 12.1332C120.855 12.1332 120.921 12.1366 120.986 12.1297C121.266 12.1055 121.356 11.9432 121.266 11.6772C121.149 11.3179 120.973 10.9828 120.845 10.6339C120.62 10.0259 120.299 9.45585 120.099 8.83748C120.061 8.72347 119.95 8.65438 119.94 8.52656C119.905 8.13274 119.688 7.79073 119.539 7.44527C119.342 6.97889 119.128 6.50907 118.928 6.03924C118.883 5.93215 118.776 5.8596 118.772 5.72832C118.762 5.35868 118.541 5.08231 118.354 4.77831Z" fill="white"/>
<path d="M178.032 24.6527C177.677 24.6527 177.324 24.6354 176.972 24.6561C176.634 24.6769 176.399 24.4489 176.35 24.2174C176.278 23.8789 176.119 23.5956 175.963 23.3123C175.822 23.0498 175.832 22.7423 175.659 22.497C175.442 22.1861 175.331 21.8095 175.224 21.4641C175.065 20.9494 174.703 20.521 174.647 19.9751C174.637 19.8681 174.537 19.8335 174.509 19.7471C174.33 19.1253 173.97 18.576 173.78 17.9542C173.684 17.6329 173.525 17.3255 173.39 17.018C173.179 16.5413 173.01 16.0473 172.775 15.5809C172.692 15.4185 172.602 15.2631 172.502 15.1111C172.426 15.0005 172.319 14.9245 172.171 14.9314C172.119 14.9349 172.067 14.9314 172.012 14.9314C169.508 14.9314 167.003 14.9383 164.499 14.921C164.223 14.9176 164.04 15.08 163.805 15.1491C163.729 15.1698 163.708 15.2423 163.718 15.308C163.742 15.4945 163.632 15.6362 163.559 15.7812C163.28 16.3409 163.048 16.9178 162.865 17.5155C162.831 17.626 162.758 17.7227 162.699 17.8229C162.433 18.2686 162.281 18.7695 162.102 19.2428C161.957 19.6262 161.708 19.9751 161.622 20.3621C161.525 20.7801 161.228 21.1048 161.176 21.5366C161.162 21.6748 161.069 21.8441 160.972 21.9754C160.941 22.0168 160.893 22.0479 160.896 22.1032C160.913 22.5005 160.578 22.763 160.502 23.1188C160.413 23.5299 160.116 23.8581 160.067 24.2865C160.043 24.5007 159.898 24.6216 159.667 24.6389C159.47 24.6527 159.273 24.6458 159.076 24.6458C158.461 24.6458 157.843 24.6354 157.228 24.6492C156.789 24.6596 156.751 24.4005 156.865 24.0447C156.996 23.6301 157.238 23.2536 157.311 22.8183C157.331 22.7043 157.439 22.6559 157.487 22.5627C157.732 22.0825 157.929 21.5746 158.112 21.0737C158.302 20.5486 158.52 20.0373 158.751 19.533C159.007 18.9802 159.214 18.4171 159.421 17.8471C159.442 17.7884 159.487 17.7366 159.518 17.6778C159.777 17.1873 159.981 16.6691 160.174 16.1578C160.319 15.7778 160.565 15.4358 160.651 15.0558C160.741 14.655 161.052 14.3441 161.052 13.9227C161.052 13.8708 161.079 13.8294 161.11 13.7845C161.452 13.2801 161.532 12.6548 161.867 12.147C161.867 11.7774 162.116 11.4975 162.23 11.1728C162.382 10.7375 162.578 10.323 162.717 9.88077C162.803 9.60095 162.989 9.35567 163.09 9.0793C163.211 8.7442 163.425 8.4402 163.511 8.11201C163.618 7.71818 163.884 7.40036 163.964 7.0238C164.046 6.62652 164.285 6.30524 164.388 5.92178C164.509 5.46577 164.734 5.03395 164.934 4.60212C165.176 4.08047 165.418 3.56228 165.577 3.00954C165.601 2.92318 165.646 2.84027 165.694 2.76081C165.995 2.28408 166.157 1.7417 166.371 1.23042C166.506 0.905684 166.661 0.58786 166.793 0.259672C166.851 0.111123 166.969 0.0109397 167.152 0.0109397C167.888 0.0143943 168.62 0.0143943 169.356 0.0109397C169.666 0.00748505 169.698 0.311491 169.736 0.460039C169.808 0.739863 169.939 0.974777 170.057 1.22696C170.195 1.52406 170.281 1.84534 170.413 2.14589C170.606 2.58463 170.806 3.01991 170.979 3.4621C171.145 3.88356 171.411 4.26702 171.487 4.72994C171.508 4.86467 171.615 4.98558 171.684 5.10995C171.925 5.55559 172.088 6.03924 172.285 6.4987C172.444 6.8718 172.658 7.23799 172.761 7.618C172.872 8.0291 173.083 8.39183 173.2 8.79948C173.355 9.3384 173.68 9.82895 173.874 10.361C174.022 10.7721 174.254 11.1452 174.343 11.5839C174.385 11.7774 174.488 11.9674 174.609 12.1401C174.803 12.4199 174.806 12.7723 174.972 13.0694C175.221 13.5254 175.297 14.0609 175.635 14.4789C175.618 14.89 175.932 15.194 175.998 15.5912C176.043 15.8642 176.257 16.1094 176.354 16.3789C176.495 16.7727 176.723 17.132 176.796 17.5466C176.82 17.6744 176.893 17.7642 176.951 17.854C177.255 18.3031 177.393 18.8248 177.583 19.3119C177.884 20.0857 178.281 20.8181 178.52 21.6161C178.602 21.8959 178.792 22.1446 178.889 22.4245C179.031 22.8356 179.283 23.2052 179.366 23.6439C179.397 23.8029 179.518 23.9445 179.594 24.0965C179.728 24.3729 179.635 24.5698 179.338 24.6285C179.248 24.6458 179.155 24.6423 179.065 24.6423C178.713 24.6562 178.374 24.6562 178.032 24.6527C178.032 24.6562 178.032 24.6562 178.032 24.6527ZM168.198 4.76449C167.919 5.02358 167.967 5.40359 167.798 5.69032C167.732 5.79742 167.611 5.89069 167.604 6.02197C167.587 6.31906 167.449 6.5678 167.297 6.80271C167.134 7.05144 167.103 7.34508 166.983 7.61109C166.869 7.86328 166.672 8.10164 166.634 8.36074C166.575 8.75457 166.254 9.0413 166.261 9.44549C165.874 10.126 165.597 10.855 165.324 11.5804C165.169 11.995 165.252 12.1228 165.704 12.1228C167.407 12.1228 169.114 12.1228 170.817 12.1228C170.882 12.1228 170.948 12.1263 171.014 12.1194C171.224 12.0952 171.318 11.9432 171.204 11.7635C170.927 11.3179 170.82 10.8032 170.582 10.3368C170.364 9.91532 170.202 9.45585 170.057 8.98948C169.922 8.56111 169.673 8.17419 169.508 7.74927C169.373 7.40036 169.29 7.02035 169.076 6.70253C168.841 6.35015 168.772 5.92869 168.592 5.55214C168.516 5.39323 168.399 5.24813 168.416 5.04431C168.433 4.90958 168.302 4.83703 168.198 4.76449Z" fill="white"/>
<path d="M45.2256 24.6561C44.8698 24.6561 44.5175 24.6492 44.1617 24.6596C43.8923 24.67 43.7196 24.5629 43.6194 24.3107C43.502 24.0136 43.3569 23.7303 43.2636 23.4159C43.1877 23.1638 43.0288 22.9185 42.9044 22.6697C42.8975 22.6594 42.8768 22.6525 42.8768 22.6421C42.8595 22.2241 42.4934 21.927 42.4865 21.5125C42.483 21.3777 42.3794 21.3086 42.3276 21.2084C42.1479 20.8699 42.034 20.5002 41.8751 20.1548C41.6402 19.6504 41.4398 19.1357 41.2119 18.6313C40.939 18.0337 40.6937 17.4118 40.4623 16.7934C40.331 16.4411 40.1376 16.1198 40.0098 15.7709C39.9856 15.7018 39.9407 15.6362 39.9269 15.5567C39.8509 15.1663 39.5918 14.9418 39.2084 14.9418C36.6903 14.9383 34.1722 14.9487 31.6541 14.9349C31.2741 14.9314 31.0462 15.1387 30.9114 15.4116C30.6317 15.9713 30.3657 16.5447 30.2102 17.1562C30.1792 17.2702 30.1066 17.3669 30.0514 17.4602C29.775 17.9058 29.7301 18.4517 29.4158 18.8766C29.402 19.2773 29.1222 19.5813 29.0393 19.9648C28.9771 20.2446 28.7871 20.4933 28.6939 20.7663C28.5488 21.1808 28.2932 21.5539 28.2344 21.9996C28.2137 22.1412 28.1239 22.2794 28.0548 22.3692C27.8096 22.7008 27.7923 23.1188 27.5851 23.4539C27.4123 23.7303 27.3709 24.0481 27.2396 24.3349C27.1464 24.5352 27.0255 24.6527 26.801 24.6527C25.9754 24.6527 25.1499 24.6492 24.3208 24.6561C23.9927 24.6596 23.8822 24.4489 24.0514 24.0965C24.2656 23.6578 24.3243 23.1569 24.6283 22.763C24.6525 22.2172 25.0359 21.8061 25.1982 21.3052C25.3675 20.7835 25.6334 20.2757 25.8511 19.761C26.0445 19.3084 26.2897 18.8731 26.4141 18.3895C26.4452 18.2686 26.5212 18.1546 26.5903 18.044C26.8493 17.6122 26.9875 17.1216 27.1775 16.6656C27.3329 16.2891 27.4987 15.9229 27.6749 15.5567C27.7612 15.3771 27.7681 15.1698 27.8614 14.9763C28.0859 14.5134 28.2794 14.0367 28.421 13.5392C28.4866 13.3008 28.6628 13.0901 28.7457 12.8448C28.8942 12.413 29.1464 12.0192 29.2258 11.5597C29.2327 11.5113 29.2638 11.463 29.2949 11.4215C29.6299 10.9241 29.6956 10.3022 30.0444 9.80822C30.0514 9.46967 30.2655 9.21058 30.3726 8.91348C30.5384 8.45056 30.7733 8.01528 30.9011 7.53509C30.9564 7.33126 31.1187 7.12744 31.1912 6.91671C31.3605 6.43307 31.6403 5.99778 31.7646 5.49341C31.813 5.2965 31.965 5.12722 32.041 4.93722C32.224 4.48121 32.3898 4.02175 32.566 3.56574C32.604 3.46901 32.6489 3.37228 32.7007 3.28246C33.0151 2.71245 33.2223 2.09407 33.4572 1.48951C33.5643 1.21315 33.6921 0.943685 33.8441 0.691498C33.9097 0.584405 33.9373 0.487676 33.958 0.370219C33.9995 0.135306 34.1135 0.0316673 34.3553 0.0282127C35.0772 0.0213035 35.7991 0.0282127 36.5176 0.0247581C36.6696 0.0247581 36.7145 0.0938504 36.787 0.22858C36.9252 0.480767 37.0875 0.732954 37.167 1.00241C37.2844 1.41006 37.5746 1.74516 37.6195 2.17698C37.6229 2.20116 37.6229 2.23226 37.6368 2.25298C37.9787 2.75736 38.1031 3.36191 38.3725 3.90429C38.5625 4.29121 38.7697 4.69539 38.8699 5.13068C38.8872 5.20668 38.9321 5.27232 38.9666 5.34486C39.243 5.91487 39.4675 6.50561 39.6782 7.10326C39.7784 7.38654 40.0132 7.62836 40.0961 7.92546C40.2067 8.32274 40.4277 8.6682 40.5314 9.06894C40.6005 9.35221 40.787 9.6044 40.8975 9.87731C41.053 10.2573 41.2049 10.6408 41.3327 11.0277C41.3742 11.1555 41.4329 11.2695 41.4951 11.3801C41.768 11.8499 41.9269 12.3715 42.1272 12.8725C42.2827 13.2628 42.5279 13.629 42.6108 14.0228C42.6972 14.427 43.008 14.731 43.0219 15.1629C43.0253 15.2907 43.1393 15.4807 43.2464 15.6258C43.3707 15.7951 43.502 15.9816 43.502 16.2131C43.502 16.2787 43.5089 16.3409 43.5538 16.3996C43.8439 16.7831 43.837 17.3013 44.1272 17.6847C44.1686 18.2271 44.5244 18.6555 44.6971 19.153C44.8802 19.6711 45.1082 20.1893 45.3396 20.6972C45.533 21.1221 45.7817 21.5435 45.837 22.0272C45.8508 22.155 45.9441 22.2725 46.0063 22.3623C46.3033 22.7907 46.3655 23.3261 46.666 23.751C46.7731 23.903 46.7386 24.1276 46.8491 24.3003C46.8975 24.3798 46.8146 24.4454 46.7662 24.5041C46.6557 24.6354 46.5002 24.6596 46.3379 24.6596C45.9579 24.6527 45.5918 24.6527 45.2256 24.6561ZM35.2914 4.7334C35.3052 5.21704 34.9114 5.51414 34.9183 5.94942C34.6143 6.37779 34.528 6.9098 34.2655 7.3589C34.1066 7.63182 34.0997 7.9531 33.9442 8.22601C33.8302 8.42638 33.6575 8.62329 33.6299 8.83748C33.5746 9.26239 33.3363 9.60785 33.1878 9.98786C32.9632 10.5613 32.7145 11.1348 32.4347 11.691C32.3277 11.9052 32.4382 12.1021 32.6834 12.1297C32.7871 12.1401 32.8942 12.1332 32.9978 12.1332C34.4002 12.1332 35.8026 12.1332 37.205 12.1332C37.5055 12.1332 37.8095 12.1366 38.11 12.1297C38.4105 12.1228 38.4796 12.0054 38.3414 11.7324C38.3069 11.6634 38.2585 11.6046 38.2482 11.5217C38.2033 11.1313 37.8924 10.8273 37.8855 10.4266C37.5642 9.98441 37.4468 9.44894 37.2188 8.9653C37.1739 8.87202 37.0668 8.81329 37.0806 8.69238C37.1048 8.44365 36.9217 8.27092 36.8388 8.06019C36.7698 7.88746 36.6281 7.74236 36.597 7.55581C36.5314 7.14126 36.2654 6.80271 36.1653 6.39852C36.0755 6.03924 35.806 5.75942 35.7335 5.37941C35.699 5.16177 35.6161 4.88885 35.2914 4.7334Z" fill="white"/>
<path d="M74.1441 12.3819C74.1441 8.51274 74.1441 4.64703 74.1441 0.777864C74.1441 0.674225 74.1407 0.567132 74.1441 0.463494C74.151 0.187125 74.2892 0.0178489 74.5586 0.0143943C75.3047 0.00403044 76.0543 0.00403044 76.8004 0.0143943C77.094 0.0178489 77.2322 0.194034 77.2391 0.501495C77.2425 0.580951 77.2391 0.660407 77.2391 0.736409C77.2391 8.51274 77.2391 16.2856 77.2391 24.062C77.2391 24.6562 77.2184 24.6769 76.6208 24.6769C75.9783 24.6769 75.3358 24.6769 74.6934 24.6769C74.1407 24.6769 74.1407 24.6769 74.1407 24.1414C74.1441 20.2239 74.1441 16.3029 74.1441 12.3819Z" fill="white"/>
<path d="M53.4915 35.8456C53.4915 35.7213 53.4881 35.628 53.4915 35.5382C53.533 34.7194 53.7955 33.9974 54.3827 33.4067C54.5761 33.2132 54.7661 33.0129 54.9595 32.8194C55.1979 32.581 55.526 32.4947 55.8196 32.3738C56.21 32.2114 56.6314 32.163 57.0666 32.1492C57.6607 32.1285 58.165 32.3496 58.6866 32.5569C59.1875 32.7572 59.602 33.0785 59.9647 33.4723C60.0199 33.5311 60.0579 33.5967 60.0925 33.6658C60.1477 33.7694 60.1996 33.8765 60.2514 33.9836C60.4206 34.3325 60.5864 34.6745 60.6624 35.0718C60.7211 35.3793 60.7764 35.6798 60.7799 35.9942C60.7799 36.1497 60.7937 36.3086 60.6797 36.4433C60.6555 36.4709 60.6313 36.5158 60.6348 36.5504C60.6797 36.958 60.4241 37.262 60.2756 37.6006C60.1374 37.9184 59.9958 37.9391 59.6676 37.7906C59.3326 37.6386 59.0079 37.4728 58.6866 37.3C58.5761 37.2413 58.4828 37.2517 58.3757 37.3553C58.1581 37.5695 57.906 37.7353 57.5813 37.7526C57.5122 37.756 57.4604 37.7871 57.412 37.8355C57.3326 37.9253 57.2151 37.9288 57.1184 37.9046C56.5105 37.7526 55.8611 37.6731 55.4604 37.0962C55.3291 36.9062 55.2704 36.6644 55.1392 36.4813C55.0114 36.3051 54.9768 36.1358 54.9837 35.9389C55.0114 34.9924 55.4673 34.3222 56.3067 33.9042C56.4897 33.8109 56.7143 33.8385 56.8904 33.6969C56.9664 33.6347 57.9958 33.8696 58.0718 33.956C58.3723 34.298 58.7557 34.5605 58.9595 34.9924C59.0286 35.1409 59.0804 35.2722 59.0769 35.4345C59.0735 35.6833 59.0769 35.932 59.0804 36.1807C59.0839 36.3742 59.1944 36.5124 59.3705 36.5504C59.6469 36.6126 59.7367 36.5435 59.7298 36.3017C59.7194 35.9873 59.7263 35.6729 59.7263 35.3585C59.7263 35.2687 59.7022 35.1858 59.6607 35.0994C59.4845 34.7125 59.2151 34.3774 59.0217 33.9974C58.9733 33.9007 58.8835 33.804 58.7557 33.7798C58.6901 33.7694 58.6383 33.7418 58.583 33.6934C58.2479 33.3998 57.8542 33.2789 57.4155 33.2823C57.2704 33.2823 57.1253 33.2927 56.9837 33.2823C56.1651 33.2167 55.5398 33.6001 55.0528 34.1978C54.8076 34.5018 54.5692 34.8611 54.5865 35.2895C54.5969 35.5071 54.4069 35.628 54.4069 35.8387C54.4069 36.0495 54.583 36.1704 54.5934 36.3846C54.6176 36.844 54.8386 37.2344 55.1495 37.573C55.3706 37.8148 55.5951 38.0531 55.9129 38.1568C56.2134 38.2535 56.4967 38.4159 56.8317 38.4055C57.1599 38.3952 57.488 38.4055 57.8162 38.4021C57.9682 38.4021 58.0752 38.4401 58.0718 38.6162C58.0683 38.751 58.1167 38.8581 58.1927 38.9755C58.2756 39.1068 58.241 39.2381 58.0649 39.321C57.8507 39.4212 57.64 39.5041 57.3948 39.4799C57.2117 39.4626 57.0286 39.4834 56.8455 39.4764C56.0303 39.4523 55.3291 39.1586 54.7523 38.5782C54.6867 38.5126 54.621 38.4504 54.5519 38.3917C54.0822 38.0013 53.8404 37.4935 53.6366 36.9235C53.5019 36.5331 53.5191 36.1807 53.4915 35.8456ZM57.0252 36.9166C57.6504 36.9166 58.1789 36.3293 58.2272 35.8284C58.2687 35.362 57.6055 34.7298 57.0873 34.7574C56.4794 34.7885 56.1616 35.0614 56.0994 35.7247C56.0303 36.4502 56.5036 36.8648 57.0252 36.9166Z" fill="white"/>
<path d="M95.9194 37.908C95.985 37.5695 95.9436 37.2862 95.9608 37.0064C95.9712 36.8406 95.9194 36.6713 96.0748 36.5297C96.1508 36.4571 96.1197 36.3293 96.1197 36.2257C96.1232 35.8076 96.1163 35.3862 96.1232 34.9682C96.1266 34.6711 96.0783 34.3705 96.2544 34.0907C96.3028 34.0147 96.2786 33.8869 96.2786 33.7832C96.2821 33.272 96.2786 32.7607 96.2821 32.2494C96.2855 31.8279 96.4271 31.6863 96.8416 31.6794C97.2907 31.6725 97.3667 31.745 97.3736 32.1907C97.377 32.505 97.3701 32.8194 97.3771 33.1338C97.384 33.4378 97.384 33.7349 97.2043 34.0009C97.1283 34.1149 97.1525 34.2565 97.1525 34.3843C97.1491 34.868 97.1594 35.3551 97.1491 35.8387C97.1422 36.1324 97.2182 36.4398 97.0109 36.7093C96.966 36.768 96.9902 36.8889 96.9902 36.9788C96.9902 37.4106 96.9902 37.8424 96.9902 38.2777C96.9902 38.5506 97.0074 38.8235 96.8658 39.0826C96.7829 39.2312 96.8347 39.4177 96.8278 39.587C96.814 39.9117 96.7726 39.9532 96.4651 39.9635C96.0437 39.9774 95.7985 39.8392 95.643 39.4488C95.5463 39.2035 95.3598 39.0239 95.232 38.7993C94.9798 38.3571 94.6413 37.9702 94.4341 37.49C94.3512 37.3 94.1785 37.1239 94.0576 36.9304C93.9159 36.6955 93.8331 36.768 93.6223 36.9753C93.2942 37.3 93.2527 37.7975 92.8831 38.0808C92.6068 38.6784 92.1543 39.169 91.8365 39.739C91.7571 39.8841 91.6534 39.9463 91.5015 39.9635C90.8175 40.0361 90.7415 39.9635 90.7312 39.2692C90.7277 38.9341 90.8037 38.5886 90.5965 38.2742C90.5481 38.1982 90.5757 38.0704 90.5757 37.9668C90.5757 37.4175 90.5757 36.8648 90.5723 36.3155C90.5723 36.16 90.593 36.008 90.4583 35.8767C90.3581 35.78 90.3927 35.628 90.3927 35.5002C90.3927 34.9371 90.3927 34.374 90.3927 33.8109C90.3927 33.652 90.3996 33.493 90.2925 33.3583C90.2338 33.2789 90.2303 33.189 90.2303 33.0958C90.2303 32.7296 90.2234 32.3599 90.2338 31.9937C90.2407 31.7347 90.2821 31.6967 90.5308 31.6828C90.7001 31.6759 90.8728 31.6863 91.0421 31.6794C91.2424 31.6759 91.3288 31.7761 91.3288 31.9696C91.3288 32.3358 91.3288 32.7019 91.3322 33.0716C91.3322 33.189 91.3011 33.3307 91.3529 33.4205C91.5775 33.8005 91.4842 34.2082 91.498 34.6089C91.5084 34.9371 91.498 35.2653 91.5015 35.5935C91.5049 35.7869 91.4738 35.9838 91.6189 36.1531C91.6983 36.2464 91.6569 36.3811 91.6604 36.4986C91.6638 36.8509 91.6604 37.2068 91.6673 37.5591C91.6673 37.6213 91.6673 37.6904 91.7433 37.725C91.8193 37.7595 91.8814 37.7111 91.9125 37.6593C92.0749 37.3968 92.3167 37.1929 92.4859 36.9408C92.6552 36.6851 92.8141 36.4226 92.9971 36.1773C93.1284 36.0011 93.2044 35.7973 93.3115 35.6073C93.3253 35.5865 93.3149 35.5485 93.3322 35.5313C93.4704 35.3689 93.574 35.1271 93.8158 35.1202C94.0472 35.1133 94.2061 35.3378 94.2683 35.5002C94.3754 35.7869 94.6137 35.9631 94.7484 36.2326C94.9142 36.5607 95.1387 36.8786 95.3529 37.1791C95.5083 37.3968 95.6016 37.6973 95.9194 37.908Z" fill="white"/>
<path d="M147.394 37.4659C147.456 37.2724 147.435 37.1031 147.435 36.9338C147.439 35.3724 147.435 33.8143 147.435 32.2528C147.435 32.1596 147.432 32.0698 147.435 31.9765C147.449 31.707 147.466 31.6897 147.732 31.6759C147.85 31.669 147.967 31.6725 148.085 31.6759C148.409 31.6828 148.489 31.7554 148.516 32.0905C148.523 32.1803 148.52 32.2736 148.52 32.3668C148.52 34.6883 148.52 37.0064 148.52 39.3279C148.52 39.4212 148.523 39.511 148.516 39.6043C148.506 39.7735 148.444 39.9117 148.264 39.9566C148.04 40.0154 147.857 39.9532 147.774 39.7597C147.712 39.6215 147.622 39.5179 147.515 39.4246C147.394 39.321 147.28 39.2173 147.263 39.0446C147.259 39.0066 147.249 38.9548 147.221 38.9375C146.869 38.713 146.786 38.2708 146.472 38.0186C146.389 37.953 146.285 37.8735 146.285 37.7353C146.285 37.6904 146.257 37.6248 146.219 37.6006C145.867 37.3795 145.718 36.9822 145.484 36.6747C145.242 36.3569 144.921 36.084 144.762 35.6971C144.748 35.6625 144.72 35.6315 144.693 35.6038C144.316 35.2411 144.054 34.792 143.732 34.3878C143.687 34.3325 143.636 34.298 143.563 34.3187C143.508 34.336 143.48 34.3843 143.477 34.4362C143.47 34.5536 143.463 34.6711 143.463 34.7885C143.463 36.3362 143.463 37.8804 143.463 39.4281C143.463 39.5214 143.463 39.6112 143.463 39.7044C143.463 39.8634 143.377 39.9497 143.225 39.9566C143.028 39.9635 142.831 39.967 142.634 39.9566C142.478 39.9497 142.402 39.853 142.402 39.6975C142.402 39.6181 142.402 39.5386 142.402 39.4626C142.402 37.0513 142.402 34.64 142.402 32.2252C142.402 32.1976 142.399 32.1734 142.402 32.1458C142.427 31.9765 142.326 31.7588 142.586 31.6863C142.838 31.6172 143.124 31.707 143.249 31.9074C143.525 32.3599 143.891 32.7503 144.185 33.1856C144.399 33.5069 144.71 33.7591 144.862 34.1322C144.917 34.2703 145.1 34.3532 145.159 34.4914C145.321 34.8818 145.725 35.0994 145.853 35.5105C145.881 35.6004 145.974 35.6798 146.05 35.7489C146.174 35.8629 146.313 35.9596 146.323 36.1531C146.326 36.1842 146.358 36.2257 146.385 36.2464C146.744 36.4951 146.831 36.9684 147.187 37.2137C147.28 37.2724 147.259 37.4002 147.394 37.4659Z" fill="white"/>
<path d="M88.5999 35.7904C88.5999 36.008 88.5999 36.1911 88.5999 36.3742C88.5965 36.6057 88.5447 36.8095 88.4583 37.034C88.3478 37.3139 88.2269 37.5937 88.1198 37.877C88.068 38.0082 87.9816 38.0946 87.9022 38.1913C87.7813 38.3399 87.6051 38.4435 87.574 38.6612C87.5671 38.713 87.498 38.7682 87.4428 38.7959C86.9696 39.0515 86.631 39.5075 86.1129 39.6941C85.7606 39.8185 85.4221 39.9981 85.0318 39.9601C84.9419 39.9532 84.8487 39.9497 84.7554 39.9601C84.0439 40.0534 83.391 39.8219 82.7313 39.6146C82.6829 39.6008 82.6345 39.5732 82.5931 39.5421C82.0335 39.1863 81.5534 38.7337 81.1251 38.2328C80.942 38.0151 80.828 37.7284 80.7209 37.4555C80.4549 36.768 80.3444 36.7093 80.3582 35.8802C80.3651 35.4242 80.3444 34.9578 80.5413 34.5502C80.752 34.1114 80.8902 33.6243 81.2356 33.2581C81.4774 33.0025 81.695 32.7054 81.9782 32.5119C82.2649 32.315 82.4998 32.0352 82.8936 31.973C83.1147 31.9385 83.3737 31.8832 83.581 31.7347C83.6846 31.6587 83.8055 31.6725 83.923 31.6725C84.3547 31.6725 84.7865 31.6725 85.2217 31.6725C85.3979 31.6725 86.1267 31.935 86.4134 32.0698C86.6276 32.1699 86.8141 32.2908 86.9765 32.4636C87.0525 32.5465 87.1319 32.6432 87.2632 32.657C87.3495 32.6639 87.4048 32.7227 87.4462 32.7918C87.7813 33.348 88.2338 33.8212 88.4445 34.4776C88.5896 34.9371 88.5758 35.3724 88.5999 35.7904ZM87.5948 35.9182C87.5879 35.5244 87.5395 35.2238 87.4531 34.906C87.3081 34.3809 86.9592 34.0112 86.6898 33.5794C86.5896 33.4205 86.3858 33.4516 86.258 33.3238C85.8055 32.8643 85.1906 32.8056 84.6034 32.7399C83.9091 32.6605 83.2805 32.9438 82.7382 33.3341C82.1026 33.7901 81.5983 34.3774 81.5257 35.2204C81.5188 35.2825 81.505 35.362 81.467 35.4C81.353 35.5071 81.3669 35.6384 81.3772 35.7662C81.4083 36.2084 81.5292 36.6298 81.6985 37.0444C81.9575 37.6835 82.4169 38.1188 83.0007 38.4504C83.3599 38.6542 83.7433 38.8442 84.1509 38.8857C84.7554 38.9513 85.3599 38.9133 85.9057 38.5575C86.0473 38.4677 86.1647 38.3191 86.3133 38.2777C86.8279 38.1361 86.897 37.5902 87.2528 37.3069C87.3806 36.8268 87.6915 36.3846 87.5948 35.9182Z" fill="white"/>
<path d="M73.8263 35.8007C73.8263 34.6607 73.8263 33.5172 73.8263 32.3772C73.8263 32.2978 73.8229 32.2183 73.8263 32.1423C73.8436 31.8279 73.9749 31.6794 74.2858 31.6794C75.322 31.6725 76.3583 31.6552 77.3945 31.6897C77.7123 31.7001 78.0508 31.8072 78.3133 32.0317C78.3721 32.0836 78.4204 32.1423 78.5033 32.1596C78.7037 32.201 78.8038 32.353 78.8833 32.5223C78.9109 32.581 78.9351 32.6467 78.9765 32.695C79.4601 33.2478 79.4429 33.9214 79.3634 34.5709C79.322 34.9129 79.1009 35.2376 78.866 35.514C78.6035 35.8215 78.2788 36.0426 77.9265 36.236C77.7365 36.3397 77.6536 36.5158 77.7641 36.6747C77.961 36.958 77.9886 37.338 78.2857 37.5522C78.3893 37.6248 78.3513 37.7457 78.4032 37.832C78.6208 38.181 78.828 38.5368 78.9696 38.9168C79.0836 39.2139 79.3669 39.3901 79.4498 39.7044C79.4981 39.8945 79.4947 39.9394 79.3012 39.9497C79.0802 39.9601 78.8522 39.9705 78.6311 39.9497C78.3099 39.9221 78.1441 39.6699 77.9921 39.4281C77.8885 39.2623 77.8298 39.0688 77.7365 38.8995C77.3185 38.143 76.8868 37.3933 76.4861 36.6264C76.3928 36.4502 76.2926 36.4087 76.1234 36.4122C75.8747 36.4157 75.626 36.4087 75.3773 36.4157C75.0526 36.426 75.018 36.4571 75.018 36.7853C75.0146 37.6248 75.0146 38.4642 75.0146 39.3037C75.0146 39.9705 75.0008 39.9808 74.3307 39.9566C73.9611 39.9428 73.8229 39.8012 73.8229 39.4177C73.8263 38.2155 73.8263 37.0098 73.8263 35.8007ZM76.2788 32.695C75.9783 32.695 75.6778 32.6881 75.3738 32.695C75.0595 32.7019 75.0042 32.7538 75.0008 33.0647C74.9939 33.7314 74.9939 34.4016 75.0008 35.0684C75.0042 35.3827 75.0457 35.4173 75.3773 35.4207C75.7952 35.4242 76.2167 35.4311 76.6346 35.4207C77.1527 35.4069 77.6156 35.2618 77.9886 34.8611C78.4239 34.3878 78.4653 34.0942 78.2097 33.5311C77.9334 32.923 77.4947 32.6398 76.828 32.695C76.645 32.7089 76.4619 32.695 76.2788 32.695Z" fill="white"/>
<path d="M105.163 35.7835C105.163 34.564 105.163 33.3445 105.163 32.125C105.163 31.6967 105.18 31.6828 105.601 31.6759C106.261 31.669 106.261 31.669 106.261 32.3185C106.261 33.1303 106.258 33.9456 106.261 34.7574C106.265 35.1547 106.299 35.1927 106.683 35.1962C107.681 35.1996 108.676 35.1996 109.674 35.1962C110.03 35.1962 110.04 35.1824 110.044 34.8093C110.047 33.9698 110.044 33.1303 110.047 32.2908C110.047 31.8003 110.161 31.6725 110.638 31.6828C111.19 31.6897 111.242 31.5308 111.242 32.2701C111.239 34.6573 111.242 37.0409 111.242 39.4281C111.242 39.5075 111.246 39.587 111.239 39.663C111.221 39.9117 111.183 39.9497 110.928 39.9601C110.783 39.967 110.638 39.9635 110.496 39.9601C110.054 39.9566 110.05 39.9566 110.05 39.5248C110.05 38.6853 110.054 37.8459 110.05 37.0064C110.047 36.3569 110.126 36.4157 109.463 36.4122C108.586 36.4087 107.705 36.4122 106.828 36.4122C106.734 36.4122 106.645 36.4157 106.551 36.4122C106.351 36.4053 106.268 36.502 106.268 36.6989C106.272 36.9857 106.268 37.2759 106.268 37.5626C106.268 38.219 106.272 38.8719 106.268 39.5283C106.265 39.8772 106.199 39.9463 105.857 39.9532C105.059 39.9705 105.17 39.9221 105.17 39.3141C105.163 38.143 105.163 36.9615 105.163 35.7835Z" fill="white"/>
<path d="M35.1014 37.1688C35.1014 37.535 35.1014 37.9011 35.1014 38.2708C35.1014 38.3744 35.1221 38.485 35.0288 38.5644C34.7594 38.7959 34.6005 39.1552 34.2275 39.2692C34.2033 39.2761 34.1791 39.2933 34.1618 39.3106C33.7715 39.7355 33.2016 39.7528 32.7076 39.9324C32.4278 40.0326 32.0859 39.9463 31.7715 39.9635C31.1118 39.9981 30.5246 39.8357 29.9685 39.4695C29.7819 39.3486 29.6127 39.2243 29.4538 39.0688C29.3847 38.9997 29.326 38.8995 29.2016 38.8995C29.0669 38.8995 28.9667 38.7821 28.9322 38.6992C28.7353 38.2362 28.269 37.9495 28.155 37.4348C28.0721 37.0686 27.8338 36.7473 27.8718 36.3431C27.8994 36.046 27.8959 35.7385 27.8752 35.438C27.8199 34.7367 28.1792 34.1632 28.4417 33.5587C28.9218 33.1649 29.2293 32.5845 29.8165 32.3047C29.965 32.2321 30.0583 32.0767 30.2172 32.0007C30.4313 31.8936 30.6835 31.9074 30.8735 31.8176C31.357 31.593 31.851 31.7277 32.3311 31.6656C32.718 31.6172 33.0461 31.7865 33.3777 31.9108C33.661 32.0145 33.9408 32.163 34.2137 32.3047C34.4105 32.4048 34.5522 32.543 34.6903 32.6916C34.9459 32.9645 34.9425 32.9714 34.6834 33.2547C34.6109 33.3307 34.5383 33.4067 34.4589 33.4758C34.3035 33.6174 34.1342 33.6347 33.965 33.5C33.5504 33.1718 33.0634 32.9887 32.5695 32.8229C32.3139 32.7365 32.041 32.7434 31.7923 32.7814C31.2361 32.8643 30.6766 32.9369 30.1999 33.3203C29.9788 33.5 29.7785 33.6554 29.6196 33.9076C29.4745 34.1425 29.2534 34.3256 29.1291 34.5951C28.8597 35.1789 28.8562 35.7904 28.8907 36.4122C29.1464 36.768 29.1084 37.2655 29.4814 37.5833C29.6299 37.7111 29.661 37.9875 29.8614 38.098C30.2621 38.3157 30.5937 38.637 31.0669 38.7544C31.3467 38.8235 31.6161 38.8788 31.9028 38.8892C32.3691 38.9064 32.7974 38.7855 33.2016 38.561C33.3397 38.485 33.4848 38.4297 33.6299 38.3675C33.8026 38.2915 33.8924 38.1602 33.8959 37.9702C33.8959 37.6559 33.8924 37.3415 33.8959 37.0271C33.8993 36.8198 33.7888 36.7542 33.5988 36.7577C33.3639 36.7611 33.1256 36.7611 32.8907 36.7577C32.5729 36.7508 32.5418 36.7266 32.5418 36.426C32.5384 35.7006 32.4727 35.7524 33.1774 35.7524C33.7266 35.7524 34.2793 35.7558 34.8285 35.7524C35.0288 35.7489 35.1083 35.8249 35.1048 36.0287C35.0945 36.4087 35.1014 36.7888 35.1014 37.1688Z" fill="white"/>
<path d="M72.1614 37.1653C72.1614 37.5315 72.1545 37.9011 72.1649 38.2673C72.1683 38.4262 72.1303 38.5541 72.0163 38.6542C71.7642 38.8719 71.512 39.093 71.2668 39.3106C70.835 39.6906 70.3031 39.739 69.8195 39.9324C69.5777 40.0292 69.3014 39.9566 69.0388 39.9635C68.2962 39.9877 67.5984 39.8323 66.956 39.4488C66.614 39.245 66.4067 38.903 66.1062 38.6612C66.0268 38.5955 65.9681 38.5057 65.8886 38.4366C65.4672 38.0704 65.2807 37.5833 65.0907 37.0686C64.8316 36.3569 64.9802 35.6487 64.9767 34.944C64.9767 34.602 65.1632 34.2496 65.329 33.9214C65.6365 33.31 66.1511 32.8781 66.6382 32.4394C66.9905 32.1216 67.4706 31.9834 67.93 31.8176C68.5138 31.6068 69.0906 31.7381 69.664 31.6725C69.9197 31.6448 70.0958 31.821 70.3272 31.8694C70.8557 31.9868 71.3186 32.2701 71.7193 32.6467C71.7573 32.6812 71.7918 32.7227 71.8298 32.7572C71.9922 32.9023 71.9783 33.044 71.8229 33.1856C71.7746 33.2305 71.7297 33.2789 71.6847 33.3272C71.329 33.6865 71.2944 33.6623 70.8661 33.3894C70.2098 32.9645 69.4913 32.6639 68.6934 32.7952C68.0717 32.8989 67.4326 33.0232 67.0216 33.6036C66.8972 33.7798 66.7107 33.9145 66.5553 34.07C66.3204 34.3014 66.2168 34.5951 66.0959 34.8991C65.9197 35.3344 65.937 35.7731 65.975 36.2015C66.0164 36.6748 66.1408 37.148 66.4931 37.5108C66.538 37.5557 66.6036 37.5902 66.6071 37.6628C66.6174 37.908 66.8109 38.029 66.9732 38.1395C67.4257 38.4573 67.8989 38.7717 68.4551 38.8581C68.8592 38.9202 69.2737 38.941 69.6917 38.7993C69.9576 38.7095 70.2098 38.5748 70.4965 38.5333C70.8039 38.485 71.1286 38.0497 71.1355 37.7353C71.139 37.5004 71.1321 37.262 71.1355 37.0271C71.139 36.844 71.0526 36.7646 70.873 36.768C70.5725 36.768 70.2685 36.7715 69.968 36.7646C69.6295 36.7577 69.6122 36.7438 69.6122 36.4018C69.6088 35.7109 69.5466 35.7558 70.2374 35.7593C70.7867 35.7593 71.3393 35.7627 71.8885 35.7593C72.0854 35.7558 72.1752 35.8249 72.1683 36.0322C72.1545 36.4053 72.1614 36.7853 72.1614 37.1653Z" fill="white"/>
<path d="M135.501 35.7973C135.501 34.6158 135.501 33.4378 135.501 32.2563C135.501 32.1388 135.498 32.0179 135.518 31.9039C135.546 31.7623 135.625 31.6656 135.788 31.6759C135.853 31.6794 135.919 31.6759 135.985 31.6759C137.532 31.6759 139.08 31.6759 140.627 31.6759C141.055 31.6759 141.062 31.6863 141.073 32.1147C141.086 32.733 141.086 32.733 140.485 32.733C139.397 32.733 138.309 32.733 137.221 32.733C137.128 32.733 137.038 32.7296 136.945 32.733C136.637 32.7469 136.606 32.7745 136.596 33.075C136.589 33.3514 136.593 33.6243 136.593 33.9007C136.593 34.2289 136.586 34.5571 136.596 34.8853C136.603 35.21 136.634 35.2411 136.966 35.2445C137.712 35.2514 138.461 35.2653 139.207 35.2411C139.877 35.2204 139.936 35.4104 139.909 35.9666C139.891 36.2844 139.767 36.4122 139.446 36.4157C138.751 36.4226 138.057 36.4122 137.359 36.4191C136.472 36.426 136.603 36.2982 136.593 37.1895C136.586 37.649 136.589 38.1084 136.593 38.5644C136.596 38.8857 136.606 38.8995 136.928 38.8995C138.133 38.903 139.339 38.8995 140.548 38.903C141.066 38.903 141.066 38.903 141.069 39.4212C141.069 39.4868 141.073 39.5524 141.069 39.6181C141.052 39.9117 141.014 39.9566 140.717 39.9601C139.929 39.9635 139.145 39.9635 138.358 39.9635C137.57 39.9635 136.786 39.967 135.998 39.9635C135.567 39.9635 135.501 39.8945 135.498 39.4557C135.501 38.2362 135.501 37.0168 135.501 35.7973Z" fill="white"/>
<path d="M21.4919 35.8249C21.4919 34.6331 21.4919 33.4378 21.4919 32.2459C21.4919 32.1527 21.4884 32.0628 21.4919 31.9696C21.5057 31.7001 21.5195 31.6794 21.7924 31.6794C22.3969 31.6725 22.9979 31.6759 23.6024 31.6759C24.573 31.6759 25.5436 31.6759 26.5143 31.6759C26.6179 31.6759 26.725 31.6794 26.8286 31.6794C26.9668 31.6794 27.0566 31.7416 27.06 31.8867C27.0669 32.0974 27.0635 32.3047 27.0635 32.5154C27.0635 32.6432 26.9875 32.7054 26.87 32.7227C26.6766 32.7538 26.4832 32.7779 26.2828 32.7779C25.2224 32.7745 24.1585 32.7779 23.0981 32.7779C22.9944 32.7779 22.8874 32.7779 22.7837 32.7814C22.6007 32.7849 22.4936 32.8539 22.497 33.0647C22.5074 33.6796 22.497 34.298 22.5039 34.9129C22.5074 35.1444 22.573 35.2169 22.8079 35.2342C23.0704 35.2514 23.3329 35.2445 23.5955 35.2445C24.1861 35.2445 24.7768 35.2411 25.364 35.248C25.7198 35.2514 25.7474 35.2825 25.7474 35.6315C25.7474 36.5227 25.8234 36.4122 24.9771 36.4191C24.2967 36.4226 23.6127 36.4191 22.9323 36.4226C22.5074 36.426 22.5039 36.4295 22.5039 36.8682C22.5039 37.4313 22.5005 37.9944 22.5039 38.5575C22.5074 38.8719 22.5247 38.8961 22.839 38.903C23.364 38.9133 23.8891 38.9064 24.4107 38.9064C25.1706 38.9064 25.9305 38.903 26.6904 38.9099C27.0462 38.9133 27.0635 38.9306 27.0635 39.2933C27.06 39.9428 27.1636 39.9705 26.4141 39.967C24.9461 39.9635 23.478 39.967 22.01 39.967C21.9064 39.967 21.7993 39.967 21.6957 39.9601C21.5713 39.9532 21.5057 39.8806 21.4953 39.7597C21.4884 39.6561 21.4919 39.549 21.4919 39.4454C21.4919 38.2362 21.4919 37.0306 21.4919 35.8249Z" fill="white"/>
<path d="M132.565 35.7524C132.865 35.7524 133.169 35.7558 133.47 35.7524C133.598 35.7524 133.694 35.7938 133.781 35.8871C133.884 35.9976 133.777 36.0736 133.76 36.1669C133.736 36.3189 133.736 36.4778 133.736 36.6367C133.732 37.0168 133.736 37.3968 133.736 37.7768C133.736 37.87 133.712 37.9737 133.746 38.0497C133.947 38.4988 133.677 38.7924 133.37 39.0066C132.99 39.2692 132.624 39.5766 132.168 39.7183C131.826 39.8219 131.504 40.0015 131.125 39.967C130.917 39.9463 130.703 39.9497 130.496 39.967C129.767 40.0292 129.142 39.7321 128.558 39.3659C128.202 39.1413 127.808 38.941 127.553 38.5748C127.252 38.1395 126.917 37.7388 126.769 37.2033C126.703 36.9649 126.651 36.7369 126.641 36.4951C126.638 36.4157 126.62 36.3466 126.579 36.274C126.423 35.9942 126.434 35.7006 126.562 35.4173C126.613 35.3067 126.644 35.1962 126.641 35.0787C126.631 34.6676 126.758 34.2842 126.962 33.9422C127.242 33.4758 127.525 32.9887 127.964 32.6605C128.444 32.3012 128.966 32.011 129.56 31.8141C130.199 31.5999 130.824 31.7554 131.449 31.6828C131.802 31.8694 132.22 31.8797 132.558 32.1319C132.779 32.2978 132.99 32.4912 133.266 32.5949C133.542 32.6985 133.584 33.006 133.394 33.2443C133.183 33.5138 132.879 33.6278 132.558 33.341C132.285 33.0958 131.943 32.923 131.567 32.8643C131.529 32.8574 131.477 32.8643 131.453 32.8401C131.159 32.543 130.786 32.7089 130.447 32.6709C130.354 32.6605 130.268 32.695 130.199 32.7641C130.14 32.8229 130.064 32.847 129.985 32.8539C129.259 32.9161 128.71 33.3065 128.285 33.8489C127.878 34.3705 127.546 34.944 127.615 35.6556C127.636 35.8629 127.643 36.0771 127.612 36.2844C127.567 36.6022 127.819 36.844 127.798 37.148C128.116 37.3277 128.168 37.7146 128.454 37.9426C128.793 38.2121 129.128 38.4642 129.525 38.6335C129.808 38.7544 130.092 38.8719 130.406 38.8892C130.862 38.9168 131.318 38.8995 131.736 38.7095C131.992 38.5955 132.23 38.4435 132.489 38.333C132.596 38.2881 132.686 38.1741 132.682 38.0151C132.672 37.6731 132.675 37.3346 132.682 36.9926C132.686 36.8268 132.613 36.7577 132.447 36.7577C132.185 36.7611 131.922 36.7611 131.66 36.7577C131.373 36.7508 131.359 36.7438 131.359 36.4778C131.363 35.6038 131.259 35.7731 132.043 35.7558C132.223 35.7489 132.392 35.7524 132.565 35.7524Z" fill="white"/>
<path d="M125.394 39.9601C124.831 39.9635 124.752 39.9048 124.658 39.3486C124.606 39.0446 124.427 38.8028 124.282 38.5506C124.137 38.2984 124.175 37.991 123.992 37.7595C123.798 37.5177 123.812 37.1895 123.663 36.92C123.601 36.806 123.543 36.7646 123.435 36.7646C122.582 36.7646 121.733 36.7646 120.879 36.7646C120.765 36.7646 120.645 36.7991 120.613 36.8993C120.537 37.1204 120.313 37.2655 120.316 37.5177C120.316 37.649 120.22 37.7284 120.185 37.839C120.023 38.3157 119.777 38.7648 119.646 39.2553C119.612 39.3901 119.532 39.5179 119.46 39.6423C119.332 39.8599 119.156 39.9981 118.883 39.9705C118.793 39.9601 118.7 39.9739 118.607 39.967C118.271 39.9497 118.233 39.8634 118.341 39.5524C118.486 39.1275 118.776 38.751 118.876 38.333C118.973 37.9322 119.301 37.6213 119.277 37.186C119.273 37.1135 119.37 37.0375 119.408 36.9546C119.636 36.4744 119.833 35.9735 120.037 35.4864C120.309 34.83 120.607 34.1805 120.845 33.5138C120.983 33.1234 121.239 32.7779 121.287 32.353C121.301 32.2287 121.38 32.1077 121.449 31.9972C121.581 31.7899 121.746 31.6656 122.023 31.6725C122.679 31.6863 122.7 31.6794 122.834 32.3358C122.862 32.4739 122.962 32.5569 123.007 32.6812C123.17 33.1545 123.415 33.6071 123.574 34.0734C123.715 34.4845 123.981 34.8473 124.037 35.2964C124.064 35.5002 124.206 35.6971 124.32 35.8836C124.53 36.2291 124.634 36.6264 124.772 36.9926C124.917 37.3829 125.132 37.7388 125.27 38.1222C125.467 38.675 125.674 39.2173 125.929 39.7459C125.988 39.8703 125.926 39.9497 125.791 39.9566C125.657 39.9635 125.525 39.9601 125.394 39.9601ZM122.157 33.4516C121.978 33.5483 121.916 33.6692 121.84 33.7936C121.67 34.0631 121.674 34.3913 121.512 34.6607C121.387 34.8749 121.266 35.0925 121.176 35.324C121.073 35.5935 121.187 35.7455 121.474 35.7524C121.788 35.7593 122.102 35.7593 122.413 35.7524C122.641 35.7489 122.876 35.78 123.132 35.7178C122.824 34.9302 122.562 34.1667 122.157 33.4516Z" fill="white"/>
<path d="M43.0391 39.9601C42.9355 39.9601 42.8284 39.9601 42.7248 39.9601C42.5866 39.9601 42.5244 39.891 42.4761 39.7597C42.2516 39.1241 42.034 38.485 41.6885 37.9011C41.5711 37.7008 41.6125 37.4417 41.4606 37.2551C41.4536 37.2448 41.4571 37.2309 41.4502 37.2171C41.3327 36.8958 41.1531 36.7266 40.7594 36.7508C40.0927 36.7922 39.4226 36.768 38.7559 36.7577C38.5279 36.7542 38.3587 36.7888 38.2447 37.0168C38.1238 37.2551 37.9995 37.4797 37.9235 37.7457C37.844 38.029 37.6506 38.2777 37.5608 38.5575C37.433 38.9652 37.1843 39.3279 37.0945 39.7494C37.0599 39.9083 36.9736 39.967 36.8216 39.967C36.6109 39.9635 36.4002 39.9739 36.1929 39.9635C35.9718 39.9532 35.8924 39.8219 35.9857 39.6181C36.0686 39.4315 36.1687 39.2519 36.2724 39.0757C36.4692 38.7337 36.5694 38.3502 36.7076 37.991C36.8561 37.6006 37.1221 37.2482 37.1912 36.8578C37.2672 36.4433 37.6126 36.1427 37.5919 35.7109C37.5919 35.6971 37.5953 35.6833 37.6022 35.6729C37.9304 35.1858 38.0374 34.602 38.3034 34.0872C38.4796 33.7452 38.6212 33.3825 38.7317 33.0129C38.8595 32.5879 39.0944 32.2114 39.2671 31.8072C39.35 31.6103 40.2136 31.6103 40.3069 31.8037C40.4381 32.0836 40.6108 32.3461 40.6661 32.6605C40.7248 32.9714 40.9735 33.2063 41.0461 33.5103C41.1497 33.9525 41.4433 34.3153 41.5296 34.7678C41.5745 34.9993 41.73 35.2135 41.8509 35.4242C42.0063 35.6936 42.0167 36.008 42.1652 36.2775C42.407 36.7162 42.4623 37.2413 42.7973 37.6386C42.7662 38.0566 43.1048 38.3537 43.1669 38.7579C43.2049 39.0135 43.4156 39.2553 43.5331 39.511C43.6989 39.8668 43.654 39.9532 43.2775 39.9635C43.1946 39.9635 43.1186 39.9601 43.0391 39.9601ZM39.7818 35.7489C40.0547 35.7489 40.331 35.7524 40.6039 35.7455C40.7421 35.742 40.8768 35.6487 40.7939 35.5313C40.5314 35.1651 40.5141 34.7022 40.2827 34.3291C40.1445 34.108 40.0132 33.88 39.9614 33.6209C39.9373 33.5103 39.8993 33.4101 39.768 33.4205C39.6644 33.4309 39.6195 33.5103 39.6057 33.614C39.5746 33.8661 39.4226 34.07 39.312 34.2911C39.2361 34.4431 39.1082 34.5847 39.091 34.7402C39.0633 34.9993 38.9321 35.2031 38.8354 35.4276C38.7283 35.666 38.7456 35.7316 38.9977 35.7455C39.2602 35.7593 39.5228 35.7489 39.7818 35.7489Z" fill="white"/>
<path d="M154.147 39.9601C154.053 39.9601 153.964 39.9532 153.87 39.9601C153.332 40.0084 152.865 39.7735 152.382 39.5939C151.705 39.3452 151.256 38.8062 150.765 38.3226C150.537 38.0981 150.451 37.7699 150.292 37.4935C149.86 36.7404 149.86 35.9044 149.946 35.0822C149.978 34.7989 150.116 34.4914 150.247 34.2082C150.53 33.5932 150.917 33.0647 151.418 32.6087C151.732 32.3219 152.126 32.1838 152.492 31.9937C153.211 31.6137 153.984 31.6552 154.758 31.6725C154.851 31.6759 154.938 31.6759 155.003 31.7588C155.066 31.8348 155.166 31.8417 155.259 31.8348C155.622 31.8107 155.888 32.0387 156.178 32.1941C156.247 32.2321 156.295 32.2978 156.309 32.3807C156.357 32.6639 156.129 32.7952 155.977 32.968C155.863 33.0992 155.736 33.1165 155.559 33.0301C155.321 32.9092 155.031 32.885 154.793 32.7952C154.523 32.6916 154.275 32.6639 154.005 32.6605C153.701 32.657 153.235 32.8298 152.952 33.0336C152.9 33.0716 152.831 33.082 152.772 33.1096C152.022 33.4723 151.539 34.0769 151.211 34.8231C151.242 35.1789 150.993 35.4864 151.017 35.8422C151.028 35.9976 150.996 36.1566 151.124 36.2878C151.155 36.3189 151.169 36.3811 151.173 36.4329C151.204 37.0686 151.573 37.5039 151.977 37.953C152.247 38.2501 152.627 38.3779 152.879 38.6784C152.893 38.6957 152.924 38.7095 152.948 38.713C153.511 38.7752 154.064 38.9997 154.637 38.8753C154.969 38.8028 155.294 38.6612 155.597 38.5057C155.743 38.4331 155.822 38.4746 155.908 38.5402C156.551 39.017 156.523 39.3279 155.808 39.6492C155.28 39.8841 154.734 40.043 154.147 39.9601Z" fill="white"/>
<path d="M162.837 31.7001C162.858 31.935 162.723 32.0939 162.616 32.2494C162.344 32.6432 162.167 33.1061 161.863 33.4689C161.566 33.8178 161.428 34.2531 161.138 34.6054C160.848 34.9647 160.616 35.3862 160.43 35.818C160.385 35.9182 160.402 36.0495 160.399 36.1669C160.395 37.2655 160.399 38.3675 160.399 39.4661C160.399 39.5594 160.399 39.6492 160.395 39.7424C160.392 39.8634 160.326 39.9359 160.205 39.9566C160.192 39.9601 160.178 39.9601 160.167 39.9601C159.466 40.0706 159.366 39.9843 159.366 39.2795C159.366 38.219 159.356 37.1584 159.369 36.0978C159.376 35.6245 159.148 35.2445 158.91 34.8853C158.648 34.488 158.34 34.1252 158.14 33.6796C158.029 33.4343 157.867 33.2063 157.691 32.999C157.418 32.6778 157.325 32.2528 157.031 31.9454C156.938 31.8487 157.014 31.6967 157.155 31.6897C157.456 31.6725 157.756 31.6794 158.057 31.6863C158.102 31.6863 158.178 31.7243 158.185 31.7588C158.247 32.0387 158.509 32.1838 158.613 32.4498C158.765 32.8401 159.024 33.189 159.293 33.5207C159.421 33.6761 159.47 33.8696 159.566 34.0389C159.618 34.1287 159.649 34.2289 159.729 34.3049C159.888 34.4569 159.953 34.4465 160.091 34.2703C160.54 33.7003 160.862 33.0578 161.238 32.4428C161.363 32.239 161.525 32.049 161.649 31.8383C161.698 31.7588 161.77 31.6725 161.898 31.6759C162.209 31.6897 162.52 31.6552 162.837 31.7001Z" fill="white"/>
<path d="M100.648 36.3777C100.648 35.3274 100.648 34.2807 100.648 33.2305C100.648 32.809 100.621 32.7849 100.203 32.7779C99.7846 32.7745 99.3632 32.7814 98.9418 32.7745C98.5377 32.771 98.4513 32.6847 98.4444 32.2943C98.434 31.6932 98.4513 31.6759 99.042 31.6759C100.562 31.6759 102.085 31.6759 103.605 31.6759C103.999 31.6759 103.999 31.6794 104.009 32.0628C104.03 32.7779 104.03 32.7779 103.311 32.7779C102.866 32.7779 102.42 32.771 101.975 32.7814C101.712 32.7883 101.691 32.8159 101.678 33.082C101.674 33.1856 101.678 33.2927 101.678 33.3963C101.678 35.4035 101.678 37.4071 101.678 39.4143C101.678 39.5179 101.678 39.625 101.674 39.7286C101.671 39.8668 101.598 39.9359 101.456 39.9566C100.759 40.0706 100.645 39.9808 100.645 39.2864C100.648 38.3191 100.648 37.3484 100.648 36.3777Z" fill="white"/>
<path d="M15.4401 35.7938C15.4401 34.602 15.4401 33.4101 15.4401 32.2183C15.4401 32.1147 15.4401 32.0076 15.4436 31.9039C15.4505 31.7692 15.5092 31.6794 15.6577 31.6794C15.6715 31.6794 15.6854 31.6794 15.6957 31.6794C16.5075 31.6863 16.4695 31.5619 16.4695 32.3807C16.4695 34.2807 16.4695 36.1773 16.4695 38.0773C16.4695 38.1568 16.4695 38.2328 16.4695 38.3122C16.4695 38.8892 16.4695 38.8892 17.029 38.8892C17.8546 38.8892 18.6801 38.8892 19.5057 38.8892C20.3174 38.8926 20.1862 38.8719 20.1965 39.5939C20.2 39.9048 20.1482 39.9601 19.8304 39.9601C18.4936 39.9635 17.1568 39.9635 15.8201 39.9601C15.4816 39.9601 15.4401 39.9152 15.4401 39.5663C15.4401 38.3088 15.4401 37.0513 15.4401 35.7938Z" fill="white"/>
<path d="M44.7973 35.8042C44.7973 34.5985 44.7973 33.3894 44.7973 32.1838C44.7973 32.0801 44.7973 31.973 44.8042 31.8694C44.8111 31.745 44.8871 31.6932 45.008 31.6759C45.7368 31.5654 45.8267 31.6379 45.8267 32.3738C45.8267 34.3153 45.8267 36.2567 45.8267 38.1982C45.8267 38.2915 45.8267 38.3813 45.8267 38.4746C45.837 38.8442 45.8716 38.8857 46.2343 38.8892C46.7317 38.8926 47.2325 38.8892 47.7299 38.8892C48.2031 38.8892 48.6729 38.8857 49.1461 38.8926C49.5157 38.8995 49.5226 38.9168 49.533 39.2692C49.5503 39.9601 49.5503 39.9601 48.856 39.9601C47.6885 39.9601 46.521 39.9601 45.3534 39.9601C45.2498 39.9601 45.1427 39.9635 45.0391 39.9532C44.8871 39.9394 44.8008 39.8599 44.8008 39.6975C44.8008 39.6043 44.8008 39.5144 44.8008 39.4212C44.7973 38.219 44.7973 37.0133 44.7973 35.8042Z" fill="white"/>
</g>
</g>
<defs>
<clipPath id="clip0_1500_6025">
<rect width="180" height="40" fill="white"/>
</clipPath>
</defs>
</svg>
