<svg width="240" height="80" viewBox="0 0 240 80" fill="none" xmlns="http://www.w3.org/2000/svg">
<path fill-rule="evenodd" clip-rule="evenodd" d="M31.3782 16.0354C30.8919 16.0519 29.6891 16.0855 28.7054 16.1101C27.7217 16.1348 26.6455 16.1727 26.314 16.1944C25.9824 16.2162 25.2499 16.2513 24.6862 16.2724C23.0719 16.333 21.0501 16.4331 20.5665 16.4763C20.3233 16.498 19.7084 16.5357 19.1999 16.56C17.7286 16.6304 17.1706 16.7163 16.7482 16.9376C16.6819 16.9723 16.6065 17.0008 16.5807 17.001C16.555 17.0011 16.5278 17.0148 16.5204 17.0315C16.5131 17.0481 16.4257 17.1161 16.3262 17.1825C15.9626 17.4253 15.5351 17.9086 15.3449 18.2919C15.0406 18.905 14.9999 19.2025 15 20.8128C15.0001 22.2157 15.0417 22.7306 15.1794 23.0312C15.2098 23.0977 15.2472 23.2021 15.2623 23.2631C15.2775 23.3241 15.306 23.374 15.3257 23.374C15.3455 23.374 15.3616 23.3992 15.3616 23.4299C15.3616 23.4607 15.4331 23.5933 15.5205 23.7247C16.0065 24.4551 16.7758 24.9458 17.6324 25.0718C17.8773 25.1079 26.1705 25.072 38.2109 24.9827L44.6416 24.9351L45.0235 25.0228C45.6195 25.1598 46.1099 25.4247 46.4905 25.8151C46.7785 26.1106 46.8934 26.2555 46.9516 26.3964C46.9797 26.4644 47.0185 26.5201 47.0379 26.5201C47.0574 26.5201 47.0733 26.54 47.0733 26.5644C47.0733 26.5888 47.0995 26.6659 47.1315 26.7358C47.3271 27.1631 47.3688 27.3767 47.3688 27.952C47.3688 28.5272 47.3271 28.7409 47.1315 29.1681C47.0995 29.238 47.0733 29.3068 47.0733 29.321C47.0733 29.3353 47.0547 29.3688 47.032 29.3956C47.0093 29.4224 46.9325 29.5351 46.8613 29.646C46.6863 29.9185 46.2608 30.3296 45.9892 30.4885C45.5677 30.7351 45.3195 30.8296 44.8627 30.9173C44.7632 30.9364 42.1407 30.9547 39.0348 30.9579C35.929 30.9611 33.2883 30.9786 33.1667 30.997C32.75 31.0598 32.1217 31.2598 32.1217 31.3298C32.1217 31.3465 32.0991 31.3602 32.0714 31.3602C31.9423 31.3602 31.4191 31.8014 31.1392 32.1462C30.8407 32.514 30.6735 32.8748 30.5511 33.4152C30.485 33.7069 30.4739 33.9165 30.4739 34.8691C30.4739 35.8355 30.4845 36.0314 30.555 36.3552C30.5996 36.5603 30.6523 36.7591 30.6722 36.7969C30.6921 36.8348 30.7573 36.9657 30.8171 37.0877C30.9622 37.384 31.1728 37.6711 31.4178 37.9066C31.6359 38.1163 32.0014 38.3784 32.0757 38.3784C32.101 38.3784 32.1217 38.3943 32.1217 38.4138C32.1217 38.4333 32.2258 38.4866 32.3528 38.5324C32.9704 38.7546 33.389 38.811 33.9304 38.7446C35.082 38.6036 36.542 38.5287 38.4922 38.5107C40.5059 38.4922 41.0882 38.5163 42.1899 38.6637C42.9684 38.7677 43.9128 38.9888 44.2047 39.1353C44.2461 39.1561 44.3703 39.2166 44.4809 39.2698C44.9747 39.5075 45.2981 39.8345 45.5441 40.3448C45.6056 40.4723 45.6695 40.6401 45.686 40.7178C45.7025 40.7954 45.7303 40.8771 45.7478 40.8993C45.7653 40.9214 45.8023 41.1536 45.83 41.4151C45.8702 41.7938 45.8704 41.9947 45.831 42.4025C45.8038 42.6841 45.7668 42.933 45.7488 42.9556C45.7308 42.9782 45.7028 43.0602 45.6867 43.1378C45.5985 43.5629 45.2776 44.1061 44.9047 44.4615C44.7259 44.6319 44.2279 44.9529 44.1423 44.9529C44.1185 44.9529 44.099 44.969 44.099 44.9888C44.099 45.0086 44.0493 45.0372 43.9885 45.0524C43.9277 45.0676 43.8237 45.1037 43.7574 45.1327C43.5743 45.2125 43.1716 45.3456 43.0152 45.3779C42.9385 45.3938 42.8481 45.4217 42.8142 45.4399C42.7118 45.495 41.9445 45.6311 41.0444 45.7538C40.8786 45.7764 40.3903 45.8248 39.9592 45.8615C38.4758 45.9875 33.8744 45.9005 32.467 45.7197C31.5363 45.6001 30.8573 45.7397 30.1662 46.1924C29.6355 46.5402 29.2427 47.0181 28.997 47.6149C28.907 47.8335 28.8766 47.9649 28.7872 48.5224C28.7623 48.6777 28.7157 48.9591 28.6838 49.1476C28.6518 49.3362 28.6079 49.6266 28.5861 49.793C28.5643 49.9593 28.5088 50.3314 28.4628 50.6198C28.3735 51.1799 28.3094 51.6035 28.2069 52.3139C28.1716 52.5579 28.1248 52.8392 28.1028 52.939C28.0808 53.0389 28.0526 53.2294 28.0402 53.3626C28.0277 53.4957 28 53.6772 27.9785 53.7659C27.957 53.8546 27.9131 54.1269 27.881 54.3709C27.8489 54.6149 27.7855 55.0505 27.7402 55.3389C27.5718 56.4116 27.5432 56.5994 27.4823 57.033C27.4479 57.277 27.4018 57.5583 27.3798 57.6581C27.3578 57.758 27.3215 57.9758 27.2992 58.1422C27.2769 58.3085 27.2404 58.5626 27.2181 58.7068C27.1958 58.851 27.1406 59.2231 27.0956 59.5337C27.0505 59.8443 26.9965 60.18 26.9756 60.2799C26.9031 60.6248 26.8572 61.1883 26.8802 61.4496C26.9358 62.0792 27.2501 62.8019 27.6633 63.2501C27.9728 63.5859 28.7156 64.1923 28.8174 64.1923C28.8405 64.1923 28.8655 64.2062 28.8729 64.2232C28.8873 64.2566 29.3344 64.4326 29.6298 64.5212C29.8703 64.5934 30.7177 64.593 30.9562 64.5206C31.3929 64.388 31.7053 64.2613 31.8691 64.1504C31.966 64.0847 32.0617 64.031 32.0816 64.031C32.1015 64.031 32.1322 64.0077 32.1499 63.9793C32.1676 63.9509 32.2488 63.8735 32.3305 63.8073C32.537 63.6398 32.8676 63.2171 33.0034 62.9468C33.145 62.6651 33.1797 62.5516 33.387 61.6916C33.5065 61.1957 33.5713 60.9392 33.606 60.8244C33.6261 60.7578 33.7267 60.3585 33.8296 59.937C33.9326 59.5155 34.0336 59.1162 34.0541 59.0497C34.0923 58.9263 34.2695 58.2206 34.5301 57.154C34.6725 56.5713 34.698 56.4705 34.7544 56.2666C34.7851 56.1557 34.8485 55.9136 34.8952 55.7287C35.0127 55.2637 35.3632 54.6477 35.6368 54.4251C35.682 54.3884 35.7896 54.2946 35.876 54.2168C35.9624 54.1389 36.0799 54.0511 36.1372 54.0215C36.1945 53.9919 36.2505 53.9586 36.2615 53.9475C36.2978 53.9109 36.5589 53.7906 36.7799 53.7085C37.1014 53.5891 37.594 53.5503 39.3965 53.5021C40.2918 53.4781 41.3499 53.4416 41.7478 53.421C42.1457 53.4004 42.8601 53.3657 43.3354 53.344C43.8107 53.3223 44.299 53.2939 44.4206 53.2808C44.5422 53.2678 45.0938 53.2215 45.6464 53.1779C46.9275 53.0769 47.6407 53.0082 48.5202 52.9012C49.7458 52.7521 50.8798 52.5908 51.0925 52.5353C51.1699 52.515 51.3869 52.4721 51.5748 52.4397C51.7627 52.4073 52.043 52.3533 52.1978 52.3196C52.3525 52.2859 52.6109 52.2303 52.772 52.196C52.9331 52.1616 53.0959 52.1176 53.1338 52.0982C53.1716 52.0787 53.2802 52.0508 53.3752 52.0363C53.4701 52.0218 53.5786 51.9934 53.6163 51.9732C53.654 51.953 53.8477 51.8884 54.0466 51.8295C54.2456 51.7707 54.4671 51.6967 54.539 51.6653C54.6108 51.6338 54.7284 51.5832 54.8002 51.5528C55.4172 51.2919 55.7308 51.0885 56.418 50.5032C56.7416 50.2275 57.6065 49.36 57.9112 49.0054C58.0251 48.8728 58.2277 48.6192 58.3613 48.4417C58.4949 48.2643 58.6323 48.0903 58.6666 48.0552C58.701 48.0201 58.729 47.9717 58.729 47.9476C58.729 47.9236 58.7426 47.8979 58.7592 47.8905C58.806 47.8696 59.0104 47.5847 59.0104 47.5403C59.0104 47.5185 59.024 47.4946 59.0407 47.4872C59.0574 47.4798 59.1508 47.3467 59.2483 47.1914C59.5325 46.7387 59.5495 46.7115 59.6011 46.6267C59.6282 46.5824 59.6732 46.5007 59.7013 46.4452C59.7293 46.3898 59.7617 46.3353 59.7732 46.3242C59.8758 46.2253 60.976 43.9588 60.9812 43.8358C60.9819 43.8179 61.0174 43.7307 61.0602 43.642C61.1029 43.5533 61.1384 43.4524 61.1392 43.4178C61.14 43.3832 61.1671 43.3197 61.1996 43.2766C61.232 43.2336 61.2593 43.1711 61.2601 43.1378C61.2609 43.1045 61.2848 43.0319 61.3132 42.9765C61.3415 42.921 61.4157 42.7123 61.478 42.5126C61.5403 42.313 61.6056 42.1211 61.6231 42.0861C61.6525 42.0276 61.7952 41.5531 61.9922 40.8589C62.0363 40.7036 62.0946 40.4768 62.1216 40.3547C62.1487 40.2327 62.1825 40.1057 62.1967 40.0724C62.211 40.0391 62.2519 39.8667 62.2877 39.6892C62.3234 39.5118 62.3789 39.2395 62.411 39.0842C62.4431 38.9289 62.4962 38.6385 62.5291 38.4389C62.562 38.2392 62.6066 37.9942 62.6283 37.8944C62.6499 37.7945 62.685 37.5676 62.7063 37.3902C62.7276 37.2127 62.7641 36.9314 62.7874 36.765C62.8524 36.3008 62.9037 35.592 62.9518 34.4962C63.0077 33.2199 62.9376 31.4093 62.7896 30.3115C62.6896 29.5692 62.5261 28.6257 62.4121 28.1335C62.3787 27.9893 62.3214 27.7352 62.2847 27.5688C62.2479 27.4024 62.2016 27.249 62.1817 27.228C62.1617 27.2069 62.1454 27.1481 62.1454 27.0972C62.1454 27.0113 61.7594 25.8025 61.6456 25.5319C61.6176 25.4653 61.5533 25.302 61.5028 25.1689C61.3546 24.7786 61.3114 24.6838 60.9102 23.8681C60.7001 23.4411 60.5159 23.0917 60.5008 23.0917C60.4857 23.0917 60.4505 23.0281 60.4226 22.9505C60.3946 22.8729 60.3548 22.8093 60.3341 22.8093C60.3134 22.8093 60.2965 22.7908 60.2965 22.7682C60.2965 22.7316 60.1087 22.4177 60.0557 22.3657C60.0444 22.3546 60.0087 22.294 59.9763 22.2311C59.944 22.1682 59.8762 22.072 59.8257 22.0173C59.7751 21.9626 59.7338 21.9078 59.7338 21.8955C59.7338 21.8717 59.5728 21.6624 59.4724 21.5556C59.4393 21.5205 59.4123 21.4705 59.4123 21.4447C59.4123 21.4188 59.3971 21.3976 59.3785 21.3976C59.36 21.3976 59.3012 21.3369 59.2479 21.2626C58.814 20.6577 57.7399 19.631 57.0108 19.1242C56.8947 19.0436 56.7139 18.9173 56.6089 18.8436C56.1621 18.53 54.8105 17.8103 54.6615 17.8066C54.6328 17.8059 54.5742 17.7787 54.5313 17.7461C54.4884 17.7135 54.4278 17.6869 54.3967 17.6869C54.3656 17.6869 54.2831 17.6613 54.2135 17.6301C54.1438 17.5988 53.924 17.5245 53.7251 17.465C53.5261 17.4054 53.3181 17.3403 53.2629 17.3201C53.2076 17.3 53.081 17.2658 52.9815 17.2441C52.8821 17.2224 52.6379 17.1666 52.4389 17.1203C51.8147 16.9748 50.9919 16.8261 50.1078 16.6991C49.8867 16.6674 49.5793 16.6227 49.4245 16.5998C48.8633 16.5168 46.8723 16.3295 45.968 16.2746C45.5922 16.2518 45.1129 16.2154 44.9029 16.1938C44.6929 16.1722 43.9423 16.1353 43.2349 16.112C42.5275 16.0886 41.5328 16.0522 41.0243 16.0312C39.9632 15.9874 32.7018 15.9905 31.3782 16.0354ZM93.0934 16.4369C92.2718 16.4846 91.3513 16.6097 90.8627 16.74C90.7522 16.7695 90.5442 16.8227 90.4005 16.8581C90.2568 16.8936 90.0669 16.9406 89.9785 16.9626C89.8901 16.9846 89.7816 17.0196 89.7374 17.0404C89.6931 17.0611 89.5937 17.0959 89.5163 17.1178C89.3464 17.1658 89.044 17.272 88.9335 17.3224C88.8893 17.3425 88.6563 17.4433 88.4157 17.5464C87.817 17.803 86.9428 18.2643 86.9105 18.3408C86.9031 18.3583 86.8801 18.3726 86.8594 18.3726C86.8254 18.3726 86.5108 18.5638 86.4617 18.6143C86.4506 18.6257 86.3602 18.6894 86.2607 18.7559C86.1612 18.8223 86.0618 18.8909 86.0397 18.9081C86.0176 18.9253 85.8973 19.0175 85.7723 19.113C85.6474 19.2085 85.5173 19.3123 85.4832 19.3438C85.4492 19.3753 85.3183 19.4918 85.1925 19.6028C84.7281 20.0122 84.1794 20.5867 83.8676 20.9897L83.6683 21.2473L83.6412 20.73C83.6052 20.0418 83.5456 19.7471 83.3637 19.3563C83.3212 19.2652 83.2865 19.1699 83.2865 19.1446C83.2865 19.1193 83.2684 19.0986 83.2463 19.0986C83.2242 19.0986 83.2061 19.0725 83.2061 19.0406C83.2061 18.8512 82.4988 18.0305 82.1008 17.7581C81.7719 17.533 81.1929 17.244 81.0681 17.2426C81.0392 17.2423 80.9342 17.2117 80.8348 17.1745C80.582 17.0802 79.4122 17.0776 79.1467 17.1708C79.0472 17.2058 78.9123 17.2467 78.8469 17.2618C78.6268 17.3127 78.0305 17.6226 77.8351 17.7877C77.8088 17.8099 77.7101 17.8916 77.6159 17.9692C77.5215 18.0469 77.3978 18.163 77.3409 18.2273C77.2841 18.2917 77.2085 18.3733 77.1729 18.4088C76.8369 18.7442 76.4493 19.6128 76.3731 20.2009C76.3504 20.3763 76.3352 28.975 76.3345 42.0589L76.3332 63.6276H79.9907H83.6482V54.4919C83.6482 49.4673 83.6618 45.3568 83.6784 45.3574C83.6949 45.3581 83.7669 45.4353 83.8382 45.5289C84.0886 45.8576 84.7208 46.4781 85.2033 46.8687C85.2307 46.8909 85.2764 46.9278 85.3048 46.9506C85.4662 47.0805 86.051 47.4939 86.0733 47.4939C86.0879 47.4939 86.1857 47.5541 86.2908 47.6276C86.3958 47.7011 86.5722 47.8054 86.6827 47.8595C86.7933 47.9136 86.8927 47.9689 86.9038 47.9825C86.9149 47.9962 87.0867 48.0845 87.2856 48.1789C87.8785 48.4602 88.1586 48.5798 88.5115 48.702C88.6552 48.7518 88.8089 48.8081 88.8531 48.8272C89.1175 48.9412 90.5119 49.2831 90.9833 49.3495C91.1381 49.3712 91.3641 49.4063 91.4857 49.4273C91.8865 49.4968 93.2276 49.5913 93.8118 49.5913C94.1275 49.5913 94.7054 49.5639 95.0961 49.5304C95.7334 49.4758 95.9798 49.4435 96.7509 49.3133C97.1279 49.2497 97.6112 49.1441 97.6954 49.107C97.7396 49.0876 97.8572 49.0533 97.9567 49.0309C98.2301 48.9693 98.5699 48.8709 98.66 48.8273C98.7043 48.8059 98.8037 48.7705 98.8811 48.7486C99.074 48.6941 99.3579 48.5912 99.5101 48.5206C99.5798 48.4884 99.6486 48.4619 99.6631 48.4619C99.6776 48.4619 99.7743 48.4246 99.8781 48.379C99.9818 48.3335 100.103 48.2811 100.147 48.2626C100.641 48.0563 101.871 47.3932 102.378 47.0598C102.581 46.9258 103.419 46.3195 103.532 46.2242C103.559 46.2016 103.604 46.1649 103.633 46.1427C103.691 46.0979 104.101 45.7547 104.284 45.5982C104.539 45.3792 105.235 44.6695 105.57 44.2873C106.054 43.7338 106.039 43.752 106.239 43.4807C106.337 43.3476 106.435 43.2166 106.457 43.1896C106.557 43.0684 106.593 43.016 106.815 42.674C106.945 42.4743 107.094 42.2465 107.146 42.1676C107.198 42.0888 107.241 42.0041 107.241 41.9794C107.241 41.9547 107.257 41.9285 107.275 41.921C107.327 41.9008 107.837 40.9392 108.053 40.4556C108.112 40.3225 108.207 40.1104 108.264 39.9842C108.32 39.8581 108.366 39.7301 108.366 39.6999C108.366 39.6696 108.383 39.6276 108.402 39.6065C108.442 39.5642 108.858 38.3428 108.93 38.0557C109.1 37.3835 109.143 37.1998 109.188 36.9667C109.215 36.8225 109.251 36.6648 109.266 36.6163C109.308 36.487 109.402 35.7951 109.489 34.9903C109.666 33.338 109.627 31.863 109.355 29.8678C109.323 29.6349 109.287 29.4171 109.274 29.3838C109.261 29.3505 109.225 29.1872 109.194 29.0208C109.163 28.8544 109.101 28.5731 109.057 28.3956C108.982 28.0943 108.953 27.9855 108.791 27.4074C108.757 27.2854 108.712 27.1493 108.692 27.1049C108.671 27.0606 108.607 26.8791 108.549 26.7016C108.492 26.5241 108.428 26.3426 108.407 26.2983C108.387 26.2539 108.323 26.0996 108.265 25.9554C108.109 25.5648 107.679 24.6511 107.563 24.463C107.543 24.4298 107.439 24.251 107.333 24.0657C107.227 23.8805 107.099 23.6627 107.049 23.5817C106.999 23.5007 106.937 23.3937 106.912 23.3438C106.887 23.2939 106.851 23.253 106.833 23.253C106.814 23.253 106.799 23.2332 106.799 23.209C106.799 23.1848 106.762 23.1167 106.717 23.0577C106.672 22.9987 106.479 22.7418 106.288 22.4867C105.847 21.8955 105.57 21.577 104.97 20.9688C104.42 20.4109 103.983 20.0144 103.64 19.7641C103.58 19.7197 103.511 19.6644 103.487 19.6412C103.34 19.4991 102.431 18.8773 102.105 18.6952C102.045 18.662 101.987 18.624 101.976 18.6108C101.929 18.555 100.779 17.9612 100.308 17.7497C100.242 17.72 100.104 17.6573 100.002 17.6106C99.9002 17.5638 99.7908 17.5255 99.7589 17.5255C99.7271 17.5255 99.6839 17.5098 99.6628 17.4906C99.6174 17.449 98.7851 17.1637 98.3586 17.0436C98.1928 16.9969 97.9999 16.9404 97.93 16.9181C97.8057 16.8784 97.4756 16.8052 97.0323 16.719C96.9107 16.6954 96.7298 16.6582 96.6303 16.6363C96.5309 16.6145 96.2053 16.5709 95.9069 16.5395C95.6084 16.5082 95.3371 16.4735 95.304 16.4625C95.1931 16.4258 93.6021 16.4074 93.0934 16.4369ZM138.752 16.4381C137.739 16.4869 136.893 16.6049 135.878 16.8388C135.679 16.8846 135.426 16.9415 135.315 16.9652C135.205 16.9889 135.096 17.0225 135.074 17.0398C135.052 17.0572 134.962 17.0843 134.873 17.1001C134.785 17.116 134.658 17.1532 134.592 17.1828C134.526 17.2125 134.426 17.2489 134.371 17.2637C134.211 17.3064 133.603 17.5283 133.419 17.6112C133.326 17.6528 133.239 17.6869 133.225 17.6869C133.157 17.6869 131.959 18.2712 131.618 18.4711C131.485 18.5489 131.336 18.6308 131.286 18.6531C131.235 18.6754 131.145 18.7285 131.085 18.771C130.861 18.9285 130.369 19.2407 130.301 19.2687C130.263 19.2846 130.231 19.3164 130.231 19.3393C130.231 19.3622 130.207 19.3809 130.177 19.3809C130.147 19.3809 130.09 19.4172 130.05 19.4616C130.01 19.506 129.957 19.5423 129.932 19.5423C129.908 19.5423 129.858 19.574 129.822 19.6128C129.787 19.6516 129.647 19.7647 129.512 19.864C129.377 19.9633 129.266 20.0586 129.266 20.0757C129.266 20.0929 129.24 20.1069 129.208 20.1069C129.176 20.1069 129.135 20.1296 129.118 20.1574C129.1 20.1851 128.95 20.3257 128.784 20.4699C128.344 20.8528 127.526 21.6836 127.156 22.124C126.98 22.3346 126.826 22.5159 126.815 22.527C126.76 22.5823 126.201 23.3466 126.047 23.5778C125.838 23.8902 125.829 23.9053 125.582 24.3219C125.478 24.4993 125.382 24.6536 125.37 24.6647C125.349 24.6838 125.173 25.0197 124.925 25.5117C124.725 25.9095 124.511 26.3933 124.363 26.7823C124.312 26.9154 124.248 27.0787 124.221 27.1453C124.193 27.2118 124.159 27.3116 124.144 27.3671C124.129 27.4226 124.101 27.5042 124.082 27.5486C124.063 27.593 123.999 27.7926 123.94 27.9923C123.881 28.1919 123.817 28.4007 123.797 28.4561C123.757 28.5657 123.716 28.7448 123.616 29.2427C123.581 29.4201 123.536 29.6016 123.518 29.646C123.478 29.742 123.422 30.1013 123.337 30.8157C123.302 31.1041 123.256 31.4852 123.233 31.6627C123.145 32.3478 123.227 34.9631 123.36 35.7163C123.381 35.8383 123.417 36.0743 123.44 36.2407C123.462 36.407 123.497 36.5795 123.517 36.6238C123.538 36.6682 123.576 36.8406 123.602 37.007C123.628 37.1734 123.66 37.3277 123.674 37.3498C123.688 37.372 123.72 37.4809 123.744 37.5918C123.811 37.8913 123.925 38.3034 123.961 38.3755C123.978 38.4104 124.043 38.6022 124.105 38.8019C124.167 39.0015 124.232 39.1921 124.248 39.2254C124.325 39.3765 124.438 39.6719 124.463 39.7859C124.478 39.8547 124.507 39.9111 124.527 39.9111C124.547 39.9111 124.564 39.94 124.564 39.9754C124.564 40.0108 124.589 40.088 124.62 40.1469C124.65 40.2057 124.79 40.4899 124.93 40.7783C125.28 41.4988 125.635 42.1091 126.1 42.7893C126.249 43.0066 126.936 43.8894 127.156 44.1453C127.42 44.4517 128.463 45.4768 128.804 45.7642C129.326 46.2035 130.312 46.9292 130.388 46.9292C130.409 46.9292 130.431 46.9439 130.439 46.9619C130.446 46.9798 130.558 47.0569 130.688 47.1333C130.817 47.2096 130.971 47.3021 131.029 47.3389C131.322 47.5232 132.124 47.9358 132.19 47.9368C132.218 47.9373 132.241 47.9557 132.241 47.9779C132.241 48.0001 132.26 48.0183 132.283 48.0183C132.307 48.0183 132.429 48.0654 132.555 48.123C132.852 48.2593 132.973 48.3103 133.266 48.4221C133.398 48.4728 133.564 48.5388 133.633 48.5688C133.703 48.5988 133.784 48.6234 133.814 48.6235C133.844 48.6237 133.917 48.6492 133.976 48.6802C134.036 48.7113 134.144 48.7496 134.217 48.7653C134.291 48.7811 134.369 48.8079 134.391 48.8249C134.413 48.842 134.513 48.8744 134.612 48.8969C134.711 48.9195 134.938 48.9784 135.114 49.0278C135.482 49.1305 136.008 49.2499 136.36 49.3108C136.493 49.3337 136.746 49.3783 136.923 49.4099C137.883 49.5816 138.335 49.6115 139.978 49.6115C141.572 49.6115 141.661 49.6063 142.811 49.4484C143.519 49.3513 144.508 49.167 144.64 49.1078C144.684 49.0879 144.802 49.0538 144.901 49.0319C145.205 48.9652 145.561 48.8657 145.626 48.8293C145.66 48.8104 145.747 48.7818 145.82 48.7658C145.892 48.7498 146 48.7113 146.059 48.6802C146.119 48.6492 146.192 48.6237 146.222 48.6235C146.251 48.6234 146.333 48.5988 146.402 48.5688C146.472 48.5388 146.638 48.4729 146.77 48.4223C146.903 48.3717 147.139 48.2713 147.296 48.1993C147.452 48.1273 147.62 48.0559 147.668 48.0406C147.716 48.0253 147.755 47.9959 147.755 47.9752C147.755 47.9545 147.783 47.9376 147.817 47.9376C147.922 47.9376 149.068 47.2978 149.453 47.0246C149.558 46.95 149.661 46.8889 149.681 46.8889C149.701 46.8889 149.724 46.8753 149.731 46.8586C149.738 46.842 149.826 46.7746 149.925 46.7088C150.025 46.643 150.137 46.5613 150.175 46.5273C150.269 46.4419 150.325 46.3982 150.488 46.2834C150.74 46.106 151.543 45.3773 151.982 44.9279C152.37 44.5315 152.993 43.8126 153.201 43.5233C153.245 43.4617 153.299 43.3905 153.322 43.3653C153.43 43.2416 153.583 43.0179 153.583 42.9835C153.583 42.9622 153.61 42.9343 153.643 42.9215C153.676 42.9088 153.703 42.872 153.703 42.8399C153.703 42.8078 153.719 42.7755 153.739 42.7681C153.775 42.754 153.953 42.4783 154.323 41.8628C154.701 41.2333 154.812 41.0087 154.768 40.9649C154.722 40.9182 151.623 39.1053 151.533 39.072C151.5 39.0598 151.464 39.0384 151.453 39.0246C151.423 38.9871 150.579 38.4994 150.544 38.4994C150.528 38.4994 150.486 38.474 150.451 38.4429C150.389 38.3879 150.046 38.1865 149.845 38.0869C149.79 38.0595 149.735 38.0262 149.724 38.0127C149.713 37.9993 149.605 37.9335 149.483 37.8665C149.362 37.7995 149.199 37.706 149.121 37.6585C148.81 37.4675 148.799 37.4654 148.717 37.5736C148.676 37.628 148.631 37.7225 148.617 37.7834C148.604 37.8445 148.577 37.8944 148.558 37.8944C148.539 37.8944 148.511 37.9352 148.496 37.9851C148.459 38.1059 148.152 38.6369 148.11 38.654C148.092 38.6614 148.076 38.6896 148.076 38.7167C148.076 38.7438 148.036 38.8223 147.986 38.8911C147.936 38.9599 147.868 39.0557 147.835 39.104C147.481 39.6194 146.794 40.3915 146.381 40.7371C146.308 40.7984 146.166 40.9189 146.067 41.0049C145.967 41.0908 145.75 41.2517 145.585 41.3624C145.419 41.4731 145.261 41.5821 145.235 41.6045C145.208 41.627 145.173 41.6454 145.157 41.6454C145.142 41.6454 145.1 41.6709 145.065 41.702C144.914 41.8363 143.873 42.3302 143.605 42.3941C143.544 42.4086 143.495 42.4337 143.495 42.4497C143.495 42.4658 143.418 42.4992 143.324 42.524C143.23 42.5489 143.017 42.6076 142.851 42.6545C141.918 42.9184 141.017 43.0364 139.937 43.036C139.124 43.0356 138.381 42.973 137.727 42.8495C137.115 42.7338 136.451 42.561 136.2 42.4518C136.155 42.4326 136.074 42.4046 136.019 42.3897C135.963 42.3747 135.864 42.3384 135.798 42.309C135.731 42.2796 135.569 42.2104 135.436 42.1552C135.172 42.0453 134.481 41.6876 134.353 41.5943C134.33 41.5772 134.229 41.5085 134.13 41.4416C133.619 41.098 133.504 41.0118 133.197 40.7405C132.902 40.4806 132.516 40.0886 132.196 39.7262C132.06 39.5721 131.586 38.9125 131.518 38.7817C131.489 38.7263 131.454 38.6718 131.441 38.6607C131.369 38.6005 130.873 37.6046 130.718 37.2087C130.524 36.7144 130.298 36.0076 130.25 35.7466L130.222 35.5953H143.108H155.994L155.992 33.7298C155.991 32.7039 155.974 31.692 155.955 31.4812C155.868 30.5439 155.831 30.2279 155.77 29.888C155.681 29.3893 155.551 28.7472 155.504 28.5771C155.482 28.4995 155.44 28.3361 155.41 28.2141C155.307 27.7988 155.003 26.8343 154.908 26.6209C154.889 26.5766 154.826 26.4223 154.768 26.2781C154.614 25.888 154.622 25.9053 154.269 25.1891C153.889 24.4156 153.666 24.0047 153.617 23.9858C153.598 23.9783 153.583 23.9553 153.583 23.9345C153.583 23.888 153.373 23.5607 153.332 23.5421C153.315 23.5347 153.301 23.5128 153.301 23.4934C153.301 23.4265 152.659 22.527 152.611 22.527C152.593 22.527 152.578 22.5069 152.578 22.4823C152.578 22.4577 152.543 22.3987 152.5 22.3512C152.456 22.3037 152.316 22.1378 152.188 21.9825C151.663 21.3465 150.604 20.3349 149.865 19.763C149.821 19.7288 149.712 19.6445 149.624 19.5757C149.456 19.4448 148.597 18.8687 148.458 18.7934C148.284 18.6989 148.176 18.6336 148.157 18.6107C148.132 18.5814 148.065 18.5465 147.364 18.1979C147.06 18.0463 146.762 17.8966 146.704 17.8651C146.645 17.8336 146.568 17.8079 146.533 17.8079C146.498 17.8079 146.469 17.7912 146.469 17.7707C146.469 17.7503 146.413 17.7214 146.345 17.7064C146.278 17.6915 146.174 17.6539 146.114 17.6228C146.055 17.5918 145.991 17.5663 145.972 17.5661C145.954 17.566 145.881 17.5395 145.812 17.5072C145.583 17.4014 145.177 17.2648 144.68 17.1271C144.548 17.0903 144.421 17.049 144.399 17.0354C144.377 17.0217 144.277 16.9972 144.178 16.981C144.078 16.9648 143.968 16.9365 143.934 16.9182C143.869 16.8841 143.441 16.7959 142.872 16.6993C142.695 16.6694 142.523 16.6344 142.49 16.6216C142.385 16.5813 141.209 16.4692 140.54 16.4358C139.821 16.3998 139.537 16.4002 138.752 16.4381ZM174.623 16.5449C174.172 16.5846 172.887 16.8196 172.58 16.9184C171.806 17.1679 171.435 17.291 171.368 17.321C171.324 17.3408 171.197 17.3968 171.087 17.4456C170.477 17.7146 169.825 18.0616 169.358 18.3653C169.211 18.4609 168.5 18.9829 168.386 19.0784C168.025 19.3822 167.838 19.556 167.429 19.9672C167.001 20.3979 166.642 20.793 166.555 20.928C166.539 20.9534 166.526 20.0983 166.525 19.0278L166.525 17.0814L162.877 17.0918L159.23 17.102V33.0341V48.9661H162.907H166.585L166.609 39.5682C166.625 33.0187 166.646 30.1031 166.677 29.9485C166.701 29.8265 166.748 29.5542 166.782 29.3435C166.892 28.6507 167.111 27.855 167.31 27.4215C167.342 27.3516 167.369 27.2839 167.369 27.271C167.369 27.2063 167.715 26.5194 167.891 26.234C168.002 26.0551 168.092 25.8997 168.092 25.8888C168.092 25.8779 168.115 25.8435 168.142 25.8124C168.17 25.7812 168.223 25.7145 168.26 25.664C168.394 25.4833 168.807 25.0043 168.98 24.8288C169.186 24.6211 169.814 24.1197 170.044 23.9792C170.131 23.926 170.211 23.8719 170.222 23.8591C170.28 23.7926 171.212 23.3667 171.509 23.2719C171.696 23.2118 171.877 23.1524 171.91 23.1399C172.486 22.9238 174.156 22.8137 175.126 22.928C175.81 23.0087 176.489 23.1694 177.015 23.3753C177.136 23.4229 177.295 23.4815 177.367 23.5054C177.438 23.5293 177.497 23.562 177.497 23.5781C177.497 23.5941 177.544 23.6191 177.602 23.6336C177.659 23.6481 177.754 23.693 177.813 23.7335C177.871 23.7739 178.082 23.9132 178.281 24.0431C178.585 24.2419 179.332 24.9302 179.529 25.1934C179.848 25.6216 179.964 25.8029 180.116 26.1167C180.187 26.2609 180.259 26.385 180.277 26.3924C180.296 26.3998 180.311 26.427 180.312 26.4529C180.313 26.4787 180.348 26.5725 180.391 26.6613C180.434 26.75 180.469 26.838 180.47 26.8568C180.471 26.8757 180.496 26.9483 180.527 27.0182C180.69 27.3924 180.747 27.6012 180.933 28.4965C181.13 29.4413 181.129 29.4 181.154 37.9347C181.172 43.753 181.191 46.0205 181.224 46.1225C181.249 46.2002 181.289 46.3363 181.314 46.4251C181.364 46.6023 181.381 46.6442 181.534 46.9696C181.734 47.3944 181.764 47.4378 182.139 47.8467C182.455 48.1904 182.829 48.4726 183.203 48.6499C183.37 48.7287 183.536 48.8084 183.572 48.8271C183.792 48.9395 184.416 49.0413 184.893 49.0423C185.626 49.0438 186.161 48.8962 186.863 48.4979C187.047 48.3937 187.444 48.0686 187.608 47.8877C188.184 47.2515 188.5 46.5417 188.588 45.6874C188.646 45.1226 188.646 30.5278 188.588 29.2023C188.548 28.29 188.523 27.9718 188.432 27.2461C188.369 26.7491 188.132 25.5382 188.037 25.2294C187.914 24.8284 187.825 24.5198 187.826 24.4893C187.826 24.4705 187.801 24.3979 187.77 24.328C187.74 24.2581 187.664 24.0557 187.603 23.8782C187.542 23.7007 187.479 23.5374 187.463 23.5152C187.447 23.493 187.421 23.4295 187.405 23.374C187.349 23.1845 186.976 22.4384 186.692 21.9485C186.306 21.2832 185.756 20.5277 185.38 20.1447C185.322 20.0856 185.227 19.9849 185.17 19.9208C184.663 19.3584 183.78 18.6585 183.003 18.2036C182.485 17.9003 181.46 17.4068 181.34 17.4032C181.316 17.4024 181.223 17.3667 181.135 17.3239C181.046 17.281 180.937 17.2453 180.891 17.2446C180.846 17.2438 180.792 17.2265 180.771 17.2061C180.734 17.1705 180.609 17.1324 179.949 16.9557C179.627 16.8695 179.195 16.779 178.803 16.7157C178.671 16.6942 178.454 16.6582 178.321 16.6357C177.815 16.5497 177.195 16.5201 176.01 16.5253C175.336 16.5283 174.712 16.5371 174.623 16.5449ZM206.014 16.5448C205.665 16.5674 204.906 16.689 204.165 16.841C203.423 16.9931 203.36 17.0082 203.323 17.0446C203.302 17.0651 203.252 17.0819 203.213 17.0819C203.119 17.0819 202.097 17.4039 201.939 17.4834C201.903 17.5014 201.765 17.5571 201.633 17.6073C201.255 17.7502 200.631 18.0296 200.286 18.2102C199.786 18.4723 199.153 18.8306 199.061 18.9038C199.038 18.9216 198.848 19.0488 198.638 19.1865C198.428 19.3241 198.247 19.447 198.236 19.4595C198.225 19.472 198.08 19.5842 197.913 19.709C197.745 19.8338 197.583 19.9607 197.551 19.9911C197.519 20.0216 197.384 20.1364 197.251 20.2463C196.948 20.4983 195.959 21.4885 195.639 21.8615C195.299 22.2585 194.82 22.8804 194.82 22.9258C194.82 22.9468 194.806 22.97 194.79 22.9774C194.743 22.9983 194.539 23.2832 194.539 23.3276C194.539 23.3495 194.525 23.3733 194.509 23.3808C194.467 23.3993 194.257 23.7266 194.257 23.7731C194.257 23.7939 194.243 23.817 194.226 23.8244C194.144 23.8588 193.513 25.0502 193.203 25.7537C193.159 25.8536 193.099 25.9897 193.069 26.0562C193.013 26.1788 192.989 26.2444 192.789 26.8226C192.727 27.0001 192.661 27.1816 192.642 27.2259C192.553 27.4314 192.246 28.6086 192.148 29.1217C192.118 29.2769 192.082 29.4323 192.069 29.4668C191.994 29.6583 191.827 31.2278 191.766 32.3149C191.732 32.9188 191.732 33.3242 191.766 33.888C191.834 35.0238 191.979 36.3199 192.084 36.716C192.106 36.7984 192.162 37.0473 192.209 37.2692C192.255 37.491 192.318 37.7451 192.348 37.8339C192.378 37.9226 192.415 38.0587 192.43 38.1364C192.445 38.214 192.472 38.2957 192.489 38.3179C192.506 38.34 192.539 38.4399 192.562 38.5397C192.612 38.7548 192.717 39.0743 192.795 39.2516C192.825 39.3215 192.851 39.4043 192.851 39.4355C192.851 39.4667 192.877 39.5275 192.91 39.5706C192.942 39.6136 192.969 39.6734 192.97 39.7033C192.971 39.7332 192.997 39.8149 193.028 39.8848C193.23 40.3414 193.326 40.5477 193.527 40.9598C193.754 41.426 194.008 41.8903 194.055 41.9278C194.069 41.9389 194.105 42.007 194.134 42.079C194.163 42.1511 194.203 42.2101 194.222 42.2101C194.241 42.2101 194.257 42.2276 194.257 42.2489C194.257 42.3118 194.865 43.1942 195.216 43.642C195.727 44.2932 196.678 45.2919 197.292 45.8227C197.816 46.2759 198.683 46.9292 198.761 46.9292C198.782 46.9292 198.799 46.9479 198.799 46.9708C198.799 46.9937 198.831 47.0243 198.869 47.0389C198.908 47.0535 199.022 47.121 199.122 47.1889C199.223 47.2568 199.35 47.3381 199.404 47.3695C199.801 47.5991 199.921 47.6664 200.045 47.7272C200.122 47.7653 200.195 47.8076 200.206 47.8213C200.224 47.8436 200.502 47.9803 201.274 48.3462C201.408 48.4098 201.535 48.4625 201.555 48.4633C201.576 48.4641 201.665 48.4997 201.753 48.5426C201.842 48.5855 201.932 48.6211 201.953 48.6219C201.994 48.6233 202.389 48.7705 202.5 48.8256C202.662 48.9065 204.018 49.2759 204.426 49.3504C205.782 49.5979 205.866 49.6054 207.32 49.6085C208.848 49.6117 208.934 49.6038 210.334 49.3301C210.692 49.2601 210.923 49.2005 211.44 49.0441C211.683 48.9706 211.932 48.8982 211.993 48.8833C212.054 48.8685 212.113 48.8402 212.126 48.8205C212.138 48.8007 212.178 48.784 212.216 48.7832C212.253 48.7825 212.356 48.7468 212.444 48.7039C212.533 48.6611 212.62 48.6254 212.637 48.6246C212.702 48.6219 213.956 48.0277 213.992 47.983C214.003 47.9691 214.099 47.914 214.205 47.8604C214.311 47.8069 214.543 47.6662 214.722 47.5478C214.9 47.4294 215.061 47.3326 215.079 47.3326C215.098 47.3326 215.128 47.3098 215.145 47.282C215.163 47.2542 215.259 47.1771 215.358 47.1106C215.458 47.0441 215.56 46.9716 215.585 46.9494C215.611 46.9272 215.7 46.8546 215.784 46.7881C216.061 46.5683 216.782 45.9042 216.966 45.6993C217.065 45.5885 217.167 45.4796 217.192 45.4573C217.217 45.435 217.321 45.3116 217.423 45.1832L217.609 44.9497V46.9874V49.0251L217.699 49.047C217.749 49.0591 219.409 49.064 221.387 49.0579L224.984 49.0468L224.996 34.8491C225.007 20.976 225 19.9917 224.888 19.8474C224.87 19.8238 224.842 19.7506 224.826 19.6848C224.681 19.0769 224.027 18.2038 223.418 17.8057C223.285 17.7184 223.154 17.6287 223.127 17.6064C223.1 17.5841 223.066 17.5659 223.051 17.5659C223.036 17.5659 222.949 17.5316 222.859 17.4896C222.345 17.2524 222.14 17.2062 221.468 17.1758C220.968 17.1532 220.577 17.2107 220.121 17.3738C219.893 17.4555 219.381 17.71 219.337 17.7633C219.326 17.7769 219.24 17.8404 219.146 17.9045C219.007 17.9992 218.598 18.4101 218.39 18.664C218.328 18.7403 218.011 19.2894 218.011 19.3213C218.011 19.3363 217.986 19.4058 217.955 19.4757C217.838 19.7405 217.762 20.0549 217.724 20.4264C217.702 20.6379 217.679 20.8169 217.671 20.8244C217.664 20.8318 217.443 20.623 217.181 20.3603C216.919 20.0977 216.584 19.7835 216.437 19.6621C216.29 19.5407 216.099 19.3821 216.011 19.3097C215.924 19.2372 215.764 19.1198 215.656 19.049C215.547 18.9781 215.45 18.9096 215.439 18.8969C215.397 18.8493 214.633 18.3726 214.598 18.3726C214.578 18.3726 214.555 18.359 214.548 18.3423C214.532 18.3065 214.406 18.235 213.972 18.0165C213.132 17.5935 212.346 17.2844 211.5 17.0442C211.334 16.9972 211.141 16.9403 211.071 16.9178C211 16.8954 210.81 16.8524 210.649 16.8222C210.487 16.7921 210.255 16.7488 210.133 16.7259C209.176 16.546 208.793 16.5177 207.42 16.5252C206.757 16.5288 206.124 16.5376 206.014 16.5448ZM116.083 16.7074C115.837 16.7221 115.351 16.8282 115.058 16.9309C113.768 17.3847 112.802 18.5738 112.626 19.9254C112.597 20.1462 112.588 24.7841 112.595 34.6071L112.607 48.9661L116.314 48.9764L120.022 48.9867L120.02 34.4561C120.02 26.2849 120.003 19.8548 119.983 19.7641C119.808 18.9592 119.488 18.3591 118.952 17.8298C118.563 17.445 118.463 17.3672 118.145 17.2029C117.995 17.1252 117.863 17.0513 117.852 17.0385C117.825 17.0071 117.467 16.8842 117.269 16.8383C116.768 16.7221 116.441 16.6861 116.083 16.7074ZM140.56 22.9712C141.411 23.043 142.043 23.1509 142.771 23.349C143.085 23.4343 143.381 23.5288 143.474 23.5736C143.519 23.5947 143.69 23.6683 143.856 23.7373C144.989 24.2082 146.046 25.0065 146.848 25.9957C147.063 26.2609 147.353 26.6651 147.353 26.6992C147.353 26.7094 147.405 26.7958 147.468 26.8912C147.624 27.1252 147.86 27.5761 147.981 27.8713C148.035 28.0044 148.097 28.1496 148.117 28.194C148.186 28.3435 148.443 29.1286 148.49 29.3334L148.511 29.4242H139.556H130.601L130.653 29.2527C130.72 29.0352 130.804 28.8329 130.978 28.4713C131.053 28.3134 131.115 28.1732 131.115 28.16C131.115 28.1252 131.499 27.4722 131.7 27.1654C131.86 26.9219 131.947 26.8031 132.232 26.4419C132.486 26.12 133.01 25.5569 133.23 25.3706C133.36 25.2602 133.485 25.1502 133.507 25.1261C133.564 25.0639 134.039 24.7044 134.23 24.5791C134.726 24.2537 134.845 24.1807 134.884 24.1807C134.908 24.1807 134.933 24.1671 134.94 24.1505C134.954 24.1204 135.353 23.9178 135.778 23.7253C137.113 23.1204 138.931 22.8338 140.56 22.9712ZM93.9374 23.2329C94.7046 23.318 95.5937 23.5218 96.0475 23.7166C96.1139 23.7451 96.2133 23.7813 96.2686 23.797C96.6132 23.8953 97.7691 24.5001 98.1901 24.8025C98.7884 25.2323 99.1942 25.5784 99.5831 25.9908C99.7165 26.1323 99.8935 26.3197 99.9763 26.4074C100.059 26.4951 100.127 26.5826 100.127 26.602C100.127 26.6213 100.152 26.6516 100.182 26.6693C100.253 26.7105 100.731 27.3879 100.898 27.6851C100.969 27.8097 101.036 27.9207 101.049 27.9318C101.114 27.9891 101.695 29.2314 101.695 29.3123C101.695 29.3338 101.72 29.4087 101.751 29.4786C101.861 29.7279 102.017 30.2766 102.115 30.7552C102.144 30.8994 102.187 31.1081 102.21 31.219C102.232 31.33 102.271 31.7111 102.296 32.0661C102.321 32.421 102.351 32.7438 102.363 32.7835C102.384 32.8537 102.336 33.5297 102.255 34.3051C102.186 34.9595 101.937 36.0133 101.751 36.4282C101.72 36.4981 101.695 36.5771 101.695 36.6037C101.695 36.659 101.651 36.7599 101.334 37.4305C101.208 37.6967 101.053 37.9962 100.99 38.096C100.926 38.1959 100.846 38.327 100.812 38.3875C100.586 38.7897 99.9414 39.6058 99.4975 40.0522C99.1251 40.4267 98.7458 40.7625 98.6361 40.8147C98.594 40.8347 98.5596 40.8632 98.5596 40.8781C98.5596 40.893 98.4285 40.9944 98.2682 41.1036C98.1079 41.2127 97.9707 41.3157 97.9634 41.3325C97.956 41.3493 97.9303 41.3631 97.9062 41.3631C97.8822 41.3631 97.834 41.3877 97.7991 41.4178C97.7642 41.4478 97.6361 41.525 97.5146 41.5892C97.393 41.6534 97.2845 41.715 97.2734 41.7261C97.2473 41.7523 96.9556 41.8937 96.6504 42.0282C96.5178 42.0867 96.3779 42.1515 96.3395 42.1723C96.3011 42.1931 96.2469 42.2102 96.2189 42.2104C96.191 42.2105 96.1169 42.2374 96.0543 42.2702C95.9916 42.303 95.865 42.349 95.7729 42.3725C95.6808 42.3959 95.5693 42.4307 95.525 42.4497C95.2986 42.547 94.5001 42.708 93.9174 42.7738C93.5122 42.8195 92.2398 42.8211 91.8675 42.7763C91.4578 42.727 90.8393 42.6144 90.7656 42.5756C90.7306 42.5572 90.6213 42.5287 90.5226 42.5123C90.424 42.4959 90.3155 42.4671 90.2815 42.4482C90.2475 42.4293 90.075 42.3664 89.8981 42.3083C89.7213 42.2502 89.4952 42.1658 89.3957 42.1207C88.414 41.6759 87.8062 41.3058 87.0646 40.7013C86.6921 40.3975 85.9922 39.6906 85.7432 39.3666C85.641 39.2335 85.5302 39.0941 85.4971 39.0569C85.3937 38.9407 85.3515 38.8838 85.232 38.6989C85.1682 38.6002 85.1062 38.5105 85.0942 38.4994C84.9967 38.4091 84.404 37.302 84.2522 36.9263C84.2028 36.8043 84.1391 36.65 84.1105 36.5835C83.9839 36.2889 83.7286 35.4601 83.7286 35.3439C83.7286 35.3017 83.7108 35.2339 83.689 35.1931C83.6473 35.1149 83.5449 34.5318 83.4834 34.0223C83.4367 33.6348 83.4368 32.1239 83.4837 31.703C83.5312 31.276 83.6413 30.604 83.6886 30.4527C83.7094 30.3861 83.7643 30.1956 83.8106 30.0292C83.9081 29.6792 84.0351 29.2979 84.115 29.1156C84.1456 29.0457 84.1707 28.9766 84.1707 28.9621C84.1707 28.8892 84.6081 27.9795 84.6805 27.9017C84.7067 27.8736 84.7408 27.8099 84.7563 27.7601C84.7718 27.7104 84.7971 27.6605 84.8126 27.6494C84.8281 27.6384 84.8927 27.5385 84.956 27.4276C85.0194 27.3167 85.0812 27.2169 85.0933 27.2058C85.1055 27.1947 85.1696 27.1039 85.2358 27.0041C85.302 26.9043 85.3674 26.8135 85.3812 26.8024C85.3949 26.7913 85.5142 26.6461 85.6461 26.4798C85.9482 26.099 86.4681 25.5778 86.8618 25.2611C87.0286 25.1269 87.1711 25.0013 87.1784 24.9821C87.1858 24.9628 87.2103 24.9471 87.2329 24.9471C87.2683 24.9471 87.3467 24.8916 87.5753 24.7044C87.602 24.6826 87.6341 24.6647 87.6465 24.6647C87.6695 24.6647 87.9921 24.4609 88.0292 24.4231C88.0992 24.3515 89.3205 23.7775 89.4036 23.7771C89.4324 23.777 89.5045 23.7515 89.5638 23.7204C89.6231 23.6893 89.731 23.6509 89.8037 23.6349C89.8763 23.6188 89.9634 23.59 89.9973 23.5709C90.0663 23.5318 90.4301 23.4405 90.8828 23.3486C91.7133 23.1801 93.0168 23.1308 93.9374 23.2329ZM210.113 23.3458C210.638 23.433 211.108 23.5337 211.183 23.5748C211.219 23.5944 211.317 23.6234 211.401 23.6391C211.484 23.6548 211.6 23.6923 211.657 23.7223C211.714 23.7523 211.785 23.777 211.814 23.7771C211.948 23.7777 213.066 24.2904 213.449 24.5268C213.538 24.5814 213.637 24.638 213.67 24.6525C213.703 24.6671 213.74 24.6894 213.751 24.7022C213.762 24.715 213.852 24.7792 213.952 24.8449C214.912 25.4793 216.077 26.7006 216.627 27.6494C216.71 27.7936 216.789 27.9207 216.802 27.9318C216.839 27.9634 217.288 28.8748 217.289 28.92C217.29 28.9422 217.325 29.0329 217.368 29.1217C217.411 29.2104 217.446 29.2984 217.447 29.3172C217.448 29.3361 217.474 29.4087 217.506 29.4786C217.604 29.6952 217.764 30.2956 217.91 31.0007C218.045 31.6527 218.102 32.726 218.049 33.6507C218.027 34.0453 217.993 34.4582 217.973 34.5683C217.954 34.6784 217.917 34.8864 217.891 35.0306C217.866 35.1748 217.829 35.3291 217.809 35.3735C217.789 35.4178 217.752 35.568 217.726 35.7072C217.7 35.8464 217.663 35.97 217.644 35.9818C217.625 35.9937 217.608 36.0432 217.608 36.0918C217.607 36.1404 217.571 36.2528 217.529 36.3415C217.486 36.4302 217.45 36.5232 217.45 36.5481C217.448 36.59 217.373 36.7785 217.218 37.128C216.988 37.6482 216.63 38.2975 216.437 38.5455C216.374 38.6263 216.323 38.7047 216.323 38.7196C216.323 38.7446 216.156 38.9817 216.062 39.0902C216.04 39.1157 215.967 39.2053 215.901 39.2894C215.541 39.7451 214.933 40.3711 214.575 40.6553C214.464 40.7428 214.355 40.8336 214.333 40.8569C214.287 40.9049 214.151 41.0022 213.807 41.2335C213.326 41.5574 213.118 41.6858 213.077 41.6858C213.053 41.6858 213.028 41.6994 213.02 41.716C212.989 41.7877 211.809 42.3111 211.5 42.3909C211.445 42.4052 211.363 42.4322 211.319 42.451C210.513 42.7937 208.612 42.984 207.479 42.8353C206.802 42.7465 205.857 42.5413 205.606 42.4283C205.536 42.397 205.464 42.3715 205.446 42.3715C205.321 42.3715 204.237 41.8777 203.863 41.6508C203.786 41.6038 203.677 41.543 203.622 41.5155C203.567 41.4881 203.513 41.4555 203.502 41.4432C203.491 41.4309 203.377 41.3523 203.25 41.2685C203.008 41.1095 202.493 40.7084 202.261 40.4976C202.069 40.3244 201.492 39.7467 201.492 39.7286C201.492 39.7203 201.445 39.6627 201.387 39.6006C201.247 39.4514 200.852 38.9295 200.705 38.701C200.641 38.6012 200.579 38.5105 200.567 38.4994C200.555 38.4883 200.468 38.3431 200.373 38.1767C200.279 38.0103 200.184 37.847 200.163 37.8137C200.142 37.7804 200.109 37.7169 200.09 37.6725C200.07 37.6281 199.991 37.4557 199.914 37.2893C199.5 36.3945 199.24 35.4838 199.072 34.3449C199.015 33.9555 199.014 32.1633 199.071 31.7434C199.136 31.2702 199.238 30.7232 199.306 30.493C199.339 30.3821 199.403 30.1643 199.448 30.009C199.494 29.8537 199.556 29.6695 199.587 29.5996C199.618 29.5297 199.643 29.4574 199.643 29.439C199.643 29.3906 199.819 28.964 199.848 28.9401C199.862 28.9291 199.887 28.8746 199.903 28.8191C199.928 28.7337 200.121 28.3598 200.365 27.9225C200.557 27.5792 201.02 26.9088 201.152 26.7823C201.176 26.7601 201.261 26.6574 201.343 26.5541C201.499 26.3559 202.126 25.7308 202.394 25.5044C202.482 25.4308 202.586 25.3388 202.625 25.3C202.665 25.2612 202.714 25.2294 202.733 25.2294C202.752 25.2294 202.79 25.2026 202.817 25.1699C202.874 25.1021 203.422 24.7337 203.723 24.5617C203.833 24.4985 203.933 24.4367 203.944 24.4244C203.989 24.3746 204.91 23.9401 204.976 23.9373C204.994 23.9366 205.081 23.9009 205.17 23.858C205.258 23.8152 205.355 23.7795 205.385 23.7787C205.414 23.778 205.496 23.752 205.565 23.7209C205.815 23.6098 206.56 23.4375 207.155 23.3531C207.386 23.3205 207.584 23.2833 207.597 23.2706C207.645 23.2227 209.752 23.2857 210.113 23.3458ZM24.059 31.2207C23.5861 31.3249 23.0202 31.743 22.6766 32.2422C22.6213 32.3225 22.5535 32.4123 22.5258 32.4418C22.4982 32.4712 22.4756 32.519 22.4756 32.548C22.4756 32.577 22.4496 32.6223 22.4179 32.6488C22.3862 32.6752 22.3486 32.75 22.3343 32.815C22.3201 32.88 22.2932 32.9332 22.2746 32.9332C22.256 32.9332 22.2283 32.9922 22.2129 33.0643C22.1975 33.1364 22.1695 33.2147 22.1507 33.2383C22.1318 33.262 22.0875 33.3981 22.0522 33.5408C22.0169 33.6836 21.9679 33.873 21.9433 33.9618C21.8851 34.1724 21.8849 35.679 21.9431 35.918C22.0854 36.5016 22.1213 36.6273 22.1559 36.662C22.177 36.6832 22.1943 36.725 22.1943 36.755C22.1943 36.8154 22.4887 37.4227 22.5563 37.5016C22.5798 37.529 22.6399 37.6089 22.6897 37.6791C22.933 38.0212 23.3158 38.3563 23.6613 38.5295C24.1058 38.7524 24.7108 38.8053 25.146 38.6593C25.4645 38.5524 25.691 38.4503 25.691 38.4137C25.691 38.3972 25.7272 38.3723 25.7714 38.3582C25.8919 38.3198 26.3382 37.8628 26.5218 37.5898C26.8495 37.1025 27.0507 36.6131 27.1759 35.9986C27.4088 34.8559 27.2586 33.649 26.7667 32.7114C26.1445 31.5253 25.1533 30.9796 24.059 31.2207ZM206.275 59.7608C206.043 59.7797 205.808 59.8121 205.752 59.8328C205.697 59.8535 205.554 59.8924 205.435 59.9192C205.316 59.9461 205.171 59.9927 205.113 60.0229C205.056 60.053 204.99 60.0778 204.967 60.078C204.944 60.0781 204.854 60.1145 204.768 60.1589C204.681 60.2032 204.587 60.2395 204.558 60.2395C204.53 60.2395 204.506 60.2557 204.506 60.2755C204.506 60.2953 204.466 60.322 204.416 60.3349C204.34 60.3545 203.902 60.6219 203.763 60.7332C203.429 61.0002 202.937 61.4936 202.746 61.7521C202.483 62.1085 202.055 62.9497 202.055 63.111C202.055 63.1485 202.038 63.1894 202.018 63.2019C201.998 63.2145 201.969 63.3018 201.953 63.3959C201.938 63.4901 201.897 63.676 201.862 63.8091C201.783 64.1058 201.773 65.5524 201.847 65.8561C201.873 65.9614 201.912 66.1339 201.934 66.2393C201.956 66.3446 201.99 66.4672 202.009 66.5115C202.028 66.5559 202.085 66.7011 202.135 66.8342C202.341 67.3844 202.78 68.0643 203.201 68.4871C203.466 68.753 203.803 69.0324 203.859 69.0324C203.883 69.0324 203.903 69.0496 203.903 69.0705C203.903 69.1061 203.977 69.1545 204.225 69.2817C204.28 69.3101 204.335 69.3442 204.346 69.3576C204.37 69.387 204.812 69.5971 204.849 69.5971C204.864 69.5971 204.933 69.6224 205.003 69.6533C205.41 69.8342 206.328 70.0007 206.913 70C207.513 69.9993 208.29 69.8526 208.91 69.6229C209.46 69.4192 210.268 68.8825 210.613 68.4924C210.67 68.4282 210.734 68.3556 210.756 68.331C210.918 68.1509 211.163 67.774 211.303 67.492C211.394 67.3077 211.485 67.1244 211.506 67.0846C211.526 67.0449 211.532 66.995 211.519 66.9737C211.505 66.9507 211.096 66.935 210.511 66.935H209.526L209.484 67.056C209.461 67.1226 209.426 67.177 209.406 67.177C209.386 67.177 209.37 67.1964 209.37 67.2201C209.37 67.3239 208.997 67.7452 208.719 67.9557C208.502 68.1201 208.164 68.2871 207.842 68.3887C207.576 68.4731 207.465 68.4839 206.878 68.4831C206.181 68.4822 205.94 68.4372 205.431 68.213C204.192 67.6677 203.449 66.3204 203.513 64.7368C203.544 63.9664 203.652 63.51 203.934 62.9429C204.11 62.5891 204.11 62.5895 204.526 62.1611C205.02 61.653 205.452 61.429 206.215 61.2848C207.522 61.0378 208.681 61.4589 209.319 62.4121C209.402 62.5363 209.483 62.6699 209.499 62.7092C209.525 62.7748 209.609 62.7806 210.534 62.7806C211.187 62.7806 211.54 62.7662 211.54 62.7397C211.54 62.7172 211.523 62.6673 211.503 62.6288C211.483 62.5903 211.421 62.467 211.366 62.3548C211.062 61.7344 210.735 61.3168 210.173 60.8279C210.048 60.719 209.69 60.4815 209.651 60.4815C209.629 60.4815 209.611 60.4669 209.611 60.4489C209.611 60.414 209.178 60.2041 208.794 60.0531C208.41 59.9019 207.932 59.7986 207.42 59.7563C206.885 59.7121 206.872 59.7122 206.275 59.7608ZM140.048 59.8628C140.008 59.879 139.998 60.9198 139.998 64.877C139.998 69.3935 140.004 69.8731 140.061 69.8953C140.144 69.9272 141.58 69.9272 141.662 69.8953C141.719 69.8734 141.726 69.6438 141.726 67.7172V65.5637H143.326C144.516 65.5637 144.938 65.5513 144.974 65.5153C145.007 65.4816 145.022 65.2679 145.022 64.8137C145.022 64.2554 145.013 64.1571 144.958 64.1361C144.923 64.1226 144.182 64.1116 143.31 64.1116H141.726V62.6801V61.2486L143.826 61.2382L145.926 61.2277V60.542V59.8564L143.012 59.8494C141.41 59.8455 140.076 59.8515 140.048 59.8628ZM151.512 59.8858C151.501 59.914 151.497 62.1786 151.503 64.9183L151.513 69.8996L152.256 69.9111C152.665 69.9174 153.041 69.9125 153.091 69.9002L153.181 69.8778L153.171 64.8671L153.161 59.8564L152.346 59.8454C151.716 59.837 151.527 59.8462 151.512 59.8858ZM159.397 59.8631C159.359 59.9019 159.365 69.809 159.404 69.8702C159.429 69.9095 159.624 69.919 160.237 69.9106L161.038 69.8996L161.059 66.209C161.076 62.9983 161.086 62.5329 161.135 62.6293C161.166 62.6904 161.207 62.7403 161.226 62.7403C161.244 62.7403 161.259 62.7576 161.259 62.7788C161.259 62.8125 161.343 62.9509 161.511 63.1954C161.539 63.2349 161.664 63.4255 161.791 63.6189C161.917 63.8122 162.044 64.0028 162.072 64.0424C162.101 64.0819 162.227 64.2725 162.354 64.4659C162.606 64.8511 162.643 64.9063 162.777 65.0913C162.827 65.16 162.867 65.2385 162.867 65.2656C162.867 65.2927 162.881 65.321 162.897 65.3284C162.94 65.3476 163.43 66.0852 163.43 66.1308C163.43 66.1516 163.445 66.1687 163.463 66.1687C163.481 66.1687 163.525 66.2277 163.562 66.2998C163.598 66.3718 163.681 66.5035 163.745 66.5922C163.81 66.6809 164.095 67.1075 164.379 67.54C164.663 67.9726 164.909 68.3326 164.926 68.34C164.943 68.3474 164.957 68.3714 164.957 68.3934C164.957 68.4154 165.057 68.5775 165.178 68.7536C165.3 68.9297 165.399 69.0821 165.399 69.0922C165.399 69.117 165.729 69.6043 165.789 69.6679C165.815 69.6958 165.847 69.7542 165.861 69.7976C165.896 69.9092 166.036 69.9251 166.866 69.9115L167.59 69.8996V64.878V59.8564H166.766H165.942L165.922 63.5268L165.902 67.1972L165.695 66.8789C165.582 66.7038 165.469 66.5314 165.445 66.4957C165.42 66.46 165.328 66.3257 165.239 66.1972C165.15 66.0686 165.078 65.9559 165.078 65.9466C165.078 65.9374 164.978 65.7832 164.857 65.604C164.735 65.4248 164.636 65.2623 164.636 65.2428C164.636 65.2233 164.622 65.2013 164.606 65.1939C164.564 65.1756 164.073 64.4382 164.073 64.3949C164.073 64.3759 164.059 64.3543 164.043 64.3469C164.026 64.3395 163.906 64.1701 163.776 63.9705C163.645 63.7708 163.455 63.4851 163.354 63.3355C163.252 63.1859 163.151 63.0315 163.128 62.9924C163.032 62.8211 162.605 62.1945 162.577 62.1823C162.56 62.1749 162.546 62.1529 162.546 62.1334C162.546 62.114 162.45 61.9567 162.333 61.7839C162.215 61.6111 162.108 61.438 162.093 61.3992C162.078 61.3603 162.047 61.3286 162.024 61.3286C162.002 61.3286 161.983 61.3096 161.983 61.2865C161.983 61.2504 161.69 60.7873 161.587 60.6612C161.568 60.638 161.546 60.6017 161.537 60.5805C161.528 60.5594 161.415 60.3833 161.286 60.1891L161.051 59.8362H160.238C159.79 59.8362 159.412 59.8483 159.397 59.8631ZM176.693 60.1286C176.64 60.2894 176.583 60.4392 176.568 60.4614C176.553 60.4836 176.522 60.5652 176.499 60.6429C176.476 60.7205 176.41 60.9111 176.353 61.0664C176.296 61.2217 176.203 61.4849 176.147 61.6512C176.09 61.8176 176.018 62.0109 175.987 62.0808C175.955 62.1507 175.93 62.2297 175.93 62.2563C175.93 62.2828 175.903 62.3618 175.871 62.4317C175.812 62.5598 175.791 62.6177 175.591 63.2041C175.531 63.3816 175.457 63.5812 175.427 63.6478C175.397 63.7143 175.36 63.822 175.344 63.8871C175.328 63.9522 175.29 64.052 175.261 64.1089C175.231 64.1659 175.207 64.237 175.206 64.2669C175.206 64.2968 175.181 64.3785 175.15 64.4484C175.12 64.5183 175.055 64.6935 175.005 64.8377C174.908 65.1238 174.772 65.4969 174.72 65.6242C174.702 65.6685 174.64 65.85 174.583 66.0275C174.525 66.205 174.461 66.3865 174.439 66.4309C174.418 66.4752 174.384 66.566 174.364 66.6325C174.343 66.6991 174.279 66.8806 174.223 67.0359C174.166 67.1912 174.073 67.4543 174.016 67.6207C173.96 67.7871 173.888 67.9804 173.857 68.0503C173.825 68.1202 173.799 68.2019 173.799 68.2318C173.799 68.2617 173.773 68.3371 173.74 68.3992C173.708 68.4613 173.664 68.5702 173.643 68.6412C173.621 68.7122 173.528 68.979 173.436 69.2341C173.344 69.4892 173.266 69.7433 173.263 69.7988L173.257 69.8996L174.041 69.9111C174.472 69.9174 174.864 69.9128 174.912 69.901C174.97 69.8866 175.008 69.8365 175.026 69.7484C175.042 69.6763 175.078 69.5628 175.107 69.4963C175.136 69.4297 175.235 69.1484 175.327 68.8711C175.419 68.5938 175.511 68.3306 175.531 68.2862C175.551 68.2419 175.59 68.133 175.618 68.0442L175.669 67.8829L177.747 67.8724L179.825 67.862L179.885 68.0539C179.996 68.4082 180.233 69.0921 180.273 69.1736C180.294 69.218 180.329 69.3087 180.349 69.3753C180.437 69.6614 180.521 69.8604 180.565 69.8884C180.591 69.905 180.979 69.9188 181.427 69.9192C182.33 69.9198 182.337 69.9174 182.226 69.6705C182.193 69.5969 182.119 69.3914 182.061 69.2139C182.004 69.0364 181.939 68.8597 181.917 68.8212C181.896 68.7827 181.878 68.7283 181.878 68.7002C181.878 68.6722 181.853 68.6027 181.824 68.5457C181.794 68.4888 181.757 68.389 181.741 68.3239C181.724 68.2588 181.687 68.1511 181.657 68.0846C181.626 68.018 181.584 67.9 181.562 67.8224C181.514 67.654 181.408 67.3501 181.358 67.2375C181.338 67.1932 181.274 67.0117 181.214 66.8342C181.155 66.6567 181.09 66.4752 181.071 66.4309C181.052 66.3865 180.988 66.205 180.929 66.0275C180.87 65.85 180.808 65.6867 180.792 65.6645C180.775 65.6423 180.749 65.5606 180.733 65.483C180.716 65.4054 180.689 65.3237 180.672 65.3015C180.655 65.2793 180.617 65.1795 180.589 65.0797C180.561 64.9798 180.525 64.88 180.509 64.8578C180.493 64.8356 180.461 64.754 180.438 64.6763C180.415 64.5987 180.325 64.3355 180.237 64.0915C180.15 63.8474 180.057 63.5843 180.031 63.5066C180.004 63.429 179.966 63.3291 179.945 63.2848C179.924 63.2404 179.891 63.1497 179.87 63.0831C179.85 63.0166 179.758 62.7534 179.667 62.4983C179.576 62.2431 179.476 61.9618 179.446 61.8731C179.416 61.7843 179.325 61.5302 179.244 61.3084C179.163 61.0866 179.071 60.8234 179.04 60.7236C179.009 60.6237 178.956 60.4849 178.923 60.415C178.891 60.3451 178.864 60.2702 178.864 60.2487C178.864 60.2271 178.827 60.1255 178.781 60.0228L178.699 59.8362H177.745H176.791L176.693 60.1286ZM187.917 64.8671L187.927 69.8996L188.741 69.9105L189.554 69.9214L189.565 66.2119L189.575 62.5023L189.726 62.7237C189.809 62.8454 189.876 62.9609 189.876 62.9804C189.876 62.9999 189.89 63.0219 189.907 63.0293C189.937 63.0429 190.405 63.7304 190.435 63.806C190.444 63.8282 190.539 63.9697 190.646 64.1203C190.753 64.271 190.841 64.4022 190.841 64.4119C190.841 64.4435 191.343 65.1801 191.374 65.1939C191.39 65.2013 191.404 65.2248 191.404 65.2462C191.404 65.2675 191.499 65.4248 191.615 65.5957C191.731 65.7667 191.835 65.9247 191.846 65.9468C191.883 66.0219 192.187 66.4708 192.235 66.5218C192.261 66.5497 192.294 66.6087 192.308 66.6529C192.322 66.6972 192.35 66.7334 192.371 66.7334C192.392 66.7334 192.409 66.7487 192.409 66.7675C192.409 66.8007 193.687 68.7617 193.773 68.8593C193.796 68.8861 193.815 68.9162 193.815 68.9261C193.815 68.9645 194.424 69.858 194.47 69.8874C194.497 69.9045 194.876 69.9188 195.312 69.9192L196.106 69.9198V64.8772V59.8345L195.272 59.8455L194.438 59.8564L194.418 63.5268C194.407 65.5455 194.383 67.1563 194.365 67.1065C194.347 67.0566 194.315 67.0157 194.295 67.0157C194.274 67.0157 194.257 66.9995 194.257 66.9797C194.257 66.9484 193.393 65.6124 193.302 65.5032C193.284 65.481 193.256 65.4311 193.242 65.3922C193.227 65.3534 193.196 65.3217 193.173 65.3217C193.151 65.3217 193.132 65.3029 193.132 65.28C193.132 65.2301 192.766 64.6619 192.721 64.6427C192.704 64.6353 192.69 64.6137 192.69 64.5947C192.69 64.5756 192.518 64.3038 192.308 63.9906C192.098 63.6774 191.926 63.4056 191.926 63.3866C191.926 63.3676 191.912 63.346 191.895 63.3385C191.877 63.3312 191.752 63.1527 191.616 62.9419C191.48 62.7312 191.354 62.5406 191.336 62.5184C191.279 62.448 190.962 61.972 190.962 61.9565C190.962 61.9483 190.735 61.6026 190.459 61.1882C190.183 60.7738 189.955 60.4226 189.954 60.4078C189.952 60.3929 189.865 60.2627 189.76 60.1185L189.57 59.8564L188.738 59.8455L187.907 59.8345L187.917 64.8671ZM217.516 59.8628C217.501 59.8777 217.488 62.1357 217.488 64.8804C217.488 69.3938 217.495 69.8731 217.552 69.8953C217.635 69.9273 222.929 69.9273 223.012 69.8953C223.066 69.8743 223.075 69.7736 223.075 69.1894V68.5081H221.125H219.176L219.186 67.0056L219.197 65.5032L220.916 65.4926L222.635 65.4821L222.624 64.807L222.613 64.1318L220.905 64.1116L219.197 64.0915L219.186 62.6697L219.176 61.2479L221.075 61.2473C222.12 61.2469 222.998 61.232 223.026 61.214C223.065 61.1892 223.075 61.0219 223.066 60.5189L223.055 59.8564L220.299 59.846C218.783 59.8403 217.53 59.8479 217.516 59.8628ZM177.982 62.5991C178.048 62.7988 178.119 62.9984 178.139 63.0428C178.159 63.0871 178.223 63.2686 178.28 63.4461C178.338 63.6236 178.401 63.8051 178.42 63.8495C178.439 63.8938 178.504 64.0753 178.563 64.2528C178.622 64.4303 178.686 64.6118 178.705 64.6561C178.723 64.7005 178.785 64.882 178.843 65.0595C178.901 65.237 178.964 65.4185 178.984 65.4628C179.003 65.5072 179.032 65.5889 179.046 65.6443C179.061 65.6998 179.096 65.7996 179.123 65.8662C179.202 66.0621 179.272 66.263 179.294 66.3603L179.315 66.451H177.742H176.169L176.196 66.3401C176.21 66.2791 176.236 66.211 176.253 66.1888C176.269 66.1667 176.302 66.085 176.325 66.0073C176.374 65.845 176.618 65.1549 176.687 64.9863C176.713 64.9238 176.734 64.854 176.734 64.831C176.734 64.8081 176.758 64.7321 176.789 64.6622C176.82 64.5923 176.894 64.3899 176.954 64.2125C177.163 63.6 177.344 63.0829 177.378 63.0024C177.398 62.9581 177.461 62.7766 177.519 62.5991C177.577 62.4216 177.65 62.2192 177.681 62.1493C177.713 62.0794 177.739 61.9978 177.74 61.9678C177.742 61.905 177.811 62.0859 177.982 62.5991Z" fill="white"/>
</svg>
