<svg width="248" height="78" viewBox="0 0 248 78" fill="none" xmlns="http://www.w3.org/2000/svg">
<path d="M32.9696 42.9398C32.9696 43.222 32.9696 43.5043 32.9696 43.7866C32.9696 48.1419 32.9708 52.4972 32.9696 56.8525C32.9696 57.6587 32.9648 57.6587 32.171 57.6575C31.1166 57.6551 30.5893 57.1053 30.5893 56.0082C30.5893 55.17 30.5643 54.3306 30.5977 53.4936C30.6192 52.9598 30.4413 52.7868 29.9149 52.7917C26.9914 52.8138 24.0668 52.7966 21.1433 52.8052C19.9866 52.8089 19.0125 52.4235 18.418 51.3718C18.1697 50.9325 17.9764 50.3852 17.9728 49.8845C17.937 45.5697 17.9525 41.2561 17.9453 36.9413C17.9441 36.1387 18.2175 35.4588 18.7606 34.8992C23.1977 30.3242 27.6301 25.7444 32.0851 21.1878C33.231 20.0146 35.0909 20.0747 36.2834 21.2909C39.1054 24.1711 41.9059 27.0734 44.7171 29.9659C46.2212 31.5134 47.7146 33.0719 49.2378 34.5986C49.9958 35.3594 50.3504 36.2283 50.342 37.3303C50.311 41.4193 50.2871 45.5095 50.3504 49.5985C50.3754 51.2049 49.1089 52.7966 47.3398 52.7966C43.521 52.7966 39.7023 52.7966 35.8823 52.8027C35.5421 52.8027 35.3034 52.7463 35.3046 52.3131C35.3141 49.2463 35.3129 46.1796 35.3189 43.1116C35.3189 43.0564 35.3559 43.0011 35.4263 42.8023C37.4509 44.88 39.4253 46.9085 41.5144 49.0524C42.116 45.7599 40.8888 43.4147 38.4536 41.407H45.462C44.4784 39.8068 43.213 38.8913 41.6218 38.4139C40.0532 37.9439 38.4906 38.0629 36.9364 38.5685C36.9137 38.5219 36.8898 38.4753 36.8672 38.4286C38.61 36.6296 40.354 34.8305 42.221 32.9026C40.372 32.4902 38.8201 32.8044 37.3351 33.6585C35.8525 34.5114 34.8677 35.8122 34.1084 37.469C32.4217 34.0598 29.897 32.316 26.2024 32.8105C26.1546 32.8768 26.1069 32.9431 26.0591 33.0106C27.7972 34.8084 29.5353 36.6062 31.2733 38.4029C27.8939 37.6052 25.0444 38.2409 22.9256 41.1407C22.9375 41.2156 22.9506 41.2917 22.9626 41.3665H29.6284C27.408 43.3951 26.1594 45.7231 26.7479 49.034C28.8345 46.895 30.8114 44.8677 32.7882 42.8416C32.8479 42.8735 32.9075 42.9042 32.9672 42.9361L32.9696 42.9398Z" fill="white"/>
<path d="M119.802 33.5366C119.802 34.0511 119.802 34.5655 119.802 35.0785C119.802 36.4763 119.788 37.8725 119.809 39.2688C119.817 39.7991 119.638 40.0271 119.08 40.0176C117.113 39.9843 117.425 40.2138 117.413 38.4108C117.394 35.6167 117.429 32.8226 117.393 30.0285C117.383 29.3288 117.6 29.1452 118.29 29.1294C119.112 29.1104 119.642 29.3747 120.149 30.027C121.507 31.7746 122.945 33.459 124.355 35.1655C124.501 35.3412 124.667 35.4995 124.96 35.8098C124.98 35.3365 125.004 35.0373 125.006 34.7381C125.01 33.1297 125.029 31.5213 125.003 29.9146C124.993 29.3272 125.2 29.1325 125.785 29.1484C127.667 29.199 127.372 28.9315 127.385 30.7377C127.404 33.5587 127.376 36.3781 127.402 39.1991C127.409 39.8149 127.211 40.0081 126.594 40.0334C125.785 40.065 125.223 39.8339 124.708 39.1722C123.347 37.4277 121.909 35.7433 120.497 34.0368C120.337 33.8437 120.157 33.6664 119.987 33.4812C119.926 33.4986 119.866 33.516 119.804 33.535L119.802 33.5366Z" fill="white"/>
<path d="M144.144 34.5326C144.144 33.0034 144.161 31.4726 144.134 29.9433C144.125 29.3877 144.266 29.1376 144.883 29.1455C147.125 29.1756 149.368 29.1866 151.609 29.1439C152.387 29.1297 152.376 29.5507 152.366 30.0921C152.357 30.6367 152.433 31.1401 151.589 31.1069C150.167 31.0515 148.741 31.1085 147.316 31.0831C146.738 31.0736 146.523 31.281 146.534 31.8667C146.575 33.9136 146.325 33.5353 148.18 33.5685C149.156 33.5859 150.132 33.5954 151.108 33.5654C151.85 33.5432 151.722 34.0466 151.714 34.4788C151.704 34.9236 151.878 35.4745 151.082 35.4571C149.817 35.4286 148.549 35.4698 147.284 35.4428C146.746 35.4318 146.526 35.6075 146.534 36.1663C146.569 38.4443 146.298 38.0153 148.328 38.0533C149.488 38.0754 150.65 38.0913 151.809 38.047C152.662 38.0153 152.532 38.5709 152.567 39.0965C152.605 39.6949 152.474 40.0273 151.763 40.0178C149.469 39.9862 147.174 39.9957 144.878 40.0147C144.332 40.0194 144.128 39.8247 144.136 39.2786C144.158 37.6955 144.144 36.1141 144.142 34.531L144.144 34.5326Z" fill="white"/>
<path d="M155.59 37.1537C156.868 37.8645 158.11 38.2603 159.469 38.1859C159.679 38.1748 159.894 38.1811 160.099 38.1384C160.714 38.007 161.324 37.8107 161.371 37.0556C161.417 36.3179 160.838 36.082 160.262 35.9221C159.272 35.6467 158.265 35.4282 157.279 35.1385C155.856 34.7206 155.123 33.8958 155.031 32.6959C154.92 31.2347 155.538 30.1219 156.912 29.533C158.889 28.6845 160.877 28.8728 162.84 29.6374C163.228 29.7878 163.382 30.0348 163.178 30.4385C163.083 30.6268 162.988 30.8184 162.929 31.0194C162.76 31.6083 162.479 31.7381 161.891 31.45C160.871 30.9498 159.768 30.8374 158.647 31.0527C158.047 31.1683 157.507 31.4152 157.431 32.1086C157.349 32.8542 157.897 33.1122 158.484 33.2737C159.475 33.5476 160.482 33.7676 161.465 34.0652C163.046 34.5449 163.744 35.3665 163.779 36.6947C163.817 38.1162 163.076 39.2449 161.615 39.7626C159.437 40.5351 157.306 40.2533 155.237 39.2988C154.821 39.1072 154.697 38.8429 154.936 38.4218C155.155 38.0371 155.343 37.635 155.588 37.1537H155.59Z" fill="white"/>
<path d="M135.836 37.0907C136.102 36.524 136.297 36.1298 136.473 35.7277C137.302 33.8202 138.152 31.9189 138.937 29.994C139.195 29.3607 139.531 29.0647 140.224 29.147C140.653 29.1977 141.092 29.1565 141.657 29.1565C141.519 29.5586 141.453 29.804 141.353 30.0351C140.001 33.1236 138.633 36.2058 137.299 39.3007C137.08 39.8073 136.797 40.0621 136.237 40.0162C135.844 39.9846 135.439 40.051 135.054 39.9877C134.834 39.9513 134.538 39.7867 134.454 39.6015C132.949 36.2359 131.47 32.8577 129.988 29.4811C129.969 29.4383 129.987 29.3797 129.987 29.1866C130.724 29.1866 131.472 29.1423 132.206 29.2183C132.39 29.2373 132.58 29.6219 132.689 29.8721C133.596 31.9474 134.484 34.0323 135.38 36.1124C135.499 36.3895 135.635 36.6602 135.838 37.0939L135.836 37.0907Z" fill="white"/>
<path d="M169.777 29.1597C171.121 29.1597 172.467 29.1977 173.809 29.1454C174.626 29.1138 174.531 29.6251 174.531 30.1253C174.531 30.6224 174.637 31.1781 173.825 31.1274C173.247 31.0926 172.666 31.1147 172.087 31.1163C170.991 31.1195 170.988 31.1211 170.987 32.1817C170.985 34.474 170.966 36.7678 171.001 39.06C171.012 39.7518 170.846 40.0526 170.086 40.0257C168.357 39.9656 168.582 40.1856 168.573 38.4902C168.56 36.3293 168.547 34.1669 168.585 32.0076C168.598 31.3015 168.335 31.0657 167.664 31.1021C167.007 31.1385 166.345 31.0942 165.688 31.1195C165.235 31.1369 165.028 31.0087 165.006 30.5084C164.946 29.1755 164.939 29.1597 166.302 29.1565C167.463 29.1534 168.622 29.1565 169.782 29.1565V29.1597H169.777Z" fill="white"/>
<path d="M113.249 33.3341C113.249 35.2559 113.229 37.1761 113.26 39.0979C113.271 39.7549 113.104 40.0509 112.379 40.0272C110.482 39.9654 110.781 40.1886 110.773 38.4315C110.756 34.8791 110.786 31.3252 110.751 27.7728C110.743 27.0114 110.908 26.6932 111.749 26.7328C113.46 26.8151 113.233 26.5618 113.246 28.281C113.259 29.9653 113.249 31.6497 113.249 33.3341Z" fill="white"/>
<path d="M193.219 37.5659C191.648 39.6682 188.166 40.4233 185.288 39.3833C182.508 38.378 180.825 35.7771 180.963 32.6997C181.099 29.6903 183.057 27.254 185.953 26.4941C188.775 25.7548 192.025 26.6366 193.227 28.5932C192.918 28.8513 192.538 29.1014 192.245 29.4291C191.859 29.8597 191.588 29.8343 191.14 29.4687C189.334 27.9917 186.643 28.0503 184.952 29.5494C183.2 31.1039 182.929 33.9471 184.351 35.88C185.706 37.7227 188.547 38.2498 190.55 37.0324C190.965 36.7807 191.493 36.2409 191.775 36.347C192.32 36.5528 192.728 37.1243 193.217 37.5659H193.219Z" fill="white"/>
<path d="M206.363 32.5369C206.363 31.5364 206.376 30.5343 206.357 29.5338C206.347 29.0479 206.496 28.8136 207.03 28.8167C209.137 28.8326 208.73 28.6727 208.755 30.4473C208.779 32.054 208.739 33.6624 208.777 35.2676C208.815 36.8079 209.642 37.6897 211.054 37.7942C212.722 37.9161 213.756 37.0185 213.81 35.2866C213.865 33.4962 213.83 31.7042 213.835 29.9122C213.837 29.1882 214.196 28.8252 214.91 28.8231C215.148 28.8231 215.415 28.755 215.613 28.8436C215.841 28.945 216.172 29.184 216.175 29.3676C216.207 31.4747 216.284 33.588 216.15 35.6871C215.99 38.1836 214.397 39.6875 211.882 39.7888C210.907 39.8284 209.855 39.7128 208.947 39.3772C207.275 38.7598 206.501 37.3604 206.398 35.6191C206.338 34.5948 206.387 33.5643 206.387 32.5385C206.379 32.5385 206.371 32.5385 206.362 32.5385L206.363 32.5369Z" fill="white"/>
<path d="M196.14 34.2005C196.14 32.6713 196.157 31.1405 196.13 29.6113C196.121 29.0541 196.268 28.7976 196.882 28.8134C198.783 28.8609 198.525 28.6171 198.537 30.4503C198.551 32.5874 198.559 34.7229 198.529 36.86C198.519 37.4996 198.696 37.7497 199.374 37.726C200.718 37.6801 202.065 37.7481 203.409 37.7022C204.3 37.6721 204.109 38.269 204.128 38.766C204.147 39.2631 204.164 39.6858 203.415 39.6715C201.201 39.6288 198.985 39.6446 196.77 39.6684C196.273 39.6731 196.127 39.4958 196.133 39.0256C196.151 37.4173 196.14 35.8073 196.141 34.1989L196.14 34.2005Z" fill="white"/>
<path d="M229.859 35.4938C229.569 34.9113 229.007 34.4664 228.509 33.8854C229.469 33.1129 229.834 32.0428 229.419 30.8302C229.009 29.6286 227.959 29.1648 226.791 28.9511C226.455 28.8894 226.112 28.8403 225.771 28.8371C224.139 28.8229 222.506 28.8403 220.873 28.815C220.335 28.807 220.133 28.9812 220.136 29.5384C220.156 32.6728 220.153 35.8073 220.136 38.9417C220.133 39.4752 220.28 39.6841 220.855 39.6715C222.539 39.6319 224.226 39.6905 225.911 39.6319C226.69 39.605 227.497 39.4989 228.233 39.2535C229.867 38.7074 230.609 37.0009 229.859 35.4938ZM223.538 30.588C224.296 30.6608 225.069 30.5943 225.822 30.6861C226.704 30.7938 227.146 31.2877 227.133 31.9953C227.117 32.8216 226.553 33.1398 225.862 33.2601C225.347 33.3504 224.814 33.3393 224.29 33.3725C222.531 33.3456 222.574 33.344 222.515 31.5964C222.488 30.7827 222.745 30.5104 223.538 30.588ZM226.28 37.8162C225.71 37.8811 225.127 37.8288 224.549 37.8288C222.162 37.8225 222.588 38.3306 222.529 35.7693C222.518 35.2817 222.659 35.0363 223.193 35.0569C224.215 35.0981 225.243 35.0569 226.261 35.1408C227.198 35.22 227.714 35.7724 227.704 36.5101C227.695 37.2003 227.179 37.7148 226.28 37.8162Z" fill="white"/>
<path d="M90.344 37.5408C91.9967 37.5408 93.526 37.5994 95.0473 37.5202C96.0588 37.4664 95.8736 38.0822 95.9179 38.679C95.9686 39.366 95.6726 39.518 95.0394 39.5054C92.9577 39.4658 90.8744 39.461 88.7927 39.4879C88.1309 39.4959 87.9299 39.2536 87.9347 38.6125C87.9584 35.5557 87.9552 32.4972 87.9362 29.4404C87.9331 28.8673 88.1167 28.6409 88.7088 28.6536C90.5894 28.6932 90.3298 28.4794 90.3393 30.2287C90.352 32.3642 90.3425 34.4982 90.3425 36.6337C90.3425 36.8917 90.3425 37.1514 90.3425 37.5408H90.344Z" fill="white"/>
<path d="M100.825 34.1038C100.825 35.6599 100.806 37.216 100.836 38.7706C100.847 39.331 100.646 39.4893 100.102 39.4909C98.4362 39.4956 98.4331 39.5162 98.4315 37.8223C98.4299 35.0805 98.4521 32.3371 98.4172 29.5952C98.4093 28.8892 98.5898 28.6201 99.3402 28.6454C101.053 28.7008 100.809 28.571 100.822 30.1493C100.833 31.468 100.823 32.7867 100.825 34.1053V34.1038Z" fill="white"/>
<path d="M69.6908 32.5935C69.9171 32.4003 70.039 32.3022 70.1546 32.1961C71.8991 30.5972 71.6094 27.9393 69.485 26.9135C68.6602 26.5146 67.6724 26.3325 66.7463 26.285C64.8245 26.1885 62.8963 26.2644 60.9698 26.2359C60.403 26.228 60.1687 26.3911 60.1719 26.9942C60.1909 30.9249 60.1877 34.8556 60.1751 38.7879C60.1735 39.2913 60.3413 39.4971 60.8605 39.4908C63.129 39.4639 65.3991 39.5066 67.666 39.4227C68.4623 39.3942 69.2871 39.1694 70.0327 38.8686C71.2342 38.3826 71.8548 37.417 71.9244 36.0983C72.0115 34.4504 71.2374 33.3375 69.6908 32.5935ZM62.6921 28.7087C62.7032 28.5266 63.0103 28.2369 63.2066 28.2132C63.7781 28.1467 64.3622 28.1894 64.94 28.1894C64.94 28.1688 64.9432 28.1483 64.9448 28.1293C65.7284 28.1942 66.5262 28.1926 67.294 28.3414C68.2787 28.5314 68.7552 29.1598 68.7441 30.0352C68.7346 30.8727 68.2676 31.5471 67.313 31.6515C65.9089 31.8035 64.4825 31.775 63.0641 31.7798C62.9327 31.7798 62.6937 31.4806 62.6858 31.3112C62.6462 30.4453 62.6351 29.573 62.6889 28.7087H62.6921ZM67.7278 37.4249C66.9014 37.5531 66.0529 37.5341 65.2139 37.58C65.2139 37.5658 65.2139 37.5515 65.2123 37.5373C64.5554 37.5373 63.8921 37.58 63.243 37.512C63.0356 37.4898 62.7095 37.1795 62.6969 36.9832C62.6367 36.0936 62.6415 35.1944 62.6921 34.3031C62.7032 34.11 62.9992 33.7728 63.1654 33.7728C64.6883 33.7665 66.2176 33.7396 67.7309 33.882C68.8866 33.9913 69.4549 34.7163 69.4422 35.6915C69.4296 36.6191 68.8692 37.2476 67.7294 37.4249H67.7278Z" fill="white"/>
<path d="M85.2186 38.565C83.9268 35.7076 82.643 32.847 81.3369 29.9959C80.6198 28.4319 81.0013 28.7137 79.2695 28.6472C78.5824 28.6203 78.2421 28.8736 77.9666 29.4957C76.61 32.5557 75.2042 35.5936 73.8206 38.6394C73.7162 38.8689 73.6449 39.1111 73.5547 39.3597C75.4274 39.7602 75.687 39.6367 76.4026 38.0584C76.4469 37.9618 76.4991 37.87 76.5308 37.7687C76.6764 37.2874 77.0057 37.1418 77.4917 37.1545C78.4669 37.1798 79.4563 37.2621 80.414 37.1339C81.8213 36.9471 82.6619 37.403 82.9896 38.8167C83.0482 39.07 83.3427 39.4198 83.5674 39.4531C84.1769 39.5417 84.8086 39.4831 85.5953 39.4831C85.4149 39.043 85.3262 38.7993 85.2186 38.565ZM77.6532 35.2327C78.269 33.7984 78.8452 32.4576 79.4215 31.1167C79.4927 31.1057 79.5655 31.0946 79.6367 31.0819C80.2161 32.4259 80.7971 33.7715 81.4256 35.2311H77.6532V35.2327Z" fill="white"/>
<path d="M61.6262 46.9984C61.9629 46.8169 62.3785 46.7285 62.8752 46.7285V47.4211L62.7009 47.4115C62.1373 47.4115 61.6955 47.5811 61.3755 47.9226C61.0555 48.2641 60.8955 48.7417 60.8955 49.3578V52.0468H60.1719V46.7715H60.8644V47.8055C61.034 47.4521 61.2871 47.1846 61.6238 47.0032L61.6262 46.9984Z" fill="white"/>
<path d="M70.4569 49.6277H65.9697C66.0103 50.1769 66.2252 50.6187 66.6121 50.9578C66.9989 51.2969 67.4885 51.4641 68.0807 51.4641C68.4127 51.4641 68.7208 51.4068 68.9978 51.2897C69.2772 51.1727 69.5184 51.0008 69.7214 50.7739L70.1297 51.2348C69.8909 51.5166 69.5948 51.7292 69.2366 51.8772C68.8808 52.0253 68.4867 52.0969 68.0593 52.0969C67.5076 52.0969 67.0204 51.9823 66.5954 51.7507C66.1703 51.519 65.8383 51.2014 65.6019 50.793C65.3631 50.3847 65.2461 49.9238 65.2461 49.408C65.2461 48.8921 65.3607 48.4312 65.5876 48.0229C65.8145 47.6145 66.1273 47.2969 66.5261 47.07C66.9249 46.8431 67.3715 46.7285 67.8682 46.7285C68.3649 46.7285 68.8091 46.8431 69.2031 47.07C69.5972 47.2969 69.9076 47.6145 70.1321 48.0181C70.3566 48.4241 70.4688 48.885 70.4688 49.408L70.4593 49.6277H70.4569ZM66.5667 47.827C66.2157 48.1518 66.0174 48.5745 65.9697 49.0951H69.7739C69.7261 48.5745 69.5279 48.1494 69.1769 47.827C68.8258 47.5022 68.3888 47.3399 67.8658 47.3399C67.3428 47.3399 66.9154 47.5022 66.5643 47.827H66.5667Z" fill="white"/>
<path d="M77.1338 47.2443C77.5087 47.5882 77.695 48.0993 77.695 48.7751V52.0444H77.0025V51.2229C76.8401 51.4975 76.5989 51.7101 76.2836 51.8653C75.9684 52.0181 75.5911 52.0969 75.1565 52.0969C74.5571 52.0969 74.0818 51.956 73.7284 51.6766C73.375 51.3948 73.1982 51.0247 73.1982 50.5638C73.1982 50.1029 73.363 49.7542 73.6926 49.4796C74.0221 49.205 74.5475 49.0688 75.2687 49.0688H76.9714V48.7488C76.9714 48.2951 76.8425 47.9488 76.5845 47.71C76.3266 47.4736 75.9493 47.3542 75.4526 47.3542C75.1135 47.3542 74.7863 47.4091 74.4735 47.519C74.1606 47.6288 73.8932 47.7817 73.6687 47.9751L73.3415 47.4425C73.6138 47.2157 73.9385 47.039 74.3206 46.9148C74.7003 46.7906 75.1015 46.7285 75.5242 46.7285C76.2239 46.7285 76.7613 46.9005 77.1362 47.2443H77.1338ZM76.3171 51.2563C76.6084 51.0724 76.8257 50.8074 76.969 50.4587V49.5966H75.2854C74.3684 49.5966 73.9075 49.9118 73.9075 50.5399C73.9075 50.848 74.0269 51.0892 74.2633 51.2659C74.5021 51.4426 74.8341 51.5309 75.2639 51.5309C75.6938 51.5309 76.021 51.4402 76.3147 51.2539L76.3171 51.2563Z" fill="white"/>
<path d="M81.2871 44.6006H82.0107V52.0442H81.2871V44.6006Z" fill="white"/>
<path d="M95.2518 49.6277H90.7646C90.8052 50.1769 91.0201 50.6187 91.407 50.9578C91.7939 51.2969 92.2834 51.4641 92.8757 51.4641C93.2076 51.4641 93.5157 51.4068 93.7927 51.2897C94.0721 51.1727 94.3133 51.0008 94.5163 50.7739L94.9246 51.2348C94.6858 51.5166 94.3897 51.7292 94.0315 51.8772C93.6757 52.0253 93.2816 52.0969 92.8542 52.0969C92.3025 52.0969 91.8154 51.9823 91.3903 51.7507C90.9652 51.519 90.6333 51.2014 90.3968 50.793C90.158 50.3847 90.041 49.9238 90.041 49.408C90.041 48.8921 90.1556 48.4312 90.3825 48.0229C90.6094 47.6145 90.9222 47.2969 91.321 47.07C91.7198 46.8431 92.1664 46.7285 92.6631 46.7285C93.1599 46.7285 93.604 46.8431 93.9981 47.07C94.3921 47.2969 94.7026 47.6145 94.927 48.0181C95.1515 48.4241 95.2638 48.885 95.2638 49.408L95.2542 49.6277H95.2518ZM91.3616 47.827C91.0106 48.1518 90.8124 48.5745 90.7646 49.0951H94.5688C94.5211 48.5745 94.3228 48.1494 93.9718 47.827C93.6207 47.5022 93.1837 47.3399 92.6607 47.3399C92.1378 47.3399 91.7103 47.5022 91.3592 47.827H91.3616Z" fill="white"/>
<path d="M98.7511 51.9085C98.3523 51.7843 98.0419 51.6291 97.8174 51.4428L98.1445 50.8816C98.369 51.0559 98.6508 51.1968 98.9899 51.309C99.329 51.4189 99.6825 51.4738 100.05 51.4738C100.54 51.4738 100.903 51.3998 101.137 51.247C101.371 51.0965 101.488 50.884 101.488 50.6093C101.488 50.4159 101.423 50.2631 101.294 50.1532C101.165 50.0434 101.003 49.9598 100.805 49.9025C100.607 49.8452 100.346 49.7902 100.019 49.7377C99.5846 49.6565 99.2335 49.5753 98.9684 49.4917C98.7034 49.4081 98.4765 49.2649 98.2902 49.0643C98.104 48.8637 98.0108 48.5866 98.0108 48.2308C98.0108 47.789 98.1971 47.4284 98.572 47.1466C98.9469 46.8648 99.4652 46.7263 100.134 46.7263C100.48 46.7263 100.826 46.7717 101.175 46.8624C101.524 46.9532 101.808 47.0726 102.032 47.2183L101.717 47.789C101.275 47.4881 100.748 47.3377 100.136 47.3377C99.6729 47.3377 99.3243 47.4189 99.0902 47.5789C98.8562 47.7389 98.7392 47.949 98.7392 48.2117C98.7392 48.4123 98.806 48.5723 98.9374 48.6941C99.0687 48.8135 99.2359 48.9043 99.4317 48.9592C99.6299 49.0165 99.8998 49.0738 100.248 49.1335C100.676 49.2147 101.02 49.2935 101.278 49.3747C101.536 49.4559 101.758 49.592 101.942 49.7855C102.125 49.9789 102.216 50.2464 102.216 50.5879C102.216 51.0488 102.02 51.4165 101.629 51.6864C101.237 51.9562 100.695 52.0923 100.002 52.0923C99.5678 52.0923 99.1499 52.0302 98.7535 51.9061L98.7511 51.9085Z" fill="white"/>
<path d="M108.345 51.7246C108.208 51.844 108.041 51.9372 107.841 51.9993C107.64 52.0637 107.43 52.0948 107.213 52.0948C106.709 52.0948 106.322 51.961 106.05 51.6936C105.777 51.4261 105.641 51.0488 105.641 50.5592V47.3688H104.684V46.767H105.641V45.6135H106.365V46.767H107.996V47.3688H106.365V50.5186C106.365 50.8339 106.444 51.0727 106.604 51.2351C106.764 51.3998 106.993 51.481 107.291 51.481C107.442 51.481 107.585 51.4572 107.726 51.4118C107.865 51.364 107.986 51.2972 108.089 51.2112L108.345 51.7222V51.7246Z" fill="white"/>
<path d="M114.868 47.2443C115.243 47.5882 115.429 48.0993 115.429 48.7751V52.0444H114.737V51.2229C114.574 51.4975 114.333 51.7101 114.018 51.8653C113.703 52.0181 113.325 52.0969 112.891 52.0969C112.291 52.0969 111.816 51.956 111.463 51.6766C111.109 51.3948 110.933 51.0247 110.933 50.5638C110.933 50.1029 111.097 49.7542 111.427 49.4796C111.756 49.205 112.282 49.0688 113.003 49.0688H114.706V48.7488C114.706 48.2951 114.577 47.9488 114.319 47.71C114.061 47.4736 113.684 47.3542 113.187 47.3542C112.848 47.3542 112.521 47.4091 112.208 47.519C111.895 47.6288 111.628 47.7817 111.403 47.9751L111.076 47.4425C111.348 47.2157 111.673 47.039 112.055 46.9148C112.435 46.7906 112.836 46.7285 113.259 46.7285C113.958 46.7285 114.496 46.9005 114.871 47.2443H114.868ZM114.051 51.2563C114.343 51.0724 114.56 50.8074 114.703 50.4587V49.5966H113.02C112.103 49.5966 111.642 49.9118 111.642 50.5399C111.642 50.848 111.761 51.0892 111.998 51.2659C112.237 51.4426 112.568 51.5309 112.998 51.5309C113.428 51.5309 113.755 51.4402 114.049 51.2539L114.051 51.2563Z" fill="white"/>
<path d="M121.79 51.7246C121.654 51.844 121.487 51.9372 121.286 51.9993C121.085 52.0637 120.875 52.0948 120.658 52.0948C120.154 52.0948 119.767 51.961 119.495 51.6936C119.223 51.4261 119.087 51.0488 119.087 50.5592V47.3688H118.129V46.767H119.087V45.6135H119.81V46.767H121.441V47.3688H119.81V50.5186C119.81 50.8339 119.889 51.0727 120.049 51.2351C120.209 51.3998 120.438 51.481 120.737 51.481C120.887 51.481 121.03 51.4572 121.171 51.4118C121.31 51.364 121.432 51.2972 121.534 51.2112L121.79 51.7222V51.7246Z" fill="white"/>
<path d="M129.3 49.6277H124.812C124.853 50.1769 125.068 50.6187 125.455 50.9578C125.842 51.2969 126.331 51.4641 126.924 51.4641C127.255 51.4641 127.564 51.4068 127.841 51.2897C128.12 51.1727 128.361 51.0008 128.564 50.7739L128.972 51.2348C128.734 51.5166 128.438 51.7292 128.079 51.8772C127.724 52.0253 127.329 52.0969 126.902 52.0969C126.35 52.0969 125.863 51.9823 125.438 51.7507C125.013 51.519 124.681 51.2014 124.445 50.793C124.206 50.3847 124.089 49.9238 124.089 49.408C124.089 48.8921 124.203 48.4312 124.43 48.0229C124.657 47.6145 124.97 47.2969 125.369 47.07C125.768 46.8431 126.214 46.7285 126.711 46.7285C127.208 46.7285 127.652 46.8431 128.046 47.07C128.44 47.2969 128.75 47.6145 128.975 48.0181C129.199 48.4241 129.312 48.885 129.312 49.408L129.302 49.6277H129.3ZM125.409 47.827C125.058 48.1518 124.86 48.5745 124.812 49.0951H128.617C128.569 48.5745 128.371 48.1494 128.02 47.827C127.669 47.5022 127.232 47.3399 126.709 47.3399C126.186 47.3399 125.758 47.5022 125.407 47.827H125.409Z" fill="white"/>
<path d="M142.6 52.1545L141.611 51.1515C141.007 51.7868 140.21 52.1044 139.226 52.1044C138.762 52.1044 138.349 52.028 137.986 51.8775C137.623 51.7271 137.339 51.5169 137.134 51.2447C136.931 50.9748 136.828 50.6644 136.828 50.3181C136.828 49.8978 136.964 49.5181 137.236 49.1838C137.509 48.8494 137.972 48.4984 138.624 48.1306C138.285 47.782 138.048 47.4858 137.919 47.2423C137.791 46.9987 137.726 46.7384 137.726 46.4661C137.726 46.0172 137.888 45.6566 138.216 45.3819C138.543 45.1073 138.98 44.9712 139.531 44.9712C140.042 44.9712 140.446 45.0954 140.745 45.3413C141.043 45.5897 141.194 45.9288 141.194 46.3658C141.194 46.7145 141.074 47.0273 140.835 47.3044C140.597 47.5814 140.186 47.887 139.601 48.2214L141.559 50.2083C141.776 49.8262 141.936 49.3748 142.039 48.8542L142.631 49.0357C142.502 49.6638 142.292 50.2035 141.998 50.65L143.018 51.6841L142.6 52.1545ZM141.182 50.7193L139.03 48.5414C138.466 48.8566 138.077 49.1408 137.862 49.3939C137.647 49.6471 137.54 49.9312 137.54 50.2465C137.54 50.6286 137.697 50.9342 138.015 51.1635C138.33 51.3951 138.748 51.5098 139.264 51.5098C140.052 51.5098 140.692 51.2447 141.182 50.7169V50.7193ZM138.698 45.764C138.497 45.9384 138.397 46.1676 138.397 46.4566C138.397 46.6643 138.452 46.8602 138.559 47.0488C138.669 47.2351 138.882 47.4906 139.202 47.8106C139.718 47.5169 140.076 47.2661 140.272 47.0584C140.47 46.8506 140.568 46.6237 140.568 46.3754C140.568 46.1079 140.477 45.8954 140.293 45.7378C140.109 45.5801 139.854 45.5013 139.529 45.5013C139.176 45.5013 138.899 45.5873 138.698 45.7616V45.764Z" fill="white"/>
<path d="M150.696 45.4654C150.593 45.3651 150.543 45.2457 150.543 45.1048C150.543 44.9639 150.593 44.854 150.696 44.7537C150.798 44.6534 150.923 44.6033 151.073 44.6033C151.224 44.6033 151.348 44.651 151.45 44.749C151.553 44.8469 151.603 44.9615 151.603 45.0952C151.603 45.2433 151.553 45.3651 151.45 45.4654C151.348 45.5657 151.224 45.6158 151.073 45.6158C150.923 45.6158 150.798 45.5657 150.696 45.4654ZM150.705 46.7693H151.429V52.0445H150.705V46.7693Z" fill="white"/>
<path d="M159.391 47.3042C159.79 47.6887 159.988 48.2499 159.988 48.9854V52.0446H159.264V49.0547C159.264 48.5054 159.126 48.0875 158.846 47.801C158.567 47.5144 158.171 47.3687 157.652 47.3687C157.074 47.3687 156.618 47.5383 156.279 47.875C155.943 48.2117 155.775 48.6798 155.775 49.2744V52.0422H155.052V46.7669H155.744V47.7389C155.943 47.4189 156.215 47.1681 156.566 46.9914C156.917 46.8147 157.323 46.7263 157.784 46.7263C158.457 46.7263 158.992 46.9198 159.391 47.3042Z" fill="white"/>
<path d="M167.995 46.769L165.609 52.0443H164.864L162.488 46.769H163.243L165.251 51.2634L167.281 46.769H167.995Z" fill="white"/>
<path d="M175.346 49.6277H170.858C170.899 50.1769 171.114 50.6187 171.501 50.9578C171.888 51.2969 172.377 51.4641 172.969 51.4641C173.301 51.4641 173.609 51.4068 173.886 51.2897C174.166 51.1727 174.407 51.0008 174.61 50.7739L175.018 51.2348C174.78 51.5166 174.483 51.7292 174.125 51.8772C173.769 52.0253 173.375 52.0969 172.948 52.0969C172.396 52.0969 171.909 51.9823 171.484 51.7507C171.059 51.519 170.727 51.2014 170.491 50.793C170.252 50.3847 170.135 49.9238 170.135 49.408C170.135 48.8921 170.249 48.4312 170.476 48.0229C170.703 47.6145 171.016 47.2969 171.415 47.07C171.814 46.8431 172.26 46.7285 172.757 46.7285C173.254 46.7285 173.698 46.8431 174.092 47.07C174.486 47.2969 174.796 47.6145 175.021 48.0181C175.245 48.4241 175.358 48.885 175.358 49.408L175.348 49.6277H175.346ZM171.455 47.827C171.104 48.1518 170.906 48.5745 170.858 49.0951H174.663C174.615 48.5745 174.417 48.1494 174.066 47.827C173.715 47.5022 173.277 47.3399 172.754 47.3399C172.232 47.3399 171.804 47.5022 171.453 47.827H171.455Z" fill="white"/>
<path d="M178.847 51.9085C178.448 51.7843 178.138 51.6291 177.913 51.4428L178.24 50.8816C178.465 51.0559 178.747 51.1968 179.086 51.309C179.425 51.4189 179.778 51.4738 180.146 51.4738C180.635 51.4738 180.998 51.3998 181.233 51.247C181.467 51.0965 181.584 50.884 181.584 50.6093C181.584 50.4159 181.519 50.2631 181.39 50.1532C181.261 50.0434 181.099 49.9598 180.901 49.9025C180.702 49.8452 180.442 49.7902 180.115 49.7377C179.68 49.6565 179.329 49.5753 179.064 49.4917C178.799 49.4081 178.572 49.2649 178.386 49.0643C178.2 48.8637 178.107 48.5866 178.107 48.2308C178.107 47.789 178.293 47.4284 178.668 47.1466C179.043 46.8648 179.561 46.7263 180.23 46.7263C180.576 46.7263 180.922 46.7717 181.271 46.8624C181.619 46.9532 181.904 47.0726 182.128 47.2183L181.813 47.789C181.371 47.4881 180.843 47.3377 180.232 47.3377C179.769 47.3377 179.42 47.4189 179.186 47.5789C178.952 47.7389 178.835 47.949 178.835 48.2117C178.835 48.4123 178.902 48.5723 179.033 48.6941C179.164 48.8135 179.332 48.9043 179.527 48.9592C179.726 49.0165 179.995 49.0738 180.344 49.1335C180.772 49.2147 181.116 49.2935 181.373 49.3747C181.631 49.4559 181.853 49.592 182.037 49.7855C182.221 49.9789 182.312 50.2464 182.312 50.5879C182.312 51.0488 182.116 51.4165 181.724 51.6864C181.333 51.9562 180.791 52.0923 180.098 52.0923C179.664 52.0923 179.246 52.0302 178.849 51.9061L178.847 51.9085Z" fill="white"/>
<path d="M188.439 51.7246C188.303 51.844 188.136 51.9372 187.935 51.9993C187.735 52.0637 187.525 52.0948 187.307 52.0948C186.803 52.0948 186.417 51.961 186.144 51.6936C185.872 51.4261 185.736 51.0488 185.736 50.5592V47.3688H184.778V46.767H185.736V45.6135H186.46V46.767H188.091V47.3688H186.46V50.5186C186.46 50.8339 186.538 51.0727 186.698 51.2351C186.858 51.3998 187.088 51.481 187.386 51.481C187.537 51.481 187.68 51.4572 187.821 51.4118C187.959 51.364 188.081 51.2972 188.184 51.2112L188.439 51.7222V51.7246Z" fill="white"/>
<path d="M199.674 47.2992C200.058 47.6813 200.249 48.2425 200.249 48.9852V52.0443H199.526V49.0544C199.526 48.5051 199.392 48.0872 199.122 47.8007C198.854 47.5141 198.475 47.3684 197.985 47.3684C197.429 47.3684 196.989 47.538 196.669 47.8747C196.349 48.2114 196.189 48.6795 196.189 49.2741V52.0419H195.466V49.052C195.466 48.5028 195.332 48.0848 195.062 47.7983C194.795 47.5117 194.41 47.366 193.916 47.366C193.364 47.366 192.927 47.5356 192.605 47.8723C192.282 48.209 192.12 48.6771 192.12 49.2717V52.0395H191.396V46.7642H192.089V47.7266C192.28 47.4066 192.545 47.1583 192.884 46.9839C193.223 46.8096 193.615 46.7236 194.057 46.7236C194.499 46.7236 194.895 46.8168 195.225 47.0054C195.554 47.1941 195.8 47.4711 195.965 47.8389C196.163 47.4902 196.445 47.218 196.817 47.0221C197.188 46.8239 197.61 46.726 198.088 46.726C198.761 46.726 199.289 46.9171 199.674 47.2968V47.2992Z" fill="white"/>
<path d="M208.61 49.6277H204.123C204.164 50.1769 204.379 50.6187 204.765 50.9578C205.152 51.2969 205.642 51.4641 206.234 51.4641C206.566 51.4641 206.874 51.4068 207.151 51.2897C207.43 51.1727 207.672 51.0008 207.875 50.7739L208.283 51.2348C208.044 51.5166 207.748 51.7292 207.39 51.8772C207.034 52.0253 206.64 52.0969 206.213 52.0969C205.661 52.0969 205.174 51.9823 204.749 51.7507C204.324 51.519 203.992 51.2014 203.755 50.793C203.516 50.3847 203.399 49.9238 203.399 49.408C203.399 48.8921 203.514 48.4312 203.741 48.0229C203.968 47.6145 204.281 47.2969 204.679 47.07C205.078 46.8431 205.525 46.7285 206.022 46.7285C206.518 46.7285 206.962 46.8431 207.356 47.07C207.75 47.2969 208.061 47.6145 208.285 48.0181C208.51 48.4241 208.622 48.885 208.622 49.408L208.613 49.6277H208.61ZM204.72 47.827C204.369 48.1518 204.171 48.5745 204.123 49.0951H207.927C207.879 48.5745 207.681 48.1494 207.33 47.827C206.979 47.5022 206.542 47.3399 206.019 47.3399C205.496 47.3399 205.069 47.5022 204.718 47.827H204.72Z" fill="white"/>
<path d="M216.131 47.3042C216.53 47.6887 216.728 48.2499 216.728 48.9854V52.0446H216.005V49.0547C216.005 48.5054 215.866 48.0875 215.587 47.801C215.307 47.5144 214.911 47.3687 214.393 47.3687C213.815 47.3687 213.359 47.5383 213.019 47.875C212.683 48.2117 212.516 48.6798 212.516 49.2744V52.0422H211.792V46.7669H212.485V47.7389C212.683 47.4189 212.955 47.1681 213.306 46.9914C213.657 46.8147 214.063 46.7263 214.524 46.7263C215.197 46.7263 215.732 46.9198 216.131 47.3042Z" fill="white"/>
<path d="M223.076 51.7246C222.94 51.844 222.773 51.9372 222.572 51.9993C222.371 52.0637 222.161 52.0948 221.944 52.0948C221.44 52.0948 221.053 51.961 220.781 51.6936C220.509 51.4261 220.373 51.0488 220.373 50.5592V47.3688H219.415V46.767H220.373V45.6135H221.096V46.767H222.727V47.3688H221.096V50.5186C221.096 50.8339 221.175 51.0727 221.335 51.2351C221.495 51.3998 221.724 51.481 222.023 51.481C222.173 51.481 222.317 51.4572 222.457 51.4118C222.596 51.364 222.718 51.2972 222.82 51.2112L223.076 51.7222V51.7246Z" fill="white"/>
<path d="M226.59 51.9085C226.191 51.7843 225.881 51.6291 225.656 51.4428L225.983 50.8816C226.208 51.0559 226.49 51.1968 226.829 51.309C227.168 51.4189 227.521 51.4738 227.889 51.4738C228.379 51.4738 228.742 51.3998 228.976 51.247C229.21 51.0965 229.327 50.884 229.327 50.6093C229.327 50.4159 229.262 50.2631 229.133 50.1532C229.004 50.0434 228.842 49.9598 228.644 49.9025C228.446 49.8452 228.185 49.7902 227.858 49.7377C227.423 49.6565 227.072 49.5753 226.807 49.4917C226.542 49.4081 226.315 49.2649 226.129 49.0643C225.943 48.8637 225.85 48.5866 225.85 48.2308C225.85 47.789 226.036 47.4284 226.411 47.1466C226.786 46.8648 227.304 46.7263 227.973 46.7263C228.319 46.7263 228.665 46.7717 229.014 46.8624C229.363 46.9532 229.647 47.0726 229.871 47.2183L229.556 47.789C229.114 47.4881 228.586 47.3377 227.975 47.3377C227.512 47.3377 227.163 47.4189 226.929 47.5789C226.695 47.7389 226.578 47.949 226.578 48.2117C226.578 48.4123 226.645 48.5723 226.776 48.6941C226.908 48.8135 227.075 48.9043 227.271 48.9592C227.469 49.0165 227.739 49.0738 228.087 49.1335C228.515 49.2147 228.859 49.2935 229.117 49.3747C229.375 49.4559 229.597 49.592 229.78 49.7855C229.964 49.9789 230.055 50.2464 230.055 50.5879C230.055 51.0488 229.859 51.4165 229.468 51.6864C229.076 51.9562 228.534 52.0923 227.841 52.0923C227.407 52.0923 226.989 52.0302 226.592 51.9061L226.59 51.9085Z" fill="white"/>
</svg>
