<svg width="248" height="78" viewBox="0 0 248 78" fill="none" xmlns="http://www.w3.org/2000/svg">
<path d="M15.6299 25.1709H21.7962C26.6966 25.1709 29.7634 26.8546 29.7634 31.8013V33.7425C29.7634 38.5408 26.6966 40.1897 21.7962 40.1897H18.1603V49.5667C17.401 49.7136 16.4218 49.7136 15.6314 49.5667V25.1709H15.6299ZM27.2344 32.2041C27.2344 28.3203 24.8006 27.7343 21.7962 27.7343H18.1603V37.6989H21.7962C24.8006 37.6989 27.2344 37.0751 27.2344 33.3397V32.2041Z" fill="white"/>
<path d="M32.4805 30.8852C33.1446 30.7384 33.84 30.7384 34.5042 30.8852L34.7568 33.7424H34.9143C35.4195 31.4712 37.4432 30.5188 40.1951 30.5188C40.3214 31.2153 40.3214 32.3872 40.1951 33.0822C36.7805 33.0822 35.7999 33.962 34.947 36.5617V49.5667C34.2516 49.7136 33.1759 49.7136 32.4805 49.5667V30.8837V30.8852Z" fill="white"/>
<path d="M54.674 41.1783C52.2401 41.3616 47.4334 41.3979 44.4616 41.2147V43.7054C44.4616 46.9654 46.3264 47.4423 48.888 47.4423C50.8806 47.4423 52.2089 47.2591 53.9786 46.8564C54.1049 47.5529 54.1049 48.6506 53.9786 49.3471C51.986 49.7862 50.3115 50.0073 48.5091 50.0073C44.4928 50.0073 41.9951 48.5053 41.9951 44.3656V36.1605C41.9951 31.9481 44.5567 30.5188 48.414 30.5188C52.2713 30.5188 54.674 32.4236 54.674 36.7101V41.1799V41.1783ZM52.2401 36.6723C52.2401 33.4123 50.4378 33.0096 48.3828 33.0096C46.3279 33.0096 44.4631 33.4123 44.4631 36.6723V39.2736L47.1823 39.0903H52.2416V36.6723H52.2401Z" fill="white"/>
<path d="M57.6025 23.1919C58.2979 23.0086 59.3737 23.0086 60.0691 23.1919V49.5667C59.3737 49.7135 58.2979 49.7135 57.6025 49.5667V23.1919Z" fill="white"/>
<path d="M75.9152 41.1783C73.4813 41.3616 68.6746 41.3979 65.7029 41.2147V43.7054C65.7029 46.9654 67.5676 47.4423 70.1292 47.4423C72.1218 47.4423 73.4501 47.2591 75.2198 46.8564C75.3461 47.5529 75.3461 48.6506 75.2198 49.3471C73.2273 49.7862 71.5527 50.0073 69.7503 50.0073C65.7341 50.0073 63.2363 48.5053 63.2363 44.3656V36.1605C63.2363 31.9481 65.798 30.5188 69.6552 30.5188C73.5125 30.5188 75.9152 32.4236 75.9152 36.7101V41.1799V41.1783ZM73.4813 36.6723C73.4813 33.4123 71.679 33.0096 69.624 33.0096C67.5691 33.0096 65.7043 33.4123 65.7043 36.6723V39.2736L68.4235 39.0903H73.4828V36.6723H73.4813Z" fill="white"/>
<path d="M77.1978 30.9943C77.9571 30.8111 79.0313 30.8111 79.7594 30.9943L84.2809 46.2327L88.7072 30.9943C89.4026 30.8111 90.5096 30.8111 91.2362 30.9943L85.5765 49.5668C84.8812 49.7137 83.584 49.7137 82.8886 49.5668L77.1963 30.9943H77.1978Z" fill="white"/>
<path d="M96.1708 26.8545C95.4427 27.0014 94.2421 27.0014 93.4828 26.8545L93.4189 23.9974C94.2094 23.8505 95.4739 23.8505 96.2659 23.9974L96.1708 26.8545ZM93.6091 30.9942C94.3045 30.811 95.3803 30.811 96.0757 30.9942V49.5667C95.3803 49.7135 94.3045 49.7135 93.6091 49.5667V30.9942Z" fill="white"/>
<path d="M99.1943 36.0499C99.1943 31.8739 101.597 30.4446 105.361 30.4446C106.91 30.4446 108.427 30.5551 110.136 30.9579C110.294 31.6907 110.294 32.7158 110.136 33.4123C108.586 33.0822 107.479 32.9732 105.646 32.9732C103.591 32.9732 101.662 33.376 101.662 36.6722V43.7418C101.662 46.9654 103.591 47.3681 105.646 47.3681C107.512 47.3681 108.586 47.1849 110.136 46.8185C110.294 47.515 110.294 48.5764 110.136 49.2729C108.429 49.712 106.943 49.9316 105.361 49.9316C101.535 49.9316 99.1943 48.4295 99.1943 44.3641V36.0499Z" fill="white"/>
<path d="M119.525 49.5346V25.1387C120.316 24.9918 121.297 24.9918 122.054 25.1387V47.0438H131.066C131.224 47.7024 131.224 48.838 131.066 49.5346H119.525Z" fill="white"/>
<path d="M143.025 46.9712H142.866C142.328 49.1697 140.273 49.9753 137.618 49.9753C134.551 49.9753 132.242 48.4732 132.242 44.591C132.242 39.7912 134.74 38.7297 138.313 38.7297C139.83 38.7297 141.128 38.8766 142.835 39.1325V36.6054C142.835 34.2615 141.823 32.979 138.377 32.979C136.954 32.979 135.373 33.1259 133.572 33.4923C133.446 32.7231 133.446 31.7708 133.572 31.0379C135.469 30.5988 137.239 30.4883 138.979 30.4883C143.12 30.4883 145.303 32.2099 145.303 35.6894V49.7194C144.734 49.8663 143.848 49.8663 143.248 49.7194L143.027 46.9727L143.025 46.9712ZM142.835 41.2932C141.411 40.9994 140.021 40.8889 138.819 40.8889C136.195 40.8889 134.709 41.328 134.709 44.2957C134.709 47.2634 136.416 47.483 138.376 47.483C141.126 47.483 142.043 46.6775 142.833 44.5153V41.2917L142.835 41.2932Z" fill="white"/>
<path d="M158.189 34.9186L154.394 49.5346C153.667 49.6814 152.306 49.6814 151.579 49.5346L146.553 30.9621C147.279 30.7789 148.355 30.7789 149.05 30.9621L153.003 46.3851L156.924 30.9621C157.557 30.7789 158.821 30.7789 159.453 30.9621L163.405 46.4215L167.358 30.9621C168.148 30.7789 169.16 30.7789 169.855 30.9621L164.827 49.5346C164.068 49.6814 162.772 49.6814 162.013 49.5346L158.187 34.9186H158.189Z" fill="white"/>
<path d="M179.56 38.6917V49.5345C178.801 49.6814 177.822 49.6814 177.031 49.5345V25.1387H188.731C188.888 25.8352 188.888 26.8966 188.731 27.5931H179.562V36.2373H188.067C188.224 36.896 188.224 37.9952 188.067 38.6917H179.562H179.56Z" fill="white"/>
<path d="M193.857 26.8223C193.13 26.9692 191.928 26.9692 191.169 26.8223L191.106 23.9651C191.897 23.8183 193.161 23.8183 193.952 23.9651L193.857 26.8223ZM191.295 30.962C191.991 30.7788 193.066 30.7788 193.762 30.962V49.5344C193.066 49.6813 191.991 49.6813 191.295 49.5344V30.962Z" fill="white"/>
<path d="M197.005 30.853C197.669 30.7061 198.364 30.7061 199.029 30.853L199.281 33.7102H199.44C199.945 31.439 201.969 30.4866 204.721 30.4866C204.847 31.1831 204.847 32.355 204.721 33.05C201.306 33.05 200.326 33.9297 199.473 36.5295V49.5345C198.778 49.6813 197.702 49.6813 197.006 49.5345V30.8515L197.005 30.853Z" fill="white"/>
<path d="M227.967 36.8959C227.967 33.3422 226.26 32.9773 224.236 32.9773C221.484 32.9773 220.568 33.7465 219.841 36.0541V49.5345C219.146 49.6813 218.07 49.6813 217.374 49.5345V36.8959C217.374 33.3801 215.698 32.9773 213.643 32.9773C210.86 32.9773 209.976 33.7829 209.248 36.2009V49.536C208.553 49.6828 207.477 49.6828 206.783 49.536V30.853C207.352 30.7061 208.238 30.7061 208.807 30.853L209.06 33.4906H209.217C209.753 31.2921 211.777 30.4866 214.465 30.4866C216.805 30.4866 218.703 31.3284 219.493 33.4906H219.779C220.348 31.2921 222.371 30.4866 225.027 30.4866C228.093 30.4866 230.402 31.8781 230.402 35.8345V49.5345C229.738 49.6813 228.662 49.6813 227.967 49.5345V36.8959Z" fill="white"/>
</svg>
