<svg width="248" height="78" viewBox="0 0 248 78" fill="none" xmlns="http://www.w3.org/2000/svg">
<path d="M45.947 56.5112C45.8632 56.5853 45.8184 56.6944 45.8184 56.8016C45.8184 56.9186 45.8632 57.0258 45.947 57.1076C46.1068 57.2674 46.3699 57.2674 46.5356 57.0979C46.6915 56.9459 46.6915 56.6652 46.5356 56.5112C46.4596 56.4313 46.3544 56.3826 46.2394 56.3826C46.1322 56.3826 46.025 56.4293 45.947 56.5112Z" fill="white"/>
<path d="M36.3218 46.8886C36.4816 46.7269 36.4816 46.4501 36.3218 46.2922C36.2438 46.2104 36.1385 46.1675 36.0313 46.1675C35.9086 46.1675 35.8091 46.2104 35.7312 46.2922C35.6493 46.3702 35.6084 46.4793 35.6084 46.5885C35.6084 46.6976 35.6493 46.8048 35.7273 46.8808C35.891 47.0504 36.1502 47.0504 36.3198 46.8886" fill="white"/>
<path d="M36.3315 32.4441C36.4933 32.2842 36.4933 32.0055 36.3315 31.8457C36.2477 31.7716 36.1541 31.7268 36.0333 31.7268C35.9125 31.7268 35.8092 31.7716 35.7409 31.8457C35.6571 31.9315 35.6084 32.0387 35.6084 32.1439C35.6084 32.2492 35.6552 32.3642 35.7351 32.4441C35.9008 32.6097 36.1619 32.6097 36.3315 32.4441Z" fill="white"/>
<path d="M70.8868 46.1187C70.7796 46.1187 70.6705 46.1557 70.5906 46.2453C70.5165 46.3233 70.4678 46.4188 70.4678 46.5416C70.4678 46.6507 70.5145 46.7599 70.5925 46.832C70.6685 46.9119 70.7777 46.9587 70.8849 46.9587C70.9921 46.9587 71.1051 46.9119 71.1831 46.832C71.3429 46.6741 71.3449 46.3954 71.1831 46.2453C71.1051 46.1557 70.996 46.1187 70.8849 46.1187" fill="white"/>
<path d="M60.9653 57.049C61.1232 56.8873 61.1232 56.6105 60.9692 56.4507C60.8951 56.3747 60.784 56.3259 60.6729 56.3259C60.5618 56.3259 60.4566 56.3727 60.3728 56.4507C60.2929 56.5345 60.248 56.6417 60.248 56.7489C60.248 56.8639 60.2929 56.9691 60.3728 57.0451C60.4566 57.129 60.5579 57.1718 60.6729 57.1718C60.7879 57.1718 60.8834 57.127 60.9634 57.049" fill="white"/>
<path d="M60.6612 22.3086C60.7782 22.3086 60.8815 22.2657 60.9614 22.1897C61.1173 22.0318 61.1173 21.757 60.9536 21.5894C60.8795 21.5153 60.7782 21.4705 60.6612 21.4705C60.5521 21.4705 60.4488 21.5172 60.365 21.5894C60.289 21.6771 60.2402 21.7765 60.2402 21.8895C60.2402 22.0026 60.287 22.1059 60.365 22.1897C60.4488 22.2657 60.5501 22.3086 60.6612 22.3086Z" fill="white"/>
<path d="M70.459 32.1066C70.459 32.2157 70.5 32.3268 70.5818 32.4028C70.7456 32.5704 71.0145 32.5704 71.1802 32.4087C71.3361 32.2469 71.342 31.9721 71.1802 31.8025C71.0145 31.6407 70.7456 31.6407 70.5818 31.8103C70.5 31.8902 70.4571 31.9955 70.459 32.1085" fill="white"/>
<path d="M45.9324 21.6477C45.8544 21.7217 45.8096 21.8329 45.8096 21.9439C45.8096 22.055 45.8544 22.1583 45.9324 22.2402C46.098 22.4078 46.369 22.4078 46.5249 22.2402C46.6847 22.0843 46.6847 21.8036 46.5249 21.6496C46.367 21.4781 46.0961 21.4781 45.9324 21.6496" fill="white"/>
<path d="M33.6677 37.8447H31.6406V40.8931H33.6735L35.2016 39.3748L33.6677 37.8447Z" fill="white"/>
<path d="M48.5857 57.7605V59.1463H47.2019L46.2196 60.1247L45.2431 59.1463H43.867V57.7663L42.8886 56.786L43.867 55.8075V54.4315H45.2431L46.2196 53.4511L47.2038 54.4315H48.5838V55.8075L49.5642 56.786L48.5838 57.7605H48.5857ZM50.6186 54.9714L50.6108 52.4005H48.0439L47.9991 52.3557L46.2176 50.5781L44.403 52.4005H41.8283V54.9714L40.0117 56.786L41.8283 58.6084V61.1831H44.403L44.4459 61.224L46.2176 62.9996L48.042 61.1831H50.6167L50.6089 58.6084L52.4293 56.786L50.6147 54.9714H50.6186Z" fill="white"/>
<path d="M38.366 47.5474V48.9312H36.988L36.0076 49.9096L35.0311 48.9312H33.6453V47.5474L32.6728 46.5728L33.6453 45.5924V44.2164H35.0311L36.0076 43.234L36.988 44.2164H38.366V45.5924L39.3445 46.5728L38.366 47.5474ZM40.397 48.3952L42.2213 46.5709L40.397 44.7524V42.1815H37.8222L37.7813 42.1367L36.0076 40.363L34.1891 42.1815H31.6105V44.7524L29.7998 46.5709L31.6105 48.3874V50.9602H34.1891L36.0076 52.7806L37.8222 50.9602H40.397V48.3952Z" fill="white"/>
<path d="M38.372 52.2717L36.9336 53.7063L39.0932 55.858L40.5277 54.4274L40.5297 52.2717H38.372Z" fill="white"/>
<path d="M45.4941 45.136L44.0693 46.5725L46.2231 48.7281L47.6634 47.2936V45.136H45.4941Z" fill="white"/>
<path d="M43.1425 47.4988L41.7061 48.9333V51.089H43.8656L45.2982 49.6545L43.1425 47.4988Z" fill="white"/>
<path d="M38.3943 33.124V34.504H36.9988L36.0301 35.4785L35.0536 34.504H33.6737V33.124L32.6933 32.1495L33.6737 31.1671V29.7891H35.0575L36.0301 28.8146L36.9988 29.7891H38.3943V31.1671L39.365 32.1456L38.3943 33.124ZM40.4233 33.9641L42.2399 32.1456L40.4233 30.329V27.7602H37.8467L37.8057 27.7173L36.0321 25.9436L34.2136 27.7602H31.6427V30.329L29.8262 32.1514L31.6427 33.9699V36.5349H34.2136L34.2564 36.5798L36.0321 38.3573L37.8467 36.5349H40.4233V33.966V33.9641Z" fill="white"/>
<path d="M43.7634 37.8447H41.7305V40.8931H43.7634L45.2914 39.3748L43.7634 37.8447Z" fill="white"/>
<path d="M38.3923 37.8447L36.8682 39.3748L38.3923 40.8931H40.4233V37.8447H38.3923Z" fill="white"/>
<path d="M73.2361 47.5298V48.9078H71.8523L70.8738 49.8921L69.8993 48.9078H68.5155V47.5298L67.5331 46.5513L68.5155 45.5729V44.1871H69.8993L70.8738 43.2145L71.8523 44.1871H73.2361V45.5729L74.2107 46.5513L73.2361 47.5298ZM75.2671 48.3757L77.0856 46.5513L75.2671 44.7367V42.1542H72.6904L70.87 40.3435L69.0515 42.1542H66.4845V44.7367L64.6641 46.5513L66.4845 48.3757V50.9407H69.0515L69.0943 50.9816L70.87 52.7592L72.6904 50.9407H75.2671V48.3757Z" fill="white"/>
<path d="M63.0154 59.1268H61.6316L60.6609 60.1013L59.6747 59.1268H58.2987L58.2909 57.7429L57.3183 56.7684L58.2987 55.7899V54.4041H59.6747L60.6609 53.4257L61.6316 54.4041H63.0154V55.7899L63.9958 56.7684L63.0135 57.7468V59.1268H63.0154ZM65.0483 58.583L66.8668 56.7664L65.0483 54.946V52.3751H62.4755L62.4307 52.3342L60.659 50.5566L58.8405 52.3751H56.2658V54.946L54.4453 56.7664L56.2658 58.583V61.1597H58.8405L58.8814 61.2006L60.659 62.9743L62.4736 61.1597H65.0464V58.583H65.0483Z" fill="white"/>
<path d="M69.9476 53.6828L68.5151 52.2522H66.3613V54.4059L67.79 55.8405L69.9476 53.6828Z" fill="white"/>
<path d="M62.8177 46.5537L61.3774 45.1172H59.2236L59.2158 47.2729L60.6601 48.7093L62.8177 46.5537Z" fill="white"/>
<path d="M65.1732 51.0716V48.9179L63.7406 47.4756L61.5791 49.6352L63.0156 51.0716H65.1732Z" fill="white"/>
<path d="M54.979 61.1303V59.1013L53.4568 57.5791L51.9346 59.1013V61.1303H54.979Z" fill="white"/>
<path d="M54.979 51.0442V49.0152L53.4568 47.4929L51.9346 49.0152V51.0442H54.979Z" fill="white"/>
<path d="M51.9346 52.3557V54.3847L53.4568 55.9128L54.979 54.3847V52.3557H51.9346Z" fill="white"/>
<path d="M63.032 22.8874V24.2674H61.6579L60.6776 25.24L59.6991 24.2674L58.3211 24.2732V22.8874L57.3407 21.9109L58.3211 20.9364V19.5467H59.6991L60.6776 18.5741L61.6579 19.5467H63.032V20.9345L64.0163 21.9129L63.032 22.8894V22.8874ZM65.0708 23.7275L66.8893 21.9109L65.0708 20.0944V17.5197H62.4941L62.4512 17.4768L60.6795 15.6992L58.861 17.5197H56.2921V20.0944L54.4697 21.9109L56.2921 23.7275V26.2983H58.8669L58.9097 26.3393L60.6815 28.1207L62.498 26.2983L65.0727 26.2944V23.7255L65.0708 23.7275Z" fill="white"/>
<path d="M73.2567 33.0986V34.4747H71.8728L70.8924 35.4531L69.9159 34.4747H68.5379V33.0986L67.5595 32.1221L68.5379 31.1476V29.7638H69.9159L70.8924 28.7931L71.8728 29.7638H73.2567V31.1476L74.237 32.1221L73.2567 33.0986ZM75.2934 33.9387L77.1022 32.1221L75.2934 30.3017V27.7328H72.7187L72.6778 27.6919L70.8963 25.9163L69.0798 27.7328H66.505V30.3017L64.6885 32.1221L66.505 33.9387V36.5095H69.0798L69.1246 36.5505L70.8924 38.328L72.7168 36.5076H75.2915V33.9367L75.2934 33.9387Z" fill="white"/>
<path d="M67.8193 22.8252L66.3809 24.2656L66.3789 26.4252H68.5385L69.9769 24.9926L67.8193 22.8252Z" fill="white"/>
<path d="M63.0429 27.6001L61.6045 29.0346L63.766 31.1923L65.1908 29.7655V27.6001H63.0429Z" fill="white"/>
<path d="M73.2341 37.7981L71.708 39.3242L73.2341 40.8504H75.267V37.7981H73.2341Z" fill="white"/>
<path d="M63.1414 37.7981L61.6191 39.3242L63.1414 40.8504H65.1723V37.7981H63.1414Z" fill="white"/>
<path d="M68.5085 37.7981H66.4853L66.4775 40.8504H68.5085L70.0405 39.3242L68.5085 37.7981Z" fill="white"/>
<path d="M40.5463 26.4425V24.2888L39.1156 22.8542L36.96 25.0138L38.3906 26.4464L40.5463 26.4425Z" fill="white"/>
<path d="M47.681 33.5802L47.683 31.4245L46.2504 29.99L44.0908 32.1418L45.5234 33.5802H47.681Z" fill="white"/>
<path d="M45.3265 29.0642L43.8901 27.6238L41.7305 27.6277V29.7834L43.1669 31.2179L45.3265 29.0642Z" fill="white"/>
<path d="M51.9238 17.5664V19.5954L53.448 21.1176L54.9761 19.5954V17.5664H51.9238Z" fill="white"/>
<path d="M51.9238 27.6509V29.676L53.448 31.1943L54.9761 29.676V27.6509H51.9238Z" fill="white"/>
<path d="M54.9761 26.3393V24.3103L53.448 22.79L51.9238 24.3103V26.3393H54.9761Z" fill="white"/>
<path d="M51.026 44.988H48.9093L48.9152 47.785L47.0967 49.6015L48.5293 51.036H50.566V48.4243L52.5132 46.4771L51.026 44.988Z" fill="white"/>
<path d="M47.7716 41.7232L46.2728 40.2224L44.2945 42.2046H41.7256V44.2336L43.1679 45.6701L45.0137 43.8224H47.7716V41.7232Z" fill="white"/>
<path d="M57.9506 47.7128V44.9626H55.8495L54.3584 46.4517L56.3309 48.4281V51.0087H58.3677L59.8022 49.5683L57.9506 47.7128Z" fill="white"/>
<path d="M61.9658 43.844L63.7394 45.6255L65.172 44.1949V42.1522H62.5583L62.5174 42.1113L60.6092 40.207L59.1182 41.6961V43.805H61.9229L61.9658 43.844Z" fill="white"/>
<path d="M61.8291 34.7827H58.9951V37.0884L60.6285 38.7276L60.6752 38.6828L62.6691 36.6928L63.0239 36.685L65.3199 36.6928V34.4552L63.7411 32.8745L61.8291 34.7827Z" fill="white"/>
<path d="M61.4057 33.557L62.8402 32.1225L60.6787 29.9707L59.2461 31.3955V33.557H61.4057Z" fill="white"/>
<path d="M58.3013 27.6433H56.2684V30.259L54.3174 32.2081L55.8084 33.6913H57.929V30.8963L59.7397 29.0778L58.3013 27.6433Z" fill="white"/>
<path d="M50.5651 30.1302L50.5768 27.5574H48.5458L47.1035 28.9977L48.9512 30.8416V33.6054H51.0582L52.5493 32.1085L50.5651 30.1302Z" fill="white"/>
<path d="M44.3265 36.5098L46.2327 38.4179L47.7218 36.9347V34.816H44.919L44.8742 34.7751L43.1005 32.9937L41.666 34.4301V36.4689H44.2856L44.3265 36.5098Z" fill="white"/>
<path d="M54.9903 39.9871L55.6277 39.3497L54.9903 38.7065V37.8119H54.086L53.4506 37.1687L52.8152 37.8119H51.9108V38.7065L51.2715 39.3497L51.9108 39.9871V40.8856H52.8152L53.4506 41.5288L54.086 40.8856H54.9903V39.9871Z" fill="white"/>
<path d="M56.3015 40.5286V42.1931H54.6331L53.452 43.3704L52.2689 42.199L50.6043 42.1912V40.5267L49.4232 39.3475L50.6043 38.1624V36.496H52.2689L53.452 35.3187L54.6331 36.496H56.3015V38.1644L57.4768 39.3475L56.3015 40.5267V40.5286ZM57.8355 41.1582L59.6501 39.3377L57.8355 37.5231V34.9445L55.2666 34.9523L55.2217 34.9094L53.4481 33.1318L51.6276 34.9464H49.0568V37.5251L47.2402 39.3397L49.0568 41.166V43.7271H51.6276L51.6725 43.768L53.4481 45.5514L55.2646 43.7271H57.8335V41.1621L57.8355 41.1582Z" fill="white"/>
<path d="M48.6082 22.9011V24.285H47.2224L46.2498 25.2654L45.2733 24.285H43.8934V22.9011L42.911 21.9285L43.8934 20.9501V19.574L45.2733 19.5623L46.2498 18.5975L47.2283 19.5623H48.6082V20.9501L49.5828 21.9285L48.6082 22.9011ZM50.6392 23.7451L52.4635 21.9285L50.6392 20.112V17.5372H48.0625L48.0196 17.4944L46.2498 15.7168L44.4294 17.5372H41.8585V20.112L40.042 21.9285L41.8585 23.7451V26.3159H44.4294L44.4742 26.3568L46.2498 28.1383L48.0664 26.3159H50.6392V23.7451Z" fill="white"/>
<path d="M96.5034 36.9786C97.8657 36.9786 99.3838 36.7952 100.594 34.7655C101.898 32.6111 102.114 29.8554 102.114 27.789C102.114 25.7226 101.87 23.2456 101.232 21.6669C100.053 18.6984 97.7172 18.3336 95.6545 18.3336H92.411V36.9786H96.5052H96.5034ZM95.5335 17.7249C96.6537 17.7249 99.6534 17.8477 102.079 19.6372C104.2 21.2122 105.929 24.3365 105.929 27.822C105.929 31.3075 104.2 33.8524 102.684 35.2496C100.317 37.4021 97.9849 37.5818 96.3476 37.5818H86.6758V36.9767H89.0117V18.3317H86.6758V17.7249H95.5316H95.5335Z" fill="white"/>
<path d="M118.108 17.7267V18.3336H115.772V32.5231C115.772 33.5847 115.864 34.3713 116.651 35.2789C117.318 36.0966 118.589 37.0061 120.895 37.0061C123.202 37.0061 124.412 36.1626 124.988 35.6163C126.443 34.221 126.383 32.492 126.383 31.3992V20.455C126.383 19.5437 126.02 19.0908 125.778 18.88C125.325 18.5151 124.654 18.4271 123.743 18.3317V17.7249H129.654V18.3317C128.715 18.3611 127.958 18.3317 127.443 18.9991C127.261 19.21 127.019 19.7234 127.019 21.06V32.0336C127.019 33.3995 126.686 34.9177 125.29 36.1865C124.111 37.2792 122.322 37.9155 120.38 37.9155C118.924 37.9155 117.287 37.6423 116.108 37.1894C115.166 36.8264 114.258 36.2488 113.649 35.5796C112.406 34.2173 112.375 32.7633 112.375 32.0336V18.3317H110.039V17.7249H118.11L118.108 17.7267Z" fill="white"/>
<path d="M141.914 17.7266V18.3335H139.789V28.0932L146.614 21.1204C146.916 20.8179 147.521 20.2091 147.521 19.6077C147.521 19.1824 147.221 18.6965 146.491 18.4856C146.095 18.3628 145.369 18.3335 144.943 18.3335V17.7266H152.068V18.3335C150.856 18.3628 150.097 18.79 149.458 19.2759C148.884 19.7013 147.701 20.8472 147.189 21.3973L144.216 24.4592L151.977 36.9803H153.099V37.5853H144.854V36.9803H147.639L141.946 26.8226L139.788 29.0338V36.9803H141.913V37.5853H134.062V36.9803H136.397V18.3353H134.062V17.7284H141.913L141.914 17.7266Z" fill="white"/>
<path d="M165.773 17.7266V18.3335H163.433V36.9784H166.95C167.47 36.9784 169.047 36.8537 170.564 35.3393C171.502 34.3987 172.443 33.0126 172.958 31.278H173.532L172.593 37.5872H157.707V36.9803H160.041V18.3353H157.707V17.7284H165.771L165.773 17.7266Z" fill="white"/>
<path d="M193.26 17.7266L193.593 23.4581H192.863C192.684 22.3085 192.198 20.849 191.714 20.123C190.867 18.8798 189.62 18.3335 187.862 18.3335H184.042V26.6723H185.135C185.742 26.6723 187.167 26.7309 187.924 25.0349C188.203 24.428 188.349 23.6066 188.412 23.0309H189.019V30.9774H188.412C188.349 30.6143 188.172 29.461 187.952 28.8871C187.379 27.4313 186.193 27.2792 185.317 27.2792H184.042V36.9821H188.382C188.865 36.9821 190.986 36.9198 192.323 35.0716C192.836 34.373 193.26 33.2821 193.593 31.4027H194.317L193.685 37.5908H178.316V36.9839H180.647V18.339H178.316V17.7321H193.26V17.7266Z" fill="white"/>
<path d="M201.523 18.3335H199.673V17.7266H207.647V18.3335H205.494L210.591 28.3059L214.137 21.731C214.348 21.3661 214.686 20.7885 214.686 20.0313C214.686 19.1824 214.198 18.7882 213.895 18.6342C213.562 18.4563 212.77 18.3335 212.229 18.3335V17.7266H218.712V18.3335C217.746 18.3023 216.926 18.8175 216.378 19.3951C216.079 19.7269 215.712 20.2751 214.928 21.731L211.046 28.9146V36.9784H213.38V37.5872H205.316V36.9784H207.647V29.6719L201.523 18.3335Z" fill="white"/>
<path d="M89.1543 51.5854H90.0303V55.3209H94.7275V51.5854H95.6035V60.2011H94.7275V56.1256H90.0303V60.2011H89.1543V51.5854Z" fill="white"/>
<path d="M108.84 55.8943C108.84 56.5517 108.726 57.1556 108.5 57.7077C108.273 58.2599 107.959 58.7359 107.557 59.1375C107.156 59.539 106.681 59.8532 106.134 60.0799C105.587 60.3082 104.993 60.4199 104.351 60.4199C103.71 60.4199 103.116 60.3065 102.569 60.0799C102.021 59.8532 101.547 59.539 101.145 59.1375C100.744 58.7359 100.43 58.2599 100.201 57.7077C99.9747 57.1556 99.8613 56.5517 99.8613 55.8943C99.8613 55.2369 99.9747 54.6329 100.201 54.0808C100.428 53.5286 100.744 53.0526 101.145 52.6527C101.547 52.2511 102.021 51.937 102.569 51.7087C103.116 51.482 103.71 51.3687 104.351 51.3687C104.993 51.3687 105.587 51.482 106.134 51.7087C106.681 51.937 107.156 52.2511 107.557 52.6527C107.959 53.0542 108.273 53.5303 108.5 54.0808C108.726 54.6329 108.84 55.2369 108.84 55.8943ZM107.915 55.9007C107.915 55.3988 107.834 54.9211 107.672 54.4678C107.51 54.0144 107.274 53.6145 106.966 53.2712C106.657 52.9263 106.283 52.6527 105.841 52.4503C105.399 52.2479 104.902 52.1475 104.351 52.1475C103.801 52.1475 103.302 52.2479 102.86 52.4503C102.418 52.6527 102.042 52.9263 101.735 53.2712C101.425 53.6145 101.191 54.0144 101.029 54.4678C100.867 54.9211 100.786 55.3988 100.786 55.9007C100.786 56.4027 100.867 56.8803 101.029 57.3353C101.191 57.7887 101.425 58.1854 101.735 58.5254C102.042 58.8655 102.418 59.1375 102.86 59.3399C103.302 59.5423 103.799 59.6443 104.351 59.6443C104.903 59.6443 105.399 59.5439 105.841 59.3399C106.283 59.1375 106.659 58.8671 106.966 58.5254C107.274 58.1854 107.509 57.7887 107.672 57.3353C107.836 56.882 107.915 56.4043 107.915 55.9007Z" fill="white"/>
<path d="M115.496 60.2012H114.62V52.366H111.736V51.5872H118.38V52.366H115.496V60.2012Z" fill="white"/>
<path d="M122.979 59.4223H127.591V60.2011H122.104V51.5854H127.445V52.3643H122.979V55.3209H127.152V56.0997H122.979V59.4223Z" fill="white"/>
<path d="M132.617 59.4223H136.633V60.2011H131.741V51.5854H132.617V59.4223Z" fill="white"/>
<path d="M150.857 58.2065L152.792 60.2013H151.576L150.358 58.9238C150.002 59.4111 149.617 59.769 149.202 60.0005C148.789 60.2321 148.289 60.3486 147.706 60.3486C147.34 60.3486 146.994 60.2952 146.665 60.19C146.336 60.0847 146.051 59.9325 145.807 59.7333C145.564 59.5358 145.371 59.2881 145.229 58.9918C145.086 58.6955 145.017 58.3522 145.017 57.9636C145.017 57.6397 145.067 57.3483 145.169 57.0876C145.271 56.8269 145.41 56.5938 145.588 56.3881C145.766 56.1825 145.978 55.9963 146.221 55.8344C146.464 55.6724 146.728 55.53 147.013 55.4085C146.884 55.279 146.756 55.1365 146.629 54.9827C146.503 54.8288 146.391 54.6685 146.294 54.5018C146.197 54.3366 146.118 54.1585 146.056 53.9723C145.996 53.7845 145.965 53.595 145.965 53.4007C145.965 53.0769 146.022 52.7887 146.135 52.5377C146.249 52.2867 146.403 52.073 146.599 51.8997C146.794 51.7265 147.021 51.5937 147.28 51.503C147.541 51.414 147.816 51.3687 148.108 51.3687C148.399 51.3687 148.66 51.4107 148.911 51.4966C149.162 51.5824 149.384 51.7071 149.573 51.8738C149.762 52.0406 149.913 52.243 150.023 52.4827C150.133 52.7207 150.188 52.9959 150.188 53.3036C150.188 53.5886 150.133 53.8428 150.023 54.0694C149.913 54.2978 149.767 54.5018 149.586 54.6847C149.403 54.8677 149.196 55.0296 148.966 55.1705C148.734 55.313 148.498 55.4441 148.253 55.5672L150.261 57.6349L151.454 55.5429H152.441L150.859 58.2081L150.857 58.2065ZM147.499 55.9671C146.979 56.2035 146.586 56.4804 146.318 56.801C146.051 57.1216 145.917 57.5134 145.917 57.9749C145.917 58.2178 145.964 58.4412 146.056 58.6436C146.15 58.846 146.28 59.0193 146.446 59.1618C146.613 59.3026 146.806 59.416 147.024 59.497C147.243 59.5779 147.475 59.6184 147.717 59.6184C148.187 59.6184 148.579 59.5131 148.891 59.3026C149.204 59.0922 149.497 58.7764 149.774 58.3538L147.499 55.9687V55.9671ZM149.337 53.302C149.337 52.9457 149.22 52.6527 148.99 52.426C148.759 52.1993 148.469 52.0859 148.121 52.0859C147.74 52.0859 147.428 52.2058 147.183 52.4454C146.94 52.6834 146.817 53.0073 146.817 53.4121C146.817 53.5659 146.85 53.7262 146.914 53.893C146.979 54.0597 147.06 54.2152 147.157 54.3609C147.254 54.5066 147.358 54.641 147.466 54.7625C147.577 54.8839 147.672 54.9778 147.753 55.041C147.947 54.9519 148.138 54.8531 148.325 54.743C148.511 54.6329 148.679 54.5099 148.83 54.3722C148.98 54.2346 149.102 54.0759 149.194 53.8978C149.286 53.7197 149.335 53.5205 149.335 53.302H149.337Z" fill="white"/>
<path d="M162.914 60.2011H162.038V51.5854H164.569C164.991 51.5854 165.382 51.6259 165.743 51.7069C166.104 51.7878 166.416 51.919 166.68 52.1036C166.944 52.2866 167.148 52.523 167.294 52.8144C167.44 53.1059 167.513 53.4637 167.513 53.8863C167.513 54.2021 167.456 54.4903 167.343 54.7493C167.229 55.0084 167.075 55.2351 166.879 55.4245C166.685 55.6156 166.454 55.7678 166.186 55.8811C165.919 55.9945 165.626 56.069 165.31 56.0997L167.828 60.1995H166.758L164.373 56.1726H162.912V60.1995L162.914 60.2011ZM162.914 55.4197H164.434C165.14 55.4197 165.683 55.2918 166.065 55.0359C166.445 54.7801 166.637 54.398 166.637 53.8863C166.637 53.6013 166.583 53.3617 166.478 53.169C166.373 52.9747 166.227 52.816 166.041 52.6946C165.855 52.5732 165.626 52.4841 165.359 52.4258C165.092 52.3691 164.796 52.34 164.47 52.34H162.912V55.4181L162.914 55.4197Z" fill="white"/>
<path d="M172.637 59.4223H177.248V60.2011H171.761V51.5854H177.102V52.3643H172.637V55.3209H176.811V56.0997H172.637V59.4223Z" fill="white"/>
<path d="M185.572 52.9731C185.386 52.7141 185.146 52.5052 184.855 52.3465C184.563 52.1895 184.21 52.1101 183.796 52.1101C183.585 52.1101 183.37 52.1425 183.152 52.2073C182.933 52.272 182.734 52.3724 182.556 52.5052C182.376 52.6396 182.233 52.808 182.123 53.0104C182.015 53.2128 181.96 53.4524 181.96 53.7277C181.96 54.003 182.012 54.2313 182.117 54.4094C182.222 54.5875 182.361 54.7397 182.536 54.866C182.709 54.9923 182.907 55.0959 183.13 55.1752C183.354 55.2562 183.585 55.3372 183.828 55.4181C184.128 55.5153 184.429 55.6205 184.732 55.7355C185.035 55.8488 185.308 55.9962 185.551 56.1791C185.794 56.3621 185.992 56.5936 186.145 56.8721C186.299 57.1523 186.375 57.5085 186.375 57.9376C186.375 58.3667 186.293 58.7391 186.129 59.0499C185.964 59.3624 185.752 59.6199 185.491 59.8223C185.229 60.0247 184.929 60.1753 184.593 60.2724C184.256 60.3696 183.917 60.4182 183.577 60.4182C183.318 60.4182 183.059 60.3922 182.799 60.3404C182.539 60.287 182.292 60.2077 182.057 60.1024C181.821 59.9972 181.602 59.8628 181.4 59.7008C181.197 59.5389 181.019 59.3527 180.865 59.1406L181.62 58.5804C181.806 58.888 182.067 59.1455 182.403 59.3527C182.74 59.56 183.135 59.6636 183.59 59.6636C183.809 59.6636 184.032 59.6296 184.259 59.56C184.486 59.492 184.691 59.3851 184.874 59.2442C185.057 59.1018 185.206 58.9269 185.324 58.7196C185.443 58.5124 185.501 58.2727 185.501 57.9959C185.501 57.6963 185.443 57.447 185.324 57.2478C185.206 57.0503 185.051 56.8835 184.857 56.7491C184.662 56.6147 184.439 56.503 184.188 56.4139C183.937 56.3249 183.673 56.2358 183.398 56.1451C183.113 56.0561 182.833 55.9557 182.557 55.8407C182.28 55.7274 182.033 55.58 181.814 55.3971C181.595 55.2141 181.419 54.989 181.285 54.7219C181.15 54.4531 181.084 54.126 181.084 53.7358C181.084 53.3229 181.166 52.9651 181.333 52.6655C181.5 52.366 181.717 52.1182 181.984 51.9223C182.251 51.728 182.548 51.5871 182.873 51.4965C183.198 51.4074 183.517 51.3621 183.835 51.3621C184.419 51.3621 184.918 51.4657 185.331 51.673C185.745 51.8786 186.056 52.1247 186.268 52.4081L185.574 52.9683L185.572 52.9731Z" fill="white"/>
<path d="M199.212 55.8943C199.212 56.5517 199.098 57.1556 198.872 57.7077C198.643 58.2599 198.331 58.7359 197.929 59.1375C197.528 59.539 197.053 59.8532 196.506 60.0799C195.959 60.3082 195.363 60.4199 194.723 60.4199C194.084 60.4199 193.488 60.3065 192.941 60.0799C192.392 59.8532 191.919 59.539 191.517 59.1375C191.116 58.7359 190.8 58.2599 190.575 57.7077C190.347 57.1556 190.233 56.5517 190.233 55.8943C190.233 55.2369 190.347 54.6329 190.575 54.0808C190.8 53.5286 191.116 53.0526 191.517 52.6527C191.919 52.2511 192.393 51.937 192.941 51.7087C193.488 51.482 194.082 51.3687 194.723 51.3687C195.365 51.3687 195.959 51.482 196.506 51.7087C197.055 51.937 197.528 52.2511 197.929 52.6527C198.331 53.0542 198.645 53.5303 198.872 54.0808C199.1 54.6329 199.212 55.2369 199.212 55.8943ZM198.287 55.9007C198.287 55.3988 198.206 54.9211 198.044 54.4678C197.882 54.0144 197.648 53.6145 197.34 53.2712C197.031 52.9263 196.657 52.6527 196.215 52.4503C195.771 52.2479 195.274 52.1475 194.723 52.1475C194.173 52.1475 193.676 52.2479 193.232 52.4503C192.79 52.6527 192.416 52.9263 192.107 53.2712C191.798 53.6145 191.564 54.0144 191.402 54.4678C191.241 54.9211 191.16 55.3988 191.16 55.9007C191.16 56.4027 191.241 56.8803 191.402 57.3353C191.564 57.7903 191.799 58.1854 192.107 58.5254C192.416 58.8655 192.79 59.1375 193.232 59.3399C193.676 59.5423 194.171 59.6443 194.723 59.6443C195.276 59.6443 195.771 59.5439 196.215 59.3399C196.657 59.1375 197.031 58.8671 197.34 58.5254C197.649 58.1854 197.882 57.7887 198.044 57.3353C198.206 56.882 198.287 56.4043 198.287 55.9007Z" fill="white"/>
<path d="M204.347 60.2011H203.471V51.5854H206.001C206.424 51.5854 206.814 51.6259 207.175 51.7069C207.536 51.7878 207.849 51.919 208.113 52.1036C208.377 52.2866 208.581 52.523 208.727 52.8144C208.874 53.1059 208.947 53.4637 208.947 53.8863C208.947 54.2021 208.89 54.4903 208.777 54.7493C208.663 55.0084 208.508 55.2351 208.314 55.4245C208.119 55.6156 207.888 55.7678 207.619 55.8811C207.352 55.9945 207.059 56.069 206.743 56.0997L209.261 60.1995H208.191L205.806 56.1726H204.347V60.1995V60.2011ZM204.347 55.4197H205.867C206.573 55.4197 207.115 55.2918 207.498 55.0359C207.88 54.7801 208.069 54.398 208.069 53.8863C208.069 53.6013 208.017 53.3617 207.91 53.169C207.805 52.9747 207.66 52.816 207.473 52.6946C207.285 52.5732 207.059 52.4841 206.792 52.4258C206.523 52.3691 206.227 52.34 205.903 52.34H204.345V55.4181L204.347 55.4197Z" fill="white"/>
<path d="M215.808 60.2012H214.932V52.366H212.048V51.5872H218.693V52.366H215.809V60.2012H215.808Z" fill="white"/>
</svg>
