<svg width="240" height="80" viewBox="0 0 240 80" fill="none" xmlns="http://www.w3.org/2000/svg">
<g clip-path="url(#clip0_2620_9129)">
<mask id="mask0_2620_9129" style="mask-type:luminance" maskUnits="userSpaceOnUse" x="0" y="22" width="240" height="36">
<path d="M240 22H0V58H240V22Z" fill="white"/>
</mask>
<g mask="url(#mask0_2620_9129)">
<path d="M45.6348 28.04L53.6818 52.7391H60.2592L64.8075 36.0734L69.216 52.7391H75.8284L83.9105 28.04H77.3328L72.7148 45.9037L68.0613 28.04H61.7987L57.1803 45.9037L52.5272 28.04H45.6348Z" fill="white"/>
<path d="M92.167 33.4668C86.2544 33.4668 82.3008 37.3778 82.3008 43.2971C82.3008 49.1107 86.1142 52.9512 92.3072 52.9512C95.8056 52.9512 98.6395 51.7533 100.564 49.5688L97.31 46.292C96.0505 47.5604 94.4764 48.2299 92.8668 48.2299C90.7326 48.2299 89.1581 47.0319 88.5634 44.8826H101.718C102.138 37.9415 98.7797 33.4668 92.167 33.4668ZM88.4236 41.5354C88.8434 39.3509 90.173 37.8711 92.202 37.8711C94.3011 37.8711 95.7008 39.3509 95.7008 41.5354H88.4236Z" fill="white"/>
<path d="M116.904 33.4663C114.56 33.4663 112.67 34.4177 111.341 36.1441V26.5957H105.113V52.7394H111.341V50.273C112.67 51.9995 114.63 52.9508 117.044 52.9508C122.292 52.9508 125.721 49.1103 125.721 43.2967C125.721 37.3774 122.187 33.4663 116.904 33.4663ZM115.365 47.8771C112.986 47.8771 111.341 45.9744 111.341 43.1557C111.341 40.337 112.986 38.3991 115.365 38.3991C117.814 38.3991 119.458 40.337 119.458 43.1557C119.458 45.9744 117.814 47.8771 115.365 47.8771Z" fill="white"/>
<path fill-rule="evenodd" clip-rule="evenodd" d="M226.969 33.3591H220.072V28.3936H240V33.3591H233.037H226.969Z" fill="white"/>
<path fill-rule="evenodd" clip-rule="evenodd" d="M233.036 36.8926V51.4458H226.969V36.8926" fill="white"/>
<path fill-rule="evenodd" clip-rule="evenodd" d="M214.07 43.9154C216.755 42.5344 218.214 39.9692 218.214 36.4832C218.214 31.3532 214.7 28.3936 208.532 28.3936H198.088V33.1946H204.155H206.839H208.566C211.019 33.1946 212.445 34.4115 212.445 36.6807C212.445 39.0155 211.019 40.2652 208.566 40.2652H206.839H204.155H198.088V51.4463H204.155V45.0665H208.532H208.665L212.047 51.4463H218.911L214.07 43.9154Z" fill="white"/>
<mask id="mask1_2620_9129" style="mask-type:luminance" maskUnits="userSpaceOnUse" x="148" y="28" width="21" height="24">
<path d="M148.881 28.3936H168.444V51.4463H148.881V28.3936Z" fill="#07C160"/>
</mask>
<g mask="url(#mask1_2620_9129)">
<path fill-rule="evenodd" clip-rule="evenodd" d="M148.881 28.3936V33.1949H154.949H155.852H158.795C161.249 33.1949 162.674 34.4117 162.674 36.6807C162.674 39.0155 161.249 40.2654 158.795 40.2654H155.852H154.949H148.881V51.4463H154.949V45.0664H159.094C165.028 45.0664 168.444 41.9095 168.444 36.4834C168.444 31.3532 165.028 28.3936 159.094 28.3936H148.881Z" fill="white"/>
</g>
<path fill-rule="evenodd" clip-rule="evenodd" d="M176.215 40.0676C176.215 43.8587 179.171 46.7852 182.625 46.7852C186.112 46.7852 188.902 43.8587 188.902 40.0676C188.902 36.2765 186.112 33.4164 182.625 33.4164C179.137 33.4164 176.215 36.2765 176.215 40.0676ZM195.146 40.0342C195.146 46.8518 189.766 51.9732 182.558 51.9732C175.351 51.9732 169.971 46.8518 169.971 40.0342C169.971 33.2501 175.351 28.2285 182.558 28.2285C189.766 28.2285 195.146 33.2836 195.146 40.0342Z" fill="white"/>
<path d="M140.141 38.3897L138.945 38.2192L142.242 35.1569L136.103 35.1484L132.316 38.7646V42.1049H136.348C139.013 42.1049 140.483 43.0933 140.483 45.0021C140.483 46.8767 139.013 47.9674 136.382 47.9674C134.093 47.9674 131.838 46.9449 129.958 45.0021L127.43 49.808C129.753 51.5804 133.375 52.7393 136.86 52.7393C142.806 52.7393 146.599 49.5353 146.599 44.9339C146.599 41.2869 143.934 38.9691 140.141 38.3897Z" fill="white"/>
<path fill-rule="evenodd" clip-rule="evenodd" d="M134.359 33.3591H128.041V28.3936H146.295V33.3591H139.917H134.359Z" fill="white"/>
<path fill-rule="evenodd" clip-rule="evenodd" d="M7.62878 22H28.1187C32.332 22 35.7476 25.3728 35.7476 29.5334V50.4666C35.7476 54.6272 32.332 58 28.1187 58H7.62878C3.41552 58 0 54.6272 0 50.4666V29.5334C0 25.3728 3.41552 22 7.62878 22ZM3.8034 40.1025H6.55193C7.39458 40.1025 8.07766 40.777 8.07766 41.6092V46.5232C8.07766 46.9393 8.41922 47.2766 8.84057 47.2766H10.9864C11.2074 47.2766 11.4175 47.182 11.5624 47.0172L16.9766 40.8612C17.4005 40.3793 18.0152 40.1025 18.6616 40.1025C19.2236 40.1025 19.6793 40.5524 19.6793 41.1074V46.5232C19.6793 46.9393 20.0208 47.2766 20.4422 47.2766H21.9983C22.2071 47.2766 22.4067 47.1921 22.5507 47.0428L26.859 42.5765C28.383 40.9966 30.496 40.1025 32.7056 40.1025V32.7234C29.7114 32.7234 26.843 33.9129 24.7467 36.0241L23.3129 37.4681C23.0258 37.7572 22.6331 37.92 22.2232 37.92C21.3802 37.92 20.697 37.2453 20.697 36.4129V34.2301C20.697 33.398 20.0138 32.7234 19.1712 32.7234H18.4581C17.0284 32.7234 15.6612 33.3022 14.6756 34.3249L11.9351 37.1684C11.6689 37.4447 11.2995 37.6011 10.9132 37.6011C10.1341 37.6011 9.50244 36.9774 9.50244 36.208C9.50244 34.2835 7.92258 32.7234 5.97377 32.7234H3.8034V40.1025Z" fill="white"/>
</g>
</g>
<defs>
<clipPath id="clip0_2620_9129">
<rect width="240" height="36" fill="white" transform="translate(0 22)"/>
</clipPath>
</defs>
</svg>
