<svg width="248" height="78" viewBox="0 0 248 78" fill="none" xmlns="http://www.w3.org/2000/svg">
<path fill-rule="evenodd" clip-rule="evenodd" d="M53.1369 54.3389C44.6654 54.3389 37.7979 47.4714 37.7979 38.9999C37.7979 30.5284 44.6654 23.6609 53.1369 23.6609C61.6084 23.6609 68.4759 30.5284 68.4759 38.9999C68.4759 47.4714 61.6084 54.3389 53.1369 54.3389ZM53.1369 49.2259C58.7845 49.2259 63.3629 44.6476 63.3629 38.9999C63.3629 33.3522 58.7845 28.7739 53.1369 28.7739C47.4892 28.7739 42.9109 33.3522 42.9109 38.9999C42.9109 44.6476 47.4892 49.2259 53.1369 49.2259Z" fill="url(#paint0_linear_2264_8955)"/>
<path opacity="0.25" d="M53.1363 66.1384C68.1244 66.1384 80.2746 53.9881 80.2746 39.0001C80.2746 24.012 68.1244 11.8618 53.1363 11.8618C38.1483 11.8618 25.998 24.012 25.998 39.0001C25.998 53.9881 38.1483 66.1384 53.1363 66.1384Z" fill="url(#paint1_linear_2264_8955)"/>
<path opacity="0.4" d="M53.5297 60.6321C65.2594 60.6321 74.7683 51.1232 74.7683 39.3934C74.7683 27.6637 65.2594 18.1548 53.5297 18.1548C41.7999 18.1548 32.291 27.6637 32.291 39.3934C32.291 51.1232 41.7999 60.6321 53.5297 60.6321Z" fill="url(#paint2_linear_2264_8955)"/>
<path d="M53.1359 49.6193C59.0008 49.6193 63.7553 44.8648 63.7553 38.9999C63.7553 33.135 59.0008 28.3806 53.1359 28.3806C47.271 28.3806 42.5166 33.135 42.5166 38.9999C42.5166 44.8648 47.271 49.6193 53.1359 49.6193Z" fill="white"/>
<path fill-rule="evenodd" clip-rule="evenodd" d="M105.377 30.364C105.141 30.364 104.922 30.5566 104.922 30.793V46.9359C104.922 47.1722 105.141 47.3911 105.377 47.3911H106.217C106.48 47.3911 106.673 47.1722 106.673 46.9359V33.8832H106.699L117.712 47.6275H118.141C118.377 47.6275 118.596 47.4349 118.596 47.1985V31.0556C118.596 30.8192 118.377 30.6004 118.141 30.6004H117.3C117.038 30.6004 116.845 30.8192 116.845 31.0556V43.8456H116.801L105.981 30.364H105.377ZM90.2186 44.651C90.1596 44.7298 90.1005 44.8086 90.0392 44.8786V44.8699C89.7549 45.3179 89.9793 45.5115 90.1701 45.6761L90.1793 45.684C90.4857 45.9729 92.4291 47.6275 95.2392 47.6275C98.0494 47.6275 100.422 45.8066 100.422 43.3116C100.422 40.5278 98.3382 39.3109 95.0992 37.989C93.0857 37.1574 91.8601 36.2206 91.8601 34.6099C91.8601 33.6031 92.6305 31.9748 95.1692 31.9748C96.5198 31.9748 97.9152 32.834 98.2511 33.0409C98.2788 33.0579 98.2993 33.0705 98.312 33.0779C98.6972 33.288 98.9335 33.1917 99.1524 32.859C99.2005 32.789 99.2487 32.7102 99.2968 32.6314C99.345 32.5526 99.3931 32.4738 99.4413 32.4038C99.7302 31.9486 99.4413 31.6597 99.3012 31.5896C99.3012 31.5896 97.5504 30.364 95.1955 30.364C91.3873 30.364 90.0917 32.9991 90.0917 34.6361C90.0917 37.3675 91.6762 38.453 94.3025 39.5998C97.0689 40.7554 98.5046 41.7358 98.5046 43.3904C98.5046 44.7998 97.2352 46.0254 95.2918 46.0254C93.2854 46.0254 91.6188 44.5425 91.2861 44.2464L91.286 44.2464L91.2858 44.2461L91.2857 44.2461C91.2644 44.2271 91.2486 44.213 91.2385 44.2046C90.9059 43.9157 90.6345 44.1083 90.3981 44.4234C90.3368 44.4934 90.2777 44.5722 90.2186 44.651ZM131.964 30.364C136.761 30.364 140.604 34.2247 140.604 39.022C140.604 43.8193 136.77 47.6362 131.964 47.6362C127.158 47.6362 123.349 43.8193 123.349 39.022C123.349 34.2247 127.166 30.364 131.964 30.364ZM131.964 45.9554C135.781 45.9554 138.923 42.8389 138.923 39.022C138.923 35.2051 135.781 32.0448 131.964 32.0448C128.147 32.0448 125.03 35.2139 125.03 39.022C125.03 42.8301 128.147 45.9554 131.964 45.9554ZM143.86 30.6004C143.528 30.6004 143.335 30.8455 143.431 31.1782L147.957 47.3035C148.001 47.4961 148.194 47.6362 148.386 47.6362H148.771C148.947 47.6362 149.113 47.5137 149.183 47.3736L153.262 34.391H153.385L157.534 47.3736C157.613 47.5137 157.78 47.6362 157.946 47.6362H158.331C158.524 47.6362 158.708 47.4961 158.76 47.3035L163.295 31.1782C163.391 30.8367 163.198 30.6004 162.866 30.6004H161.859C161.666 30.6004 161.483 30.7667 161.43 30.933L158.165 43.3641H158.068L153.989 30.6266C153.936 30.4866 153.77 30.364 153.578 30.364H153.149C152.93 30.364 152.781 30.4866 152.737 30.6266L148.728 43.3641H148.631L145.296 30.933C145.252 30.7667 145.06 30.6004 144.867 30.6004H143.86ZM167.471 31.0556C167.471 30.8193 167.663 30.6004 167.926 30.6004H173.178C176.102 30.6004 178.098 32.4913 178.098 35.0126C178.098 36.8597 176.873 38.2079 175.743 38.8469C177.013 39.3722 178.623 40.554 178.623 42.7601C178.623 45.4477 176.487 47.3911 173.397 47.3911H167.926C167.663 47.3911 167.471 47.1723 167.471 46.9359V31.0556ZM173.59 45.7891C175.341 45.7891 176.61 44.4672 176.61 42.7426C176.61 41.018 175.052 39.7924 173.178 39.7924H169.221V45.7891H173.59ZM173.178 38.1378C175.025 38.1378 176.058 36.8159 176.058 35.1351C176.058 33.4543 175.025 32.255 173.178 32.255H169.265V38.1291H173.178V38.1378ZM188.551 30.6266L181.259 46.7783L181.241 46.7695C181.101 47.0759 181.294 47.3911 181.653 47.3911H182.616C182.834 47.3911 182.983 47.251 183.027 47.1285L184.778 43.1715H193.296L195.073 47.1285C195.125 47.251 195.266 47.3911 195.484 47.3911H196.447C196.815 47.3911 196.999 47.0847 196.859 46.7695L189.61 30.6266C189.531 30.4866 189.418 30.364 189.199 30.364H188.962C188.744 30.364 188.621 30.4866 188.551 30.6266ZM190.906 37.757C191.488 39.0701 192.07 40.3833 192.657 41.6921H185.461L188.962 33.822H189.155C189.742 35.1307 190.324 36.4439 190.906 37.757ZM200.632 31.0556C200.632 30.8193 200.825 30.6004 201.088 30.6004H202.024C202.261 30.6004 202.48 30.8193 202.48 31.0556V45.7891H209.387C209.649 45.7891 209.842 46.0079 209.842 46.2443V46.9359C209.842 47.1723 209.649 47.3911 209.387 47.3911H201.088C200.825 47.3911 200.632 47.1723 200.632 46.9359V31.0556ZM214.017 30.6004C213.755 30.6004 213.562 30.8193 213.562 31.0556V46.9359C213.562 47.1723 213.755 47.3911 214.017 47.3911H222.316C222.579 47.3911 222.772 47.1723 222.772 46.9359V46.2443C222.772 46.0079 222.579 45.7891 222.316 45.7891H215.409V31.0556C215.409 30.8193 215.19 30.6004 214.954 30.6004H214.017Z" fill="white"/>
<defs>
<linearGradient id="paint0_linear_2264_8955" x1="1571.7" y1="23.6609" x2="1571.7" y2="3091.47" gradientUnits="userSpaceOnUse">
<stop stop-color="#D6D6D6"/>
<stop offset="1" stop-color="#717171"/>
</linearGradient>
<linearGradient id="paint1_linear_2264_8955" x1="2739.83" y1="11.8618" x2="2739.83" y2="5439.52" gradientUnits="userSpaceOnUse">
<stop stop-color="#D6D6D6"/>
<stop offset="1" stop-color="#717171"/>
</linearGradient>
<linearGradient id="paint2_linear_2264_8955" x1="2156.16" y1="18.1548" x2="2156.16" y2="4265.88" gradientUnits="userSpaceOnUse">
<stop stop-color="#D6D6D6"/>
<stop offset="1" stop-color="#717171"/>
</linearGradient>
</defs>
</svg>
